<svg xmlns="http://www.w3.org/2000/svg" xmlns:xlink="http://www.w3.org/1999/xlink" width="800" zoomAndPan="magnify" viewBox="0 0 600 599.999999" height="800" preserveAspectRatio="xMidYMid meet" version="1.0"><defs><clipPath id="52172161b3"><path d="M 199 134.6875 L 395 134.6875 L 395 332 L 199 332 Z M 199 134.6875 " clip-rule="nonzero"/></clipPath><clipPath id="6889f501d3"><path d="M 230.695312 134.464844 L 363.148438 134.464844 C 364.183594 134.464844 365.21875 134.515625 366.246094 134.617188 C 367.277344 134.71875 368.300781 134.867188 369.316406 135.070312 C 370.332031 135.273438 371.335938 135.523438 372.324219 135.824219 C 373.316406 136.125 374.289062 136.472656 375.246094 136.871094 C 376.203125 137.265625 377.136719 137.710938 378.050781 138.199219 C 378.960938 138.6875 379.847656 139.21875 380.710938 139.792969 C 381.570312 140.367188 382.402344 140.984375 383.203125 141.640625 C 384 142.296875 384.765625 142.992188 385.5 143.726562 C 386.230469 144.457031 386.925781 145.226562 387.582031 146.027344 C 388.238281 146.824219 388.855469 147.65625 389.429688 148.519531 C 390.003906 149.378906 390.535156 150.265625 391.023438 151.179688 C 391.511719 152.09375 391.953125 153.027344 392.351562 153.984375 C 392.746094 154.941406 393.09375 155.917969 393.394531 156.90625 C 393.695312 157.898438 393.949219 158.902344 394.148438 159.917969 C 394.351562 160.933594 394.503906 161.957031 394.605469 162.988281 C 394.707031 164.019531 394.757812 165.050781 394.757812 166.089844 L 394.757812 299.425781 C 394.757812 300.460938 394.707031 301.492188 394.605469 302.523438 C 394.503906 303.554688 394.351562 304.578125 394.148438 305.59375 C 393.949219 306.609375 393.695312 307.613281 393.394531 308.605469 C 393.09375 309.59375 392.746094 310.570312 392.351562 311.527344 C 391.953125 312.484375 391.511719 313.417969 391.023438 314.332031 C 390.535156 315.246094 390.003906 316.132812 389.429688 316.992188 C 388.855469 317.855469 388.238281 318.6875 387.582031 319.488281 C 386.925781 320.289062 386.230469 321.054688 385.5 321.785156 C 384.765625 322.519531 384 323.214844 383.203125 323.871094 C 382.402344 324.527344 381.570312 325.144531 380.710938 325.71875 C 379.847656 326.292969 378.960938 326.828125 378.050781 327.316406 C 377.136719 327.804688 376.203125 328.246094 375.246094 328.640625 C 374.289062 329.039062 373.316406 329.386719 372.324219 329.6875 C 371.335938 329.988281 370.332031 330.238281 369.316406 330.441406 C 368.300781 330.644531 367.277344 330.792969 366.246094 330.894531 C 365.21875 330.996094 364.183594 331.046875 363.148438 331.050781 L 230.695312 331.050781 C 229.660156 331.046875 228.628906 330.996094 227.597656 330.898438 C 226.570312 330.796875 225.546875 330.644531 224.53125 330.441406 C 223.515625 330.238281 222.511719 329.988281 221.523438 329.6875 C 220.53125 329.386719 219.558594 329.039062 218.601562 328.640625 C 217.644531 328.246094 216.710938 327.804688 215.796875 327.316406 C 214.882812 326.828125 213.996094 326.292969 213.136719 325.71875 C 212.277344 325.144531 211.445312 324.527344 210.644531 323.871094 C 209.84375 323.214844 209.078125 322.519531 208.347656 321.785156 C 207.617188 321.054688 206.921875 320.289062 206.265625 319.488281 C 205.609375 318.6875 204.992188 317.855469 204.417969 316.992188 C 203.839844 316.132812 203.308594 315.246094 202.820312 314.332031 C 202.332031 313.417969 201.890625 312.484375 201.496094 311.527344 C 201.097656 310.570312 200.75 309.59375 200.449219 308.605469 C 200.148438 307.613281 199.898438 306.609375 199.695312 305.59375 C 199.496094 304.578125 199.34375 303.554688 199.242188 302.523438 C 199.140625 301.492188 199.089844 300.460938 199.089844 299.425781 L 199.089844 166.089844 C 199.089844 165.050781 199.140625 164.019531 199.242188 162.988281 C 199.34375 161.957031 199.496094 160.933594 199.695312 159.917969 C 199.898438 158.902344 200.148438 157.898438 200.449219 156.90625 C 200.75 155.917969 201.097656 154.941406 201.496094 153.984375 C 201.890625 153.027344 202.332031 152.09375 202.820312 151.179688 C 203.308594 150.265625 203.839844 149.378906 204.417969 148.519531 C 204.992188 147.65625 205.609375 146.824219 206.265625 146.027344 C 206.921875 145.226562 207.617188 144.457031 208.347656 143.726562 C 209.078125 142.992188 209.84375 142.296875 210.644531 141.640625 C 211.445312 140.984375 212.277344 140.367188 213.136719 139.792969 C 213.996094 139.21875 214.882812 138.6875 215.796875 138.199219 C 216.710938 137.710938 217.644531 137.265625 218.601562 136.871094 C 219.558594 136.472656 220.53125 136.125 221.523438 135.824219 C 222.511719 135.523438 223.515625 135.273438 224.53125 135.070312 C 225.546875 134.867188 226.570312 134.71875 227.597656 134.617188 C 228.628906 134.515625 229.660156 134.464844 230.695312 134.464844 Z M 230.695312 134.464844 " clip-rule="nonzero"/></clipPath><linearGradient x1="255.659415" gradientTransform="matrix(1.528414, 0, 0, 1.529254, -191.02269, -515.974529)" y1="554.292212" x2="382.753285" gradientUnits="userSpaceOnUse" y2="424.977908" id="b4ac024e0b"><stop stop-opacity="1" stop-color="rgb(2.69928%, 0.39978%, 20.799255%)" offset="0"/><stop stop-opacity="1" stop-color="rgb(2.853394%, 0.474548%, 20.845032%)" offset="0.0625"/><stop stop-opacity="1" stop-color="rgb(3.161621%, 0.624084%, 20.93811%)" offset="0.0703125"/><stop stop-opacity="1" stop-color="rgb(3.4729%, 0.775146%, 21.031189%)" offset="0.078125"/><stop stop-opacity="1" stop-color="rgb(3.78418%, 0.927734%, 21.124268%)" offset="0.0859375"/><stop stop-opacity="1" stop-color="rgb(4.093933%, 1.078796%, 21.217346%)" offset="0.09375"/><stop stop-opacity="1" stop-color="rgb(4.405212%, 1.229858%, 21.310425%)" offset="0.101563"/><stop stop-opacity="1" stop-color="rgb(4.716492%, 1.38092%, 21.405029%)" offset="0.109375"/><stop stop-opacity="1" stop-color="rgb(5.027771%, 1.533508%, 21.498108%)" offset="0.117188"/><stop stop-opacity="1" stop-color="rgb(5.337524%, 1.68457%, 21.591187%)" offset="0.125"/><stop stop-opacity="1" stop-color="rgb(5.648804%, 1.835632%, 21.684265%)" offset="0.132812"/><stop stop-opacity="1" stop-color="rgb(5.960083%, 1.986694%, 21.777344%)" offset="0.140625"/><stop stop-opacity="1" stop-color="rgb(6.269836%, 2.139282%, 21.870422%)" offset="0.148438"/><stop stop-opacity="1" stop-color="rgb(6.581116%, 2.290344%, 21.965027%)" offset="0.15625"/><stop stop-opacity="1" stop-color="rgb(6.892395%, 2.441406%, 22.058105%)" offset="0.164062"/><stop stop-opacity="1" stop-color="rgb(7.203674%, 2.593994%, 22.151184%)" offset="0.171875"/><stop stop-opacity="1" stop-color="rgb(7.513428%, 2.745056%, 22.244263%)" offset="0.179688"/><stop stop-opacity="1" stop-color="rgb(7.824707%, 2.896118%, 22.337341%)" offset="0.1875"/><stop stop-opacity="1" stop-color="rgb(8.135986%, 3.04718%, 22.43042%)" offset="0.195312"/><stop stop-opacity="1" stop-color="rgb(8.44574%, 3.199768%, 22.525024%)" offset="0.203125"/><stop stop-opacity="1" stop-color="rgb(8.757019%, 3.35083%, 22.618103%)" offset="0.210938"/><stop stop-opacity="1" stop-color="rgb(9.068298%, 3.501892%, 22.711182%)" offset="0.21875"/><stop stop-opacity="1" stop-color="rgb(9.379578%, 3.652954%, 22.80426%)" offset="0.226562"/><stop stop-opacity="1" stop-color="rgb(9.689331%, 3.805542%, 22.897339%)" offset="0.234375"/><stop stop-opacity="1" stop-color="rgb(10.00061%, 3.956604%, 22.990417%)" offset="0.242188"/><stop stop-opacity="1" stop-color="rgb(10.31189%, 4.107666%, 23.085022%)" offset="0.25"/><stop stop-opacity="1" stop-color="rgb(10.621643%, 4.258728%, 23.178101%)" offset="0.257813"/><stop stop-opacity="1" stop-color="rgb(10.932922%, 4.411316%, 23.271179%)" offset="0.265625"/><stop stop-opacity="1" stop-color="rgb(11.244202%, 4.562378%, 23.364258%)" offset="0.273438"/><stop stop-opacity="1" stop-color="rgb(11.555481%, 4.71344%, 23.457336%)" offset="0.28125"/><stop stop-opacity="1" stop-color="rgb(11.865234%, 4.864502%, 23.550415%)" offset="0.289063"/><stop stop-opacity="1" stop-color="rgb(12.176514%, 5.01709%, 23.64502%)" offset="0.296875"/><stop stop-opacity="1" stop-color="rgb(12.487793%, 5.168152%, 23.738098%)" offset="0.304688"/><stop stop-opacity="1" stop-color="rgb(12.797546%, 5.319214%, 23.831177%)" offset="0.3125"/><stop stop-opacity="1" stop-color="rgb(13.108826%, 5.470276%, 23.924255%)" offset="0.320312"/><stop stop-opacity="1" stop-color="rgb(13.420105%, 5.622864%, 24.017334%)" offset="0.328125"/><stop stop-opacity="1" stop-color="rgb(13.729858%, 5.773926%, 24.111938%)" offset="0.335938"/><stop stop-opacity="1" stop-color="rgb(14.041138%, 5.924988%, 24.205017%)" offset="0.34375"/><stop stop-opacity="1" stop-color="rgb(14.352417%, 6.07605%, 24.298096%)" offset="0.351562"/><stop stop-opacity="1" stop-color="rgb(14.663696%, 6.228638%, 24.391174%)" offset="0.359375"/><stop stop-opacity="1" stop-color="rgb(14.97345%, 6.3797%, 24.484253%)" offset="0.367188"/><stop stop-opacity="1" stop-color="rgb(15.284729%, 6.530762%, 24.577332%)" offset="0.375"/><stop stop-opacity="1" stop-color="rgb(15.596008%, 6.681824%, 24.671936%)" offset="0.382812"/><stop stop-opacity="1" stop-color="rgb(15.905762%, 6.834412%, 24.765015%)" offset="0.390625"/><stop stop-opacity="1" stop-color="rgb(16.217041%, 6.985474%, 24.858093%)" offset="0.398438"/><stop stop-opacity="1" stop-color="rgb(16.52832%, 7.136536%, 24.951172%)" offset="0.40625"/><stop stop-opacity="1" stop-color="rgb(16.8396%, 7.289124%, 25.04425%)" offset="0.414063"/><stop stop-opacity="1" stop-color="rgb(17.149353%, 7.440186%, 25.137329%)" offset="0.421875"/><stop stop-opacity="1" stop-color="rgb(17.460632%, 7.591248%, 25.231934%)" offset="0.429688"/><stop stop-opacity="1" stop-color="rgb(17.771912%, 7.74231%, 25.325012%)" offset="0.4375"/><stop stop-opacity="1" stop-color="rgb(18.081665%, 7.894897%, 25.418091%)" offset="0.445313"/><stop stop-opacity="1" stop-color="rgb(18.392944%, 8.045959%, 25.511169%)" offset="0.453125"/><stop stop-opacity="1" stop-color="rgb(18.704224%, 8.197021%, 25.604248%)" offset="0.460938"/><stop stop-opacity="1" stop-color="rgb(19.015503%, 8.348083%, 25.697327%)" offset="0.46875"/><stop stop-opacity="1" stop-color="rgb(19.325256%, 8.500671%, 25.791931%)" offset="0.476562"/><stop stop-opacity="1" stop-color="rgb(19.636536%, 8.651733%, 25.88501%)" offset="0.484375"/><stop stop-opacity="1" stop-color="rgb(19.947815%, 8.802795%, 25.978088%)" offset="0.492188"/><stop stop-opacity="1" stop-color="rgb(20.257568%, 8.953857%, 26.071167%)" offset="0.494921"/><stop stop-opacity="1" stop-color="rgb(20.413208%, 9.030151%, 26.118469%)" offset="0.5"/><stop stop-opacity="1" stop-color="rgb(20.568848%, 9.106445%, 26.164246%)" offset="0.505079"/><stop stop-opacity="1" stop-color="rgb(20.724487%, 9.182739%, 26.211548%)" offset="0.507812"/><stop stop-opacity="1" stop-color="rgb(20.880127%, 9.257507%, 26.257324%)" offset="0.515625"/><stop stop-opacity="1" stop-color="rgb(21.191406%, 9.408569%, 26.351929%)" offset="0.523438"/><stop stop-opacity="1" stop-color="rgb(21.50116%, 9.559631%, 26.445007%)" offset="0.53125"/><stop stop-opacity="1" stop-color="rgb(21.812439%, 9.712219%, 26.538086%)" offset="0.539063"/><stop stop-opacity="1" stop-color="rgb(22.123718%, 9.863281%, 26.631165%)" offset="0.546875"/><stop stop-opacity="1" stop-color="rgb(22.433472%, 10.014343%, 26.724243%)" offset="0.554688"/><stop stop-opacity="1" stop-color="rgb(22.744751%, 10.165405%, 26.817322%)" offset="0.5625"/><stop stop-opacity="1" stop-color="rgb(23.05603%, 10.317993%, 26.911926%)" offset="0.570312"/><stop stop-opacity="1" stop-color="rgb(23.36731%, 10.469055%, 27.005005%)" offset="0.578125"/><stop stop-opacity="1" stop-color="rgb(23.677063%, 10.620117%, 27.098083%)" offset="0.585938"/><stop stop-opacity="1" stop-color="rgb(23.988342%, 10.771179%, 27.191162%)" offset="0.59375"/><stop stop-opacity="1" stop-color="rgb(24.299622%, 10.923767%, 27.284241%)" offset="0.601562"/><stop stop-opacity="1" stop-color="rgb(24.609375%, 11.074829%, 27.378845%)" offset="0.609375"/><stop stop-opacity="1" stop-color="rgb(24.920654%, 11.225891%, 27.471924%)" offset="0.617188"/><stop stop-opacity="1" stop-color="rgb(25.231934%, 11.378479%, 27.565002%)" offset="0.625"/><stop stop-opacity="1" stop-color="rgb(25.541687%, 11.529541%, 27.658081%)" offset="0.632813"/><stop stop-opacity="1" stop-color="rgb(25.852966%, 11.680603%, 27.75116%)" offset="0.640625"/><stop stop-opacity="1" stop-color="rgb(26.164246%, 11.831665%, 27.844238%)" offset="0.648438"/><stop stop-opacity="1" stop-color="rgb(26.475525%, 11.984253%, 27.938843%)" offset="0.65625"/><stop stop-opacity="1" stop-color="rgb(26.785278%, 12.135315%, 28.031921%)" offset="0.664062"/><stop stop-opacity="1" stop-color="rgb(27.096558%, 12.286377%, 28.125%)" offset="0.671875"/><stop stop-opacity="1" stop-color="rgb(27.407837%, 12.437439%, 28.218079%)" offset="0.679688"/><stop stop-opacity="1" stop-color="rgb(27.71759%, 12.590027%, 28.311157%)" offset="0.6875"/><stop stop-opacity="1" stop-color="rgb(28.02887%, 12.741089%, 28.404236%)" offset="0.695312"/><stop stop-opacity="1" stop-color="rgb(28.340149%, 12.892151%, 28.49884%)" offset="0.703125"/><stop stop-opacity="1" stop-color="rgb(28.651428%, 13.043213%, 28.591919%)" offset="0.710938"/><stop stop-opacity="1" stop-color="rgb(28.961182%, 13.195801%, 28.684998%)" offset="0.71875"/><stop stop-opacity="1" stop-color="rgb(29.272461%, 13.346863%, 28.778076%)" offset="0.726563"/><stop stop-opacity="1" stop-color="rgb(29.58374%, 13.497925%, 28.871155%)" offset="0.734375"/><stop stop-opacity="1" stop-color="rgb(29.893494%, 13.648987%, 28.964233%)" offset="0.742188"/><stop stop-opacity="1" stop-color="rgb(30.204773%, 13.801575%, 29.058838%)" offset="0.75"/><stop stop-opacity="1" stop-color="rgb(30.516052%, 13.952637%, 29.151917%)" offset="0.757813"/><stop stop-opacity="1" stop-color="rgb(30.827332%, 14.103699%, 29.244995%)" offset="0.765625"/><stop stop-opacity="1" stop-color="rgb(31.137085%, 14.254761%, 29.338074%)" offset="0.773438"/><stop stop-opacity="1" stop-color="rgb(31.448364%, 14.407349%, 29.431152%)" offset="0.78125"/><stop stop-opacity="1" stop-color="rgb(31.759644%, 14.558411%, 29.524231%)" offset="0.789062"/><stop stop-opacity="1" stop-color="rgb(32.069397%, 14.709473%, 29.618835%)" offset="0.796875"/><stop stop-opacity="1" stop-color="rgb(32.380676%, 14.860535%, 29.711914%)" offset="0.804688"/><stop stop-opacity="1" stop-color="rgb(32.691956%, 15.013123%, 29.804993%)" offset="0.8125"/><stop stop-opacity="1" stop-color="rgb(33.003235%, 15.164185%, 29.898071%)" offset="0.820312"/><stop stop-opacity="1" stop-color="rgb(33.312988%, 15.315247%, 29.99115%)" offset="0.828125"/><stop stop-opacity="1" stop-color="rgb(33.624268%, 15.466309%, 30.084229%)" offset="0.835938"/><stop stop-opacity="1" stop-color="rgb(33.935547%, 15.618896%, 30.178833%)" offset="0.84375"/><stop stop-opacity="1" stop-color="rgb(34.2453%, 15.769958%, 30.271912%)" offset="0.851563"/><stop stop-opacity="1" stop-color="rgb(34.55658%, 15.921021%, 30.36499%)" offset="0.859375"/><stop stop-opacity="1" stop-color="rgb(34.867859%, 16.073608%, 30.458069%)" offset="0.867188"/><stop stop-opacity="1" stop-color="rgb(35.179138%, 16.22467%, 30.551147%)" offset="0.875"/><stop stop-opacity="1" stop-color="rgb(35.488892%, 16.375732%, 30.644226%)" offset="0.882813"/><stop stop-opacity="1" stop-color="rgb(35.800171%, 16.526794%, 30.738831%)" offset="0.890625"/><stop stop-opacity="1" stop-color="rgb(36.11145%, 16.679382%, 30.831909%)" offset="0.898437"/><stop stop-opacity="1" stop-color="rgb(36.421204%, 16.830444%, 30.924988%)" offset="0.90625"/><stop stop-opacity="1" stop-color="rgb(36.732483%, 16.981506%, 31.018066%)" offset="0.914062"/><stop stop-opacity="1" stop-color="rgb(37.043762%, 17.132568%, 31.111145%)" offset="0.921875"/><stop stop-opacity="1" stop-color="rgb(37.355042%, 17.285156%, 31.20575%)" offset="0.929688"/><stop stop-opacity="1" stop-color="rgb(37.664795%, 17.436218%, 31.298828%)" offset="0.9375"/><stop stop-opacity="1" stop-color="rgb(37.908936%, 17.555237%, 31.37207%)" offset="1"/></linearGradient><clipPath id="4bf7acd347"><path d="M 235 352 L 591 352 L 591 465.4375 L 235 465.4375 Z M 235 352 " clip-rule="nonzero"/></clipPath></defs><g clip-path="url(#52172161b3)"><g clip-path="url(#6889f501d3)"><path fill="url(#b4ac024e0b)" d="M 199.089844 134.6875 L 199.089844 331.050781 L 394.757812 331.050781 L 394.757812 134.6875 Z M 199.089844 134.6875 " fill-rule="nonzero"/></g></g><path fill="#ffffff" d="M 298.390625 219.078125 C 303.386719 219.078125 307.175781 218.007812 309.757812 215.816406 C 312.339844 213.625 313.628906 210.433594 313.628906 206.191406 C 313.628906 202.003906 312.339844 198.824219 309.757812 196.648438 C 307.160156 194.417969 303.386719 193.304688 298.390625 193.304688 L 280.84375 193.304688 L 280.84375 219.078125 L 298.390625 219.078125 M 299.460938 272.335938 C 305.828125 272.335938 310.605469 271.007812 313.792969 268.34375 C 317.03125 265.679688 318.652344 261.65625 318.652344 256.269531 C 318.652344 250.996094 317.058594 247.054688 313.875 244.445312 C 310.691406 241.78125 305.886719 240.449219 299.460938 240.449219 L 280.847656 240.449219 L 280.847656 272.339844 L 299.460938 272.339844 M 328.949219 228.542969 C 335.757812 230.5 341.03125 234.117188 344.765625 239.390625 C 348.5 244.664062 350.363281 251.132812 350.367188 258.800781 C 350.367188 270.546875 346.355469 279.300781 338.339844 285.066406 C 330.324219 290.828125 318.132812 293.710938 301.769531 293.710938 L 249.136719 293.710938 L 249.136719 171.964844 L 296.746094 171.964844 C 313.824219 171.964844 326.179688 174.519531 333.8125 179.632812 C 341.5 184.742188 345.34375 192.929688 345.34375 204.183594 C 345.34375 210.109375 343.945312 215.167969 341.144531 219.355469 C 338.34375 223.484375 334.265625 226.542969 328.953125 228.570312 " fill-opacity="1" fill-rule="nonzero"/><path fill="#00d8ff" d="M 22.480469 396.4375 L 22.480469 429.511719 L 42.066406 429.511719 C 48.625 429.511719 53.492188 428.160156 56.636719 425.460938 C 59.820312 422.71875 61.402344 418.542969 61.402344 412.949219 C 61.402344 407.375 59.8125 403.152344 56.636719 400.488281 C 53.492188 397.789062 48.640625 396.4375 42.066406 396.4375 L 22.480469 396.4375 M 22.480469 359.300781 L 22.480469 386.519531 L 40.554688 386.519531 C 46.523438 386.519531 50.953125 385.40625 53.851562 383.195312 C 56.792969 380.933594 58.265625 377.507812 58.265625 372.914062 C 58.265625 368.355469 56.792969 364.949219 53.851562 362.691406 C 50.910156 360.4375 46.515625 359.304688 40.554688 359.304688 L 22.480469 359.304688 M 10.265625 349.269531 L 41.464844 349.269531 C 50.773438 349.269531 57.949219 351.210938 62.988281 355.082031 C 68.027344 358.953125 70.539062 364.457031 70.539062 371.59375 C 70.539062 377.117188 69.253906 381.515625 66.671875 384.785156 C 64.089844 388.058594 60.296875 390.089844 55.304688 390.894531 C 61.3125 392.183594 65.964844 394.890625 69.273438 398.945312 C 72.613281 403.019531 74.222656 408.113281 74.222656 414.246094 C 74.222656 422.308594 71.480469 428.539062 66.003906 432.9375 C 60.523438 437.335938 52.726562 439.527344 42.605469 439.527344 L 10.203125 439.527344 L 10.203125 349.242188 " fill-opacity="1" fill-rule="nonzero"/><path fill="#00d8ff" d="M 120.273438 379.613281 C 118.898438 379.570312 117.535156 379.691406 116.191406 379.984375 C 114.84375 380.273438 113.550781 380.726562 112.316406 381.339844 C 111.082031 381.953125 109.941406 382.707031 108.894531 383.601562 C 107.847656 384.496094 106.925781 385.507812 106.128906 386.632812 C 102.664062 391.277344 100.929688 397.640625 100.929688 405.746094 C 100.929688 413.855469 102.644531 420.238281 106.066406 424.921875 C 109.535156 429.566406 114.269531 431.878906 120.273438 431.878906 C 121.648438 431.921875 123.003906 431.796875 124.34375 431.503906 C 125.6875 431.210938 126.972656 430.757812 128.199219 430.144531 C 129.429688 429.535156 130.566406 428.78125 131.605469 427.886719 C 132.648438 426.992188 133.566406 425.984375 134.359375 424.859375 C 137.824219 420.183594 139.558594 413.8125 139.558594 405.746094 C 139.558594 397.71875 137.824219 391.375 134.359375 386.695312 C 130.890625 381.976562 126.199219 379.613281 120.273438 379.613281 M 120.273438 370.179688 C 129.945312 370.179688 137.609375 373.328125 143.066406 379.613281 C 148.527344 385.902344 151.351562 394.617188 151.351562 405.753906 C 151.351562 416.890625 148.589844 425.554688 143.066406 431.890625 C 137.546875 438.183594 129.945312 441.324219 120.273438 441.324219 C 110.554688 441.324219 102.941406 438.175781 97.371094 431.890625 C 91.890625 425.5625 89.148438 416.851562 89.148438 405.753906 C 89.148438 394.621094 91.890625 385.914062 97.371094 379.613281 C 102.890625 373.320312 110.507812 370.179688 120.273438 370.179688 " fill-opacity="1" fill-rule="nonzero"/><path fill="#00d8ff" d="M 195.347656 379.613281 C 193.96875 379.570312 192.605469 379.691406 191.261719 379.984375 C 189.914062 380.273438 188.625 380.726562 187.390625 381.339844 C 186.15625 381.953125 185.015625 382.707031 183.96875 383.601562 C 182.917969 384.496094 181.996094 385.507812 181.199219 386.632812 C 177.734375 391.277344 176 397.640625 176 405.746094 C 176 413.855469 177.714844 420.238281 181.140625 424.921875 C 184.605469 429.566406 189.339844 431.878906 195.347656 431.878906 C 196.71875 431.921875 198.074219 431.796875 199.417969 431.503906 C 200.757812 431.210938 202.042969 430.757812 203.273438 430.144531 C 204.5 429.535156 205.636719 428.78125 206.679688 427.886719 C 207.71875 426.992188 208.636719 425.984375 209.429688 424.859375 C 212.894531 420.183594 214.628906 413.8125 214.628906 405.746094 C 214.628906 397.71875 212.894531 391.375 209.429688 386.695312 C 205.960938 381.976562 201.269531 379.613281 195.347656 379.613281 M 195.347656 370.179688 C 205.015625 370.179688 212.679688 373.328125 218.140625 379.613281 C 223.597656 385.902344 226.421875 394.617188 226.421875 405.753906 C 226.421875 416.890625 223.660156 425.554688 218.140625 431.890625 C 212.617188 438.183594 205.015625 441.324219 195.347656 441.324219 C 185.628906 441.324219 178.011719 438.175781 172.441406 431.890625 C 166.964844 425.5625 164.21875 416.851562 164.21875 405.753906 C 164.21875 394.621094 166.964844 385.914062 172.441406 379.613281 C 177.964844 373.320312 185.578125 370.179688 195.347656 370.179688 " fill-opacity="1" fill-rule="nonzero"/><g clip-path="url(#4bf7acd347)"><path fill="#00d8ff" d="M 255.175781 352.574219 L 255.175781 371.804688 L 278.082031 371.804688 L 278.082031 380.449219 L 255.175781 380.449219 L 255.175781 417.230469 C 255.175781 422.753906 255.917969 426.304688 257.40625 427.882812 C 258.933594 429.457031 262.015625 430.238281 266.652344 430.238281 L 278.082031 430.238281 L 278.082031 439.550781 L 266.648438 439.550781 C 258.0625 439.550781 252.136719 437.960938 248.878906 434.78125 C 245.617188 431.5625 243.929688 425.710938 243.929688 417.242188 L 243.929688 380.449219 L 235.769531 380.449219 L 235.769531 371.804688 L 243.929688 371.804688 L 243.929688 352.585938 L 255.113281 352.585938 M 335.253906 373.8125 L 335.253906 384.339844 C 332.136719 382.734375 328.875 381.527344 325.460938 380.710938 C 322.078125 379.90625 318.574219 379.503906 314.9375 379.503906 C 309.417969 379.503906 305.261719 380.351562 302.484375 381.980469 C 299.742188 383.671875 298.375 386.21875 298.375 389.597656 C 298.375 392.183594 299.363281 394.214844 301.34375 395.707031 C 303.324219 397.15625 307.289062 398.554688 313.253906 399.882812 L 317.0625 400.730469 C 324.960938 402.421875 330.558594 404.816406 333.867188 407.925781 C 337.210938 410.992188 338.820312 415.285156 338.820312 420.808594 C 338.867188 422.265625 338.734375 423.703125 338.421875 425.125 C 338.109375 426.546875 337.628906 427.910156 336.984375 429.214844 C 336.335938 430.515625 335.539062 431.722656 334.589844 432.828125 C 333.644531 433.933594 332.578125 434.90625 331.394531 435.75 C 326.441406 439.417969 319.605469 441.324219 310.964844 441.324219 C 307.335938 441.324219 303.546875 440.953125 299.597656 440.234375 C 295.6875 439.613281 291.550781 438.5 287.207031 437.085938 L 287.207031 425.597656 C 291.316406 427.734375 295.363281 429.34375 299.355469 430.429688 C 303.238281 431.464844 307.1875 431.988281 311.207031 432.003906 C 316.441406 432.003906 320.472656 431.117188 323.296875 429.339844 C 326.117188 427.523438 327.53125 424.984375 327.53125 421.71875 C 327.53125 418.699219 326.503906 416.375 324.445312 414.765625 C 322.429688 413.15625 317.976562 411.667969 311.089844 410.105469 L 307.21875 409.203125 C 300.328125 407.753906 295.351562 405.535156 292.289062 402.550781 C 289.222656 399.527344 287.695312 395.390625 287.695312 390.152344 C 287.695312 383.769531 289.953125 378.859375 294.46875 375.390625 C 298.980469 371.921875 305.386719 370.1875 313.6875 370.1875 C 317.582031 370.167969 321.453125 370.46875 325.296875 371.09375 C 328.734375 371.644531 332.082031 372.550781 335.328125 373.8125 M 367.105469 352.566406 L 367.105469 371.796875 L 390.011719 371.796875 L 390.011719 380.445312 L 367.105469 380.445312 L 367.105469 417.222656 C 367.105469 422.75 367.847656 426.296875 369.332031 427.878906 C 370.863281 429.449219 373.945312 430.230469 378.582031 430.230469 L 390.023438 430.230469 L 390.023438 439.546875 L 378.59375 439.546875 C 370.007812 439.546875 364.085938 437.953125 360.828125 434.777344 C 357.566406 431.554688 355.875 425.703125 355.875 417.234375 L 355.875 380.445312 L 347.71875 380.445312 L 347.71875 371.796875 L 355.875 371.796875 L 355.875 352.585938 L 367.117188 352.585938 M 443.261719 382.222656 C 441.972656 381.480469 440.601562 380.957031 439.148438 380.648438 C 437.5625 380.265625 435.953125 380.082031 434.320312 380.105469 C 428.03125 380.105469 423.195312 382.160156 419.8125 386.273438 C 416.46875 390.347656 414.859375 396.214844 414.859375 403.875 L 414.859375 439.566406 L 403.671875 439.566406 L 403.671875 371.804688 L 414.859375 371.804688 L 414.859375 382.332031 C 417.199219 378.222656 420.242188 375.175781 423.988281 373.199219 C 427.734375 371.179688 432.285156 370.175781 437.652344 370.175781 C 438.5 370.179688 439.347656 370.242188 440.1875 370.355469 L 443.273438 370.777344 L 443.335938 382.210938 M 485.269531 405.5 C 476.28125 405.5 470.050781 406.527344 466.585938 408.582031 C 463.117188 410.640625 461.386719 414.144531 461.386719 419.113281 C 461.386719 423.066406 462.671875 426.210938 465.253906 428.546875 C 467.871094 430.835938 471.421875 431.996094 475.902344 431.996094 C 482.066406 431.996094 487.007812 429.816406 490.714844 425.460938 C 494.460938 421.125 496.335938 415.242188 496.335938 407.984375 L 496.335938 405.503906 L 485.273438 405.503906 M 507.460938 400.910156 L 507.460938 439.558594 L 496.335938 439.558594 L 496.335938 429.277344 C 493.859375 433.390625 490.640625 436.4375 486.847656 438.414062 C 483.058594 440.34375 478.425781 441.324219 472.941406 441.324219 C 466.007812 441.324219 460.488281 439.390625 456.378906 435.519531 C 452.304688 431.605469 450.273438 426.382812 450.273438 419.851562 C 450.273438 412.230469 452.75 406.484375 457.886719 402.613281 C 463.027344 398.742188 470.621094 396.808594 480.792969 396.808594 L 496.390625 396.808594 L 496.390625 395.71875 C 496.390625 390.597656 494.703125 386.644531 491.316406 383.863281 C 487.972656 381.039062 483.257812 379.628906 477.171875 379.628906 C 473.300781 379.628906 469.53125 380.089844 465.867188 381.019531 C 462.164062 381.960938 458.636719 383.351562 455.289062 385.195312 L 455.289062 374.914062 C 459.359375 373.339844 463.3125 372.167969 467.136719 371.40625 C 470.824219 370.617188 474.550781 370.214844 478.324219 370.199219 C 488.117188 370.199219 495.433594 372.675781 500.265625 377.820312 C 505.101562 382.960938 507.523438 390.601562 507.523438 400.921875 M 540.640625 429.386719 L 540.640625 465.3125 L 529.457031 465.3125 L 529.457031 371.8125 L 540.640625 371.8125 L 540.640625 382.09375 C 542.980469 378.066406 545.921875 375.074219 549.46875 373.140625 C 553.058594 371.160156 557.332031 370.167969 562.28125 370.167969 C 564.21875 370.125 566.136719 370.308594 568.027344 370.726562 C 569.921875 371.140625 571.738281 371.777344 573.480469 372.628906 C 575.222656 373.480469 576.835938 374.527344 578.324219 375.769531 C 579.816406 377.007812 581.136719 378.410156 582.289062 379.96875 C 587.445312 386.503906 590.027344 395.082031 590.027344 405.734375 C 590.027344 416.386719 587.445312 424.964844 582.289062 431.5 C 581.136719 433.058594 579.816406 434.457031 578.324219 435.699219 C 576.835938 436.941406 575.222656 437.988281 573.480469 438.839844 C 571.738281 439.691406 569.921875 440.328125 568.027344 440.742188 C 566.136719 441.15625 564.222656 441.34375 562.28125 441.300781 C 557.332031 441.300781 552.996094 440.332031 549.46875 438.386719 C 545.921875 436.40625 542.980469 433.40625 540.640625 429.375 M 578.484375 405.726562 C 578.484375 397.539062 576.792969 391.128906 573.40625 386.496094 C 570.0625 381.820312 565.445312 379.476562 559.566406 379.476562 C 558.207031 379.433594 556.859375 379.554688 555.53125 379.847656 C 554.203125 380.140625 552.933594 380.59375 551.714844 381.207031 C 550.5 381.820312 549.382812 382.574219 548.355469 383.472656 C 547.332031 384.367188 546.433594 385.375 545.660156 386.496094 C 542.320312 391.140625 540.710938 397.546875 540.710938 405.726562 C 540.710938 413.910156 542.378906 420.34375 545.660156 425.023438 C 549.046875 429.667969 553.683594 431.976562 559.566406 431.976562 C 565.445312 431.976562 570.0625 429.660156 573.40625 425.023438 C 576.792969 420.34375 578.484375 413.910156 578.484375 405.726562 " fill-opacity="1" fill-rule="nonzero"/></g></svg>