<svg xmlns="http://www.w3.org/2000/svg" xmlns:xlink="http://www.w3.org/1999/xlink" width="800" zoomAndPan="magnify" viewBox="0 0 600 599.999999" height="800" preserveAspectRatio="xMidYMid meet" version="1.0"><defs><clipPath id="7bb9c601d0"><path d="M 94.304688 123 L 506 123 L 506 590.417969 L 94.304688 590.417969 Z M 94.304688 123 " clip-rule="nonzero"/></clipPath><clipPath id="a046164060"><path d="M 191 9.917969 L 254 9.917969 L 254 89 L 191 89 Z M 191 9.917969 " clip-rule="nonzero"/></clipPath><clipPath id="9630762691"><path d="M 266 9.917969 L 329 9.917969 L 329 90 L 266 90 Z M 266 9.917969 " clip-rule="nonzero"/></clipPath><clipPath id="1462864f91"><path d="M 341 9.917969 L 404 9.917969 L 404 90 L 341 90 Z M 341 9.917969 " clip-rule="nonzero"/></clipPath></defs><g clip-path="url(#7bb9c601d0)"><path fill="#264de4" d="M 300 590.398438 L 132.007812 543.78125 L 94.574219 124 L 505.929688 123.996094 L 468.472656 543.707031 L 300.011719 590.394531 Z M 300 590.398438 " fill-opacity="1" fill-rule="nonzero"/></g><path fill="#2965f1" d="M 436.390625 516.988281 L 468.414062 158.320312 L 300.261719 158.316406 L 300.261719 554.703125 L 436.390625 516.984375 Z M 436.390625 516.988281 " fill-opacity="1" fill-rule="nonzero"/><path fill="#e6ed7d" d="M 180.398438 314.015625 L 185.015625 365.488281 L 300.261719 365.488281 L 300.261719 314.015625 Z M 180.398438 314.015625 " fill-opacity="1" fill-rule="nonzero"/><path fill="#e6ed7d" d="M 171.125 209.792969 L 175.804688 261.285156 L 300.261719 261.285156 L 300.261719 209.792969 Z M 171.125 209.792969 " fill-opacity="1" fill-rule="nonzero"/><path fill="#e6ed7d" d="M 300.261719 447.71875 L 300.035156 447.78125 L 242.679688 432.289062 L 239.011719 391.230469 L 187.316406 391.230469 L 194.53125 472.074219 L 300.019531 501.351562 L 300.261719 501.285156 Z M 300.261719 447.71875 " fill-opacity="1" fill-rule="nonzero"/><g clip-path="url(#a046164060)"><path fill="#f179c1" d="M 191.386719 9.917969 L 253.761719 9.917969 L 253.761719 35.992188 L 217.472656 35.992188 L 217.472656 62.070312 L 253.761719 62.070312 L 253.761719 88.144531 L 191.386719 88.144531 Z M 191.386719 9.917969 " fill-opacity="1" fill-rule="nonzero"/></g><g clip-path="url(#9630762691)"><path fill="#f179c1" d="M 266.234375 9.917969 L 328.609375 9.917969 L 328.609375 32.589844 L 292.328125 32.589844 L 292.328125 37.125 L 328.609375 37.125 L 328.609375 89.277344 L 266.234375 89.277344 L 266.234375 65.472656 L 302.535156 65.472656 L 302.535156 60.933594 L 266.234375 60.933594 Z M 266.234375 9.917969 " fill-opacity="1" fill-rule="nonzero"/></g><g clip-path="url(#1462864f91)"><path fill="#f179c1" d="M 341.089844 9.917969 L 403.460938 9.917969 L 403.460938 32.589844 L 367.164062 32.589844 L 367.164062 37.125 L 403.460938 37.125 L 403.460938 89.277344 L 341.089844 89.277344 L 341.089844 65.472656 L 377.371094 65.472656 L 377.371094 60.933594 L 341.089844 60.933594 Z M 341.089844 9.917969 " fill-opacity="1" fill-rule="nonzero"/></g><path fill="#e6ed7d" d="M 419.796875 314.015625 L 429.085938 209.792969 L 300.082031 209.792969 L 300.082031 261.285156 L 372.644531 261.285156 L 367.96875 314.015625 L 300.082031 314.015625 L 300.082031 365.488281 L 363.503906 365.488281 L 357.519531 432.257812 L 300.082031 447.765625 L 300.082031 501.316406 L 405.65625 472.074219 L 406.429688 463.371094 L 418.539062 327.828125 Z M 419.796875 314.015625 " fill-opacity="1" fill-rule="nonzero"/></svg>