<svg xmlns="http://www.w3.org/2000/svg" xmlns:xlink="http://www.w3.org/1999/xlink" width="150" zoomAndPan="magnify" viewBox="0 0 112.5 112.499997" height="150" preserveAspectRatio="xMidYMid meet" version="1.0"><defs><clipPath id="33e65716ec"><path d="M 4.265625 12.386719 L 108.515625 12.386719 L 108.515625 100 L 4.265625 100 Z M 4.265625 12.386719 " clip-rule="nonzero"/></clipPath><clipPath id="8d6efe652c"><path d="M 4.265625 44 L 108 44 L 108 58 L 4.265625 58 Z M 4.265625 44 " clip-rule="nonzero"/></clipPath></defs><g clip-path="url(#33e65716ec)"><path fill="#364548" d="M 20.023438 83.132812 L 20.023438 76.480469 C 20.023438 75.605469 20.570312 74.902344 21.476562 74.902344 L 21.726562 74.902344 C 22.636719 74.902344 23.179688 75.605469 23.179688 76.480469 L 23.179688 90.488281 C 23.179688 93.902344 21.488281 96.621094 18.542969 98.351562 C 17.167969 99.164062 15.679688 99.570312 14.082031 99.566406 L 13.453125 99.566406 C 10.03125 99.566406 7.308594 97.875 5.570312 94.9375 C 4.753906 93.566406 4.351562 92.082031 4.355469 90.488281 L 4.355469 89.863281 C 4.355469 86.445312 6.046875 83.730469 8.992188 81.996094 C 10.367188 81.179688 11.855469 80.773438 13.453125 80.78125 L 14.082031 80.78125 C 16.398438 80.78125 18.359375 81.675781 20.023438 83.132812 Z M 7.511719 90.175781 C 7.511719 92.644531 8.710938 94.5 10.878906 95.679688 C 11.753906 96.160156 12.707031 96.417969 13.707031 96.417969 C 16.132812 96.417969 17.933594 95.277344 19.175781 93.222656 C 19.753906 92.265625 20.023438 91.222656 20.023438 90.113281 C 20.023438 87.972656 19.003906 86.304688 17.277344 85.0625 C 16.230469 84.3125 15.050781 83.9375 13.765625 83.9375 C 11.121094 83.9375 9.214844 85.269531 8.074219 87.636719 C 7.6875 88.4375 7.511719 89.289062 7.511719 90.175781 Z M 34.136719 80.78125 L 34.574219 80.78125 C 38.234375 80.78125 41.015625 82.554688 42.78125 85.738281 C 43.484375 87.015625 43.863281 88.40625 43.863281 89.863281 L 43.863281 90.488281 C 43.863281 93.902344 42.175781 96.625 39.222656 98.355469 C 37.855469 99.152344 36.347656 99.566406 34.761719 99.566406 L 34.136719 99.566406 C 30.710938 99.566406 27.992188 97.878906 26.253906 94.941406 C 25.4375 93.566406 25.03125 92.082031 25.035156 90.488281 L 25.035156 89.863281 C 25.035156 86.445312 26.734375 83.738281 29.671875 81.996094 C 31.046875 81.179688 32.535156 80.773438 34.136719 80.78125 Z M 28.195312 90.175781 C 28.195312 92.574219 29.375 94.332031 31.398438 95.570312 C 32.351562 96.152344 33.398438 96.417969 34.511719 96.417969 C 36.886719 96.417969 38.636719 95.21875 39.859375 93.21875 C 40.441406 92.265625 40.703125 91.222656 40.703125 90.113281 C 40.703125 87.882812 39.628906 86.183594 37.789062 84.949219 C 36.78125 84.265625 35.667969 83.929688 34.449219 83.9375 C 31.804688 83.9375 29.898438 85.269531 28.757812 87.636719 C 28.371094 88.4375 28.195312 89.289062 28.195312 90.175781 Z M 56.992188 84.1875 C 56.515625 83.964844 55.621094 83.890625 55.105469 83.871094 C 52.46875 83.773438 50.558594 85.253906 49.4375 87.578125 C 49.050781 88.378906 48.875 89.226562 48.875 90.113281 C 48.875 92.8125 50.296875 94.699219 52.707031 95.851562 C 53.589844 96.273438 54.726562 96.351562 55.691406 96.351562 C 56.539062 96.351562 57.738281 95.835938 58.488281 95.476562 L 58.621094 95.417969 L 59.203125 95.417969 L 59.269531 95.429688 C 59.988281 95.578125 60.527344 96.03125 60.527344 96.804688 L 60.527344 97.117188 C 60.527344 99.035156 57.015625 99.472656 55.675781 99.566406 C 50.945312 99.894531 47.402344 97.300781 46.054688 92.796875 C 45.820312 92.015625 45.714844 91.238281 45.714844 90.425781 L 45.714844 89.800781 C 45.714844 86.382812 47.414062 83.675781 50.351562 81.9375 C 51.726562 81.117188 53.210938 80.710938 54.8125 80.714844 L 55.441406 80.714844 C 57.125 80.714844 58.671875 81.195312 60.0625 82.140625 L 60.175781 82.21875 L 60.25 82.339844 C 60.398438 82.582031 60.527344 82.875 60.527344 83.167969 L 60.527344 83.480469 C 60.527344 84.285156 59.925781 84.71875 59.199219 84.859375 L 59.136719 84.867188 L 58.949219 84.867188 C 58.480469 84.867188 57.40625 84.382812 56.988281 84.183594 Z M 67.234375 86.320312 L 70.9375 82.667969 C 71.285156 82.332031 72.597656 80.90625 73.113281 80.90625 L 73.679688 80.90625 L 73.746094 80.921875 C 74.464844 81.070312 75.003906 81.523438 75.003906 82.296875 L 75.003906 82.609375 C 75.003906 83.136719 74.386719 83.75 74.046875 84.113281 C 73.320312 84.882812 72.554688 85.625 71.8125 86.375 L 68 90.238281 L 72.910156 95.179688 C 73.363281 95.636719 73.8125 96.097656 74.257812 96.5625 C 74.414062 96.726562 74.644531 96.929688 74.777344 97.160156 C 74.917969 97.375 75.003906 97.617188 75.003906 97.871094 L 75.003906 98.199219 L 74.988281 98.273438 C 74.808594 98.992188 74.351562 99.570312 73.554688 99.570312 L 73.300781 99.570312 C 72.78125 99.570312 72.191406 98.980469 71.832031 98.644531 C 71.097656 97.949219 70.382812 97.222656 69.660156 96.511719 L 67.234375 94.136719 L 67.234375 97.933594 C 67.234375 98.808594 66.6875 99.511719 65.78125 99.511719 L 65.535156 99.511719 C 64.628906 99.511719 64.082031 98.808594 64.082031 97.933594 L 64.082031 76.546875 C 64.082031 75.671875 64.628906 74.972656 65.535156 74.972656 L 65.78125 74.972656 C 66.6875 74.972656 67.234375 75.671875 67.234375 76.546875 L 67.234375 86.324219 Z M 106.597656 80.90625 L 106.910156 80.90625 C 107.855469 80.90625 108.488281 81.542969 108.488281 82.484375 C 108.488281 83.789062 107.238281 84.121094 106.15625 84.121094 C 104.738281 84.121094 103.386719 84.980469 102.40625 85.941406 C 101.183594 87.140625 100.65625 88.675781 100.65625 90.363281 L 100.65625 97.992188 C 100.65625 98.867188 100.109375 99.566406 99.199219 99.566406 L 98.949219 99.566406 C 98.042969 99.566406 97.496094 98.867188 97.496094 97.992188 L 97.496094 89.925781 C 97.496094 86.828125 99.007812 84.300781 101.53125 82.527344 C 103.039062 81.46875 104.757812 80.910156 106.601562 80.910156 Z M 84.148438 96.023438 C 85.300781 96.425781 86.609375 96.367188 87.789062 96.164062 C 88.390625 95.90625 89.933594 95.234375 90.5 95.332031 L 90.589844 95.347656 L 90.671875 95.386719 C 91.019531 95.554688 91.347656 95.792969 91.523438 96.144531 C 91.9375 96.96875 91.738281 97.796875 90.929688 98.265625 L 90.65625 98.421875 C 87.664062 100.148438 84.476562 99.90625 81.488281 98.296875 C 80.0625 97.527344 78.96875 96.382812 78.164062 94.988281 L 77.976562 94.664062 C 76.050781 91.339844 76.3125 87.847656 78.480469 84.6875 C 79.230469 83.59375 80.207031 82.75 81.351562 82.089844 L 81.785156 81.839844 C 84.605469 80.214844 87.628906 80.328125 90.527344 81.753906 C 92.085938 82.519531 93.347656 83.664062 94.21875 85.167969 L 94.375 85.4375 C 95.003906 86.53125 94.1875 87.480469 93.34375 88.132812 C 92.363281 88.886719 91.371094 89.796875 90.433594 90.605469 L 84.152344 96.023438 Z M 81.4375 94.125 L 90.933594 85.976562 C 90.296875 85.175781 89.234375 84.601562 88.332031 84.257812 C 86.511719 83.5625 84.714844 83.796875 83.046875 84.757812 C 80.859375 86.019531 79.925781 88.023438 80.007812 90.519531 C 80.042969 91.503906 80.304688 92.453125 80.828125 93.289062 C 81.011719 93.582031 81.21875 93.859375 81.441406 94.125 Z M 64.398438 30.980469 L 73.714844 30.980469 L 73.714844 40.484375 L 78.429688 40.484375 C 80.605469 40.484375 82.84375 40.097656 84.902344 39.398438 C 85.914062 39.058594 87.050781 38.582031 88.050781 37.976562 C 86.734375 36.261719 86.0625 34.101562 85.867188 31.96875 C 85.597656 29.066406 86.183594 25.289062 88.152344 23.019531 L 89.132812 21.890625 L 90.300781 22.824219 C 93.234375 25.179688 95.710938 28.476562 96.144531 32.226562 C 99.683594 31.1875 103.839844 31.433594 106.957031 33.230469 L 108.238281 33.964844 L 107.566406 35.277344 C 104.929688 40.417969 99.410156 42.007812 94.019531 41.726562 C 85.953125 61.773438 68.386719 71.269531 47.085938 71.269531 C 36.082031 71.269531 25.984375 67.167969 20.238281 57.425781 L 20.144531 57.261719 L 19.304688 55.5625 C 17.363281 51.273438 16.714844 46.578125 17.152344 41.886719 L 17.285156 40.480469 L 25.253906 40.480469 L 25.253906 30.980469 L 34.574219 30.980469 L 34.574219 21.679688 L 53.210938 21.679688 L 53.210938 12.382812 L 64.394531 12.382812 L 64.394531 30.980469 " fill-opacity="1" fill-rule="evenodd"/></g><path fill="#22a0c8" d="M 94.585938 34.5 C 95.210938 29.65625 91.578125 25.847656 89.324219 24.042969 C 86.726562 27.039062 86.324219 34.890625 90.398438 38.195312 C 88.125 40.210938 83.332031 42.039062 78.425781 42.039062 L 18.695312 42.039062 C 18.21875 47.148438 19.121094 51.855469 21.171875 55.882812 L 21.851562 57.121094 C 22.28125 57.851562 22.753906 58.550781 23.261719 59.230469 C 25.714844 59.386719 27.980469 59.441406 30.050781 59.394531 C 34.121094 59.304688 37.445312 58.824219 39.960938 57.957031 C 40.144531 57.898438 40.324219 57.914062 40.496094 58 C 40.671875 58.085938 40.789062 58.222656 40.851562 58.40625 C 40.914062 58.585938 40.90625 58.765625 40.824219 58.941406 C 40.742188 59.117188 40.613281 59.238281 40.429688 59.308594 C 40.09375 59.425781 39.746094 59.53125 39.386719 59.636719 C 37.402344 60.203125 35.277344 60.582031 32.535156 60.75 C 32.699219 60.75 32.367188 60.773438 32.367188 60.773438 C 32.273438 60.78125 32.15625 60.792969 32.0625 60.796875 C 30.980469 60.859375 29.816406 60.871094 28.625 60.871094 C 27.324219 60.871094 26.039062 60.847656 24.605469 60.773438 L 24.566406 60.796875 C 29.539062 66.378906 37.324219 69.726562 47.078125 69.726562 C 67.71875 69.726562 85.226562 60.59375 92.980469 40.101562 C 98.480469 40.664062 103.769531 39.261719 106.171875 34.578125 C 102.34375 32.375 97.417969 33.078125 94.582031 34.5 " fill-opacity="1" fill-rule="evenodd"/><path fill="#37b1d9" d="M 94.585938 34.5 C 95.210938 29.65625 91.578125 25.847656 89.324219 24.042969 C 86.726562 27.039062 86.324219 34.890625 90.398438 38.195312 C 88.125 40.210938 83.332031 42.039062 78.425781 42.039062 L 22.234375 42.039062 C 21.992188 49.863281 24.902344 55.804688 30.050781 59.394531 L 30.054688 59.394531 C 34.125 59.304688 37.445312 58.824219 39.960938 57.957031 C 40.148438 57.898438 40.324219 57.914062 40.5 58 C 40.671875 58.085938 40.789062 58.222656 40.851562 58.40625 C 40.917969 58.585938 40.90625 58.765625 40.824219 58.941406 C 40.742188 59.117188 40.613281 59.238281 40.429688 59.308594 C 40.097656 59.425781 39.746094 59.53125 39.386719 59.636719 C 37.402344 60.203125 35.097656 60.628906 32.355469 60.796875 C 32.351562 60.796875 32.289062 60.734375 32.285156 60.734375 C 39.3125 64.332031 49.5 64.3125 61.175781 59.839844 C 74.273438 54.820312 86.457031 45.257812 94.964844 34.324219 C 94.839844 34.378906 94.714844 34.4375 94.589844 34.5 " fill-opacity="1" fill-rule="evenodd"/><path fill="#1b81a5" d="M 18.8125 48.246094 C 19.179688 50.984375 19.984375 53.546875 21.175781 55.882812 L 21.855469 57.121094 C 22.285156 57.851562 22.753906 58.554688 23.261719 59.230469 C 25.71875 59.386719 27.980469 59.441406 30.054688 59.394531 C 34.125 59.304688 37.445312 58.828125 39.960938 57.957031 C 40.148438 57.898438 40.328125 57.914062 40.5 58 C 40.671875 58.089844 40.789062 58.222656 40.855469 58.40625 C 40.917969 58.589844 40.910156 58.765625 40.828125 58.941406 C 40.746094 59.117188 40.613281 59.238281 40.433594 59.308594 C 40.097656 59.425781 39.75 59.53125 39.386719 59.636719 C 37.40625 60.207031 35.109375 60.605469 32.367188 60.773438 C 32.273438 60.78125 32.109375 60.78125 32.015625 60.785156 C 30.9375 60.847656 29.78125 60.882812 28.589844 60.882812 C 27.234375 60.886719 25.878906 60.855469 24.523438 60.785156 C 29.496094 66.367188 37.328125 69.71875 47.082031 69.71875 C 64.753906 69.71875 80.128906 63.027344 89.050781 48.242188 L 18.8125 48.242188 " fill-opacity="1" fill-rule="evenodd"/><path fill="#1d91b4" d="M 22.773438 48.246094 C 23.828125 53.054688 26.367188 56.828125 30.054688 59.394531 C 34.125 59.304688 37.445312 58.828125 39.960938 57.957031 C 40.148438 57.898438 40.328125 57.914062 40.5 58 C 40.671875 58.089844 40.789062 58.222656 40.855469 58.40625 C 40.917969 58.589844 40.910156 58.765625 40.828125 58.941406 C 40.746094 59.117188 40.613281 59.238281 40.433594 59.308594 C 40.097656 59.425781 39.75 59.53125 39.386719 59.636719 C 37.40625 60.207031 35.0625 60.605469 32.320312 60.773438 C 39.34375 64.367188 49.5 64.316406 61.175781 59.84375 C 68.238281 57.132812 75.039062 53.101562 81.136719 48.246094 L 22.773438 48.246094 " fill-opacity="1" fill-rule="evenodd"/><path fill="#23a3c2" d="M 26.804688 32.535156 L 34.882812 32.535156 L 34.882812 40.589844 L 26.804688 40.589844 Z M 27.476562 33.207031 L 28.117188 33.207031 L 28.117188 39.917969 L 27.472656 39.917969 L 27.472656 33.207031 Z M 28.675781 33.207031 L 29.339844 33.207031 L 29.339844 39.917969 L 28.675781 39.917969 Z M 29.898438 33.207031 L 30.5625 33.207031 L 30.5625 39.917969 L 29.898438 39.917969 Z M 31.125 33.207031 L 31.785156 33.207031 L 31.785156 39.917969 L 31.125 39.917969 Z M 32.347656 33.207031 L 33.011719 33.207031 L 33.011719 39.917969 L 32.347656 39.917969 Z M 33.570312 33.207031 L 34.210938 33.207031 L 34.210938 39.917969 L 33.570312 39.917969 Z M 36.125 23.234375 L 44.203125 23.234375 L 44.203125 31.292969 L 36.125 31.292969 Z M 36.796875 23.90625 L 37.433594 23.90625 L 37.433594 30.621094 L 36.796875 30.621094 Z M 37.996094 23.90625 L 38.660156 23.90625 L 38.660156 30.621094 L 37.996094 30.621094 Z M 39.21875 23.90625 L 39.882812 23.90625 L 39.882812 30.621094 L 39.21875 30.621094 Z M 40.441406 23.90625 L 41.105469 23.90625 L 41.105469 30.621094 L 40.441406 30.621094 Z M 41.667969 23.90625 L 42.332031 23.90625 L 42.332031 30.621094 L 41.667969 30.621094 Z M 42.890625 23.90625 L 43.527344 23.90625 L 43.527344 30.621094 L 42.890625 30.621094 Z M 42.890625 23.90625 " fill-opacity="1" fill-rule="evenodd"/><path fill="#34bbde" d="M 36.125 32.535156 L 44.203125 32.535156 L 44.203125 40.589844 L 36.125 40.589844 Z M 36.796875 33.207031 L 37.433594 33.207031 L 37.433594 39.917969 L 36.796875 39.917969 Z M 37.996094 33.207031 L 38.660156 33.207031 L 38.660156 39.917969 L 37.996094 39.917969 Z M 39.21875 33.207031 L 39.882812 33.207031 L 39.882812 39.917969 L 39.21875 39.917969 Z M 40.445312 33.207031 L 41.105469 33.207031 L 41.105469 39.917969 L 40.445312 39.917969 Z M 41.667969 33.207031 L 42.332031 33.207031 L 42.332031 39.917969 L 41.667969 39.917969 Z M 42.890625 33.207031 L 43.53125 33.207031 L 43.53125 39.917969 L 42.890625 39.917969 Z M 42.890625 33.207031 " fill-opacity="1" fill-rule="evenodd"/><path fill="#23a3c2" d="M 45.441406 32.535156 L 53.519531 32.535156 L 53.519531 40.589844 L 45.441406 40.589844 Z M 46.117188 33.207031 L 46.753906 33.207031 L 46.753906 39.917969 L 46.117188 39.917969 Z M 47.3125 33.207031 L 47.976562 33.207031 L 47.976562 39.917969 L 47.3125 39.917969 Z M 48.539062 33.207031 L 49.199219 33.207031 L 49.199219 39.917969 L 48.539062 39.917969 Z M 49.761719 33.207031 L 50.425781 33.207031 L 50.425781 39.917969 L 49.769531 39.917969 L 49.769531 33.207031 Z M 50.984375 33.207031 L 51.648438 33.207031 L 51.648438 39.917969 L 50.984375 39.917969 Z M 52.210938 33.207031 L 52.847656 33.207031 L 52.847656 39.917969 L 52.210938 39.917969 Z M 52.210938 33.207031 " fill-opacity="1" fill-rule="evenodd"/><path fill="#34bbde" d="M 45.441406 23.234375 L 53.519531 23.234375 L 53.519531 31.292969 L 45.441406 31.292969 Z M 46.117188 23.90625 L 46.753906 23.90625 L 46.753906 30.621094 L 46.117188 30.621094 Z M 47.3125 23.90625 L 47.976562 23.90625 L 47.976562 30.621094 L 47.3125 30.621094 Z M 48.539062 23.90625 L 49.199219 23.90625 L 49.199219 30.621094 L 48.539062 30.621094 Z M 49.761719 23.90625 L 50.425781 23.90625 L 50.425781 30.621094 L 49.769531 30.621094 L 49.769531 23.90625 Z M 50.984375 23.90625 L 51.648438 23.90625 L 51.648438 30.621094 L 50.984375 30.621094 Z M 52.210938 23.90625 L 52.847656 23.90625 L 52.847656 30.621094 L 52.210938 30.621094 Z M 54.761719 32.535156 L 62.839844 32.535156 L 62.839844 40.589844 L 54.769531 40.589844 L 54.769531 32.535156 Z M 55.433594 33.207031 L 56.074219 33.207031 L 56.074219 39.917969 L 55.441406 39.917969 L 55.441406 33.207031 Z M 56.632812 33.207031 L 57.296875 33.207031 L 57.296875 39.917969 L 56.632812 39.917969 Z M 57.855469 33.207031 L 58.519531 33.207031 L 58.519531 39.917969 L 57.855469 39.917969 Z M 59.082031 33.207031 L 59.746094 33.207031 L 59.746094 39.917969 L 59.082031 39.917969 Z M 60.304688 33.207031 L 60.96875 33.207031 L 60.96875 39.917969 L 60.304688 39.917969 Z M 61.527344 33.207031 L 62.167969 33.207031 L 62.167969 39.917969 L 61.527344 39.917969 Z M 61.527344 33.207031 " fill-opacity="1" fill-rule="evenodd"/><path fill="#23a3c2" d="M 54.765625 23.234375 L 62.839844 23.234375 L 62.839844 31.292969 L 54.761719 31.292969 L 54.761719 23.234375 Z M 55.4375 23.90625 L 56.074219 23.90625 L 56.074219 30.621094 L 55.4375 30.621094 Z M 56.636719 23.90625 L 57.296875 23.90625 L 57.296875 30.621094 L 56.636719 30.621094 Z M 57.859375 23.90625 L 58.523438 23.90625 L 58.523438 30.621094 L 57.859375 30.621094 Z M 59.082031 23.90625 L 59.746094 23.90625 L 59.746094 30.621094 L 59.082031 30.621094 Z M 60.308594 23.90625 L 60.96875 23.90625 L 60.96875 30.621094 L 60.308594 30.621094 Z M 61.53125 23.90625 L 62.167969 23.90625 L 62.167969 30.621094 L 61.53125 30.621094 Z M 61.53125 23.90625 " fill-opacity="1" fill-rule="evenodd"/><path fill="#34bbde" d="M 54.765625 13.933594 L 62.839844 13.933594 L 62.839844 21.992188 L 54.761719 21.992188 L 54.761719 13.933594 Z M 55.4375 14.605469 L 56.074219 14.605469 L 56.074219 21.320312 L 55.4375 21.320312 Z M 56.636719 14.605469 L 57.296875 14.605469 L 57.296875 21.320312 L 56.636719 21.320312 Z M 57.859375 14.605469 L 58.523438 14.605469 L 58.523438 21.320312 L 57.859375 21.320312 Z M 59.082031 14.605469 L 59.746094 14.605469 L 59.746094 21.320312 L 59.082031 21.320312 Z M 60.308594 14.605469 L 60.96875 14.605469 L 60.96875 21.320312 L 60.308594 21.320312 Z M 61.53125 14.605469 L 62.167969 14.605469 L 62.167969 21.320312 L 61.53125 21.320312 Z M 61.53125 14.605469 " fill-opacity="1" fill-rule="evenodd"/><path fill="#23a3c2" d="M 64.082031 32.535156 L 72.160156 32.535156 L 72.160156 40.589844 L 64.082031 40.589844 Z M 64.753906 33.207031 L 65.390625 33.207031 L 65.390625 39.917969 L 64.753906 39.917969 Z M 65.953125 33.207031 L 66.613281 33.207031 L 66.613281 39.917969 L 65.953125 39.917969 Z M 67.175781 33.207031 L 67.839844 33.207031 L 67.839844 39.917969 L 67.175781 39.917969 Z M 68.398438 33.207031 L 69.0625 33.207031 L 69.0625 39.917969 L 68.398438 39.917969 Z M 69.625 33.207031 L 70.285156 33.207031 L 70.285156 39.917969 L 69.625 39.917969 Z M 70.847656 33.207031 L 71.484375 33.207031 L 71.484375 39.917969 L 70.847656 39.917969 Z M 70.847656 33.207031 " fill-opacity="1" fill-rule="evenodd"/><path fill="#d3ecec" d="M 43.695312 53.65625 C 43.996094 53.652344 44.28125 53.707031 44.558594 53.816406 C 44.835938 53.929688 45.078125 54.089844 45.292969 54.296875 C 45.503906 54.507812 45.667969 54.746094 45.78125 55.023438 C 45.898438 55.296875 45.953125 55.582031 45.953125 55.878906 C 45.953125 56.175781 45.898438 56.464844 45.78125 56.738281 C 45.667969 57.011719 45.503906 57.253906 45.292969 57.464844 C 45.078125 57.671875 44.835938 57.832031 44.558594 57.941406 C 44.28125 58.054688 43.992188 58.105469 43.695312 58.101562 C 43.402344 58.097656 43.121094 58.039062 42.851562 57.925781 C 42.582031 57.808594 42.34375 57.648438 42.140625 57.441406 C 41.933594 57.234375 41.777344 56.992188 41.664062 56.722656 C 41.554688 56.453125 41.496094 56.171875 41.496094 55.878906 C 41.496094 55.585938 41.554688 55.304688 41.664062 55.035156 C 41.777344 54.765625 41.933594 54.527344 42.140625 54.316406 C 42.347656 54.109375 42.582031 53.949219 42.851562 53.835938 C 43.121094 53.71875 43.402344 53.660156 43.695312 53.65625 " fill-opacity="1" fill-rule="evenodd"/><g clip-path="url(#8d6efe652c)"><path fill="#364548" d="M 43.695312 54.285156 C 43.894531 54.285156 44.089844 54.324219 44.273438 54.394531 C 44.148438 54.46875 44.054688 54.574219 44 54.707031 C 43.941406 54.84375 43.933594 54.984375 43.972656 55.125 C 44.011719 55.265625 44.085938 55.382812 44.203125 55.472656 C 44.320312 55.5625 44.453125 55.605469 44.597656 55.605469 C 44.847656 55.605469 45.058594 55.46875 45.171875 55.269531 C 45.257812 55.480469 45.300781 55.699219 45.292969 55.929688 C 45.285156 56.160156 45.230469 56.375 45.128906 56.582031 C 45.027344 56.789062 44.886719 56.964844 44.710938 57.109375 C 44.53125 57.253906 44.332031 57.355469 44.109375 57.417969 C 43.890625 57.476562 43.664062 57.488281 43.4375 57.449219 C 43.210938 57.414062 43.003906 57.332031 42.8125 57.203125 C 42.621094 57.074219 42.464844 56.914062 42.34375 56.71875 C 42.222656 56.527344 42.144531 56.316406 42.113281 56.085938 C 42.085938 55.859375 42.101562 55.636719 42.167969 55.417969 C 42.238281 55.199219 42.34375 55.003906 42.496094 54.828125 C 42.648438 54.65625 42.828125 54.523438 43.039062 54.429688 C 43.246094 54.335938 43.464844 54.289062 43.695312 54.289062 M 4.285156 49.050781 L 107.9375 49.050781 C 105.683594 48.480469 100.800781 47.707031 101.605469 44.757812 C 97.5 49.496094 87.601562 48.082031 85.105469 45.746094 C 82.324219 49.769531 66.132812 48.238281 65.003906 45.105469 C 61.515625 49.1875 50.710938 49.1875 47.222656 45.105469 C 46.09375 48.234375 29.902344 49.769531 27.121094 45.746094 C 24.621094 48.082031 14.730469 49.496094 10.621094 44.757812 C 11.425781 47.707031 6.542969 48.480469 4.285156 49.050781 " fill-opacity="1" fill-rule="evenodd"/></g><path fill="#bdd9d7" d="M 49.621094 69.683594 C 44.101562 67.070312 41.074219 63.515625 39.386719 59.640625 C 37.339844 60.222656 34.875 60.597656 32.011719 60.757812 C 30.933594 60.816406 29.796875 60.847656 28.609375 60.847656 C 27.234375 60.847656 25.789062 60.808594 24.269531 60.726562 C 29.332031 65.769531 35.558594 69.660156 47.085938 69.730469 C 47.9375 69.730469 48.78125 69.714844 49.621094 69.683594 " fill-opacity="1" fill-rule="evenodd"/><path fill="#d3ecec" d="M 41.4375 63.210938 C 40.671875 62.179688 39.929688 60.878906 39.386719 59.632812 C 37.339844 60.21875 34.875 60.589844 32.011719 60.753906 C 33.976562 61.816406 36.789062 62.804688 41.4375 63.210938 " fill-opacity="1" fill-rule="evenodd"/></svg>