<svg xmlns="http://www.w3.org/2000/svg" xmlns:xlink="http://www.w3.org/1999/xlink" width="150" zoomAndPan="magnify" viewBox="0 0 112.5 112.499997" height="150" preserveAspectRatio="xMidYMid meet" version="1.0"><defs><filter x="0%" y="0%" width="100%" height="100%" id="7855f16402"><feColorMatrix values="0 0 0 0 1 0 0 0 0 1 0 0 0 0 1 0 0 0 1 0" color-interpolation-filters="sRGB"/></filter><g/><clipPath id="fdc4214c29"><path d="M 13.207031 5.101562 L 99.457031 5.101562 L 99.457031 81.601562 L 13.207031 81.601562 Z M 13.207031 5.101562 " clip-rule="nonzero"/></clipPath><mask id="09d4379dd2"><g filter="url(#7855f16402)"><rect x="-11.25" width="135" fill="#000000" y="-11.25" height="134.999996" fill-opacity="0.098"/></g></mask><clipPath id="9ed2a78f9b"><path d="M 0.207031 0.101562 L 86.457031 0.101562 L 86.457031 76.601562 L 0.207031 76.601562 Z M 0.207031 0.101562 " clip-rule="nonzero"/></clipPath><clipPath id="f3da3541e7"><rect x="0" width="87" y="0" height="77"/></clipPath></defs><g clip-path="url(#fdc4214c29)"><g mask="url(#09d4379dd2)"><g transform="matrix(1, 0, 0, 1, 13, 5)"><g clip-path="url(#f3da3541e7)"><path fill="#ffffff" d="M 66.503906 51.613281 C 77.773438 48.769531 85.207031 43.890625 85.207031 38.351562 C 85.207031 32.808594 77.773438 27.929688 66.503906 25.085938 C 69.679688 13.886719 69.179688 4.996094 64.386719 2.226562 C 59.597656 -0.542969 51.660156 3.464844 43.570312 11.820312 C 35.476562 3.464844 27.539062 -0.542969 22.75 2.226562 C 17.957031 4.996094 17.457031 13.886719 20.632812 25.085938 C 9.363281 27.929688 1.929688 32.808594 1.929688 38.351562 C 1.929688 43.890625 9.363281 48.769531 20.632812 51.613281 C 17.457031 62.8125 17.957031 71.703125 22.75 74.472656 C 27.539062 77.246094 35.476562 73.234375 43.570312 64.878906 C 51.660156 73.234375 59.597656 77.246094 64.386719 74.472656 C 69.179688 71.703125 69.679688 62.8125 66.503906 51.613281 Z M 34.621094 53.871094 C 29.550781 53.449219 24.828125 52.671875 20.632812 51.613281 C 21.816406 47.449219 23.507812 42.960938 25.675781 38.351562 C 26.910156 40.96875 28.296875 43.628906 29.832031 46.296875 C 31.367188 48.960938 32.972656 51.492188 34.621094 53.871094 Z M 52.515625 22.828125 C 57.585938 23.25 62.308594 24.027344 66.503906 25.085938 C 65.320312 29.253906 63.628906 33.738281 61.460938 38.351562 C 60.226562 35.730469 58.839844 33.070312 57.304688 30.40625 C 55.769531 27.742188 54.164062 25.207031 52.515625 22.828125 Z M 66.503906 51.613281 C 62.308594 52.671875 57.585938 53.449219 52.515625 53.871094 C 49.613281 58.058594 46.582031 61.769531 43.570312 64.878906 C 40.558594 61.769531 37.523438 58.058594 34.621094 53.871094 C 37.503906 54.113281 40.496094 54.242188 43.570312 54.242188 C 46.640625 54.242188 49.632812 54.113281 52.515625 53.871094 C 54.164062 51.492188 55.769531 48.960938 57.304688 46.296875 C 58.839844 43.628906 60.226562 40.96875 61.460938 38.351562 C 63.628906 42.960938 65.320312 47.449219 66.503906 51.613281 Z M 43.570312 11.820312 C 40.558594 14.929688 37.523438 18.640625 34.621094 22.828125 C 29.550781 23.25 24.828125 24.027344 20.632812 25.085938 C 21.816406 29.253906 23.507812 33.738281 25.675781 38.351562 C 26.910156 35.730469 28.296875 33.070312 29.832031 30.40625 C 31.367188 27.742188 32.972656 25.207031 34.621094 22.828125 C 37.503906 22.585938 40.496094 22.460938 43.570312 22.460938 C 46.640625 22.460938 49.632812 22.585938 52.515625 22.828125 C 49.613281 18.640625 46.582031 14.929688 43.570312 11.820312 Z M 43.570312 11.820312 " fill-opacity="1" fill-rule="nonzero"/><g clip-path="url(#9ed2a78f9b)"><path stroke-linecap="butt" transform="matrix(0.991379, 0, 0, 0.993145, 0.20545, 0.11392)" fill="none" stroke-linejoin="miter" d="M 66.874969 51.854844 C 78.242497 48.991464 85.740732 44.078881 85.740732 38.501584 C 85.740732 32.920354 78.242497 28.00777 66.874969 25.144391 C 70.078366 13.867867 69.574019 4.915874 64.739371 2.127225 C 59.908665 -0.661423 51.902142 3.374054 43.741952 11.787198 C 35.577821 3.374054 27.571298 -0.661423 22.740591 2.127225 C 17.905944 4.915874 17.401596 13.867867 20.604993 25.144391 C 9.237465 28.00777 1.739231 32.920354 1.739231 38.501584 C 1.739231 44.078881 9.237465 48.991464 20.604993 51.854844 C 17.401596 63.131367 17.905944 72.083361 22.740591 74.872009 C 27.571298 77.664591 35.577821 73.62518 43.741952 65.212037 C 51.902142 73.62518 59.908665 77.664591 64.739371 74.872009 C 69.574019 72.083361 70.078366 63.131367 66.874969 51.854844 Z M 34.714913 54.128241 C 29.60051 53.703454 24.836787 52.920745 20.604993 51.854844 C 21.798879 47.662038 23.504994 43.142776 25.691814 38.501584 C 26.936923 41.136837 28.3357 43.815355 29.884206 46.50174 C 31.432712 49.184192 33.052141 51.732914 34.714913 54.128241 Z M 52.76505 22.870993 C 57.879453 23.29578 62.643176 24.07849 66.874969 25.144391 C 65.681083 29.341129 63.974969 33.856459 61.788148 38.501584 C 60.54304 35.862397 59.144262 33.183879 57.595757 30.501427 C 56.047251 27.818976 54.427822 25.26632 52.76505 22.870993 Z M 66.874969 51.854844 C 62.643176 52.920745 57.879453 53.703454 52.76505 54.128241 C 49.837468 58.344646 46.779859 62.081199 43.741952 65.212037 C 40.704044 62.081199 37.642495 58.344646 34.714913 54.128241 C 37.622794 54.3721 40.641 54.501896 43.741952 54.501896 C 46.838963 54.501896 49.857169 54.3721 52.76505 54.128241 C 54.427822 51.732914 56.047251 49.184192 57.595757 46.50174 C 59.144262 43.815355 60.54304 41.136837 61.788148 38.501584 C 63.974969 43.142776 65.681083 47.662038 66.874969 51.854844 Z M 43.741952 11.787198 C 40.704044 14.918035 37.642495 18.654588 34.714913 22.870993 C 29.60051 23.29578 24.836787 24.07849 20.604993 25.144391 C 21.798879 29.341129 23.504994 33.856459 25.691814 38.501584 C 26.936923 35.862397 28.3357 33.183879 29.884206 30.501427 C 31.432712 27.818976 33.052141 25.26632 34.714913 22.870993 C 37.622794 22.627134 40.641 22.501271 43.741952 22.501271 C 46.838963 22.501271 49.857169 22.627134 52.76505 22.870993 C 49.837468 18.654588 46.779859 14.918035 43.741952 11.787198 Z M 43.741952 11.787198 " stroke="#31adb8" stroke-width="3" stroke-opacity="1" stroke-miterlimit="4"/></g></g></g></g></g><path stroke-linecap="butt" transform="matrix(0.991379, 0, 0, 0.993145, 38.22786, 27.459677)" fill-opacity="1" fill="#31adb8" fill-rule="nonzero" stroke-linejoin="miter" d="M 9.474915 31.628239 C 12.382796 31.872099 15.401002 32.001895 18.501954 32.001895 C 21.598965 32.001895 24.617171 31.872099 27.525052 31.628239 C 29.187824 29.232912 30.807253 26.68419 32.355759 24.001738 C 33.904264 21.315354 35.303042 18.636835 36.54815 16.001582 C 35.303042 13.362396 33.904264 10.683877 32.355759 8.001426 C 30.807253 5.318974 29.187824 2.766319 27.525052 0.370992 C 24.617171 0.127132 21.598965 0.00126946 18.501954 0.00126946 C 15.401002 0.00126946 12.382796 0.127132 9.474915 0.370992 C 7.812143 2.766319 6.192714 5.318974 4.644208 8.001426 C 3.095703 10.683877 1.696925 13.362396 0.451816 16.001582 C 1.696925 18.636835 3.095703 21.315354 4.644208 24.001738 C 6.192714 26.68419 7.812143 29.232912 9.474915 31.628239 Z M 9.474915 31.628239 " stroke="#31adb8" stroke-width="3" stroke-opacity="1" stroke-miterlimit="4"/><path fill="#ffffff" d="M 62.328125 37.910156 L 62.328125 34.910156 L 50.621094 34.910156 L 50.621094 51.878906 L 62.539062 51.878906 L 62.539062 48.875 L 54.117188 48.875 L 54.117188 44.726562 L 61.777344 44.726562 L 61.777344 41.75 L 54.117188 41.75 L 54.117188 37.910156 Z M 62.328125 37.910156 " fill-opacity="1" fill-rule="evenodd"/><g fill="#2dc7e9" fill-opacity="1"><g transform="translate(56.236238, 89.194549)"><g/></g></g><g fill="#2dc7e9" fill-opacity="1"><g transform="translate(25.525819, 101.522746)"><g><path d="M 4.703125 0 L 0.71875 0 L 0.71875 -6.703125 L 4.703125 -6.703125 L 4.703125 -5.25 L 2.53125 -5.25 L 2.53125 -4.203125 L 4.546875 -4.203125 L 4.546875 -2.734375 L 2.53125 -2.734375 L 2.53125 -1.46875 L 4.703125 -1.46875 Z M 4.703125 0 "/></g></g></g><g fill="#2dc7e9" fill-opacity="1"><g transform="translate(30.675879, 101.522746)"><g><path d="M 2.40625 0 L 0.625 0 L 0.625 -7.140625 L 2.40625 -7.140625 Z M 2.40625 0 "/></g></g></g><g fill="#2dc7e9" fill-opacity="1"><g transform="translate(33.709099, 101.522746)"><g><path d="M 3.125 0.09375 C 2.257812 0.09375 1.585938 -0.132812 1.109375 -0.59375 C 0.628906 -1.050781 0.390625 -1.707031 0.390625 -2.5625 C 0.390625 -3.4375 0.609375 -4.109375 1.046875 -4.578125 C 1.492188 -5.046875 2.128906 -5.28125 2.953125 -5.28125 C 3.734375 -5.28125 4.335938 -5.078125 4.765625 -4.671875 C 5.191406 -4.265625 5.40625 -3.675781 5.40625 -2.90625 L 5.40625 -2.109375 L 2.203125 -2.109375 C 2.210938 -1.816406 2.316406 -1.585938 2.515625 -1.421875 C 2.722656 -1.265625 3 -1.1875 3.34375 -1.1875 C 3.65625 -1.1875 3.941406 -1.210938 4.203125 -1.265625 C 4.472656 -1.328125 4.765625 -1.429688 5.078125 -1.578125 L 5.078125 -0.28125 C 4.796875 -0.144531 4.503906 -0.0507812 4.203125 0 C 3.898438 0.0625 3.539062 0.09375 3.125 0.09375 Z M 3.015625 -4.0625 C 2.804688 -4.0625 2.628906 -3.992188 2.484375 -3.859375 C 2.347656 -3.734375 2.269531 -3.523438 2.25 -3.234375 L 3.78125 -3.234375 C 3.78125 -3.492188 3.707031 -3.695312 3.5625 -3.84375 C 3.425781 -3.988281 3.242188 -4.0625 3.015625 -4.0625 Z M 3.015625 -4.0625 "/></g></g></g><g fill="#2dc7e9" fill-opacity="1"><g transform="translate(39.50979, 101.522746)"><g><path d="M 7 0 L 7 -2.828125 C 7 -3.179688 6.945312 -3.441406 6.84375 -3.609375 C 6.75 -3.785156 6.597656 -3.875 6.390625 -3.875 C 6.117188 -3.875 5.914062 -3.753906 5.78125 -3.515625 C 5.65625 -3.285156 5.59375 -2.921875 5.59375 -2.421875 L 5.59375 0 L 3.796875 0 L 3.796875 -2.828125 C 3.796875 -3.179688 3.75 -3.441406 3.65625 -3.609375 C 3.570312 -3.785156 3.425781 -3.875 3.21875 -3.875 C 2.9375 -3.875 2.726562 -3.75 2.59375 -3.5 C 2.46875 -3.25 2.40625 -2.84375 2.40625 -2.28125 L 2.40625 0 L 0.625 0 L 0.625 -5.1875 L 1.96875 -5.1875 L 2.203125 -4.546875 L 2.296875 -4.546875 C 2.441406 -4.785156 2.644531 -4.96875 2.90625 -5.09375 C 3.164062 -5.21875 3.460938 -5.28125 3.796875 -5.28125 C 4.546875 -5.28125 5.070312 -5.054688 5.375 -4.609375 L 5.515625 -4.609375 C 5.660156 -4.816406 5.863281 -4.976562 6.125 -5.09375 C 6.382812 -5.21875 6.671875 -5.28125 6.984375 -5.28125 C 7.597656 -5.28125 8.050781 -5.125 8.34375 -4.8125 C 8.644531 -4.5 8.796875 -4.019531 8.796875 -3.375 L 8.796875 0 Z M 7 0 "/></g></g></g><g fill="#2dc7e9" fill-opacity="1"><g transform="translate(48.893529, 101.522746)"><g><path d="M 3.125 0.09375 C 2.257812 0.09375 1.585938 -0.132812 1.109375 -0.59375 C 0.628906 -1.050781 0.390625 -1.707031 0.390625 -2.5625 C 0.390625 -3.4375 0.609375 -4.109375 1.046875 -4.578125 C 1.492188 -5.046875 2.128906 -5.28125 2.953125 -5.28125 C 3.734375 -5.28125 4.335938 -5.078125 4.765625 -4.671875 C 5.191406 -4.265625 5.40625 -3.675781 5.40625 -2.90625 L 5.40625 -2.109375 L 2.203125 -2.109375 C 2.210938 -1.816406 2.316406 -1.585938 2.515625 -1.421875 C 2.722656 -1.265625 3 -1.1875 3.34375 -1.1875 C 3.65625 -1.1875 3.941406 -1.210938 4.203125 -1.265625 C 4.472656 -1.328125 4.765625 -1.429688 5.078125 -1.578125 L 5.078125 -0.28125 C 4.796875 -0.144531 4.503906 -0.0507812 4.203125 0 C 3.898438 0.0625 3.539062 0.09375 3.125 0.09375 Z M 3.015625 -4.0625 C 2.804688 -4.0625 2.628906 -3.992188 2.484375 -3.859375 C 2.347656 -3.734375 2.269531 -3.523438 2.25 -3.234375 L 3.78125 -3.234375 C 3.78125 -3.492188 3.707031 -3.695312 3.5625 -3.84375 C 3.425781 -3.988281 3.242188 -4.0625 3.015625 -4.0625 Z M 3.015625 -4.0625 "/></g></g></g><g fill="#2dc7e9" fill-opacity="1"><g transform="translate(54.694219, 101.522746)"><g><path d="M 3.890625 0 L 3.890625 -2.828125 C 3.890625 -3.179688 3.835938 -3.441406 3.734375 -3.609375 C 3.640625 -3.785156 3.484375 -3.875 3.265625 -3.875 C 2.960938 -3.875 2.742188 -3.753906 2.609375 -3.515625 C 2.472656 -3.273438 2.40625 -2.863281 2.40625 -2.28125 L 2.40625 0 L 0.625 0 L 0.625 -5.1875 L 1.96875 -5.1875 L 2.203125 -4.546875 L 2.296875 -4.546875 C 2.453125 -4.796875 2.664062 -4.976562 2.9375 -5.09375 C 3.207031 -5.21875 3.519531 -5.28125 3.875 -5.28125 C 4.445312 -5.28125 4.890625 -5.113281 5.203125 -4.78125 C 5.523438 -4.445312 5.6875 -3.976562 5.6875 -3.375 L 5.6875 0 Z M 3.890625 0 "/></g></g></g><g fill="#2dc7e9" fill-opacity="1"><g transform="translate(60.980591, 101.522746)"><g><path d="M 3.15625 -1.328125 C 3.40625 -1.328125 3.695312 -1.382812 4.03125 -1.5 L 4.03125 -0.203125 C 3.789062 -0.0976562 3.5625 -0.0234375 3.34375 0.015625 C 3.125 0.0664062 2.867188 0.09375 2.578125 0.09375 C 1.972656 0.09375 1.535156 -0.0507812 1.265625 -0.34375 C 1.003906 -0.644531 0.875 -1.097656 0.875 -1.703125 L 0.875 -3.859375 L 0.25 -3.859375 L 0.25 -4.578125 L 1.046875 -5.140625 L 1.5 -6.234375 L 2.671875 -6.234375 L 2.671875 -5.1875 L 3.953125 -5.1875 L 3.953125 -3.859375 L 2.671875 -3.859375 L 2.671875 -1.828125 C 2.671875 -1.492188 2.832031 -1.328125 3.15625 -1.328125 Z M 3.15625 -1.328125 "/></g></g></g><g fill="#2dc7e9" fill-opacity="1"><g transform="translate(65.296745, 101.522746)"><g><path d="M 4 0 L 3.65625 -0.6875 L 3.625 -0.6875 C 3.382812 -0.382812 3.140625 -0.175781 2.890625 -0.0625 C 2.640625 0.0390625 2.316406 0.09375 1.921875 0.09375 C 1.429688 0.09375 1.046875 -0.0507812 0.765625 -0.34375 C 0.484375 -0.632812 0.34375 -1.050781 0.34375 -1.59375 C 0.34375 -2.144531 0.535156 -2.554688 0.921875 -2.828125 C 1.304688 -3.097656 1.863281 -3.25 2.59375 -3.28125 L 3.453125 -3.3125 L 3.453125 -3.375 C 3.453125 -3.800781 3.242188 -4.015625 2.828125 -4.015625 C 2.441406 -4.015625 1.957031 -3.890625 1.375 -3.640625 L 0.859375 -4.8125 C 1.460938 -5.125 2.226562 -5.28125 3.15625 -5.28125 C 3.820312 -5.28125 4.335938 -5.113281 4.703125 -4.78125 C 5.066406 -4.457031 5.25 -4 5.25 -3.40625 L 5.25 0 Z M 2.671875 -1.171875 C 2.890625 -1.171875 3.078125 -1.238281 3.234375 -1.375 C 3.390625 -1.519531 3.46875 -1.703125 3.46875 -1.921875 L 3.46875 -2.3125 L 3.046875 -2.296875 C 2.460938 -2.273438 2.171875 -2.0625 2.171875 -1.65625 C 2.171875 -1.332031 2.335938 -1.171875 2.671875 -1.171875 Z M 2.671875 -1.171875 "/></g></g></g><g fill="#2dc7e9" fill-opacity="1"><g transform="translate(71.143254, 101.522746)"><g><path d="M 2.40625 0 L 0.625 0 L 0.625 -7.140625 L 2.40625 -7.140625 Z M 2.40625 0 "/></g></g></g><g fill="#2dc7e9" fill-opacity="1"><g transform="translate(74.176474, 101.522746)"><g/></g></g><g fill="#2dc7e9" fill-opacity="1"><g transform="translate(76.614047, 101.522746)"><g><path d="M 6.421875 -6.703125 L 6.421875 -2.671875 C 6.421875 -1.796875 6.171875 -1.113281 5.671875 -0.625 C 5.179688 -0.144531 4.46875 0.09375 3.53125 0.09375 C 2.613281 0.09375 1.910156 -0.140625 1.421875 -0.609375 C 0.929688 -1.078125 0.6875 -1.75 0.6875 -2.625 L 0.6875 -6.703125 L 2.515625 -6.703125 L 2.515625 -2.765625 C 2.515625 -2.296875 2.601562 -1.953125 2.78125 -1.734375 C 2.957031 -1.523438 3.21875 -1.421875 3.5625 -1.421875 C 3.925781 -1.421875 4.191406 -1.523438 4.359375 -1.734375 C 4.523438 -1.941406 4.609375 -2.289062 4.609375 -2.78125 L 4.609375 -6.703125 Z M 6.421875 -6.703125 "/></g></g></g><g fill="#2dc7e9" fill-opacity="1"><g transform="translate(83.715998, 101.522746)"><g><path d="M 0.71875 0 L 0.71875 -6.703125 L 2.546875 -6.703125 L 2.546875 0 Z M 0.71875 0 "/></g></g></g></svg>