<svg xmlns="http://www.w3.org/2000/svg" xmlns:xlink="http://www.w3.org/1999/xlink" width="800" zoomAndPan="magnify" viewBox="0 0 600 599.999999" height="800" preserveAspectRatio="xMidYMid meet" version="1.0"><defs><clipPath id="f052f77504"><path d="M 351 212 L 595.703125 212 L 595.703125 410 L 351 410 Z M 351 212 " clip-rule="nonzero"/></clipPath></defs><g clip-path="url(#f052f77504)"><path fill="#362701" d="M 400.734375 281.4375 C 390.066406 281.4375 382.109375 286.675781 382.109375 299.285156 C 382.109375 308.699219 387.347656 315.378906 400.148438 315.378906 C 411.003906 315.378906 418.378906 308.980469 418.378906 298.890625 C 418.378906 287.441406 411.789062 281.4375 400.734375 281.4375 Z M 379.398438 370.464844 C 376.867188 373.566406 374.351562 376.867188 374.351562 380.660156 C 374.351562 388.410156 384.234375 390.75 397.820312 390.75 C 409.074219 390.75 424.398438 389.964844 424.398438 379.5 C 424.398438 373.289062 417.023438 372.902344 407.703125 372.316406 L 379.464844 370.386719 Z M 436.816406 282.011719 C 440.296875 286.488281 443.996094 292.679688 443.996094 301.609375 C 443.996094 323.128906 427.050781 335.738281 402.679688 335.738281 C 396.402344 335.738281 390.914062 334.953125 387.347656 333.996094 L 380.949219 344.191406 L 399.960938 345.351562 C 433.535156 347.484375 453.300781 348.464844 453.300781 374.242188 C 453.300781 396.554688 433.722656 409.140625 399.960938 409.140625 C 364.851562 409.140625 351.472656 400.21875 351.472656 384.828125 C 351.472656 376.105469 355.363281 371.445312 362.140625 365.039062 C 355.742188 362.339844 353.605469 357.484375 353.605469 352.253906 C 353.605469 347.984375 355.738281 344.097656 359.234375 340.488281 L 371.257812 328.851562 C 361.75 324.207031 354.566406 314.105469 354.566406 299.832031 C 354.566406 277.527344 369.3125 262.210938 398.996094 262.210938 C 407.339844 262.210938 412.386719 262.984375 416.847656 264.15625 L 454.675781 264.15625 L 454.675781 280.640625 L 436.820312 281.996094 M 488.792969 246.765625 C 477.8125 246.765625 471.335938 240.367188 471.335938 229.296875 C 471.335938 218.230469 477.734375 212.230469 488.792969 212.230469 C 500.042969 212.230469 506.445312 218.253906 506.445312 229.296875 C 506.445312 240.339844 500.042969 246.765625 488.800781 246.765625 Z M 463.691406 363.328125 L 463.691406 348.015625 L 473.59375 346.664062 C 476.304688 346.273438 476.699219 345.691406 476.699219 342.773438 L 476.699219 285.765625 C 476.699219 283.632812 476.117188 282.277344 474.171875 281.6875 L 463.691406 278.003906 L 465.824219 262.304688 L 505.988281 262.304688 L 505.988281 342.804688 C 505.988281 345.910156 506.175781 346.292969 509.09375 346.695312 L 518.976562 348.050781 L 518.976562 363.34375 L 463.671875 363.34375 M 595.765625 355.816406 C 587.421875 359.894531 575.195312 363.660156 564.140625 363.660156 C 541.046875 363.660156 532.324219 354.359375 532.324219 332.433594 L 532.324219 281.613281 C 532.324219 280.449219 532.324219 279.667969 530.753906 279.667969 L 517.261719 279.667969 L 517.261719 262.414062 C 534.332031 260.53125 541.128906 251.933594 543.261719 230.792969 L 561.691406 230.792969 L 561.691406 258.335938 C 561.691406 259.683594 561.691406 260.28125 563.246094 260.28125 L 590.609375 260.28125 L 590.609375 279.667969 L 561.617188 279.667969 L 561.617188 325.9375 C 561.617188 337.390625 564.339844 341.84375 574.792969 341.84375 C 580.230469 341.84375 585.777344 340.488281 590.507812 338.746094 L 595.746094 355.808594 " fill-opacity="1" fill-rule="nonzero"/></g><path fill="#f03c2e" d="M 266.695312 300.132812 L 150.402344 183.871094 C 143.714844 177.179688 132.851562 177.179688 126.148438 183.871094 L 102.007812 208.015625 L 132.632812 238.632812 C 139.753906 236.230469 147.914062 237.847656 153.574219 243.507812 C 154.246094 244.183594 154.867188 244.898438 155.4375 245.660156 C 156.011719 246.417969 156.527344 247.214844 156.988281 248.050781 C 157.449219 248.882812 157.847656 249.742188 158.1875 250.632812 C 158.527344 251.519531 158.804688 252.429688 159.015625 253.355469 C 159.230469 254.28125 159.378906 255.21875 159.460938 256.167969 C 159.539062 257.117188 159.554688 258.066406 159.503906 259.015625 C 159.453125 259.964844 159.335938 260.90625 159.152344 261.839844 C 158.96875 262.773438 158.722656 263.691406 158.410156 264.589844 L 187.929688 294.105469 C 194.988281 291.644531 203.304688 293.242188 209.015625 298.933594 C 210.28125 300.199219 211.367188 301.609375 212.261719 303.160156 C 213.160156 304.710938 213.839844 306.351562 214.304688 308.082031 C 214.769531 309.8125 215.003906 311.574219 215.003906 313.367188 C 215.003906 315.15625 214.769531 316.917969 214.304688 318.648438 C 213.84375 320.378906 213.160156 322.023438 212.265625 323.574219 C 211.367188 325.125 210.285156 326.53125 209.015625 327.800781 C 207.75 329.066406 206.339844 330.144531 204.785156 331.039062 C 203.234375 331.933594 201.589844 332.609375 199.859375 333.074219 C 198.128906 333.535156 196.367188 333.769531 194.578125 333.769531 C 192.785156 333.769531 191.023438 333.535156 189.292969 333.074219 C 187.566406 332.609375 185.925781 331.929688 184.375 331.035156 C 182.824219 330.136719 181.414062 329.054688 180.148438 327.789062 C 174.15625 321.792969 172.679688 312.984375 175.710938 305.597656 L 148.257812 278.148438 L 148.257812 350.582031 C 150.140625 351.550781 152.035156 352.824219 153.652344 354.441406 C 161.625 362.410156 161.625 375.324219 153.652344 383.304688 C 153.183594 383.777344 152.6875 384.226562 152.171875 384.648438 C 151.65625 385.074219 151.117188 385.472656 150.5625 385.84375 C 150.007812 386.214844 149.433594 386.558594 148.84375 386.875 C 148.253906 387.1875 147.652344 387.472656 147.035156 387.730469 C 146.417969 387.984375 145.789062 388.210938 145.148438 388.40625 C 144.507812 388.597656 143.863281 388.761719 143.207031 388.890625 C 142.550781 389.023438 141.890625 389.121094 141.226562 389.1875 C 140.558594 389.25 139.894531 389.285156 139.222656 389.285156 C 138.554688 389.285156 137.890625 389.25 137.222656 389.1875 C 136.558594 389.121094 135.898438 389.023438 135.242188 388.890625 C 134.585938 388.761719 133.9375 388.597656 133.300781 388.40625 C 132.660156 388.210938 132.03125 387.984375 131.414062 387.730469 C 130.796875 387.472656 130.191406 387.1875 129.605469 386.875 C 129.015625 386.558594 128.441406 386.214844 127.886719 385.84375 C 127.332031 385.472656 126.792969 385.074219 126.277344 384.648438 C 125.761719 384.226562 125.265625 383.777344 124.792969 383.304688 C 116.824219 375.316406 116.824219 362.410156 124.792969 354.441406 C 126.726562 352.511719 128.953125 351.027344 131.476562 349.988281 L 131.476562 276.894531 C 129.125 275.890625 126.769531 274.421875 124.792969 272.5 C 124.082031 271.789062 123.425781 271.03125 122.828125 270.222656 C 122.226562 269.414062 121.691406 268.566406 121.21875 267.675781 C 120.742188 266.789062 120.335938 265.871094 120 264.921875 C 119.660156 263.972656 119.394531 263.003906 119.199219 262.019531 C 119.007812 261.03125 118.886719 260.035156 118.839844 259.027344 C 118.792969 258.023438 118.820312 257.019531 118.921875 256.019531 C 119.023438 255.015625 119.199219 254.027344 119.445312 253.054688 C 119.695312 252.078125 120.011719 251.125 120.402344 250.195312 L 90.207031 220 L 10.417969 299.585938 C 10.019531 299.984375 9.644531 300.402344 9.289062 300.835938 C 8.933594 301.269531 8.601562 301.722656 8.289062 302.1875 C 7.980469 302.65625 7.691406 303.136719 7.425781 303.632812 C 7.164062 304.128906 6.925781 304.636719 6.710938 305.15625 C 6.496094 305.671875 6.308594 306.203125 6.144531 306.738281 C 5.980469 307.277344 5.847656 307.820312 5.738281 308.371094 C 5.628906 308.921875 5.546875 309.476562 5.492188 310.035156 C 5.4375 310.59375 5.410156 311.152344 5.410156 311.714844 C 5.410156 312.277344 5.4375 312.835938 5.492188 313.394531 C 5.546875 313.953125 5.628906 314.507812 5.738281 315.058594 C 5.847656 315.609375 5.980469 316.152344 6.144531 316.691406 C 6.308594 317.230469 6.496094 317.757812 6.710938 318.277344 C 6.925781 318.792969 7.164062 319.300781 7.425781 319.796875 C 7.691406 320.292969 7.980469 320.773438 8.289062 321.242188 C 8.601562 321.707031 8.933594 322.160156 9.289062 322.59375 C 9.644531 323.027344 10.019531 323.445312 10.417969 323.84375 L 126.714844 440.101562 C 133.402344 446.796875 144.265625 446.796875 150.96875 440.101562 L 266.695312 324.390625 C 267.089844 323.992188 267.46875 323.574219 267.824219 323.140625 C 268.179688 322.707031 268.511719 322.253906 268.820312 321.789062 C 269.132812 321.320312 269.421875 320.839844 269.683594 320.34375 C 269.949219 319.847656 270.1875 319.339844 270.402344 318.820312 C 270.617188 318.300781 270.804688 317.773438 270.96875 317.238281 C 271.128906 316.699219 271.265625 316.15625 271.375 315.605469 C 271.484375 315.054688 271.566406 314.5 271.621094 313.941406 C 271.675781 313.382812 271.703125 312.824219 271.703125 312.261719 C 271.703125 311.699219 271.675781 311.140625 271.621094 310.582031 C 271.566406 310.023438 271.484375 309.46875 271.375 308.917969 C 271.265625 308.367188 271.128906 307.824219 270.96875 307.285156 C 270.804688 306.746094 270.617188 306.21875 270.402344 305.699219 C 270.1875 305.183594 269.949219 304.675781 269.683594 304.179688 C 269.421875 303.683594 269.132812 303.203125 268.820312 302.734375 C 268.511719 302.269531 268.179688 301.816406 267.824219 301.382812 C 267.46875 300.949219 267.089844 300.53125 266.695312 300.132812 " fill-opacity="1" fill-rule="nonzero"/></svg>