<svg xmlns="http://www.w3.org/2000/svg" xmlns:xlink="http://www.w3.org/1999/xlink" width="800" zoomAndPan="magnify" viewBox="0 0 600 599.999999" height="800" preserveAspectRatio="xMidYMid meet" version="1.0"><defs><clipPath id="b4e3ec5284"><path d="M 93.332031 123 L 506.582031 123 L 506.582031 591.292969 L 93.332031 591.292969 Z M 93.332031 123 " clip-rule="nonzero"/></clipPath><clipPath id="82eb1c7379"><path d="M 132 8.542969 L 209 8.542969 L 209 88 L 132 88 Z M 132 8.542969 " clip-rule="nonzero"/></clipPath><clipPath id="b59702c2ef"><path d="M 219 8.542969 L 293 8.542969 L 293 88 L 219 88 Z M 219 8.542969 " clip-rule="nonzero"/></clipPath><clipPath id="ecd2411b9a"><path d="M 304 8.542969 L 393 8.542969 L 393 88 L 304 88 Z M 304 8.542969 " clip-rule="nonzero"/></clipPath><clipPath id="efa96cf5ac"><path d="M 405 8.542969 L 469 8.542969 L 469 88 L 405 88 Z M 405 8.542969 " clip-rule="nonzero"/></clipPath></defs><g clip-path="url(#b4e3ec5284)"><path fill="#e44d26" d="M 506.464844 123.0625 L 468.851562 544.40625 L 299.777344 591.269531 L 131.171875 544.46875 L 93.601562 123.0625 L 506.457031 123.058594 L 506.472656 123.058594 Z M 506.464844 123.0625 " fill-opacity="1" fill-rule="nonzero"/></g><path fill="#f16529" d="M 300.035156 555.449219 L 436.664062 517.582031 L 468.804688 157.523438 L 300.035156 157.519531 Z M 300.035156 555.449219 " fill-opacity="1" fill-rule="nonzero"/><path fill="#6bc9ff" d="M 226.917969 260.886719 L 300.035156 260.886719 L 300.035156 209.195312 L 170.429688 209.195312 L 171.667969 223.066406 L 184.371094 365.492188 L 300.035156 365.492188 L 300.035156 313.820312 L 231.640625 313.820312 Z M 226.917969 260.886719 " fill-opacity="1" fill-rule="nonzero"/><path fill="#6bc9ff" d="M 238.566406 391.335938 L 186.679688 391.335938 L 193.921875 472.496094 L 299.792969 501.882812 L 300.035156 501.816406 L 300.035156 448.042969 L 299.808594 448.105469 L 242.246094 432.554688 Z M 238.566406 391.335938 " fill-opacity="1" fill-rule="nonzero"/><g clip-path="url(#82eb1c7379)"><path fill="#6bc9ff" d="M 132.015625 8.542969 L 158.28125 8.542969 L 158.28125 34.492188 L 182.308594 34.492188 L 182.308594 8.542969 L 208.578125 8.542969 L 208.578125 87.125 L 182.3125 87.125 L 182.3125 60.8125 L 158.28125 60.8125 L 158.28125 87.125 L 132.015625 87.125 Z M 132.015625 8.542969 " fill-opacity="1" fill-rule="nonzero"/></g><g clip-path="url(#b59702c2ef)"><path fill="#6bc9ff" d="M 243.121094 34.601562 L 219.996094 34.601562 L 219.996094 8.542969 L 292.527344 8.542969 L 292.527344 34.601562 L 269.382812 34.601562 L 269.382812 87.125 L 243.121094 87.125 Z M 243.121094 34.601562 " fill-opacity="1" fill-rule="nonzero"/></g><g clip-path="url(#ecd2411b9a)"><path fill="#6bc9ff" d="M 304.035156 8.542969 L 331.417969 8.542969 L 348.265625 36.15625 L 365.097656 8.542969 L 392.496094 8.542969 L 392.496094 87.125 L 366.34375 87.125 L 366.34375 48.175781 L 348.265625 76.117188 L 347.8125 76.117188 L 329.734375 48.175781 L 329.734375 87.125 L 304.035156 87.125 Z M 304.035156 8.542969 " fill-opacity="1" fill-rule="nonzero"/></g><g clip-path="url(#efa96cf5ac)"><path fill="#6bc9ff" d="M 405.574219 8.542969 L 431.839844 8.542969 L 431.839844 61.152344 L 468.789062 61.152344 L 468.789062 87.125 L 405.574219 87.125 Z M 405.574219 8.542969 " fill-opacity="1" fill-rule="nonzero"/></g><path fill="#6bc9ff" d="M 299.859375 365.492188 L 363.511719 365.492188 L 357.507812 432.523438 L 299.859375 448.089844 L 299.859375 501.851562 L 405.816406 472.496094 L 406.59375 463.753906 L 418.746094 327.6875 L 420.007812 313.820312 L 299.859375 313.820312 Z M 299.859375 365.492188 " fill-opacity="1" fill-rule="nonzero"/><path fill="#6bc9ff" d="M 299.859375 260.757812 L 299.859375 260.886719 L 424.703125 260.886719 L 425.738281 249.265625 L 428.101562 223.066406 L 429.332031 209.195312 L 299.859375 209.195312 Z M 299.859375 260.757812 " fill-opacity="1" fill-rule="nonzero"/></svg>