<svg xmlns="http://www.w3.org/2000/svg" xmlns:xlink="http://www.w3.org/1999/xlink" width="800" zoomAndPan="magnify" viewBox="0 0 600 599.999999" height="800" preserveAspectRatio="xMidYMid meet" version="1.0"><defs><clipPath id="731670fd6b"><path d="M 71 120.738281 L 555.371094 120.738281 L 555.371094 600 L 71 600 Z M 71 120.738281 " clip-rule="nonzero"/></clipPath><clipPath id="50ec01c8f3"><path d="M 71 120.738281 L 314 120.738281 L 314 600 L 71 600 Z M 71 120.738281 " clip-rule="nonzero"/></clipPath><clipPath id="4417935132"><path d="M 53.332031 4.835938 L 546.832031 4.835938 L 546.832031 115.085938 L 53.332031 115.085938 Z M 53.332031 4.835938 " clip-rule="nonzero"/></clipPath><clipPath id="428dd0d08c"><path d="M 89 4.835938 L 417 4.835938 L 417 115.085938 L 89 115.085938 Z M 89 4.835938 " clip-rule="nonzero"/></clipPath><clipPath id="cae0a63ee7"><path d="M 370 4.835938 L 433 4.835938 L 433 113 L 370 113 Z M 370 4.835938 " clip-rule="nonzero"/></clipPath><clipPath id="40091dee81"><path d="M 393 4.835938 L 516 4.835938 L 516 115.085938 L 393 115.085938 Z M 393 4.835938 " clip-rule="nonzero"/></clipPath></defs><g clip-path="url(#731670fd6b)"><path fill="#f0f698" d="M 88.179688 119.613281 C 83.324219 119.613281 78.699219 121.695312 75.488281 125.335938 C 72.273438 128.976562 70.777344 133.820312 71.382812 138.636719 L 116.519531 499.753906 C 117.222656 505.371094 120.683594 510.265625 125.746094 512.796875 L 306.304688 603.074219 C 311.070312 605.457031 316.679688 605.457031 321.445312 603.074219 L 502.003906 512.796875 C 507.066406 510.265625 510.527344 505.371094 511.230469 499.753906 L 556.371094 138.636719 C 556.972656 133.820312 555.476562 128.976562 552.265625 125.335938 C 549.050781 121.695312 544.429688 119.613281 539.574219 119.613281 Z M 88.179688 119.613281 " fill-opacity="1" fill-rule="nonzero"/></g><g clip-path="url(#50ec01c8f3)"><path fill="#e6ed7d" d="M 313.875 119.613281 L 313.875 604.863281 C 311.28125 604.863281 308.6875 604.265625 306.304688 603.074219 L 125.746094 512.796875 C 120.683594 510.265625 117.222656 505.371094 116.519531 499.753906 L 71.382812 138.636719 C 70.777344 133.820312 72.273438 128.976562 75.488281 125.335938 C 78.699219 121.695312 83.324219 119.613281 88.179688 119.613281 Z M 313.875 119.613281 " fill-opacity="1" fill-rule="evenodd"/></g><path fill="#000000" d="M 280.023438 187.320312 C 289.371094 187.320312 296.949219 194.898438 296.949219 204.25 L 296.949219 497.65625 C 296.949219 503.691406 293.738281 509.265625 288.519531 512.296875 C 283.300781 515.324219 276.863281 515.34375 271.625 512.351562 L 192.632812 467.214844 C 184.515625 462.574219 181.695312 452.234375 186.332031 444.117188 C 190.972656 436 201.3125 433.179688 209.429688 437.816406 L 263.09375 468.484375 L 263.09375 204.25 C 263.09375 194.898438 270.675781 187.320312 280.023438 187.320312 Z M 280.023438 187.320312 " fill-opacity="1" fill-rule="evenodd"/><path fill="#000000" d="M 330.808594 204.25 C 330.808594 194.898438 338.386719 187.320312 347.734375 187.320312 L 460.582031 187.320312 C 469.933594 187.320312 477.511719 194.898438 477.511719 204.25 C 477.511719 213.597656 469.933594 221.175781 460.582031 221.175781 L 364.664062 221.175781 L 364.664062 329.847656 L 445.625 311.859375 C 450.902344 310.683594 456.417969 312.101562 460.476562 315.671875 C 464.535156 319.242188 466.644531 324.53125 466.15625 329.914062 L 454.871094 454.046875 C 454.339844 459.886719 450.828125 465.035156 445.582031 467.65625 L 355.304688 512.796875 C 346.941406 516.976562 336.773438 513.585938 332.59375 505.226562 C 328.414062 496.863281 331.804688 486.695312 340.164062 482.515625 L 422.007812 441.59375 L 430.34375 349.933594 L 351.40625 367.476562 C 346.394531 368.589844 341.148438 367.367188 337.144531 364.15625 C 333.136719 360.941406 330.808594 356.085938 330.808594 350.953125 Z M 330.808594 204.25 " fill-opacity="1" fill-rule="evenodd"/><g clip-path="url(#4417935132)"><path fill="#e6ed7d" d="M 69.359375 78.417969 C 69.359375 74.449219 68 71.585938 65.277344 69.898438 C 62.601562 68.210938 58.6875 67.367188 53.535156 67.367188 L 53.535156 52.59375 C 56.089844 52.59375 58.359375 52.410156 60.335938 52.039062 C 62.355469 51.628906 64.042969 50.988281 65.402344 50.125 C 66.761719 49.242188 67.769531 48.066406 68.429688 46.667969 C 69.128906 45.265625 69.441406 43.582031 69.359375 41.605469 L 69.359375 21.976562 C 69.359375 18.933594 69.75 16.335938 70.53125 14.199219 C 71.316406 11.992188 72.738281 10.246094 74.734375 8.890625 C 76.792969 7.492188 79.574219 6.464844 83.078125 5.800781 C 86.582031 5.140625 91.027344 4.835938 96.425781 4.835938 L 96.425781 18.726562 C 94.910156 18.761719 93.40625 18.902344 91.914062 19.160156 C 90.597656 19.410156 89.484375 19.859375 88.515625 20.519531 C 87.632812 21.136719 86.90625 22 86.414062 23.109375 C 85.917969 24.222656 85.671875 25.664062 85.671875 27.433594 L 85.671875 45.890625 C 85.425781 53.605469 80.605469 58.152344 71.214844 59.59375 L 71.214844 60.332031 C 75.949219 61.03125 79.601562 62.539062 82.089844 64.777344 C 84.578125 67.019531 85.796875 70.109375 85.671875 73.972656 L 85.671875 92.429688 C 85.671875 94.199219 85.921875 95.640625 86.414062 96.75 C 86.910156 97.863281 87.605469 98.726562 88.515625 99.34375 C 89.464844 100.007812 90.597656 100.457031 91.914062 100.703125 C 93.273438 100.953125 94.777344 101.09375 96.425781 101.136719 L 96.425781 115.085938 C 91.03125 115.085938 86.582031 114.753906 83.082031 114.097656 C 79.578125 113.441406 76.796875 112.410156 74.738281 111.011719 C 72.71875 109.652344 71.316406 107.878906 70.535156 105.703125 C 69.753906 103.523438 69.359375 100.90625 69.359375 97.863281 L 69.359375 78.414062 M 530.75 97.863281 C 530.75 100.90625 530.359375 103.519531 529.578125 105.703125 C 528.792969 107.882812 527.371094 109.652344 525.3125 111.011719 C 523.292969 112.410156 520.535156 113.4375 517.035156 114.097656 C 513.539062 114.761719 509.089844 115.085938 503.660156 115.085938 L 503.660156 101.136719 C 505.308594 101.085938 506.789062 100.949219 508.109375 100.703125 C 509.429688 100.457031 510.539062 100.003906 511.449219 99.34375 C 512.398438 98.726562 513.117188 97.863281 513.609375 96.75 C 514.148438 95.640625 514.414062 94.199219 514.414062 92.429688 L 514.414062 73.972656 C 514.289062 70.105469 515.484375 67.039062 518 64.777344 C 520.511719 62.519531 524.117188 61.035156 528.8125 60.332031 L 528.8125 59.59375 C 519.460938 58.152344 514.6875 53.585938 514.417969 45.890625 L 514.417969 27.433594 C 514.417969 25.664062 514.152344 24.222656 513.613281 23.109375 C 513.152344 22.03125 512.433594 21.164062 511.449219 20.519531 C 510.566406 19.859375 509.429688 19.40625 508.113281 19.160156 C 506.640625 18.898438 505.15625 18.753906 503.664062 18.726562 L 503.664062 4.835938 C 509.058594 4.835938 513.507812 5.167969 517.011719 5.824219 C 520.511719 6.480469 523.273438 7.511719 525.285156 8.910156 C 527.347656 10.269531 528.765625 12.039062 529.550781 14.21875 C 530.335938 16.359375 530.726562 18.953125 530.726562 21.996094 L 530.726562 41.628906 C 530.679688 43.605469 530.988281 45.289062 531.652344 46.6875 C 532.316406 48.089844 533.320312 49.242188 534.679688 50.148438 C 536.039062 51.011719 537.707031 51.644531 539.6875 52.0625 C 541.707031 52.429688 543.992188 52.617188 546.546875 52.617188 L 546.546875 67.390625 C 541.398438 67.390625 537.464844 68.230469 534.746094 69.921875 C 532.066406 71.609375 530.726562 74.449219 530.726562 78.4375 L 530.726562 97.886719 " fill-opacity="1" fill-rule="nonzero"/></g><path fill="#000000" d="M 122.855469 101.6875 C 121.453125 101.6875 120.207031 101.589844 119.179688 101.394531 C 118.132812 101.230469 117.222656 101 116.453125 100.695312 L 116.453125 94.09375 C 117.445312 94.355469 118.449219 94.546875 119.46875 94.671875 C 120.617188 94.84375 121.773438 94.925781 122.9375 94.921875 C 123.976562 94.921875 124.996094 94.785156 125.996094 94.507812 C 127.042969 94.265625 127.980469 93.796875 128.804688 93.105469 C 129.660156 92.417969 130.347656 91.46875 130.871094 90.242188 C 131.390625 89.011719 131.65625 87.488281 131.65625 85.617188 L 131.65625 25.289062 L 139.382812 25.289062 L 139.382812 84.8125 C 139.382812 87.679688 138.96875 90.203125 138.144531 92.320312 C 137.347656 94.4375 136.21875 96.1875 134.757812 97.5625 C 133.324219 98.964844 131.589844 99.996094 129.550781 100.660156 C 127.566406 101.347656 124.796875 101.691406 122.347656 101.691406 M 177.773438 79.363281 L 177.445312 79.363281 C 176.535156 80.601562 175.628906 81.675781 174.71875 82.585938 C 173.828125 83.453125 172.839844 84.179688 171.746094 84.773438 C 170.671875 85.347656 169.472656 85.773438 168.152344 86.050781 C 166.832031 86.328125 165.28125 86.464844 163.566406 86.464844 C 161.667969 86.464844 159.917969 86.183594 158.320312 85.636719 C 156.75 85.136719 155.359375 84.324219 154.148438 83.203125 C 152.992188 82.101562 152.082031 80.671875 151.421875 79.015625 C 150.761719 77.308594 150.429688 75.300781 150.429688 72.992188 C 150.429688 68.480469 152.011719 65.011719 155.179688 62.589844 C 158.375 60.171875 163.222656 58.851562 169.71875 58.628906 L 177.320312 58.339844 L 177.320312 55.472656 C 177.320312 53.628906 177.109375 52.085938 176.699219 50.851562 C 176.3125 49.617188 175.734375 48.644531 174.964844 47.878906 C 174.222656 47.109375 173.289062 46.558594 172.15625 46.226562 C 171.050781 45.894531 169.789062 45.730469 168.355469 45.730469 C 166.167969 45.714844 164.03125 46.042969 161.953125 46.722656 C 159.996094 47.382812 158.113281 48.175781 156.292969 49.113281 L 153.648438 43.460938 C 155.6875 42.359375 157.957031 41.425781 160.464844 40.652344 C 163.035156 39.871094 165.664062 39.488281 168.351562 39.5 C 171.164062 39.5 173.582031 39.789062 175.625 40.367188 C 177.6875 40.917969 179.382812 41.808594 180.703125 43.046875 C 182.027344 44.257812 183.058594 45.8125 183.71875 47.710938 C 184.378906 49.609375 184.710938 51.90625 184.710938 54.601562 L 184.710938 85.632812 L 179.289062 85.632812 Z M 165.507812 80.375 C 167.183594 80.375 168.742188 80.109375 170.175781 79.589844 C 171.609375 79.070312 172.824219 78.28125 173.894531 77.238281 C 174.9375 76.164062 175.75 74.828125 176.328125 73.234375 C 176.933594 71.613281 177.238281 69.714844 177.238281 67.539062 L 177.238281 63.453125 L 171.332031 63.746094 C 168.855469 63.855469 166.773438 64.128906 165.09375 64.570312 C 163.414062 65.007812 162.066406 65.628906 161.046875 66.425781 C 160.066406 67.175781 159.347656 68.125 158.898438 69.273438 C 158.457031 70.375 158.238281 71.625 158.238281 73.027344 C 158.238281 75.558594 158.898438 77.4375 160.21875 78.597656 C 161.542969 79.78125 163.308594 80.371094 165.503906 80.371094 M 191.019531 40.328125 L 198.785156 40.328125 L 207.003906 65.539062 L 208.082031 69.066406 L 209.316406 73.441406 L 210.429688 77.632812 L 211.132812 80.644531 L 211.417969 80.644531 L 212.121094 77.632812 L 213.234375 73.441406 L 214.472656 69.066406 L 215.546875 65.539062 L 223.765625 40.328125 L 231.53125 40.328125 L 216.042969 85.636719 L 206.496094 85.636719 Z M 262.25 79.363281 L 261.921875 79.363281 C 261.011719 80.601562 260.105469 81.675781 259.195312 82.585938 C 258.304688 83.453125 257.3125 84.179688 256.222656 84.773438 C 255.144531 85.347656 253.949219 85.773438 252.628906 86.050781 C 251.308594 86.328125 249.757812 86.464844 248.042969 86.464844 C 246.144531 86.464844 244.394531 86.183594 242.796875 85.636719 C 241.226562 85.136719 239.835938 84.324219 238.625 83.203125 C 237.46875 82.101562 236.558594 80.671875 235.898438 79.015625 C 235.238281 77.308594 234.90625 75.300781 234.90625 72.992188 C 234.90625 68.480469 236.488281 65.011719 239.65625 62.589844 C 242.851562 60.171875 247.695312 58.851562 254.195312 58.628906 L 261.792969 58.339844 L 261.792969 55.472656 C 261.792969 53.628906 261.585938 52.085938 261.175781 50.851562 C 260.789062 49.617188 260.210938 48.644531 259.441406 47.878906 C 258.699219 47.109375 257.765625 46.558594 256.632812 46.226562 C 255.527344 45.894531 254.261719 45.730469 252.832031 45.730469 C 250.644531 45.714844 248.507812 46.042969 246.429688 46.722656 C 244.472656 47.382812 242.585938 48.175781 240.769531 49.113281 L 238.125 43.460938 C 240.160156 42.359375 242.433594 41.425781 244.941406 40.652344 C 247.511719 39.871094 250.140625 39.488281 252.828125 39.5 C 255.636719 39.5 258.058594 39.789062 260.097656 40.367188 C 262.164062 40.917969 263.859375 41.808594 265.179688 43.046875 C 266.503906 44.257812 267.535156 45.8125 268.195312 47.710938 C 268.855469 49.609375 269.1875 51.90625 269.1875 54.601562 L 269.1875 85.632812 L 263.78125 85.632812 Z M 249.984375 80.394531 C 251.660156 80.394531 253.21875 80.128906 254.652344 79.609375 C 256.085938 79.089844 257.300781 78.300781 258.367188 77.257812 C 259.414062 76.183594 260.226562 74.847656 260.804688 73.253906 C 261.410156 71.632812 261.714844 69.734375 261.714844 67.558594 L 261.714844 63.472656 L 255.808594 63.765625 C 253.328125 63.875 251.25 64.152344 249.570312 64.589844 C 247.890625 65.027344 246.542969 65.648438 245.523438 66.445312 C 244.539062 67.195312 243.824219 68.144531 243.375 69.292969 C 242.933594 70.394531 242.714844 71.644531 242.714844 73.046875 C 242.714844 75.578125 243.375 77.457031 244.695312 78.617188 C 246.019531 79.800781 247.785156 80.394531 249.980469 80.394531 M 315.523438 69.5 C 315.523438 72.144531 315.039062 74.558594 314.074219 76.679688 C 313.140625 78.769531 311.789062 80.542969 310.027344 82.003906 C 308.265625 83.460938 306.117188 84.574219 303.582031 85.34375 C 301.050781 86.089844 298.199219 86.457031 295.03125 86.457031 C 291.976562 86.457031 289.113281 86.210938 286.441406 85.714844 C 283.796875 85.246094 281.582031 84.546875 279.792969 83.609375 L 279.792969 76.265625 L 282.96875 77.589844 L 286.769531 78.703125 L 290.859375 79.527344 C 292.253906 79.722656 293.648438 79.816406 295.054688 79.820312 C 299.460938 79.820312 302.710938 78.996094 304.800781 77.34375 C 306.921875 75.6875 307.980469 73.324219 307.980469 70.242188 C 307.980469 68.757812 307.773438 67.464844 307.363281 66.363281 C 306.976562 65.261719 306.273438 64.257812 305.257812 63.351562 C 304.261719 62.414062 302.929688 61.519531 301.25 60.667969 C 299.574219 59.785156 297.449219 58.839844 294.890625 57.800781 C 292.460938 56.839844 290.304688 55.816406 288.488281 54.667969 C 286.722656 53.511719 285.210938 52.242188 284.03125 50.785156 C 282.855469 49.328125 281.988281 47.703125 281.425781 45.917969 C 280.875 44.101562 280.601562 42.035156 280.601562 39.726562 C 280.601562 37.308594 281.042969 35.148438 281.925781 33.25 C 282.808594 31.351562 284.042969 29.753906 285.640625 28.464844 C 287.238281 27.140625 289.136719 26.140625 291.339844 25.453125 C 293.542969 24.765625 296.019531 24.421875 298.691406 24.421875 C 301.96875 24.421875 304.914062 24.734375 307.53125 25.371094 C 310.144531 25.972656 312.472656 26.757812 314.511719 27.722656 L 311.742188 34.160156 C 309.976562 33.363281 307.914062 32.675781 305.628906 32.097656 C 303.328125 31.484375 300.988281 31.183594 298.609375 31.1875 C 295.25 31.1875 292.652344 31.972656 290.804688 33.539062 C 288.957031 35.085938 288.035156 37.171875 288.035156 39.8125 C 288.035156 41.355469 288.242188 42.746094 288.652344 43.898438 C 289.066406 45.027344 289.757812 46.058594 290.71875 46.992188 C 291.683594 47.902344 292.925781 48.769531 294.519531 49.59375 C 296.4375 50.539062 298.390625 51.390625 300.386719 52.152344 C 302.890625 53.144531 305.078125 54.136719 306.953125 55.207031 C 308.847656 56.253906 310.433594 57.414062 311.703125 58.734375 C 312.976562 60.058594 313.925781 61.585938 314.550781 63.316406 C 315.210938 65.046875 315.5625 67.171875 315.5625 69.542969 M 343.511719 86.414062 C 340.730469 86.414062 338.125 85.988281 335.703125 85.136719 C 333.273438 84.257812 331.164062 82.882812 329.386719 81.011719 C 327.621094 79.113281 326.191406 76.707031 325.191406 73.789062 C 324.171875 70.84375 323.664062 67.308594 323.664062 63.203125 C 323.664062 58.882812 324.1875 55.226562 325.210938 52.226562 C 326.253906 49.203125 327.6875 46.753906 329.503906 44.886719 C 331.347656 42.988281 333.476562 41.609375 335.949219 40.761719 C 338.421875 39.914062 341.03125 39.484375 343.835938 39.484375 C 345.957031 39.480469 348.050781 39.714844 350.113281 40.183594 C 352.179688 40.652344 353.902344 41.230469 355.28125 41.917969 L 353.074219 48.273438 C 352.382812 47.976562 351.683594 47.714844 350.96875 47.488281 C 350.183594 47.203125 349.386719 46.972656 348.574219 46.785156 C 347.769531 46.570312 346.957031 46.40625 346.136719 46.289062 C 345.335938 46.152344 344.578125 46.082031 343.863281 46.082031 C 339.535156 46.082031 336.386719 47.472656 334.402344 50.273438 C 332.421875 53.023438 331.429688 57.316406 331.429688 63.144531 C 331.429688 68.949219 332.425781 73.199219 334.402344 75.898438 C 336.390625 78.542969 339.480469 79.898438 343.535156 79.898438 C 345.742188 79.898438 347.769531 79.648438 349.5625 79.15625 C 351.378906 78.632812 353.03125 78.054688 354.519531 77.339844 L 354.519531 84.027344 C 353 84.835938 351.402344 85.441406 349.730469 85.839844 C 348.050781 86.253906 345.871094 86.457031 343.421875 86.457031 M 384.46875 39.5 L 387.152344 39.621094 C 388.015625 39.660156 388.867188 39.757812 389.714844 39.914062 L 388.722656 46.847656 L 386.328125 46.515625 C 385.527344 46.40625 384.769531 46.351562 384.054688 46.351562 C 382.316406 46.351562 380.734375 46.707031 379.304688 47.421875 C 377.867188 48.113281 376.65625 49.113281 375.585938 50.4375 C 374.566406 51.726562 373.769531 53.296875 373.191406 55.140625 C 372.640625 56.953125 372.367188 58.976562 372.367188 61.203125 L 372.367188 85.628906 L 364.847656 85.628906 L 364.847656 40.332031 L 370.960938 40.332031 L 371.871094 48.625 L 372.203125 48.625 L 374.390625 45.199219 C 375.152344 44.132812 376.035156 43.175781 377.035156 42.332031 C 378.027344 41.476562 379.128906 40.804688 380.339844 40.308594 C 381.554688 39.789062 383.054688 39.523438 384.601562 39.523438 " fill-opacity="1" fill-rule="nonzero"/><g clip-path="url(#428dd0d08c)"><path stroke-linecap="butt" transform="matrix(2.207192, 0, 0, 2.205, 31.467238, -6.188791)" fill="none" stroke-linejoin="miter" d="M 41.404742 48.92349 C 40.769391 48.92349 40.20483 48.879202 39.739377 48.790625 C 39.265076 48.71622 38.852716 48.611699 38.504069 48.473519 L 38.504069 45.479613 C 38.953594 45.598306 39.408428 45.685111 39.870341 45.741801 C 40.390657 45.819749 40.914513 45.856951 41.441908 45.855179 C 41.91267 45.855179 42.374583 45.793175 42.827647 45.667396 C 43.301949 45.55756 43.726697 45.344975 44.100121 45.031412 C 44.487703 44.719621 44.799185 44.289136 45.036336 43.732872 C 45.271717 43.174836 45.392062 42.483935 45.392062 41.635366 L 45.392062 14.275671 L 48.892691 14.275671 L 48.892691 41.270429 C 48.892691 42.570741 48.705095 43.715157 48.33167 44.675332 C 47.970635 45.635508 47.459168 46.429159 46.797269 47.052742 C 46.147759 47.688725 45.361976 48.156413 44.438149 48.457575 C 43.5391 48.769366 42.284324 48.925262 41.174671 48.925262 M 66.286112 38.799128 L 66.13745 38.799128 C 65.725091 39.360706 65.314502 39.84788 64.902142 40.26065 C 64.498632 40.653932 64.050877 40.983439 63.555338 41.252713 C 63.068648 41.51313 62.525325 41.706228 61.927138 41.832007 C 61.328952 41.957787 60.626348 42.019791 59.849414 42.019791 C 58.9893 42.019791 58.196437 41.89224 57.472596 41.644224 C 56.761144 41.417467 56.131101 41.048986 55.582469 40.540553 C 55.058613 40.040979 54.646254 39.392594 54.347161 38.64146 C 54.048067 37.867296 53.897636 36.956724 53.897636 35.909743 C 53.897636 33.863611 54.614398 32.290482 56.049691 31.192126 C 57.497373 30.095542 59.693673 29.49676 62.636821 29.395782 L 66.080817 29.264688 L 66.080817 27.964377 C 66.080817 27.128209 65.985249 26.42845 65.799422 25.868642 C 65.624213 25.308835 65.362286 24.867721 65.013639 24.520499 C 64.67738 24.171505 64.254402 23.921718 63.741165 23.771137 C 63.240317 23.620555 62.668677 23.546151 62.019167 23.546151 C 61.028089 23.539065 60.060018 23.687874 59.118494 23.996122 C 58.231833 24.295513 57.378798 24.655136 56.554079 25.080306 L 55.355936 22.516885 C 56.279763 22.01731 57.308006 21.593911 58.444207 21.243146 C 59.608723 20.888838 60.799787 20.715227 62.017397 20.720541 C 63.29164 20.720541 64.387136 20.851635 65.312732 21.113824 C 66.247177 21.363611 67.015262 21.767523 67.613449 22.329101 C 68.213405 22.878279 68.680628 23.583353 68.979721 24.444323 C 69.278814 25.305292 69.429245 26.346959 69.429245 27.569323 L 69.429245 41.642452 L 66.972788 41.642452 Z M 60.728996 39.257957 C 61.488232 39.257957 62.194375 39.137492 62.843885 38.901877 C 63.493396 38.666262 64.043798 38.30841 64.528718 37.835409 C 65.00125 37.348235 65.369365 36.742367 65.631293 36.019578 C 65.905609 35.284388 66.043652 34.423419 66.043652 33.43667 L 66.043652 31.583637 L 63.367741 31.716503 C 62.245699 31.766106 61.302405 31.890114 60.541399 32.090298 C 59.780392 32.288711 59.169817 32.570386 58.707904 32.93178 C 58.263689 33.271916 57.938049 33.702401 57.734524 34.223234 C 57.534539 34.722809 57.435431 35.289703 57.435431 35.925686 C 57.435431 37.073646 57.734524 37.925757 58.33271 38.451905 C 58.932667 38.988683 59.732608 39.256185 60.727226 39.256185 M 72.287444 21.096108 L 75.805771 21.096108 L 79.529393 32.52964 L 80.017853 34.129343 L 80.577104 36.11347 L 81.081492 38.014334 L 81.400053 39.380193 L 81.529247 39.380193 L 81.847808 38.014334 L 82.352196 36.11347 L 82.913217 34.129343 L 83.399907 32.52964 L 87.123529 21.096108 L 90.641856 21.096108 L 83.624669 41.644224 L 79.299321 41.644224 Z M 104.559424 38.799128 L 104.410763 38.799128 C 103.998403 39.360706 103.587814 39.84788 103.175455 40.26065 C 102.771944 40.653932 102.32242 40.983439 101.82865 41.252713 C 101.34019 41.51313 100.798637 41.706228 100.200451 41.832007 C 99.602264 41.957787 98.899661 42.019791 98.122726 42.019791 C 97.262612 42.019791 96.46975 41.89224 95.745909 41.644224 C 95.034456 41.417467 94.404414 41.048986 93.855781 40.540553 C 93.331925 40.040979 92.919566 39.392594 92.620473 38.64146 C 92.32138 37.867296 92.170948 36.956724 92.170948 35.909743 C 92.170948 33.863611 92.88771 32.290482 94.323004 31.192126 C 95.770685 30.095542 97.965216 29.49676 100.910133 29.395782 L 104.35236 29.264688 L 104.35236 27.964377 C 104.35236 27.128209 104.258561 26.42845 104.072734 25.868642 C 103.897526 25.308835 103.635598 24.867721 103.286951 24.520499 C 102.950692 24.171505 102.527714 23.921718 102.014478 23.771137 C 101.513629 23.620555 100.94022 23.546151 100.292479 23.546151 C 99.301401 23.539065 98.33333 23.687874 97.391806 23.996122 C 96.505145 24.295513 95.65034 24.655136 94.827392 25.080306 L 93.629249 22.516885 C 94.551305 22.01731 95.581319 21.593911 96.717519 21.243146 C 97.882036 20.888838 99.073099 20.715227 100.29071 20.720541 C 101.563183 20.720541 102.660448 20.851635 103.584274 21.113824 C 104.520489 21.363611 105.288575 21.767523 105.886761 22.329101 C 106.486717 22.878279 106.95394 23.583353 107.253033 24.444323 C 107.552126 25.305292 107.702558 26.346959 107.702558 27.569323 L 107.702558 41.642452 L 105.253179 41.642452 Z M 99.002308 39.266815 C 99.761545 39.266815 100.467688 39.14635 101.117198 38.910735 C 101.766708 38.67512 102.31711 38.317268 102.800261 37.844266 C 103.274563 37.357092 103.642677 36.751225 103.904605 36.028436 C 104.178921 35.293246 104.316964 34.432276 104.316964 33.445528 L 104.316964 31.592495 L 101.641053 31.72536 C 100.517242 31.774963 99.575717 31.900743 98.814711 32.099156 C 98.053705 32.297568 97.44313 32.579243 96.981217 32.940638 C 96.535231 33.280774 96.211361 33.711259 96.007836 34.232092 C 95.807851 34.731667 95.708743 35.298561 95.708743 35.934544 C 95.708743 37.082503 96.007836 37.934615 96.606023 38.460763 C 97.205979 38.99754 98.005921 39.266815 99.000538 39.266815 M 128.695716 34.325984 C 128.695716 35.525318 128.476263 36.620131 128.039126 37.582078 C 127.616149 38.529853 127.003804 39.334133 126.205632 39.99669 C 125.40746 40.657475 124.43408 41.162365 123.285491 41.511358 C 122.138672 41.849723 120.846731 42.016248 119.411438 42.016248 C 118.027468 42.016248 116.730217 41.904641 115.519686 41.679655 C 114.321544 41.46707 113.318077 41.149964 112.507517 40.724794 L 112.507517 37.394295 L 113.94635 37.994847 L 115.668348 38.499737 L 117.52131 38.873532 C 118.153122 38.962109 118.784935 39.004626 119.422056 39.006398 C 121.418371 39.006398 122.89083 38.632603 123.837663 37.88324 C 124.798655 37.132106 125.278266 36.060324 125.278266 34.662577 C 125.278266 33.989391 125.184468 33.403011 124.99864 32.903436 C 124.823432 32.403861 124.504871 31.948575 124.044728 31.537577 C 123.593433 31.112407 122.989938 30.706724 122.228931 30.320527 C 121.469695 29.920159 120.506933 29.491446 119.347726 29.020216 C 118.246921 28.584416 117.270001 28.120272 116.447052 27.599439 C 115.647111 27.075062 114.962205 26.499311 114.427731 25.838526 C 113.895026 25.177741 113.502135 24.440779 113.247286 23.631185 C 112.997747 22.807418 112.873862 21.870272 112.873862 20.823291 C 112.873862 19.726706 113.073847 18.747043 113.473818 17.886074 C 113.873789 17.025105 114.43304 16.300544 115.156881 15.715935 C 115.880722 15.115382 116.740836 14.661867 117.738993 14.350076 C 118.737151 14.038285 119.859193 13.882389 121.069724 13.882389 C 122.554571 13.882389 123.888987 14.024112 125.074741 14.312874 C 126.258725 14.585691 127.313516 14.941771 128.237342 15.379342 L 126.982566 18.298843 C 126.182625 17.937449 125.24818 17.625657 124.212857 17.363469 C 123.170455 17.085337 122.110356 16.948928 121.032558 16.9507 C 119.510546 16.9507 118.33364 17.30678 117.496533 18.017168 C 116.659426 18.718699 116.241758 19.664702 116.241758 20.862265 C 116.241758 21.562024 116.335556 22.192693 116.521383 22.715297 C 116.70898 23.227273 117.022232 23.69496 117.457598 24.118359 C 117.894734 24.531128 118.457525 24.92441 119.179596 25.298206 C 120.048559 25.726919 120.93345 26.113115 121.837809 26.458566 C 122.97224 26.908537 123.963318 27.358509 124.812813 27.843912 C 125.671158 28.318685 126.389689 28.844833 126.964869 29.443614 C 127.541818 30.044167 127.971875 30.73684 128.25504 31.521633 C 128.554133 32.306426 128.713414 33.270145 128.713414 34.345471 M 141.376206 41.996761 C 140.116121 41.996761 138.935676 41.803663 137.838411 41.417467 C 136.737607 41.01887 135.781924 40.395287 134.976673 39.546718 C 134.176732 38.685749 133.528991 37.594479 133.075927 36.271137 C 132.614014 34.935394 132.383942 33.332149 132.383942 31.470258 C 132.383942 29.510933 132.621093 27.852769 133.084776 26.492225 C 133.557308 25.121052 134.206818 24.010295 135.029767 23.163498 C 135.865104 22.302528 136.829635 21.677174 137.949907 21.292749 C 139.07018 20.908325 140.252394 20.713455 141.523098 20.713455 C 142.48409 20.711683 143.432693 20.817976 144.367138 21.030561 C 145.303353 21.243146 146.083827 21.505334 146.70856 21.817126 L 145.708633 24.699425 C 145.395382 24.564787 145.078591 24.446094 144.75472 24.343345 C 144.398994 24.214022 144.037959 24.109501 143.669844 24.024467 C 143.305269 23.927032 142.937154 23.852627 142.5655 23.799481 C 142.202694 23.737477 141.859357 23.705589 141.535486 23.705589 C 139.574568 23.705589 138.148123 24.336258 137.249074 25.606454 C 136.351794 26.85362 135.902269 28.800544 135.902269 31.443685 C 135.902269 34.076197 136.353564 36.003634 137.249074 37.22777 C 138.149893 38.427104 139.549791 39.041829 141.386825 39.041829 C 142.386752 39.041829 143.305269 38.92845 144.117599 38.705236 C 144.940548 38.467849 145.689166 38.205661 146.363453 37.881469 L 146.363453 40.914349 C 145.675007 41.281058 144.951166 41.555647 144.193699 41.736344 C 143.432693 41.924128 142.445155 42.016248 141.335501 42.016248 M 159.932374 20.720541 L 161.148214 20.775459 C 161.539336 20.793174 161.925149 20.837463 162.309191 20.908325 L 161.859667 24.052812 L 160.77479 23.902231 C 160.411985 23.852627 160.068647 23.827826 159.744777 23.827826 C 158.957224 23.827826 158.240462 23.989036 157.592721 24.313228 C 156.941442 24.626791 156.392809 25.080306 155.907889 25.680859 C 155.445975 26.265468 155.08494 26.977628 154.823012 27.813795 C 154.573473 28.635791 154.449588 29.55345 154.449588 30.563229 L 154.449588 41.640681 L 151.042757 41.640681 L 151.042757 21.09788 L 153.812466 21.09788 L 154.224826 24.858863 L 154.375257 24.858863 L 155.366335 23.305221 C 155.711443 22.82159 156.111414 22.387562 156.564478 22.004909 C 157.014003 21.616941 157.513081 21.312236 158.061714 21.08725 C 158.612116 20.851635 159.291712 20.73117 159.992546 20.73117 " stroke="#000000" stroke-width="2.129" stroke-opacity="1" stroke-miterlimit="4"/></g><path fill="#000000" d="M 405.609375 85.636719 L 398.082031 85.636719 L 398.082031 40.328125 L 405.597656 40.328125 L 405.597656 85.636719 M 398.734375 24.460938 C 399.589844 23.71875 400.632812 23.347656 401.875 23.347656 C 402.480469 23.347656 403.042969 23.441406 403.566406 23.636719 C 404.105469 23.792969 404.574219 24.070312 404.96875 24.464844 C 405.382812 24.847656 405.699219 25.34375 405.917969 25.949219 C 406.167969 26.527344 406.289062 27.226562 406.289062 28.050781 C 406.289062 29.648438 405.847656 30.84375 404.964844 31.640625 C 404.113281 32.414062 403.078125 32.796875 401.867188 32.796875 C 400.632812 32.796875 399.550781 32.21875 398.695312 31.449219 C 397.871094 30.675781 397.480469 29.480469 397.480469 27.953125 C 397.484375 26.398438 397.902344 25.203125 398.726562 24.460938 Z M 398.734375 24.460938 " fill-opacity="1" fill-rule="nonzero"/><g clip-path="url(#cae0a63ee7)"><path stroke-linecap="square" transform="matrix(2.207192, 0, 0, 2.205, 31.467238, -6.188791)" fill="none" stroke-linejoin="miter" d="M 169.510436 41.644224 L 166.100065 41.644224 L 166.100065 21.096108 L 169.505126 21.096108 L 169.505126 41.644224 M 166.395619 13.900104 C 166.783201 13.563511 167.255733 13.395215 167.818524 13.395215 C 168.09284 13.395215 168.347689 13.437732 168.584839 13.526309 C 168.829069 13.597171 169.041443 13.72295 169.220191 13.901876 C 169.407788 14.075487 169.551141 14.300473 169.650248 14.575062 C 169.763514 14.83725 169.818378 15.154356 169.818378 15.528151 C 169.818378 16.252712 169.618392 16.794804 169.218421 17.156199 C 168.832609 17.506964 168.363617 17.680575 167.814984 17.680575 C 167.255733 17.680575 166.765503 17.418387 166.377921 17.069393 C 166.004497 16.718628 165.827519 16.176536 165.827519 15.483863 C 165.829288 14.778789 166.018655 14.236697 166.392079 13.900104 Z M 166.395619 13.900104 " stroke="#000000" stroke-width="2.129" stroke-opacity="1" stroke-miterlimit="4"/></g><path fill="#000000" d="M 440.085938 86.460938 C 438.460938 86.460938 436.984375 86.285156 435.664062 85.925781 C 434.347656 85.566406 433.144531 85.101562 432.074219 84.523438 C 431.027344 83.917969 430.089844 83.214844 429.261719 82.417969 C 428.480469 81.636719 427.761719 80.796875 427.117188 79.902344 L 426.617188 79.902344 L 426.867188 82.582031 L 427.03125 84.789062 L 427.113281 86.5625 L 427.113281 105.914062 L 419.59375 105.914062 L 419.59375 40.328125 L 425.710938 40.328125 L 426.785156 46.4375 L 427.117188 46.4375 C 427.746094 45.476562 428.464844 44.582031 429.261719 43.753906 C 430.078125 42.886719 431 42.160156 432.03125 41.566406 C 433.105469 40.933594 434.304688 40.4375 435.625 40.082031 C 436.949219 39.695312 438.433594 39.503906 440.082031 39.503906 C 442.671875 39.503906 445.027344 40 447.144531 40.988281 C 449.324219 42.019531 451.128906 43.503906 452.554688 45.445312 C 454.070312 47.398438 455.238281 49.855469 456.085938 52.75 C 456.933594 55.640625 457.324219 59.046875 457.324219 62.902344 C 457.324219 66.78125 456.910156 70.191406 456.085938 73.132812 C 455.261719 76.046875 454.089844 78.496094 452.554688 80.472656 C 451.066406 82.453125 449.246094 83.953125 447.148438 84.972656 C 445.027344 85.964844 442.152344 86.457031 439.5625 86.457031 M 438.636719 45.730469 C 436.542969 45.730469 434.769531 46.046875 433.308594 46.679688 C 431.863281 47.3125 430.695312 48.273438 429.796875 49.570312 C 428.914062 50.859375 428.253906 52.472656 427.816406 54.421875 C 427.402344 56.34375 427.167969 58.613281 427.113281 61.230469 L 427.113281 62.921875 C 427.113281 65.699219 427.289062 68.175781 427.648438 70.347656 C 428.035156 72.492188 428.667969 74.308594 429.546875 75.792969 C 430.433594 77.242188 431.632812 78.355469 433.140625 79.136719 C 434.628906 79.878906 436.488281 80.25 438.714844 80.25 C 442.433594 80.25 445.160156 78.75 446.894531 75.75 C 448.65625 72.753906 449.539062 68.449219 449.539062 62.835938 C 449.539062 57.113281 448.65625 52.835938 446.894531 50.003906 C 445.160156 47.171875 442.40625 45.753906 438.632812 45.753906 M 482.378906 80.3125 C 482.875 80.3125 483.425781 80.269531 484.035156 80.230469 L 485.851562 80.023438 L 487.394531 79.730469 L 488.511719 79.441406 L 488.511719 85.136719 C 488.152344 85.300781 487.699219 85.464844 487.148438 85.632812 C 486.59375 85.796875 485.988281 85.933594 485.328125 86.042969 C 484.648438 86.183594 483.957031 86.28125 483.265625 86.335938 C 482.566406 86.417969 481.863281 86.457031 481.160156 86.457031 C 479.542969 86.46875 477.960938 86.25 476.410156 85.796875 C 474.949219 85.363281 473.683594 84.605469 472.609375 83.527344 C 471.5625 82.453125 470.734375 81.011719 470.128906 79.191406 C 469.523438 77.351562 469.21875 75.039062 469.21875 72.261719 L 469.21875 45.976562 L 462.820312 45.976562 L 462.820312 42.632812 L 469.21875 39.414062 L 472.441406 29.925781 L 476.78125 29.925781 L 476.78125 40.324219 L 488.179688 40.324219 L 488.179688 45.976562 L 476.78125 45.976562 L 476.78125 72.261719 C 476.78125 74.90625 477.207031 76.933594 478.058594 78.285156 C 478.941406 79.609375 480.371094 80.308594 482.355469 80.308594 " fill-opacity="1" fill-rule="nonzero"/><g clip-path="url(#40091dee81)"><path stroke-linecap="butt" transform="matrix(2.207192, 0, 0, 2.205, 31.467238, -6.188791)" fill="none" stroke-linejoin="miter" d="M 185.130534 42.018019 C 184.394305 42.018019 183.725327 41.9383 183.127141 41.775318 C 182.530724 41.612336 181.985631 41.401523 181.500711 41.139335 C 181.026409 40.864746 180.601661 40.545868 180.226467 40.184473 C 179.872511 39.830165 179.546871 39.449283 179.254857 39.0436 L 179.028325 39.0436 L 179.141591 40.258878 L 179.215922 41.259799 L 179.253087 42.064079 L 179.253087 50.840299 L 175.846256 50.840299 L 175.846256 21.096108 L 178.617735 21.096108 L 179.104425 23.8668 L 179.254857 23.8668 C 179.539792 23.431 179.865432 23.025317 180.226467 22.64975 C 180.596352 22.256468 181.014021 21.926961 181.481243 21.657687 C 181.967933 21.370697 182.511256 21.145711 183.109443 20.984501 C 183.709399 20.809118 184.381916 20.722313 185.128765 20.722313 C 186.30213 20.722313 187.369309 20.947299 188.328531 21.395499 C 189.316069 21.863186 190.133709 22.536372 190.779679 23.416828 C 191.466355 24.302599 191.99552 25.416899 192.379563 26.729612 C 192.763605 28.040553 192.940584 29.585337 192.940584 31.333849 C 192.940584 33.092991 192.752987 34.639547 192.379563 35.973518 C 192.006139 37.295088 191.475204 38.405845 190.779679 39.302245 C 190.105392 40.200417 189.280674 40.880689 188.330301 41.343062 C 187.369309 41.793034 186.066749 42.016248 184.893383 42.016248 M 184.473945 23.546151 C 183.525342 23.546151 182.721861 23.689646 182.059962 23.976635 C 181.405143 24.263625 180.875978 24.699425 180.468928 25.287577 C 180.068957 25.872185 179.769864 26.603832 179.571648 27.487832 C 179.384051 28.35943 179.277864 29.388696 179.253087 30.575629 L 179.253087 31.342707 C 179.253087 32.602274 179.332727 33.725431 179.495547 34.710409 C 179.670756 35.682985 179.957461 36.506752 180.355662 37.179938 C 180.757402 37.83718 181.300725 38.34207 181.983861 38.696378 C 182.658148 39.032971 183.500565 39.201268 184.509341 39.201268 C 186.194173 39.201268 187.429482 38.520995 188.215265 37.160451 C 189.013437 35.801678 189.413407 33.849439 189.413407 31.303733 C 189.413407 28.708424 189.013437 26.768586 188.215265 25.484218 C 187.429482 24.19985 186.181785 23.55678 184.472175 23.55678 M 204.291967 39.229612 C 204.51673 39.229612 204.766269 39.210125 205.042355 39.19241 L 205.865304 39.098518 L 206.564368 38.965652 L 207.070526 38.834558 L 207.070526 41.417467 C 206.907706 41.491871 206.702411 41.566276 206.452872 41.642452 C 206.201563 41.716857 205.927246 41.778861 205.628153 41.828464 C 205.320211 41.89224 205.00696 41.936528 204.693708 41.96133 C 204.376917 41.998532 204.058356 42.016248 203.739795 42.016248 C 203.007105 42.021562 202.290344 41.922356 201.58774 41.716857 C 200.925841 41.520216 200.352432 41.176537 199.865742 40.687591 C 199.39144 40.200417 199.016246 39.546718 198.74193 38.72118 C 198.467614 37.886783 198.329571 36.838031 198.329571 35.578464 L 198.329571 23.657758 L 195.430667 23.657758 L 195.430667 22.141318 L 198.329571 20.681567 L 199.789641 16.378492 L 201.755869 16.378492 L 201.755869 21.094337 L 206.920094 21.094337 L 206.920094 23.657758 L 201.755869 23.657758 L 201.755869 35.578464 C 201.755869 36.777798 201.948776 37.697228 202.334588 38.310182 C 202.734559 38.910735 203.382299 39.227841 204.281349 39.227841 " stroke="#000000" stroke-width="2.129" stroke-opacity="1" stroke-miterlimit="4"/></g></svg>