<svg xmlns="http://www.w3.org/2000/svg" xmlns:xlink="http://www.w3.org/1999/xlink" width="150" zoomAndPan="magnify" viewBox="0 0 112.5 112.499997" height="150" preserveAspectRatio="xMidYMid meet" version="1.0"><defs><clipPath id="a76a06a587"><path d="M 29 5.410156 L 81 5.410156 L 81 107.410156 L 29 107.410156 Z M 29 5.410156 " clip-rule="nonzero"/></clipPath></defs><path fill="#4e7896" d="M 47.21875 59.5 C 47.21875 59.5 44.546875 61.136719 49.074219 61.605469 C 54.53125 62.304688 57.433594 62.1875 63.472656 61.019531 C 63.472656 61.019531 65.097656 62.070312 67.304688 62.890625 C 53.71875 68.730469 36.535156 62.539062 47.21875 59.5 Z M 45.476562 51.90625 C 45.476562 51.90625 42.574219 54.125 47.101562 54.59375 C 53.023438 55.179688 57.667969 55.296875 65.679688 53.660156 C 65.679688 53.660156 66.722656 54.828125 68.464844 55.410156 C 52.09375 60.320312 33.746094 55.878906 45.476562 51.90625 Z M 77.523438 65.222656 C 77.523438 65.222656 79.496094 66.859375 75.316406 68.144531 C 67.539062 70.480469 42.691406 71.183594 35.722656 68.144531 C 33.285156 67.09375 37.929688 65.574219 39.4375 65.339844 C 40.945312 64.992188 41.761719 64.992188 41.761719 64.992188 C 39.089844 63.121094 23.996094 68.847656 34.097656 70.480469 C 61.847656 75.039062 84.722656 68.496094 77.523438 65.222656 Z M 48.496094 43.960938 C 48.496094 43.960938 35.839844 47 43.96875 48.050781 C 47.449219 48.519531 54.300781 48.402344 60.6875 47.933594 C 65.914062 47.464844 71.136719 46.53125 71.136719 46.53125 C 71.136719 46.53125 69.28125 47.347656 68.003906 48.167969 C 55.113281 51.554688 30.382812 50.035156 37.464844 46.53125 C 43.503906 43.609375 48.496094 43.960938 48.496094 43.960938 Z M 71.136719 56.695312 C 84.140625 49.917969 78.105469 43.378906 73.925781 44.195312 C 72.878906 44.429688 72.414062 44.664062 72.414062 44.664062 C 72.414062 44.664062 72.761719 43.960938 73.574219 43.726562 C 81.820312 40.808594 88.324219 52.488281 70.90625 57.046875 C 70.90625 57.046875 71.023438 56.929688 71.136719 56.695312 Z M 49.773438 75.15625 C 62.3125 75.972656 81.46875 74.6875 81.9375 68.730469 C 81.9375 68.730469 81.007812 71.066406 71.601562 72.816406 C 60.921875 74.804688 47.683594 74.570312 39.90625 73.285156 C 39.90625 73.285156 41.53125 74.6875 49.773438 75.152344 Z M 49.773438 75.15625 " fill-opacity="1" fill-rule="nonzero"/><g clip-path="url(#a76a06a587)"><path fill="#f58219" d="M 63.242188 5.410156 C 63.242188 5.410156 70.441406 12.769531 56.390625 23.867188 C 45.128906 32.863281 53.835938 38.003906 56.390625 43.84375 C 49.769531 37.886719 45.011719 32.628906 48.261719 27.722656 C 53.023438 20.480469 66.144531 16.976562 63.242188 5.410156 Z M 59.527344 38.9375 C 62.894531 42.792969 58.597656 46.300781 58.597656 46.300781 C 58.597656 46.300781 67.191406 41.859375 63.242188 36.367188 C 59.644531 31.113281 56.855469 28.542969 71.953125 19.78125 C 71.953125 19.78125 48.148438 25.738281 59.527344 38.941406 Z M 50.933594 101.671875 L 50.933594 90.222656 C 50.933594 87.304688 49.308594 85.316406 45.242188 85.316406 C 42.921875 85.316406 40.949219 85.902344 39.207031 86.601562 L 39.785156 88.703125 C 41.0625 88.234375 42.6875 87.769531 44.429688 87.769531 C 46.636719 87.769531 47.683594 88.703125 47.683594 90.574219 L 47.683594 92.089844 L 46.519531 92.089844 C 40.949219 92.089844 38.394531 94.195312 38.394531 97.582031 C 38.394531 100.386719 40.132812 102.023438 43.269531 102.023438 C 45.242188 102.023438 46.753906 101.085938 48.148438 99.917969 L 48.378906 101.671875 Z M 47.683594 97.933594 C 46.519531 98.988281 45.242188 99.570312 44.082031 99.570312 C 42.574219 99.570312 41.644531 98.636719 41.644531 97 C 41.644531 95.363281 42.574219 94.195312 46.289062 94.195312 L 47.683594 94.195312 Z M 61.847656 101.671875 L 57.785156 101.671875 L 52.90625 85.667969 L 56.390625 85.667969 L 59.410156 95.480469 L 60.105469 98.402344 C 61.617188 94.195312 62.777344 89.875 63.242188 85.667969 L 66.726562 85.667969 C 65.796875 90.925781 64.171875 96.648438 61.847656 101.671875 Z M 80.660156 101.671875 L 80.660156 90.222656 C 80.660156 87.304688 79.03125 85.316406 74.96875 85.316406 C 72.648438 85.316406 70.671875 85.902344 68.929688 86.601562 L 69.394531 88.703125 C 70.789062 88.234375 72.414062 87.769531 74.15625 87.769531 C 76.363281 87.769531 77.40625 88.703125 77.40625 90.574219 L 77.40625 92.089844 L 76.246094 92.089844 C 70.671875 92.089844 68.117188 94.195312 68.117188 97.582031 C 68.117188 100.386719 69.742188 102.023438 72.878906 102.023438 C 74.96875 102.023438 76.480469 101.085938 77.871094 99.917969 L 78.105469 101.671875 Z M 77.40625 97.933594 C 76.246094 98.988281 74.96875 99.570312 73.808594 99.570312 C 72.296875 99.570312 71.371094 98.636719 71.371094 97 C 71.371094 95.363281 72.296875 94.195312 76.015625 94.195312 L 77.40625 94.195312 Z M 34.792969 104.359375 C 33.863281 105.761719 32.472656 106.8125 30.730469 107.398438 L 29.21875 105.53125 C 30.378906 104.828125 31.542969 103.777344 32.007812 102.84375 C 32.472656 102.023438 32.585938 100.855469 32.585938 98.171875 L 32.585938 79.945312 L 36.070312 79.945312 L 36.070312 97.9375 C 36.070312 101.558594 35.722656 102.960938 34.796875 104.363281 Z M 34.792969 104.359375 " fill-opacity="1" fill-rule="nonzero"/></g></svg>