<svg xmlns="http://www.w3.org/2000/svg" xmlns:xlink="http://www.w3.org/1999/xlink" width="800" zoomAndPan="magnify" viewBox="0 0 600 599.999999" height="800" preserveAspectRatio="xMidYMid meet" version="1.0"><defs><clipPath id="0044a531ca"><path d="M 9.691406 457 L 443 457 L 443 582 L 9.691406 582 Z M 9.691406 457 " clip-rule="nonzero"/></clipPath></defs><path fill="#0868ac" d="M 136.675781 103.84375 C 103.515625 152.402344 107.644531 215.578125 132.910156 267.113281 L 134.769531 270.785156 L 136.023438 273.109375 C 136.257812 273.5625 136.527344 274.007812 136.765625 274.449219 C 137.203125 275.265625 137.644531 276.050781 138.019531 276.851562 L 140.4375 281.078125 L 141.816406 283.402344 L 144.625 287.875 L 145.878906 289.757812 C 147.132812 291.765625 148.554688 293.765625 149.945312 295.734375 C 149.976562 295.785156 150.023438 295.84375 150.058594 295.894531 C 150.277344 296.207031 150.523438 296.519531 150.6875 296.835938 C 151.890625 298.53125 153.199219 300.199219 154.453125 301.859375 L 155.847656 303.667969 L 159.269531 307.949219 L 160.574219 309.542969 C 162.128906 311.425781 163.71875 313.273438 165.34375 315.097656 L 165.445312 315.195312 C 165.507812 315.277344 165.570312 315.320312 165.632812 315.402344 C 167.207031 317.179688 168.820312 318.917969 170.480469 320.617188 L 172.035156 322.210938 L 175.910156 326.078125 L 177.492188 327.609375 C 179.230469 329.28125 181 330.917969 182.792969 332.527344 L 183.800781 333.40625 L 188.613281 337.550781 L 190.609375 339.171875 L 194.628906 342.3125 L 196.773438 343.976562 L 202.914062 348.464844 C 203.070312 348.574219 203.207031 348.683594 203.363281 348.792969 C 204.808594 349.796875 206.269531 350.769531 207.742188 351.742188 L 209.636719 353.03125 L 216.492188 357.300781 L 218.386719 358.386719 L 223.535156 361.328125 C 224.476562 361.839844 225.4375 362.332031 226.378906 362.820312 L 230.054688 364.703125 L 230.902344 365.121094 L 232.410156 365.859375 L 238.246094 368.609375 L 239.484375 369.238281 C 241.734375 370.238281 244.003906 371.199219 246.289062 372.121094 L 247.945312 372.785156 L 254.367188 375.210938 L 255.171875 375.5 C 257.542969 376.335938 259.925781 377.132812 262.328125 377.886719 L 264.054688 378.414062 C 266.5625 379.167969 268.917969 380.066406 271.441406 380.546875 C 431.808594 410.414062 478.40625 282.421875 478.40625 282.421875 C 439.28125 334.355469 369.835938 348.046875 304.039062 332.804688 C 301.546875 332.175781 299.128906 331.441406 296.695312 330.707031 L 294.859375 330.078125 C 292.488281 329.339844 290.128906 328.554688 287.792969 327.738281 L 286.820312 327.378906 C 284.730469 326.625 282.652344 325.839844 280.585938 325.023438 L 278.828125 324.320312 C 276.570312 323.410156 274.324219 322.460938 272.101562 321.46875 L 270.757812 320.867188 L 265.082031 318.167969 L 263.449219 317.363281 C 261.976562 316.621094 260.511719 315.863281 259.054688 315.082031 L 256.125 313.511719 C 254.351562 312.542969 252.601562 311.539062 250.863281 310.503906 L 249.089844 309.5 C 246.777344 308.121094 244.492188 306.675781 242.234375 305.230469 C 241.605469 304.824219 241.003906 304.390625 240.382812 303.976562 L 235.503906 300.671875 L 233.933594 299.542969 L 229.320312 296.148438 L 227.273438 294.582031 L 223.113281 291.265625 L 221.253906 289.757812 L 216.078125 285.363281 C 215.902344 285.203125 215.699219 285.046875 215.449219 284.878906 C 213.601562 283.226562 211.789062 281.53125 210 279.828125 L 208.46875 278.324219 L 204.550781 274.417969 L 203.019531 272.847656 C 201.386719 271.152344 199.789062 269.425781 198.21875 267.671875 C 198.140625 267.585938 198.054688 267.503906 197.980469 267.421875 C 196.320312 265.566406 194.695312 263.683594 193.109375 261.769531 L 191.835938 260.226562 L 188.320312 255.808594 L 187.03125 254.175781 L 182.984375 248.683594 C 146.449219 197.910156 133.394531 127.894531 162.519531 70.386719 M 239.621094 62.925781 C 215.644531 98.089844 216.941406 145.152344 235.648438 182.339844 C 238.78125 188.589844 242.316406 194.605469 246.257812 200.378906 C 249.847656 205.625 253.832031 211.871094 258.605469 216.078125 C 260.332031 217.964844 262.136719 219.847656 263.984375 221.769531 C 264.449219 222.25 264.925781 222.710938 265.402344 223.195312 C 267.195312 224.972656 269.027344 226.707031 270.902344 228.398438 C 270.976562 228.460938 271.046875 228.539062 271.128906 228.601562 C 273.238281 230.476562 275.394531 232.296875 277.597656 234.0625 L 279.054688 235.21875 C 281.25 236.945312 283.488281 238.609375 285.773438 240.21875 C 285.832031 240.269531 285.894531 240.316406 285.960938 240.363281 C 286.964844 241.070312 288 241.742188 289.023438 242.421875 C 289.511719 242.75 289.976562 243.09375 290.46875 243.402344 C 292.105469 244.472656 293.761719 245.507812 295.445312 246.511719 L 296.148438 246.925781 L 300.542969 249.4375 C 301.058594 249.730469 301.585938 249.988281 302.109375 250.265625 L 305.25 251.886719 C 305.40625 251.96875 305.5625 252.03125 305.714844 252.105469 C 307.828125 253.171875 309.957031 254.175781 312.136719 255.152344 C 312.601562 255.359375 313.078125 255.546875 313.554688 255.746094 C 315.292969 256.5 317.050781 257.230469 318.828125 257.925781 L 321.085938 258.769531 C 322.691406 259.363281 324.300781 259.9375 325.921875 260.480469 L 328.105469 261.191406 C 330.410156 261.925781 332.6875 262.84375 335.089844 263.25 C 458.910156 284.148438 487.5 187.015625 487.5 187.015625 C 461.734375 224.820312 411.835938 242.867188 358.582031 228.789062 C 356.222656 228.164062 353.886719 227.472656 351.570312 226.714844 C 350.859375 226.496094 350.164062 226.265625 349.460938 226.089844 C 347.816406 225.546875 346.179688 224.972656 344.558594 224.367188 L 342.339844 223.527344 C 340.566406 222.898438 338.808594 222.113281 337.070312 221.359375 C 336.59375 221.152344 336.113281 220.964844 335.644531 220.746094 C 333.460938 219.789062 331.304688 218.769531 329.179688 217.6875 C 328.085938 217.140625 327.011719 216.570312 325.941406 216.003906 L 324.070312 215.023438 C 322.6875 214.265625 321.320312 213.480469 319.96875 212.667969 L 318.992188 212.042969 C 317.320312 211.042969 315.664062 210.011719 314.03125 208.953125 C 313.53125 208.625 313.039062 208.324219 312.539062 207.933594 L 309.324219 205.769531 C 307.054688 204.160156 304.824219 202.496094 302.632812 200.78125 L 301.125 199.578125 C 277.820312 180.824219 259.339844 155.203125 250.558594 126.148438 C 241.347656 96.007812 243.339844 62.191406 259.34375 34.742188 M 326.183594 32.355469 C 312.046875 53.554688 310.660156 79.878906 320.535156 103.289062 C 330.878906 128.140625 352.078125 147.636719 376.816406 156.875 C 377.832031 157.265625 378.855469 157.609375 379.953125 157.960938 L 381.308594 158.402344 C 382.765625 158.867188 384.214844 159.40625 385.71875 159.695312 C 454.089844 173.152344 472.628906 123.949219 477.566406 116.710938 C 461.320312 140.542969 434.019531 146.261719 400.523438 137.980469 C 397.886719 137.320312 394.96875 136.347656 392.363281 135.429688 C 389.085938 134.242188 385.875 132.882812 382.742188 131.355469 C 376.765625 128.421875 371.140625 124.925781 365.867188 120.863281 C 335.832031 97.691406 317.207031 53.492188 336.769531 17.5 " fill-opacity="1" fill-rule="nonzero"/><path fill="#0868ac" d="M 175.191406 482.378906 L 170.5625 498.804688 L 175.191406 482.382812 Z M 199.019531 518.035156 L 193.917969 518.003906 Z M 197.765625 542.5625 L 167.183594 542.675781 Z M 204.167969 518.070312 L 199.058594 518.039062 Z M 200.515625 540.476562 L 205.851562 520.148438 Z M 313.066406 446.867188 L 303.148438 493.542969 Z M 287.546875 446.867188 L 280.015625 481.738281 Z M 287.546875 446.867188 " fill-opacity="1" fill-rule="nonzero"/><path fill="#0868ac" d="M 311.308594 444.761719 L 290.089844 444.761719 C 288.910156 444.761719 287.742188 445.707031 287.492188 446.859375 L 272.425781 516.609375 C 272.175781 517.757812 271.007812 518.699219 269.835938 518.699219 L 254.8125 518.699219 C 239.949219 518.699219 241.667969 508.417969 244.769531 494.335938 L 244.863281 493.90625 L 246.664062 484.300781 L 247.445312 480.34375 L 254.296875 446.859375 C 254.535156 445.707031 253.765625 444.757812 252.585938 444.757812 L 230.800781 444.757812 C 230.503906 444.765625 230.210938 444.824219 229.929688 444.929688 C 229.648438 445.035156 229.390625 445.183594 229.15625 445.371094 C 228.925781 445.5625 228.726562 445.78125 228.566406 446.035156 C 228.40625 446.289062 228.289062 446.5625 228.214844 446.855469 L 218.40625 493.410156 C 213.007812 518.054688 214.4375 541.550781 243.765625 542.285156 L 244.613281 542.304688 L 290.636719 542.304688 C 291.816406 542.304688 292.976562 541.363281 293.230469 540.207031 L 313.078125 446.855469 C 313.328125 445.699219 312.554688 444.757812 311.382812 444.757812 Z M 395.96875 518.945312 C 397.148438 518.945312 397.851562 519.886719 397.679688 521.042969 L 395.621094 531.121094 M 393.5625 541.207031 L 395.621094 531.121094 Z M 390.976562 543.328125 L 351.871094 543.515625 Z M 390.976562 543.328125 " fill-opacity="1" fill-rule="nonzero"/><path fill="#0868ac" d="M 339.203125 505.972656 C 339.183594 504.867188 340.441406 502.96875 341.621094 502.96875 L 338.972656 502.925781 C 337.714844 514.945312 339.203125 505.972656 339.203125 505.972656 Z M 353.804688 543.511719 L 353.394531 543.511719 Z M 395.96875 518.945312 C 397.148438 518.945312 397.851562 519.886719 397.679688 521.042969 L 395.285156 532.757812 M 363.847656 543.542969 L 363.757812 543.542969 Z M 358.636719 543.503906 L 358.335938 543.503906 Z M 357.050781 543.511719 L 356.546875 543.511719 Z M 355.5 543.511719 L 355.058594 543.511719 Z M 358.398438 543.503906 L 357.113281 543.503906 Z M 358.398438 543.503906 " fill-opacity="1" fill-rule="nonzero"/><path fill="#0868ac" d="M 363.765625 543.542969 L 358.644531 543.558594 Z M 390.988281 543.382812 L 363.839844 543.546875 Z M 393.5 541.207031 L 395.226562 532.765625 L 393.5 541.210938 Z M 356.492188 543.511719 L 355.5 543.511719 L 356.617188 543.511719 Z M 353.382812 543.511719 L 351.875 543.511719 Z M 354.996094 543.511719 L 353.742188 543.511719 Z M 44.527344 506.222656 L 47.824219 491.601562 L 44.058594 508.308594 L 43.617188 510.402344 L 44.535156 506.210938 Z M 83.984375 444.523438 L 60.679688 444.523438 C 60.378906 444.535156 60.085938 444.59375 59.804688 444.699219 C 59.519531 444.804688 59.261719 444.953125 59.027344 445.140625 C 58.792969 445.328125 58.589844 445.546875 58.425781 445.800781 C 58.261719 446.054688 58.140625 446.324219 58.0625 446.617188 L 53.640625 466.082031 C 53.605469 466.207031 53.582031 466.335938 53.578125 466.46875 C 53.570312 466.601562 53.582031 466.730469 53.605469 466.859375 C 53.632812 466.988281 53.671875 467.113281 53.726562 467.230469 C 53.78125 467.351562 53.851562 467.460938 53.933594 467.5625 C 54.015625 467.667969 54.105469 467.757812 54.210938 467.835938 C 54.316406 467.917969 54.425781 467.984375 54.546875 468.039062 C 54.667969 468.089844 54.792969 468.128906 54.921875 468.152344 C 55.050781 468.175781 55.179688 468.183594 55.3125 468.171875 L 78.800781 468.171875 C 79.980469 468.171875 81.148438 467.230469 81.398438 466.082031 L 85.667969 446.570312 C 85.917969 445.421875 85.167969 444.480469 83.972656 444.480469 Z M 78.914062 476.976562 L 72.007812 508.613281 Z M 11.207031 581.816406 L 30.429688 581.964844 C 24.753906 581.964844 15.382812 581.859375 11.203125 581.808594 Z M 11.207031 581.816406 " fill-opacity="1" fill-rule="nonzero"/><g clip-path="url(#0044a531ca)"><path fill="#0868ac" d="M 51.054688 476.976562 L 47.753906 491.597656 Z M 77.230469 474.886719 L 53.734375 474.886719 C 53.433594 474.898438 53.144531 474.957031 52.859375 475.0625 C 52.578125 475.167969 52.320312 475.3125 52.085938 475.503906 C 51.847656 475.691406 51.648438 475.910156 51.484375 476.164062 C 51.316406 476.414062 51.195312 476.6875 51.117188 476.976562 L 44.527344 506.214844 L 43.609375 510.410156 L 37.332031 540.257812 C 37.023438 541.652344 36.644531 543.027344 36.203125 544.382812 C 36.203125 544.382812 31.808594 557.445312 24.441406 557.300781 L 17.128906 557.160156 C 16.828125 557.171875 16.535156 557.226562 16.253906 557.328125 C 15.972656 557.429688 15.710938 557.570312 15.476562 557.753906 C 15.238281 557.9375 15.035156 558.15625 14.867188 558.402344 C 14.699219 558.652344 14.574219 558.921875 14.492188 559.210938 L 9.625 579.699219 C 9.589844 579.824219 9.566406 579.953125 9.558594 580.082031 C 9.550781 580.214844 9.558594 580.34375 9.582031 580.472656 C 9.605469 580.601562 9.644531 580.726562 9.695312 580.847656 C 9.75 580.964844 9.816406 581.078125 9.898438 581.179688 C 9.976562 581.285156 10.070312 581.375 10.171875 581.457031 C 10.273438 581.539062 10.386719 581.605469 10.503906 581.660156 C 10.625 581.714844 10.746094 581.757812 10.875 581.78125 C 11.003906 581.804688 11.132812 581.816406 11.265625 581.808594 L 30.492188 581.964844 C 48.921875 581.964844 58.632812 571.75 64.867188 542.359375 L 78.988281 477.054688 C 79.242188 475.902344 78.472656 474.960938 77.292969 474.960938 Z M 410.9375 542.316406 C 409.757812 542.316406 409.054688 541.375 409.242188 540.21875 L 426.914062 457.417969 M 435.496094 540.214844 L 442.652344 504.871094 Z M 435.496094 540.214844 " fill-opacity="1" fill-rule="nonzero"/></g><path fill="#0868ac" d="M 409.5 541.269531 C 409.355469 540.691406 409.4375 539.277344 409.691406 538.128906 L 418.074219 498.816406 L 409.238281 540.21875 C 408.988281 541.375 409.753906 542.316406 410.933594 542.316406 L 413.078125 542.316406 C 411.898438 542.316406 409.640625 541.847656 409.5 541.269531 Z M 434.109375 541.847656 C 433.46875 542.097656 431.972656 542.316406 430.792969 542.316406 L 432.941406 542.316406 C 433.238281 542.304688 433.53125 542.246094 433.808594 542.140625 C 434.089844 542.035156 434.347656 541.886719 434.578125 541.695312 C 434.8125 541.507812 435.007812 541.285156 435.167969 541.03125 C 435.328125 540.777344 435.441406 540.503906 435.515625 540.214844 L 435.941406 538.117188 C 435.707031 539.273438 434.683594 541.589844 434.058594 541.847656 Z M 439.066406 522.542969 L 442.222656 506.945312 Z M 508.792969 462.960938 L 509.765625 466.980469 C 510.035156 468.128906 509.289062 469.066406 508.117188 469.070312 " fill-opacity="1" fill-rule="nonzero"/><path fill="#0868ac" d="M 435.921875 538.117188 L 439.058594 522.542969 Z M 507.832031 458.765625 L 508.792969 462.886719 Z M 442.222656 506.945312 L 443.089844 502.773438 L 446.460938 486.980469 L 442.644531 504.867188 L 442.222656 506.9375 Z M 427.203125 456.054688 L 426.46875 459.507812 L 418.082031 498.816406 L 426.921875 457.417969 L 427.203125 456.058594 Z M 427.203125 456.054688 " fill-opacity="1" fill-rule="nonzero"/><path fill="#0868ac" d="M 509.773438 466.980469 L 508.800781 462.960938 L 507.355469 456.683594 C 505.449219 449.273438 499.847656 444.984375 487.683594 444.984375 L 431.691406 444.945312 C 431.390625 444.957031 431.101562 445.015625 430.820312 445.117188 C 430.539062 445.222656 430.28125 445.371094 430.046875 445.5625 C 429.8125 445.75 429.617188 445.972656 429.453125 446.226562 C 429.292969 446.480469 429.175781 446.75 429.105469 447.042969 L 428.238281 451.144531 L 426.984375 457.339844 L 409.757812 538.054688 C 409.507812 539.207031 409.425781 540.566406 409.570312 541.191406 C 409.714844 541.820312 411.972656 542.242188 413.148438 542.242188 L 430.851562 542.242188 C 432.03125 542.242188 433.519531 542.027344 434.164062 541.769531 C 434.8125 541.511719 435.757812 539.257812 436.046875 538.039062 L 442.765625 504.796875 L 449.953125 471.113281 C 450.203125 469.964844 451.363281 469.027344 452.539062 469.023438 L 508.234375 468.996094 C 509.410156 468.996094 510.15625 468.054688 509.886719 466.90625 Z M 581.476562 430.601562 L 577.191406 430.621094 L 559.363281 430.621094 C 558.703125 430.660156 558.078125 430.835938 557.496094 431.144531 C 556.910156 431.453125 556.414062 431.871094 556.011719 432.394531 L 516.589844 490.164062 C 515.925781 491.136719 515.164062 490.992188 514.894531 489.851562 L 511.996094 477.121094 C 511.917969 476.832031 511.796875 476.558594 511.628906 476.308594 C 511.464844 476.054688 511.265625 475.835938 511.03125 475.648438 C 510.792969 475.457031 510.535156 475.3125 510.253906 475.207031 C 509.96875 475.101562 509.679688 475.042969 509.378906 475.03125 L 484.035156 475.03125 C 482.855469 475.03125 482.152344 475.953125 482.480469 477.089844 L 493.777344 516.890625 C 494.105469 518.019531 494.125 519.886719 493.839844 521.035156 L 488.820312 540.296875 C 488.777344 540.417969 488.75 540.546875 488.738281 540.675781 C 488.726562 540.804688 488.734375 540.933594 488.753906 541.0625 C 488.773438 541.191406 488.8125 541.316406 488.863281 541.4375 C 488.917969 541.558594 488.984375 541.667969 489.0625 541.773438 C 489.144531 541.875 489.234375 541.96875 489.335938 542.046875 C 489.441406 542.128906 489.550781 542.195312 489.671875 542.246094 C 489.792969 542.300781 489.914062 542.335938 490.042969 542.359375 C 490.171875 542.378906 490.300781 542.382812 490.433594 542.375 L 515.542969 542.375 C 516.722656 542.375 517.925781 541.433594 518.214844 540.300781 L 523.238281 521.042969 C 523.632812 519.675781 524.242188 518.414062 525.058594 517.25 L 589.121094 432.265625 C 589.832031 431.324219 589.449219 430.558594 588.269531 430.570312 L 581.550781 430.617188 Z M 380.128906 480.445312 C 379.980469 481.699219 378.800781 482.640625 377.621094 482.640625 L 345.480469 482.640625 C 344.371094 482.640625 343.804688 481.886719 343.972656 480.945312 L 344 480.777344 L 344.144531 480.230469 C 347.28125 472.066406 353.464844 466.710938 365.210938 466.710938 C 378.433594 466.710938 381.015625 473.179688 380.117188 480.445312 Z M 370.703125 443.34375 C 329.460938 443.34375 319.6875 468.386719 314.207031 493.664062 C 308.722656 519.429688 309.199219 543.523438 351.871094 543.523438 L 358.636719 543.523438 L 363.847656 543.503906 L 391.003906 543.339844 C 391.300781 543.328125 391.589844 543.265625 391.867188 543.160156 C 392.144531 543.050781 392.398438 542.902344 392.628906 542.714844 C 392.859375 542.523438 393.054688 542.304688 393.214844 542.050781 C 393.371094 541.796875 393.488281 541.527344 393.558594 541.238281 L 397.679688 521.066406 C 397.917969 519.910156 397.148438 518.96875 395.96875 518.96875 L 357.601562 518.96875 C 342.347656 518.96875 337.808594 514.914062 339.480469 502.988281 L 400.808594 502.988281 C 401.8125 502.96875 402.722656 502.359375 403.078125 501.40625 C 403.140625 501.234375 403.207031 501.054688 403.230469 500.871094 C 412.332031 466.523438 409.722656 443.371094 370.714844 443.371094 Z M 175.769531 480.304688 L 175.191406 482.359375 C 175.191406 482.367188 170.5625 498.785156 170.5625 498.785156 L 165.929688 515.203125 C 165.730469 515.792969 165.382812 516.277344 164.886719 516.65625 C 164.386719 517.03125 163.828125 517.234375 163.203125 517.261719 L 138.683594 517.261719 C 120.09375 517.261719 115.566406 502.710938 120.09375 481.253906 C 124.613281 459.308594 133.492188 445.660156 151.792969 444.28125 C 176.800781 442.394531 181.796875 459.992188 175.769531 480.300781 Z M 192.582031 516.003906 C 192.582031 516.003906 204.132812 487.9375 206.765625 471.714844 C 210.34375 450.007812 199.484375 418.527344 157.523438 418.527344 C 115.796875 418.527344 97.683594 448.582031 90.773438 481.324219 C 83.867188 514.226562 92.917969 543.089844 134.398438 542.863281 L 197.710938 542.632812 C 198.332031 542.601562 198.886719 542.394531 199.378906 542.011719 C 199.871094 541.632812 200.207031 541.140625 200.390625 540.546875 L 205.726562 520.214844 C 205.769531 520.089844 205.796875 519.964844 205.808594 519.832031 C 205.820312 519.703125 205.816406 519.574219 205.792969 519.445312 C 205.773438 519.316406 205.738281 519.191406 205.6875 519.070312 C 205.632812 518.953125 205.570312 518.839844 205.488281 518.738281 C 205.410156 518.632812 205.320312 518.542969 205.214844 518.460938 C 205.113281 518.378906 205.003906 518.3125 204.882812 518.257812 C 204.765625 518.207031 204.640625 518.167969 204.511719 518.148438 C 204.382812 518.125 204.253906 518.117188 204.125 518.128906 L 193.910156 518.066406 C 192.90625 518.058594 192.34375 517.414062 192.457031 516.558594 C 192.480469 516.402344 192.519531 516.246094 192.582031 516.082031 Z M 192.582031 516.003906 " fill-opacity="1" fill-rule="nonzero"/><path fill="#0868ac" d="M 399.125 497.222656 C 399.125 498.003906 398.496094 498.628906 397.71875 498.628906 C 396.941406 498.628906 396.3125 498.003906 396.3125 497.222656 C 396.3125 496.445312 396.941406 495.816406 397.71875 495.816406 C 398.496094 495.816406 399.125 496.445312 399.125 497.222656 Z M 399.125 497.222656 " fill-opacity="1" fill-rule="nonzero"/></svg>