<svg xmlns="http://www.w3.org/2000/svg" xmlns:xlink="http://www.w3.org/1999/xlink" width="150" zoomAndPan="magnify" viewBox="0 0 112.5 112.499997" height="150" preserveAspectRatio="xMidYMid meet" version="1.0"><defs><clipPath id="1b9ea2e14f"><path d="M 2.410156 62 L 48 62 L 48 84.210938 L 2.410156 84.210938 Z M 2.410156 62 " clip-rule="nonzero"/></clipPath><clipPath id="06ef22e8fc"><path d="M 104 74 L 110.410156 74 L 110.410156 80 L 104 80 Z M 104 74 " clip-rule="nonzero"/></clipPath></defs><g clip-path="url(#1b9ea2e14f)"><path fill="#00618a" d="M 2.800781 79.351562 L 6.332031 79.351562 L 6.332031 65.527344 L 11.800781 77.582031 C 12.445312 79.035156 13.332031 79.558594 15.0625 79.558594 C 16.792969 79.558594 17.644531 79.039062 18.289062 77.582031 L 23.757812 65.527344 L 23.757812 79.355469 L 27.289062 79.355469 L 27.289062 65.550781 C 27.289062 64.207031 26.746094 63.554688 25.625 63.21875 C 22.941406 62.386719 21.144531 63.105469 20.328125 64.902344 L 14.960938 76.796875 L 9.765625 64.894531 C 8.984375 63.101562 7.148438 62.382812 4.464844 63.210938 C 3.34375 63.550781 2.800781 64.199219 2.800781 65.546875 Z M 30.226562 68.097656 L 33.757812 68.097656 L 33.757812 75.714844 C 33.726562 76.128906 33.890625 77.101562 35.828125 77.128906 C 36.816406 77.144531 43.445312 77.128906 43.507812 77.128906 L 43.507812 68.058594 L 47.046875 68.058594 C 47.0625 68.058594 47.042969 80.425781 47.042969 80.480469 C 47.0625 83.53125 43.226562 84.191406 41.457031 84.242188 L 30.304688 84.242188 L 30.304688 81.886719 L 41.476562 81.886719 C 43.75 81.648438 43.480469 80.527344 43.480469 80.152344 L 43.480469 79.234375 L 35.976562 79.234375 C 32.480469 79.203125 30.257812 77.691406 30.230469 75.953125 C 30.226562 75.796875 30.304688 68.171875 30.226562 68.097656 Z M 30.226562 68.097656 " fill-opacity="1" fill-rule="nonzero"/></g><path fill="#e48e00" d="M 49.769531 79.351562 L 59.925781 79.351562 C 61.113281 79.351562 62.269531 79.101562 63.1875 78.675781 C 64.714844 77.980469 65.464844 77.039062 65.464844 75.804688 L 65.464844 73.246094 C 65.464844 72.234375 64.613281 71.292969 62.949219 70.664062 C 62.066406 70.328125 60.980469 70.148438 59.925781 70.148438 L 55.648438 70.148438 C 54.222656 70.148438 53.542969 69.722656 53.371094 68.777344 C 53.339844 68.667969 53.339844 68.570312 53.339844 68.464844 L 53.339844 66.871094 C 53.339844 66.78125 53.339844 66.691406 53.371094 66.578125 C 53.542969 65.859375 53.914062 65.660156 55.171875 65.542969 C 55.273438 65.542969 55.410156 65.519531 55.511719 65.519531 L 65.601562 65.519531 L 65.601562 63.183594 L 55.683594 63.183594 C 54.253906 63.183594 53.507812 63.273438 52.828125 63.476562 C 50.71875 64.128906 49.800781 65.164062 49.800781 66.960938 L 49.800781 69.003906 C 49.800781 70.574219 51.605469 71.921875 54.625 72.234375 C 54.964844 72.257812 55.304688 72.28125 55.644531 72.28125 L 59.3125 72.28125 C 59.449219 72.28125 59.585938 72.28125 59.6875 72.304688 C 60.808594 72.394531 61.28125 72.59375 61.621094 73 C 61.832031 73.207031 61.894531 73.402344 61.894531 73.621094 L 61.894531 75.664062 C 61.894531 75.910156 61.726562 76.226562 61.386719 76.492188 C 61.078125 76.761719 60.570312 76.941406 59.890625 76.988281 C 59.753906 76.988281 59.652344 77.011719 59.515625 77.011719 L 49.769531 77.011719 Z M 87.496094 75.289062 C 87.496094 77.6875 89.296875 79.035156 92.933594 79.304688 C 93.269531 79.332031 93.609375 79.347656 93.949219 79.351562 L 103.15625 79.351562 L 103.15625 77.015625 L 93.882812 77.015625 C 91.8125 77.015625 91.03125 76.5 91.03125 75.265625 L 91.03125 63.191406 L 87.496094 63.191406 Z M 67.714844 75.410156 L 67.714844 67.089844 C 67.714844 64.972656 69.214844 63.691406 72.175781 63.289062 C 72.492188 63.242188 72.808594 63.21875 73.128906 63.21875 L 79.832031 63.21875 C 80.164062 63.21875 80.492188 63.242188 80.820312 63.289062 C 83.78125 63.691406 85.277344 64.972656 85.277344 67.089844 L 85.277344 75.410156 C 85.277344 77.125 84.640625 78.042969 83.175781 78.640625 L 86.65625 81.753906 L 82.554688 81.753906 L 79.738281 79.234375 L 76.90625 79.414062 L 73.128906 79.414062 C 72.480469 79.414062 71.800781 79.324219 71.050781 79.121094 C 68.800781 78.511719 67.71875 77.34375 67.71875 75.410156 Z M 71.527344 75.203125 C 71.527344 75.3125 71.5625 75.425781 71.597656 75.5625 C 71.804688 76.527344 72.71875 77.070312 74.109375 77.070312 L 77.320312 77.070312 L 74.371094 74.429688 L 78.472656 74.429688 L 81.039062 76.730469 C 81.511719 76.480469 81.824219 76.097656 81.929688 75.605469 C 81.960938 75.496094 81.960938 75.382812 81.960938 75.269531 L 81.960938 67.292969 C 81.960938 67.203125 81.960938 67.082031 81.929688 66.976562 C 81.71875 66.078125 80.804688 65.558594 79.445312 65.558594 L 74.121094 65.558594 C 72.550781 65.558594 71.535156 66.234375 71.535156 67.292969 L 71.535156 75.207031 Z M 71.527344 75.203125 " fill-opacity="1" fill-rule="nonzero"/><path fill="#00618a" d="M 106.261719 59.316406 C 104.089844 59.257812 102.429688 59.460938 101.011719 60.050781 C 100.609375 60.21875 99.96875 60.226562 99.902344 60.726562 C 100.125 60.957031 100.160156 61.300781 100.332031 61.582031 C 100.671875 62.125 101.246094 62.851562 101.753906 63.234375 C 102.3125 63.652344 102.886719 64.097656 103.484375 64.457031 C 104.546875 65.101562 105.730469 65.46875 106.753906 66.109375 C 107.359375 66.488281 107.957031 66.96875 108.546875 67.394531 C 108.835938 67.605469 109.03125 67.9375 109.410156 68.070312 L 109.410156 68.007812 C 109.210938 67.757812 109.160156 67.414062 108.976562 67.152344 L 108.175781 66.355469 C 107.390625 65.316406 106.394531 64.417969 105.335938 63.664062 C 104.492188 63.0625 102.601562 62.25 102.246094 61.277344 L 102.1875 61.214844 C 102.785156 61.148438 103.484375 60.933594 104.039062 60.785156 C 104.96875 60.539062 105.796875 60.601562 106.757812 60.359375 L 108.054688 59.992188 L 108.054688 59.746094 C 107.566406 59.253906 107.222656 58.601562 106.695312 58.15625 C 105.3125 56.988281 103.804688 55.824219 102.25 54.847656 C 101.386719 54.308594 100.324219 53.960938 99.410156 53.503906 C 99.101562 53.347656 98.5625 53.269531 98.359375 53.011719 C 97.878906 52.40625 97.621094 51.636719 97.25 50.9375 C 96.472656 49.457031 95.714844 47.84375 95.027344 46.285156 C 94.558594 45.226562 94.25 44.179688 93.667969 43.226562 C 90.863281 38.65625 87.847656 35.898438 83.171875 33.191406 C 82.175781 32.613281 80.980469 32.386719 79.714844 32.089844 L 77.675781 31.964844 C 77.261719 31.796875 76.832031 31.292969 76.441406 31.046875 C 74.894531 30.078125 70.921875 27.96875 69.773438 30.738281 C 69.050781 32.488281 70.855469 34.195312 71.503906 35.082031 C 71.957031 35.703125 72.535156 36.402344 72.859375 37.101562 C 73.074219 37.5625 73.109375 38.023438 73.292969 38.507812 C 73.742188 39.703125 74.132812 41.011719 74.710938 42.121094 C 75.007812 42.679688 75.328125 43.269531 75.699219 43.773438 C 75.929688 44.078125 76.320312 44.214844 76.378906 44.691406 C 76 45.21875 75.976562 46.039062 75.761719 46.710938 C 74.796875 49.726562 75.160156 53.472656 76.5625 55.707031 C 76.996094 56.390625 78.007812 57.859375 79.40625 57.296875 C 80.625 56.804688 80.347656 55.277344 80.703125 53.933594 C 80.78125 53.625 80.730469 53.402344 80.886719 53.199219 L 80.886719 53.257812 L 82 55.460938 C 82.820312 56.773438 84.28125 58.148438 85.515625 59.074219 C 86.160156 59.554688 86.667969 60.382812 87.492188 60.664062 L 87.492188 60.601562 L 87.429688 60.601562 C 87.269531 60.355469 87.019531 60.25 86.8125 60.054688 C 86.332031 59.582031 85.792969 59 85.394531 58.460938 C 84.269531 56.949219 83.273438 55.292969 82.367188 53.566406 C 81.9375 52.742188 81.558594 51.832031 81.195312 50.996094 C 81.054688 50.671875 81.058594 50.183594 80.761719 50.015625 C 80.363281 50.632812 79.777344 51.128906 79.46875 51.851562 C 78.972656 53.011719 78.910156 54.425781 78.726562 55.890625 C 78.617188 55.929688 78.664062 55.902344 78.601562 55.953125 C 77.742188 55.746094 77.441406 54.871094 77.121094 54.117188 C 76.3125 52.210938 76.164062 49.148438 76.875 46.957031 C 77.058594 46.390625 77.890625 44.605469 77.554688 44.082031 C 77.390625 43.558594 76.863281 43.25 76.566406 42.855469 C 76.199219 42.363281 75.832031 41.710938 75.578125 41.144531 C 74.914062 39.660156 74.605469 37.992188 73.910156 36.492188 C 73.578125 35.773438 73.015625 35.050781 72.550781 34.417969 C 72.039062 33.710938 71.46875 33.191406 71.070312 32.339844 C 70.929688 32.035156 70.738281 31.550781 70.945312 31.238281 C 70.992188 31.039062 71.113281 30.914062 71.316406 30.871094 C 71.675781 30.597656 72.671875 30.960938 73.046875 31.117188 C 74.035156 31.523438 74.863281 31.914062 75.703125 32.464844 C 76.105469 32.722656 76.511719 33.238281 76.996094 33.382812 L 77.554688 33.382812 C 78.421875 33.578125 79.394531 33.445312 80.207031 33.6875 C 81.644531 34.121094 82.929688 34.792969 84.097656 35.523438 C 87.65625 37.75 90.566406 40.921875 92.554688 44.707031 C 92.875 45.316406 93.015625 45.898438 93.296875 46.542969 C 93.867188 47.839844 94.582031 49.1875 95.148438 50.460938 C 95.714844 51.730469 96.265625 53.011719 97.0625 54.070312 C 97.484375 54.625 99.105469 54.925781 99.839844 55.234375 C 100.359375 55.449219 101.203125 55.675781 101.691406 55.96875 C 102.628906 56.527344 103.535156 57.191406 104.410156 57.804688 C 104.847656 58.109375 106.195312 58.78125 106.261719 59.335938 Z M 106.261719 59.316406 " fill-opacity="1" fill-rule="nonzero"/><path fill="#00618a" d="M 78.664062 36.003906 C 78.214844 35.992188 77.894531 36.050781 77.554688 36.125 L 77.554688 36.1875 L 77.617188 36.1875 C 77.832031 36.625 78.214844 36.910156 78.480469 37.289062 L 79.097656 38.570312 L 79.160156 38.511719 C 79.542969 38.242188 79.71875 37.816406 79.714844 37.164062 C 79.5625 37.003906 79.539062 36.804688 79.40625 36.613281 C 79.230469 36.359375 78.882812 36.214844 78.664062 36 Z M 78.664062 36.003906 " fill-opacity="1" fill-rule="evenodd"/><g clip-path="url(#06ef22e8fc)"><path fill="#e48e00" d="M 104.816406 76.949219 C 104.816406 78.492188 106.042969 79.53125 107.417969 79.53125 C 108.792969 79.53125 110.023438 78.492188 110.023438 76.949219 C 110.023438 75.40625 108.792969 74.371094 107.417969 74.371094 C 106.042969 74.371094 104.816406 75.40625 104.816406 76.949219 Z M 109.4375 76.949219 C 109.4375 78.117188 108.535156 78.992188 107.417969 78.992188 C 106.289062 78.992188 105.398438 78.117188 105.398438 76.949219 C 105.398438 75.78125 106.285156 74.90625 107.417969 74.90625 C 108.535156 74.90625 109.4375 75.78125 109.4375 76.949219 Z M 108.121094 78.421875 L 108.703125 78.421875 L 107.847656 77.128906 C 108.308594 77.082031 108.652344 76.859375 108.652344 76.324219 C 108.652344 75.726562 108.269531 75.476562 107.535156 75.476562 L 106.375 75.476562 L 106.375 78.421875 L 106.875 78.421875 L 106.875 77.148438 L 107.339844 77.148438 L 108.117188 78.421875 Z M 106.875 76.734375 L 106.875 75.890625 L 107.453125 75.890625 C 107.75 75.890625 108.113281 75.945312 108.113281 76.289062 C 108.113281 76.703125 107.785156 76.738281 107.410156 76.738281 L 106.875 76.738281 Z M 106.875 76.734375 " fill-opacity="1" fill-rule="evenodd"/></g></svg>