<svg xmlns="http://www.w3.org/2000/svg" xmlns:xlink="http://www.w3.org/1999/xlink" width="150" zoomAndPan="magnify" viewBox="0 0 112.5 112.499997" height="150" preserveAspectRatio="xMidYMid meet" version="1.0"><defs><clipPath id="2976ac314e"><path d="M 1.289062 27.671875 L 111.539062 27.671875 L 111.539062 84.671875 L 1.289062 84.671875 Z M 1.289062 27.671875 " clip-rule="nonzero"/></clipPath><clipPath id="9146212fa5"><path d="M 1.289062 56.179688 C 1.289062 71.886719 25.96875 84.617188 56.414062 84.617188 C 86.855469 84.617188 111.535156 71.886719 111.535156 56.179688 C 111.535156 40.472656 86.855469 27.738281 56.414062 27.738281 C 25.96875 27.738281 1.289062 40.472656 1.289062 56.179688 " clip-rule="nonzero"/></clipPath><clipPath id="a6a1f8367b"><path d="M 1.289062 56.179688 C 1.289062 71.886719 25.96875 84.617188 56.414062 84.617188 C 86.855469 84.617188 111.535156 71.886719 111.535156 56.179688 C 111.535156 40.472656 86.855469 27.738281 56.414062 27.738281 C 25.96875 27.738281 1.289062 40.472656 1.289062 56.179688 " clip-rule="nonzero"/></clipPath><radialGradient gradientTransform="matrix(1.009701, 0, 0, 0.990299, 34.385096, 37.73711)" gradientUnits="userSpaceOnUse" r="71.690031" cx="0" id="7989a4b179" cy="0" fx="0" fy="0"><stop stop-opacity="1" stop-color="rgb(68.199158%, 69.799805%, 83.499146%)" offset="0"/><stop stop-opacity="1" stop-color="rgb(68.199158%, 69.799805%, 83.499146%)" offset="0.25"/><stop stop-opacity="1" stop-color="rgb(68.164062%, 69.764709%, 83.473206%)" offset="0.296875"/><stop stop-opacity="1" stop-color="rgb(67.956543%, 69.555664%, 83.317566%)" offset="0.300781"/><stop stop-opacity="1" stop-color="rgb(67.608643%, 69.20929%, 83.059692%)" offset="0.304688"/><stop stop-opacity="1" stop-color="rgb(67.260742%, 68.861389%, 82.800293%)" offset="0.308594"/><stop stop-opacity="1" stop-color="rgb(66.914368%, 68.513489%, 82.542419%)" offset="0.3125"/><stop stop-opacity="1" stop-color="rgb(66.566467%, 68.167114%, 82.28302%)" offset="0.316406"/><stop stop-opacity="1" stop-color="rgb(66.220093%, 67.819214%, 82.025146%)" offset="0.320312"/><stop stop-opacity="1" stop-color="rgb(65.872192%, 67.472839%, 81.765747%)" offset="0.324219"/><stop stop-opacity="1" stop-color="rgb(65.525818%, 67.124939%, 81.506348%)" offset="0.328125"/><stop stop-opacity="1" stop-color="rgb(65.177917%, 66.778564%, 81.248474%)" offset="0.332031"/><stop stop-opacity="1" stop-color="rgb(64.831543%, 66.430664%, 80.989075%)" offset="0.335938"/><stop stop-opacity="1" stop-color="rgb(64.483643%, 66.08429%, 80.731201%)" offset="0.339844"/><stop stop-opacity="1" stop-color="rgb(64.135742%, 65.736389%, 80.471802%)" offset="0.34375"/><stop stop-opacity="1" stop-color="rgb(63.789368%, 65.388489%, 80.213928%)" offset="0.347656"/><stop stop-opacity="1" stop-color="rgb(63.441467%, 65.042114%, 79.954529%)" offset="0.351562"/><stop stop-opacity="1" stop-color="rgb(63.095093%, 64.694214%, 79.696655%)" offset="0.355469"/><stop stop-opacity="1" stop-color="rgb(62.747192%, 64.347839%, 79.437256%)" offset="0.359375"/><stop stop-opacity="1" stop-color="rgb(62.400818%, 63.999939%, 79.179382%)" offset="0.363281"/><stop stop-opacity="1" stop-color="rgb(62.052917%, 63.653564%, 78.919983%)" offset="0.367188"/><stop stop-opacity="1" stop-color="rgb(61.706543%, 63.305664%, 78.662109%)" offset="0.371094"/><stop stop-opacity="1" stop-color="rgb(61.358643%, 62.95929%, 78.40271%)" offset="0.375"/><stop stop-opacity="1" stop-color="rgb(61.010742%, 62.611389%, 78.144836%)" offset="0.378906"/><stop stop-opacity="1" stop-color="rgb(60.664368%, 62.263489%, 77.885437%)" offset="0.382812"/><stop stop-opacity="1" stop-color="rgb(60.316467%, 61.917114%, 77.627563%)" offset="0.386719"/><stop stop-opacity="1" stop-color="rgb(59.970093%, 61.569214%, 77.368164%)" offset="0.390625"/><stop stop-opacity="1" stop-color="rgb(59.622192%, 61.222839%, 77.108765%)" offset="0.394531"/><stop stop-opacity="1" stop-color="rgb(59.275818%, 60.874939%, 76.850891%)" offset="0.398438"/><stop stop-opacity="1" stop-color="rgb(58.927917%, 60.528564%, 76.591492%)" offset="0.402344"/><stop stop-opacity="1" stop-color="rgb(58.581543%, 60.180664%, 76.333618%)" offset="0.40625"/><stop stop-opacity="1" stop-color="rgb(58.233643%, 59.83429%, 76.074219%)" offset="0.410156"/><stop stop-opacity="1" stop-color="rgb(57.885742%, 59.486389%, 75.816345%)" offset="0.414062"/><stop stop-opacity="1" stop-color="rgb(57.539368%, 59.138489%, 75.556946%)" offset="0.417969"/><stop stop-opacity="1" stop-color="rgb(57.191467%, 58.792114%, 75.299072%)" offset="0.421875"/><stop stop-opacity="1" stop-color="rgb(56.845093%, 58.444214%, 75.039673%)" offset="0.425781"/><stop stop-opacity="1" stop-color="rgb(56.497192%, 58.097839%, 74.781799%)" offset="0.429688"/><stop stop-opacity="1" stop-color="rgb(56.150818%, 57.749939%, 74.5224%)" offset="0.433594"/><stop stop-opacity="1" stop-color="rgb(55.802917%, 57.403564%, 74.264526%)" offset="0.4375"/><stop stop-opacity="1" stop-color="rgb(55.456543%, 57.055664%, 74.005127%)" offset="0.441406"/><stop stop-opacity="1" stop-color="rgb(55.108643%, 56.70929%, 73.747253%)" offset="0.445312"/><stop stop-opacity="1" stop-color="rgb(54.760742%, 56.361389%, 73.487854%)" offset="0.449219"/><stop stop-opacity="1" stop-color="rgb(54.414368%, 56.013489%, 73.22998%)" offset="0.453125"/><stop stop-opacity="1" stop-color="rgb(54.066467%, 55.667114%, 72.970581%)" offset="0.457031"/><stop stop-opacity="1" stop-color="rgb(53.720093%, 55.319214%, 72.711182%)" offset="0.460938"/><stop stop-opacity="1" stop-color="rgb(53.372192%, 54.972839%, 72.453308%)" offset="0.464844"/><stop stop-opacity="1" stop-color="rgb(53.025818%, 54.624939%, 72.193909%)" offset="0.46875"/><stop stop-opacity="1" stop-color="rgb(52.677917%, 54.278564%, 71.936035%)" offset="0.472656"/><stop stop-opacity="1" stop-color="rgb(52.331543%, 53.930664%, 71.676636%)" offset="0.476562"/><stop stop-opacity="1" stop-color="rgb(51.983643%, 53.58429%, 71.418762%)" offset="0.480469"/><stop stop-opacity="1" stop-color="rgb(51.635742%, 53.236389%, 71.159363%)" offset="0.484375"/><stop stop-opacity="1" stop-color="rgb(51.289368%, 52.888489%, 70.901489%)" offset="0.488281"/><stop stop-opacity="1" stop-color="rgb(50.941467%, 52.542114%, 70.64209%)" offset="0.492188"/><stop stop-opacity="1" stop-color="rgb(50.595093%, 52.194214%, 70.384216%)" offset="0.496094"/><stop stop-opacity="1" stop-color="rgb(50.247192%, 51.847839%, 70.124817%)" offset="0.5"/><stop stop-opacity="1" stop-color="rgb(49.900818%, 51.499939%, 69.866943%)" offset="0.503906"/><stop stop-opacity="1" stop-color="rgb(49.552917%, 51.153564%, 69.607544%)" offset="0.507812"/><stop stop-opacity="1" stop-color="rgb(49.206543%, 50.805664%, 69.34967%)" offset="0.511719"/><stop stop-opacity="1" stop-color="rgb(48.858643%, 50.45929%, 69.090271%)" offset="0.515625"/><stop stop-opacity="1" stop-color="rgb(48.510742%, 50.111389%, 68.832397%)" offset="0.519531"/><stop stop-opacity="1" stop-color="rgb(48.164368%, 49.763489%, 68.572998%)" offset="0.523438"/><stop stop-opacity="1" stop-color="rgb(47.816467%, 49.417114%, 68.313599%)" offset="0.527344"/><stop stop-opacity="1" stop-color="rgb(47.470093%, 49.069214%, 68.055725%)" offset="0.53125"/><stop stop-opacity="1" stop-color="rgb(47.122192%, 48.722839%, 67.796326%)" offset="0.535156"/><stop stop-opacity="1" stop-color="rgb(46.775818%, 48.374939%, 67.538452%)" offset="0.539062"/><stop stop-opacity="1" stop-color="rgb(46.427917%, 48.028564%, 67.279053%)" offset="0.542969"/><stop stop-opacity="1" stop-color="rgb(46.081543%, 47.680664%, 67.021179%)" offset="0.546875"/><stop stop-opacity="1" stop-color="rgb(45.733643%, 47.33429%, 66.76178%)" offset="0.550781"/><stop stop-opacity="1" stop-color="rgb(45.385742%, 46.986389%, 66.503906%)" offset="0.554688"/><stop stop-opacity="1" stop-color="rgb(45.039368%, 46.638489%, 66.244507%)" offset="0.558594"/><stop stop-opacity="1" stop-color="rgb(44.691467%, 46.292114%, 65.986633%)" offset="0.5625"/><stop stop-opacity="1" stop-color="rgb(44.345093%, 45.944214%, 65.727234%)" offset="0.566406"/><stop stop-opacity="1" stop-color="rgb(43.997192%, 45.597839%, 65.46936%)" offset="0.570312"/><stop stop-opacity="1" stop-color="rgb(43.650818%, 45.249939%, 65.209961%)" offset="0.574219"/><stop stop-opacity="1" stop-color="rgb(43.302917%, 44.903564%, 64.952087%)" offset="0.578125"/><stop stop-opacity="1" stop-color="rgb(42.956543%, 44.555664%, 64.692688%)" offset="0.582031"/><stop stop-opacity="1" stop-color="rgb(42.608643%, 44.20929%, 64.434814%)" offset="0.585938"/><stop stop-opacity="1" stop-color="rgb(42.260742%, 43.861389%, 64.175415%)" offset="0.589844"/><stop stop-opacity="1" stop-color="rgb(41.914368%, 43.513489%, 63.916016%)" offset="0.59375"/><stop stop-opacity="1" stop-color="rgb(41.566467%, 43.167114%, 63.658142%)" offset="0.597656"/><stop stop-opacity="1" stop-color="rgb(41.220093%, 42.819214%, 63.398743%)" offset="0.601562"/><stop stop-opacity="1" stop-color="rgb(40.872192%, 42.472839%, 63.140869%)" offset="0.605469"/><stop stop-opacity="1" stop-color="rgb(40.525818%, 42.124939%, 62.88147%)" offset="0.609375"/><stop stop-opacity="1" stop-color="rgb(40.177917%, 41.778564%, 62.623596%)" offset="0.613281"/><stop stop-opacity="1" stop-color="rgb(39.831543%, 41.430664%, 62.364197%)" offset="0.617188"/><stop stop-opacity="1" stop-color="rgb(39.483643%, 41.08429%, 62.106323%)" offset="0.621094"/><stop stop-opacity="1" stop-color="rgb(39.135742%, 40.736389%, 61.846924%)" offset="0.625"/><stop stop-opacity="1" stop-color="rgb(38.789368%, 40.388489%, 61.58905%)" offset="0.628906"/><stop stop-opacity="1" stop-color="rgb(38.441467%, 40.042114%, 61.329651%)" offset="0.632812"/><stop stop-opacity="1" stop-color="rgb(38.095093%, 39.694214%, 61.071777%)" offset="0.636719"/><stop stop-opacity="1" stop-color="rgb(37.747192%, 39.347839%, 60.812378%)" offset="0.640625"/><stop stop-opacity="1" stop-color="rgb(37.400818%, 38.999939%, 60.554504%)" offset="0.644531"/><stop stop-opacity="1" stop-color="rgb(37.052917%, 38.653564%, 60.295105%)" offset="0.648438"/><stop stop-opacity="1" stop-color="rgb(36.706543%, 38.305664%, 60.037231%)" offset="0.652344"/><stop stop-opacity="1" stop-color="rgb(36.358643%, 37.95929%, 59.777832%)" offset="0.65625"/><stop stop-opacity="1" stop-color="rgb(36.010742%, 37.611389%, 59.518433%)" offset="0.660156"/><stop stop-opacity="1" stop-color="rgb(35.664368%, 37.263489%, 59.260559%)" offset="0.664062"/><stop stop-opacity="1" stop-color="rgb(35.316467%, 36.917114%, 59.00116%)" offset="0.667969"/><stop stop-opacity="1" stop-color="rgb(34.970093%, 36.569214%, 58.743286%)" offset="0.671875"/><stop stop-opacity="1" stop-color="rgb(34.622192%, 36.222839%, 58.483887%)" offset="0.675781"/><stop stop-opacity="1" stop-color="rgb(34.275818%, 35.874939%, 58.226013%)" offset="0.679688"/><stop stop-opacity="1" stop-color="rgb(33.927917%, 35.528564%, 57.966614%)" offset="0.683594"/><stop stop-opacity="1" stop-color="rgb(33.581543%, 35.180664%, 57.70874%)" offset="0.6875"/><stop stop-opacity="1" stop-color="rgb(33.233643%, 34.83429%, 57.449341%)" offset="0.691406"/><stop stop-opacity="1" stop-color="rgb(32.885742%, 34.486389%, 57.191467%)" offset="0.695312"/><stop stop-opacity="1" stop-color="rgb(32.539368%, 34.138489%, 56.932068%)" offset="0.699219"/><stop stop-opacity="1" stop-color="rgb(32.191467%, 33.792114%, 56.674194%)" offset="0.703125"/><stop stop-opacity="1" stop-color="rgb(31.845093%, 33.444214%, 56.414795%)" offset="0.707031"/><stop stop-opacity="1" stop-color="rgb(31.497192%, 33.097839%, 56.156921%)" offset="0.710938"/><stop stop-opacity="1" stop-color="rgb(31.150818%, 32.749939%, 55.897522%)" offset="0.714844"/><stop stop-opacity="1" stop-color="rgb(30.802917%, 32.403564%, 55.639648%)" offset="0.71875"/><stop stop-opacity="1" stop-color="rgb(30.456543%, 32.055664%, 55.380249%)" offset="0.722656"/><stop stop-opacity="1" stop-color="rgb(30.108643%, 31.70929%, 55.122375%)" offset="0.726562"/><stop stop-opacity="1" stop-color="rgb(29.760742%, 31.361389%, 54.862976%)" offset="0.730469"/><stop stop-opacity="1" stop-color="rgb(29.414368%, 31.013489%, 54.603577%)" offset="0.734375"/><stop stop-opacity="1" stop-color="rgb(29.066467%, 30.667114%, 54.345703%)" offset="0.738281"/><stop stop-opacity="1" stop-color="rgb(28.720093%, 30.319214%, 54.086304%)" offset="0.742188"/><stop stop-opacity="1" stop-color="rgb(28.372192%, 29.972839%, 53.82843%)" offset="0.746094"/><stop stop-opacity="1" stop-color="rgb(28.199768%, 29.798889%, 53.69873%)" offset="1"/></radialGradient></defs><g clip-path="url(#2976ac314e)"><g clip-path="url(#9146212fa5)"><g clip-path="url(#a6a1f8367b)"><path fill="url(#7989a4b179)" d="M 1.289062 27.738281 L 1.289062 84.617188 L 111.535156 84.617188 L 111.535156 27.738281 Z M 1.289062 27.738281 " fill-rule="nonzero"/></g></g></g><path fill="#777bb3" d="M 56.414062 82.507812 C 85.667969 82.507812 109.382812 70.71875 109.382812 56.179688 C 109.382812 41.636719 85.667969 29.851562 56.414062 29.851562 C 27.15625 29.851562 3.441406 41.636719 3.441406 56.179688 C 3.441406 70.71875 27.15625 82.507812 56.414062 82.507812 " fill-opacity="1" fill-rule="nonzero"/><path fill="#000000" d="M 31.238281 59.441406 C 33.640625 59.441406 35.4375 59.007812 36.574219 58.148438 C 37.699219 57.300781 38.476562 55.832031 38.882812 53.777344 C 39.261719 51.863281 39.117188 50.523438 38.453125 49.800781 C 37.773438 49.0625 36.304688 48.6875 34.085938 48.6875 L 30.242188 48.6875 L 28.113281 59.441406 Z M 18.664062 72.691406 C 18.484375 72.691406 18.316406 72.613281 18.203125 72.476562 C 18.082031 72.335938 18.042969 72.175781 18.078125 71.992188 L 23.726562 43.492188 C 23.753906 43.355469 23.820312 43.242188 23.933594 43.152344 C 24.042969 43.0625 24.167969 43.019531 24.3125 43.019531 L 36.484375 43.019531 C 40.3125 43.019531 43.160156 44.035156 44.949219 46.046875 C 46.746094 48.066406 47.304688 50.890625 46.597656 54.4375 C 46.3125 55.882812 45.820312 57.226562 45.136719 58.429688 C 44.449219 59.632812 43.542969 60.746094 42.441406 61.742188 C 41.125 62.953125 39.628906 63.828125 38.007812 64.347656 C 36.414062 64.855469 34.363281 65.113281 31.917969 65.113281 L 26.988281 65.113281 L 25.582031 72.21875 C 25.554688 72.355469 25.484375 72.46875 25.375 72.558594 C 25.265625 72.648438 25.136719 72.691406 24.996094 72.691406 Z M 18.664062 72.691406 " fill-opacity="1" fill-rule="nonzero"/><path fill="#ffffff" d="M 30.738281 49.273438 L 34.085938 49.273438 C 36.761719 49.273438 37.691406 49.851562 38.007812 50.191406 C 38.53125 50.761719 38.632812 51.964844 38.292969 53.667969 C 37.917969 55.574219 37.214844 56.925781 36.210938 57.683594 C 35.179688 58.460938 33.507812 58.855469 31.238281 58.855469 L 28.839844 58.855469 Z M 36.484375 42.429688 L 24.3125 42.429688 C 24.027344 42.429688 23.773438 42.519531 23.550781 42.699219 C 23.332031 42.875 23.191406 43.105469 23.136719 43.378906 L 17.492188 71.882812 C 17.457031 72.054688 17.460938 72.226562 17.503906 72.394531 C 17.550781 72.566406 17.628906 72.71875 17.742188 72.851562 C 17.855469 72.988281 17.992188 73.09375 18.15625 73.167969 C 18.316406 73.242188 18.484375 73.277344 18.664062 73.277344 L 24.996094 73.277344 C 25.28125 73.277344 25.535156 73.191406 25.757812 73.011719 C 25.976562 72.832031 26.113281 72.605469 26.167969 72.328125 L 27.484375 65.703125 L 31.917969 65.703125 C 34.425781 65.703125 36.539062 65.433594 38.195312 64.90625 C 39.898438 64.363281 41.464844 63.441406 42.851562 62.171875 C 44 61.136719 44.945312 59.972656 45.660156 58.71875 C 46.371094 57.460938 46.890625 56.058594 47.1875 54.550781 C 47.929688 50.816406 47.328125 47.824219 45.398438 45.660156 C 43.492188 43.519531 40.492188 42.433594 36.484375 42.433594 M 27.386719 60.03125 L 31.238281 60.03125 C 33.789062 60.03125 35.691406 59.558594 36.941406 58.617188 C 38.1875 57.671875 39.03125 56.097656 39.46875 53.894531 C 39.890625 51.773438 39.699219 50.28125 38.898438 49.410156 C 38.097656 48.539062 36.492188 48.101562 34.089844 48.101562 L 29.75 48.101562 L 27.386719 60.03125 M 36.484375 43.605469 C 40.148438 43.605469 42.820312 44.546875 44.5 46.433594 C 46.179688 48.316406 46.683594 50.949219 46.011719 54.328125 C 45.738281 55.71875 45.269531 56.992188 44.613281 58.144531 C 43.957031 59.296875 43.097656 60.351562 42.039062 61.308594 C 40.773438 62.46875 39.371094 63.296875 37.824219 63.789062 C 36.28125 64.28125 34.3125 64.527344 31.917969 64.527344 L 26.496094 64.527344 L 24.996094 72.105469 L 18.664062 72.105469 L 24.3125 43.605469 L 36.488281 43.605469 " fill-opacity="1" fill-rule="nonzero"/><path fill="#000000" d="M 61.113281 65.113281 C 60.933594 65.113281 60.765625 65.035156 60.652344 64.898438 C 60.539062 64.765625 60.492188 64.585938 60.527344 64.414062 L 63.023438 51.804688 C 63.261719 50.605469 63.203125 49.746094 62.859375 49.378906 C 62.648438 49.15625 62.015625 48.785156 60.148438 48.785156 L 55.621094 48.785156 L 52.480469 64.636719 C 52.453125 64.777344 52.382812 64.890625 52.273438 64.980469 C 52.164062 65.070312 52.035156 65.113281 51.890625 65.113281 L 45.613281 65.113281 C 45.523438 65.113281 45.4375 65.09375 45.355469 65.058594 C 45.277344 65.019531 45.207031 64.96875 45.152344 64.898438 C 45.09375 64.832031 45.054688 64.757812 45.03125 64.671875 C 45.011719 64.585938 45.007812 64.5 45.023438 64.414062 L 50.671875 35.914062 C 50.699219 35.777344 50.769531 35.664062 50.878906 35.574219 C 50.988281 35.484375 51.117188 35.4375 51.261719 35.4375 L 57.539062 35.4375 C 57.628906 35.4375 57.714844 35.457031 57.796875 35.496094 C 57.875 35.53125 57.945312 35.585938 58 35.652344 C 58.058594 35.71875 58.097656 35.796875 58.121094 35.882812 C 58.140625 35.964844 58.144531 36.050781 58.128906 36.136719 L 56.765625 43.015625 L 61.632812 43.015625 C 65.34375 43.015625 67.859375 43.660156 69.324219 44.976562 C 70.820312 46.324219 71.28125 48.476562 70.707031 51.375 L 68.082031 64.640625 C 68.054688 64.777344 67.984375 64.890625 67.875 64.980469 C 67.765625 65.070312 67.636719 65.113281 67.492188 65.113281 Z M 61.113281 65.113281 " fill-opacity="1" fill-rule="nonzero"/><path fill="#ffffff" d="M 57.539062 34.851562 L 51.261719 34.851562 C 50.972656 34.851562 50.71875 34.941406 50.5 35.121094 C 50.277344 35.300781 50.140625 35.527344 50.085938 35.800781 L 44.4375 64.304688 C 44.402344 64.476562 44.410156 64.644531 44.453125 64.816406 C 44.496094 64.984375 44.574219 65.136719 44.6875 65.273438 C 44.804688 65.40625 44.941406 65.511719 45.101562 65.585938 C 45.261719 65.664062 45.433594 65.699219 45.613281 65.699219 L 51.894531 65.699219 C 52.179688 65.699219 52.433594 65.609375 52.652344 65.433594 C 52.875 65.253906 53.011719 65.027344 53.066406 64.75 L 56.113281 49.371094 L 60.148438 49.371094 C 62.015625 49.371094 62.40625 49.761719 62.421875 49.78125 C 62.535156 49.898438 62.683594 50.453125 62.4375 51.691406 L 59.941406 64.304688 C 59.90625 64.476562 59.910156 64.644531 59.953125 64.816406 C 60 64.984375 60.078125 65.136719 60.191406 65.273438 C 60.304688 65.40625 60.441406 65.511719 60.605469 65.585938 C 60.765625 65.664062 60.9375 65.699219 61.113281 65.699219 L 67.496094 65.699219 C 67.78125 65.699219 68.035156 65.609375 68.253906 65.433594 C 68.476562 65.253906 68.613281 65.027344 68.667969 64.75 L 71.296875 51.488281 C 71.914062 48.375 71.386719 46.039062 69.730469 44.546875 C 68.148438 43.121094 65.5 42.429688 61.632812 42.429688 L 57.492188 42.429688 L 58.714844 36.25 C 58.75 36.078125 58.746094 35.90625 58.699219 35.738281 C 58.65625 35.566406 58.578125 35.414062 58.464844 35.28125 C 58.351562 35.144531 58.214844 35.039062 58.050781 34.964844 C 57.890625 34.890625 57.71875 34.851562 57.542969 34.851562 M 57.542969 36.027344 L 56.039062 43.601562 L 61.636719 43.601562 C 65.15625 43.601562 67.582031 44.207031 68.921875 45.410156 C 70.257812 46.613281 70.65625 48.566406 70.121094 51.265625 L 67.496094 64.527344 L 61.113281 64.527344 L 63.613281 51.917969 C 63.898438 50.480469 63.792969 49.503906 63.300781 48.980469 C 62.804688 48.460938 61.753906 48.199219 60.148438 48.199219 L 55.128906 48.199219 L 51.894531 64.527344 L 45.613281 64.527344 L 51.261719 36.027344 L 57.539062 36.027344 " fill-opacity="1" fill-rule="nonzero"/><path fill="#000000" d="M 80.644531 59.441406 C 83.050781 59.441406 84.847656 59.007812 85.984375 58.148438 C 87.109375 57.300781 87.882812 55.832031 88.292969 53.777344 C 88.671875 51.863281 88.527344 50.523438 87.863281 49.800781 C 87.183594 49.0625 85.714844 48.6875 83.496094 48.6875 L 79.652344 48.6875 L 77.519531 59.441406 Z M 68.074219 72.691406 C 67.894531 72.691406 67.726562 72.613281 67.613281 72.476562 C 67.492188 72.335938 67.449219 72.171875 67.484375 71.992188 L 73.132812 43.492188 C 73.160156 43.355469 73.230469 43.238281 73.339844 43.152344 C 73.453125 43.0625 73.578125 43.015625 73.722656 43.015625 L 85.894531 43.015625 C 89.71875 43.015625 92.566406 44.035156 94.355469 46.046875 C 96.15625 48.066406 96.710938 50.890625 96.007812 54.4375 C 95.722656 55.882812 95.230469 57.226562 94.542969 58.429688 C 93.859375 59.632812 92.953125 60.746094 91.851562 61.738281 C 90.53125 62.949219 89.039062 63.828125 87.417969 64.34375 C 85.820312 64.855469 83.773438 65.113281 81.328125 65.113281 L 76.394531 65.113281 L 74.988281 72.214844 C 74.960938 72.355469 74.890625 72.46875 74.78125 72.558594 C 74.671875 72.648438 74.542969 72.691406 74.398438 72.691406 L 68.070312 72.691406 Z M 68.074219 72.691406 " fill-opacity="1" fill-rule="nonzero"/><path fill="#ffffff" d="M 80.144531 49.273438 L 83.496094 49.273438 C 86.171875 49.273438 87.101562 49.851562 87.417969 50.191406 C 87.941406 50.761719 88.042969 51.964844 87.703125 53.667969 C 87.324219 55.574219 86.625 56.925781 85.621094 57.683594 C 84.589844 58.460938 82.917969 58.855469 80.648438 58.855469 L 78.246094 58.855469 Z M 85.894531 42.429688 L 73.722656 42.429688 C 73.433594 42.429688 73.179688 42.519531 72.960938 42.699219 C 72.738281 42.875 72.601562 43.105469 72.546875 43.378906 L 66.898438 71.882812 C 66.863281 72.054688 66.871094 72.226562 66.914062 72.394531 C 66.957031 72.566406 67.035156 72.71875 67.148438 72.851562 C 67.261719 72.988281 67.402344 73.09375 67.5625 73.167969 C 67.722656 73.242188 67.894531 73.277344 68.074219 73.277344 L 74.402344 73.277344 C 74.6875 73.277344 74.941406 73.191406 75.164062 73.011719 C 75.386719 72.832031 75.523438 72.605469 75.578125 72.328125 L 76.890625 65.703125 L 81.328125 65.703125 C 83.835938 65.703125 85.945312 65.433594 87.601562 64.90625 C 89.304688 64.363281 90.871094 63.441406 92.261719 62.167969 C 93.40625 61.136719 94.351562 59.972656 95.066406 58.71875 C 95.78125 57.460938 96.296875 56.058594 96.59375 54.550781 C 97.335938 50.816406 96.734375 47.824219 94.808594 45.660156 C 92.898438 43.519531 89.898438 42.433594 85.894531 42.433594 M 76.796875 60.03125 L 80.644531 60.03125 C 83.199219 60.03125 85.097656 59.558594 86.347656 58.617188 C 87.597656 57.671875 88.441406 56.097656 88.878906 53.894531 C 89.296875 51.773438 89.105469 50.28125 88.304688 49.410156 C 87.503906 48.539062 85.902344 48.101562 83.496094 48.101562 L 79.160156 48.101562 L 76.796875 60.03125 M 85.894531 43.605469 C 89.554688 43.605469 92.226562 44.546875 93.90625 46.433594 C 95.585938 48.316406 96.089844 50.949219 95.421875 54.328125 C 95.144531 55.71875 94.679688 56.992188 94.023438 58.144531 C 93.367188 59.296875 92.507812 60.351562 91.445312 61.308594 C 90.183594 62.46875 88.777344 63.296875 87.234375 63.789062 C 85.6875 64.28125 83.71875 64.527344 81.328125 64.527344 L 75.90625 64.527344 L 74.402344 72.105469 L 68.074219 72.105469 L 73.722656 43.605469 L 85.894531 43.605469 " fill-opacity="1" fill-rule="nonzero"/></svg>