<svg xmlns="http://www.w3.org/2000/svg" xmlns:xlink="http://www.w3.org/1999/xlink" width="800" zoomAndPan="magnify" viewBox="0 0 600 599.999999" height="800" preserveAspectRatio="xMidYMid meet" version="1.0"><defs><clipPath id="4cadf908b3"><path d="M 137 412 L 479.917969 412 L 479.917969 549 L 137 549 Z M 137 412 " clip-rule="nonzero"/></clipPath><clipPath id="e311d85968"><path d="M 123.164062 85 L 477.164062 85 L 477.164062 386 L 123.164062 386 Z M 123.164062 85 " clip-rule="nonzero"/></clipPath><clipPath id="b8325c069b"><path d="M 123.164062 69.585938 L 477.164062 69.585938 L 477.164062 401.085938 L 123.164062 401.085938 Z M 123.164062 69.585938 " clip-rule="nonzero"/></clipPath></defs><g clip-path="url(#4cadf908b3)"><path fill="#000000" d="M 298.488281 544.496094 C 268.222656 527.128906 287.644531 492.011719 325.707031 495.285156 C 329.789062 495.632812 333.125 494.460938 333.125 492.683594 C 333.125 487.617188 319.261719 479.167969 310.949219 479.167969 C 300.410156 479.167969 301.515625 470.535156 312.507812 466.984375 C 333.9375 460.0625 350.144531 472.191406 356.3125 499.765625 C 362.140625 525.816406 358.730469 540.359375 345.734375 544.894531 C 332.402344 549.542969 306.914062 549.332031 298.492188 544.5 Z M 336.425781 522.738281 C 336.425781 517.695312 328.464844 512.175781 321.191406 512.175781 C 310.425781 512.175781 303.4375 515.566406 303.4375 520.78125 C 303.4375 524.097656 308.035156 525.378906 319.933594 525.378906 C 329.003906 525.378906 336.425781 524.191406 336.425781 522.738281 Z M 187.554688 520.429688 C 172.777344 506.8125 159.5 495.671875 158.050781 495.671875 C 156.601562 495.671875 156.183594 500.5 157.121094 506.398438 C 159.421875 520.855469 153.382812 536.085938 145.914062 534.660156 C 140.820312 533.6875 139.945312 527.640625 138.375 482.433594 C 136.261719 421.621094 137.121094 419.757812 167.28125 419.757812 C 200.292969 419.757812 223.289062 440.851562 214.753906 463.308594 C 211.59375 471.628906 193.292969 489.070312 187.730469 489.070312 C 180.972656 489.070312 185.5625 495.625 202.398438 510.015625 L 220.117188 525.160156 L 215.988281 513.148438 C 210.628906 497.550781 214.542969 483.542969 227.554688 471.742188 C 235.703125 464.355469 240.675781 462.664062 254.257812 462.664062 C 268.316406 462.664062 272.480469 464.191406 280.597656 472.3125 C 298.902344 490.628906 289.339844 502.277344 253.914062 504.8125 C 238.957031 505.882812 231.027344 507.796875 231.761719 510.152344 C 233.730469 516.472656 255.035156 525.367188 268.203125 525.375 C 279.382812 525.378906 280.683594 526.214844 279.75 532.804688 C 278.082031 544.546875 258.347656 548.046875 241.324219 539.621094 C 228.566406 533.304688 227.996094 533.285156 226.46875 539.113281 C 223.660156 549.867188 214.976562 545.695312 187.550781 520.425781 Z M 253.132812 487.40625 C 259.03125 486.21875 263.855469 483.878906 263.855469 482.207031 C 263.855469 477.730469 239.445312 478.507812 234.828125 483.132812 C 229.050781 488.910156 229.988281 493.070312 236.640625 491.195312 C 239.816406 490.296875 247.238281 488.597656 253.132812 487.410156 Z M 185.027344 464.984375 C 199.359375 456.03125 195.03125 445.238281 174.648438 439.128906 C 155.984375 433.535156 153.15625 435.894531 154.511719 455.949219 L 155.679688 473.175781 L 167.289062 470.996094 C 173.675781 469.796875 181.660156 467.09375 185.027344 464.984375 Z M 387.292969 538.214844 C 372.246094 530.671875 364.246094 501.59375 372.808594 485.585938 C 377.648438 476.539062 395.023438 468.355469 404.402344 470.710938 C 415.523438 473.503906 414.203125 480.527344 401.851562 484.261719 C 388.09375 488.425781 383.582031 495.976562 387.746094 507.875 C 390.648438 516.179688 392.714844 517.226562 407.945312 518.113281 C 426.4375 519.191406 431.996094 524.78125 422.792969 533.042969 C 415.421875 539.65625 395.851562 542.507812 387.289062 538.214844 Z M 444.820312 532.285156 C 437.910156 526.695312 436.847656 522.515625 435.382812 495.152344 C 433.789062 465.289062 433.476562 464.28125 425.488281 463.175781 C 420.953125 462.546875 415.253906 460.398438 412.820312 458.398438 C 409.1875 455.410156 409.445312 453.996094 414.273438 450.460938 C 417.507812 448.097656 422.882812 446.160156 426.222656 446.160156 C 432.808594 446.160156 433.824219 444.203125 436.925781 425.535156 C 439.984375 407.113281 447.855469 409.402344 450.515625 429.488281 L 452.683594 445.824219 L 466.300781 446.816406 C 478.359375 447.695312 479.917969 448.753906 479.917969 456.0625 C 479.917969 463.4375 478.394531 464.425781 465.621094 465.34375 C 455.132812 466.101562 451.789062 467.578125 453.0625 470.898438 C 454.007812 473.386719 455.804688 484.308594 457.03125 495.167969 C 458.773438 510.582031 460.621094 515.269531 465.449219 516.53125 C 474.683594 518.945312 477.1875 528.792969 469.925781 534.105469 C 461.519531 540.257812 454.007812 539.714844 444.820312 532.28125 Z M 444.820312 532.285156 " fill-opacity="1" fill-rule="nonzero"/></g><path fill="#00d8ff" d="M 331.777344 235.046875 C 331.777344 236.082031 331.726562 237.113281 331.625 238.144531 C 331.523438 239.175781 331.371094 240.199219 331.171875 241.214844 C 330.96875 242.230469 330.714844 243.230469 330.417969 244.222656 C 330.117188 245.214844 329.765625 246.1875 329.371094 247.144531 C 328.976562 248.101562 328.53125 249.035156 328.042969 249.949219 C 327.558594 250.863281 327.023438 251.75 326.449219 252.609375 C 325.875 253.46875 325.257812 254.300781 324.601562 255.101562 C 323.945312 255.902344 323.25 256.667969 322.519531 257.398438 C 321.785156 258.132812 321.019531 258.828125 320.21875 259.484375 C 319.417969 260.140625 318.589844 260.757812 317.726562 261.332031 C 316.867188 261.90625 315.980469 262.4375 315.066406 262.925781 C 314.15625 263.414062 313.21875 263.855469 312.261719 264.253906 C 311.308594 264.648438 310.332031 264.996094 309.34375 265.296875 C 308.351562 265.597656 307.347656 265.851562 306.332031 266.050781 C 305.316406 266.253906 304.296875 266.40625 303.265625 266.507812 C 302.234375 266.609375 301.203125 266.660156 300.167969 266.660156 C 299.132812 266.660156 298.097656 266.609375 297.066406 266.507812 C 296.039062 266.40625 295.015625 266.253906 294 266.050781 C 292.984375 265.851562 291.980469 265.597656 290.988281 265.296875 C 290 264.996094 289.027344 264.648438 288.070312 264.253906 C 287.113281 263.855469 286.179688 263.414062 285.265625 262.925781 C 284.351562 262.4375 283.464844 261.90625 282.605469 261.332031 C 281.742188 260.757812 280.914062 260.140625 280.113281 259.484375 C 279.3125 258.828125 278.546875 258.132812 277.8125 257.398438 C 277.082031 256.667969 276.386719 255.902344 275.730469 255.101562 C 275.074219 254.300781 274.457031 253.46875 273.882812 252.609375 C 273.308594 251.75 272.777344 250.863281 272.289062 249.949219 C 271.800781 249.035156 271.355469 248.101562 270.960938 247.144531 C 270.566406 246.1875 270.214844 245.214844 269.917969 244.222656 C 269.617188 243.230469 269.363281 242.230469 269.164062 241.214844 C 268.960938 240.199219 268.808594 239.175781 268.707031 238.144531 C 268.605469 237.113281 268.554688 236.082031 268.554688 235.046875 C 268.554688 234.011719 268.605469 232.976562 268.707031 231.945312 C 268.808594 230.917969 268.960938 229.894531 269.164062 228.878906 C 269.363281 227.863281 269.617188 226.859375 269.917969 225.867188 C 270.214844 224.878906 270.566406 223.90625 270.960938 222.949219 C 271.355469 221.992188 271.800781 221.054688 272.289062 220.144531 C 272.777344 219.230469 273.308594 218.34375 273.882812 217.484375 C 274.457031 216.621094 275.074219 215.789062 275.730469 214.992188 C 276.386719 214.191406 277.082031 213.425781 277.8125 212.691406 C 278.546875 211.960938 279.3125 211.265625 280.113281 210.609375 C 280.914062 209.953125 281.742188 209.335938 282.605469 208.761719 C 283.464844 208.183594 284.351562 207.652344 285.265625 207.164062 C 286.179688 206.675781 287.113281 206.234375 288.070312 205.839844 C 289.027344 205.441406 290 205.09375 290.988281 204.792969 C 291.980469 204.492188 292.984375 204.242188 294 204.039062 C 295.015625 203.839844 296.039062 203.6875 297.066406 203.585938 C 298.097656 203.484375 299.132812 203.433594 300.167969 203.433594 C 301.203125 203.433594 302.234375 203.484375 303.265625 203.585938 C 304.296875 203.6875 305.316406 203.839844 306.332031 204.039062 C 307.347656 204.242188 308.351562 204.492188 309.34375 204.792969 C 310.332031 205.09375 311.308594 205.441406 312.261719 205.839844 C 313.21875 206.234375 314.15625 206.675781 315.066406 207.164062 C 315.980469 207.652344 316.867188 208.183594 317.726562 208.761719 C 318.589844 209.335938 319.417969 209.953125 320.21875 210.609375 C 321.019531 211.265625 321.785156 211.960938 322.519531 212.691406 C 323.25 213.425781 323.945312 214.191406 324.601562 214.992188 C 325.257812 215.789062 325.875 216.621094 326.449219 217.484375 C 327.023438 218.34375 327.558594 219.230469 328.042969 220.144531 C 328.53125 221.054688 328.976562 221.992188 329.371094 222.949219 C 329.765625 223.90625 330.117188 224.878906 330.417969 225.867188 C 330.714844 226.859375 330.96875 227.863281 331.171875 228.878906 C 331.371094 229.894531 331.523438 230.917969 331.625 231.945312 C 331.726562 232.976562 331.777344 234.011719 331.777344 235.046875 Z M 331.777344 235.046875 " fill-opacity="1" fill-rule="nonzero"/><g clip-path="url(#e311d85968)"><path stroke-linecap="butt" transform="matrix(0.63012, 0, 0, 0.630161, 130.329912, 85.300665)" fill="none" stroke-linejoin="miter" d="M 269.532869 135.630182 C 336.887349 135.630182 399.462233 145.29413 446.638266 161.535016 C 503.485075 181.104664 538.436254 210.772177 538.436254 237.631627 C 538.436254 265.619262 501.395939 297.13402 440.352261 317.360742 C 394.199099 332.647012 333.471581 340.631081 269.532869 340.631081 C 203.976162 340.631081 141.903414 333.136718 95.229518 317.187176 C 36.181987 297.010044 0.623286 265.086164 0.623286 237.631627 C 0.623286 210.989135 33.993664 181.550979 90.034575 162.012324 C 137.390385 145.504889 201.508874 135.630182 269.52667 135.630182 Z M 269.532869 135.630182 " stroke="#00d8ff" stroke-width="24" stroke-opacity="1" stroke-miterlimit="4"/></g><g clip-path="url(#b8325c069b)"><path stroke-linecap="butt" transform="matrix(0.63012, 0, 0, 0.630161, 130.329912, 85.300665)" fill="none" stroke-linejoin="miter" d="M 180.741501 186.91915 C 214.390844 128.569736 254.022431 79.2024 291.65787 46.441681 C 337.011333 6.973847 380.157875 -8.47979 403.429732 4.934438 C 427.681064 18.918957 436.471552 66.748988 423.496593 129.735112 C 413.695633 177.354383 390.262597 233.949533 358.318038 289.335915 C 325.57378 346.123228 288.068524 396.160035 250.941421 428.604615 C 203.963763 469.677941 158.542109 484.536493 134.761917 470.818523 C 111.682237 457.522072 102.854554 413.901034 113.926353 355.588813 C 123.28097 306.320659 146.7574 245.851252 180.729103 186.931547 Z M 180.741501 186.91915 " stroke="#00d8ff" stroke-width="24" stroke-opacity="1" stroke-miterlimit="4"/><path stroke-linecap="butt" transform="matrix(0.63012, 0, 0, 0.630161, 130.329912, 85.300665)" fill="none" stroke-linejoin="miter" d="M 180.822091 289.478488 C 147.079759 231.197261 124.099266 172.196972 114.509079 123.232559 C 102.966139 64.23227 111.130507 19.117319 134.371367 5.659699 C 158.597902 -8.362013 204.428705 7.903669 252.516022 50.601083 C 288.868223 82.878295 326.199901 131.439786 358.231249 186.770378 C 391.080894 243.501902 415.69178 300.977283 425.269569 349.352809 C 437.389036 410.566074 427.581876 457.329908 403.814083 471.09127 C 380.759199 484.437312 338.567336 470.304021 293.579627 431.592443 C 255.566036 398.881314 214.892981 348.336204 180.815892 289.472289 Z M 180.822091 289.478488 " stroke="#00d8ff" stroke-width="24" stroke-opacity="1" stroke-miterlimit="4"/></g></svg>