<svg xmlns="http://www.w3.org/2000/svg" xmlns:xlink="http://www.w3.org/1999/xlink" width="150" zoomAndPan="magnify" viewBox="0 0 112.5 112.499997" height="150" preserveAspectRatio="xMidYMid meet" version="1.0"><defs><clipPath id="5e3913d809"><path d="M 38.578125 17.851562 L 62 17.851562 L 62 53 L 38.578125 53 Z M 38.578125 17.851562 " clip-rule="nonzero"/></clipPath><clipPath id="edd9f37fb6"><path d="M 59 29 L 73.828125 29 L 73.828125 62.851562 L 59 62.851562 Z M 59 29 " clip-rule="nonzero"/></clipPath><clipPath id="3bacf3635e"><path d="M 65 17.851562 L 73.828125 17.851562 L 73.828125 26 L 65 26 Z M 65 17.851562 " clip-rule="nonzero"/></clipPath><clipPath id="a456873576"><path d="M 22.136719 69.601562 L 90.386719 69.601562 L 90.386719 93.601562 L 22.136719 93.601562 Z M 22.136719 69.601562 " clip-rule="nonzero"/></clipPath></defs><g clip-path="url(#5e3913d809)"><path fill="#2ba977" d="M 54.433594 17.851562 L 61.78125 17.851562 L 61.78125 51.621094 C 58.019531 52.332031 55.246094 52.613281 52.25 52.613281 C 43.273438 52.605469 38.601562 48.585938 38.601562 40.863281 C 38.601562 33.425781 43.558594 28.597656 51.238281 28.597656 C 52.429688 28.597656 53.335938 28.691406 54.433594 28.972656 Z M 54.691406 35.058594 C 53.832031 34.777344 53.121094 34.679688 52.214844 34.679688 C 48.496094 34.679688 46.351562 36.953125 46.351562 40.9375 C 46.351562 44.816406 48.402344 46.957031 52.167969 46.957031 C 52.980469 46.957031 53.640625 46.910156 54.691406 46.769531 Z M 54.691406 35.058594 " fill-opacity="1" fill-rule="nonzero"/></g><g clip-path="url(#edd9f37fb6)"><path fill="#2ba977" d="M 73.800781 29.503906 L 73.800781 46.410156 C 73.800781 52.234375 73.363281 55.035156 72.089844 57.445312 C 70.898438 59.769531 69.324219 61.230469 66.082031 62.847656 L 59.265625 59.625 C 62.507812 58.113281 64.078125 56.777344 65.082031 54.742188 C 66.128906 52.65625 66.460938 50.242188 66.460938 43.894531 L 66.460938 29.503906 Z M 73.800781 29.503906 " fill-opacity="1" fill-rule="nonzero"/></g><g clip-path="url(#3bacf3635e)"><path fill="#2ba977" d="M 65.71875 17.851562 L 73.070312 17.851562 L 73.070312 25.335938 L 65.71875 25.335938 Z M 65.71875 17.851562 " fill-opacity="1" fill-rule="nonzero"/></g><g clip-path="url(#a456873576)"><path fill="#092e20" d="M 30.207031 69.773438 L 33.941406 69.773438 L 33.941406 86.910156 C 32.023438 87.273438 30.617188 87.417969 29.089844 87.417969 C 24.53125 87.417969 22.15625 85.371094 22.15625 81.453125 C 22.15625 77.679688 24.679688 75.226562 28.582031 75.226562 C 29.1875 75.226562 29.648438 75.273438 30.207031 75.417969 Z M 30.207031 78.398438 C 29.769531 78.253906 29.40625 78.207031 28.945312 78.207031 C 27.054688 78.207031 25.964844 79.363281 25.964844 81.382812 C 25.964844 83.351562 27.007812 84.433594 28.921875 84.433594 C 29.351562 84.433594 29.78125 84.402344 30.207031 84.339844 Z M 39.878906 75.492188 L 39.878906 84.074219 C 39.878906 87.03125 39.660156 88.449219 39.015625 89.675781 C 38.40625 90.855469 37.609375 91.601562 35.960938 92.417969 L 32.492188 90.785156 C 34.140625 90.015625 34.941406 89.339844 35.449219 88.304688 C 35.984375 87.25 36.152344 86.023438 36.152344 82.800781 L 36.152344 75.496094 Z M 36.148438 69.792969 L 39.878906 69.792969 L 39.878906 73.597656 L 36.148438 73.597656 Z M 42.136719 76.332031 C 43.785156 75.5625 45.351562 75.226562 47.082031 75.226562 C 48.996094 75.226562 50.257812 75.730469 50.816406 76.71875 C 51.125 77.269531 51.226562 77.992188 51.226562 79.53125 L 51.226562 87.0625 C 49.554688 87.300781 47.445312 87.46875 45.894531 87.46875 C 42.765625 87.46875 41.359375 86.386719 41.359375 83.984375 C 41.359375 81.386719 43.226562 80.179688 47.808594 79.800781 L 47.808594 78.980469 C 47.808594 78.308594 47.46875 78.0625 46.523438 78.0625 C 45.140625 78.0625 43.589844 78.445312 42.136719 79.191406 Z M 47.976562 82.222656 C 45.503906 82.464844 44.699219 82.847656 44.699219 83.808594 C 44.699219 84.53125 45.160156 84.867188 46.183594 84.867188 C 46.742188 84.867188 47.25 84.820312 47.976562 84.699219 Z M 53.050781 76.070312 C 55.257812 75.492188 57.078125 75.226562 58.917969 75.226562 C 60.835938 75.226562 62.21875 75.660156 63.042969 76.503906 C 63.816406 77.296875 64.058594 78.160156 64.058594 80.011719 L 64.058594 87.273438 L 60.324219 87.273438 L 60.324219 80.15625 C 60.324219 78.738281 59.839844 78.207031 58.507812 78.207031 C 57.996094 78.207031 57.535156 78.253906 56.785156 78.472656 L 56.785156 87.269531 L 53.046875 87.269531 Z M 65.503906 89.292969 C 66.8125 89.964844 68.125 90.277344 69.503906 90.277344 C 71.953125 90.277344 72.996094 89.292969 72.996094 86.9375 L 72.996094 86.863281 C 72.269531 87.222656 71.542969 87.367188 70.570312 87.367188 C 67.292969 87.367188 65.214844 85.230469 65.214844 81.839844 C 65.214844 77.628906 68.292969 75.25 73.746094 75.25 C 75.347656 75.25 76.828125 75.417969 78.621094 75.78125 L 77.34375 78.449219 C 76.347656 78.257812 77.261719 78.425781 76.511719 78.351562 L 76.511719 78.738281 L 76.558594 80.300781 L 76.585938 82.320312 C 76.609375 82.824219 76.609375 83.328125 76.632812 83.835938 L 76.632812 84.84375 C 76.632812 88.019531 76.367188 89.507812 75.566406 90.734375 C 74.402344 92.539062 72.390625 93.4375 69.53125 93.4375 C 68.074219 93.4375 66.816406 93.21875 65.503906 92.714844 Z M 72.929688 78.230469 L 72.542969 78.230469 C 71.816406 78.207031 70.964844 78.402344 70.382812 78.761719 C 69.488281 79.265625 69.027344 80.179688 69.027344 81.476562 C 69.027344 83.328125 69.953125 84.386719 71.597656 84.386719 C 72.105469 84.386719 72.523438 84.289062 73.003906 84.148438 L 73.003906 82.871094 C 73.003906 82.441406 72.976562 81.953125 72.976562 81.453125 L 72.953125 79.746094 L 72.929688 78.519531 Z M 84.417969 75.179688 C 88.148438 75.179688 90.429688 77.511719 90.429688 81.285156 C 90.429688 85.152344 88.054688 87.585938 84.269531 87.585938 C 80.535156 87.585938 78.234375 85.253906 78.234375 81.503906 C 78.234375 77.609375 80.609375 75.179688 84.417969 75.179688 Z M 84.34375 84.605469 C 85.773438 84.605469 86.625 83.425781 86.625 81.382812 C 86.625 79.359375 85.800781 78.160156 84.367188 78.160156 C 82.882812 78.160156 82.039062 79.339844 82.039062 81.382812 C 82.039062 83.425781 82.890625 84.605469 84.34375 84.605469 Z M 84.34375 84.605469 " fill-opacity="1" fill-rule="nonzero"/></g></svg>