<svg xmlns="http://www.w3.org/2000/svg" xmlns:xlink="http://www.w3.org/1999/xlink" width="800" zoomAndPan="magnify" viewBox="0 0 600 599.999999" height="800" preserveAspectRatio="xMidYMid meet" version="1.0"><defs><clipPath id="dcd1599a7b"><path d="M 9.628906 8.394531 L 593.878906 8.394531 L 593.878906 592.644531 L 9.628906 592.644531 Z M 9.628906 8.394531 " clip-rule="nonzero"/></clipPath><clipPath id="676f63b116"><path d="M 68 8.394531 L 593.878906 8.394531 L 593.878906 592.644531 L 68 592.644531 Z M 68 8.394531 " clip-rule="nonzero"/></clipPath></defs><g clip-path="url(#dcd1599a7b)"><path fill="#cccccc" d="M 176.328125 464.6875 C 161.765625 453.542969 148.730469 440.507812 137.589844 425.949219 L 68.324219 476.273438 C 84.769531 498.078125 104.195312 517.507812 126.003906 533.953125 Z M 306.742188 8.394531 L 306.742188 93.984375 C 325.507812 94.429688 343.652344 97.382812 360.859375 102.511719 L 387.320312 21.074219 C 361.773438 13.261719 334.738281 8.859375 306.742188 8.394531 Z M 206.722656 576.894531 L 233.183594 495.453125 C 215.722656 489.308594 199.335938 480.890625 184.378906 470.546875 L 134.058594 539.808594 C 156.21875 555.367188 180.632812 567.925781 206.722656 576.894531 Z M 296.769531 592.648438 L 296.769531 507.058594 C 278.003906 506.613281 259.855469 503.660156 242.652344 498.527344 L 216.191406 579.96875 C 241.738281 587.78125 268.773438 592.179688 296.769531 592.648438 Z M 387.320312 579.96875 L 360.855469 498.527344 C 343.652344 503.65625 325.507812 506.613281 306.742188 507.058594 L 306.742188 592.648438 C 334.738281 592.179688 361.773438 587.785156 387.320312 579.96875 Z M 469.453125 539.808594 L 419.132812 470.546875 C 404.175781 480.890625 387.789062 489.3125 370.324219 495.453125 L 396.789062 576.894531 C 422.878906 567.921875 447.292969 555.371094 469.453125 539.808594 Z M 535.183594 476.273438 L 465.921875 425.949219 C 454.777344 440.507812 441.742188 453.546875 427.183594 464.6875 L 477.507812 533.953125 C 499.3125 517.507812 518.742188 498.082031 535.183594 476.273438 Z M 578.128906 395.554688 L 496.6875 369.09375 C 490.542969 386.554688 482.125 402.941406 471.78125 417.898438 L 541.042969 468.21875 C 556.601562 446.058594 569.160156 421.644531 578.128906 395.554688 Z M 593.882812 305.488281 L 508.296875 305.488281 C 507.847656 324.261719 504.898438 342.410156 499.761719 359.625 L 581.207031 386.085938 C 589.019531 360.53125 593.417969 333.488281 593.882812 305.488281 Z M 581.207031 214.957031 L 499.761719 241.417969 C 504.894531 258.632812 507.847656 276.78125 508.296875 295.554688 L 593.882812 295.554688 C 593.414062 267.554688 589.023438 240.507812 581.207031 214.957031 Z M 541.042969 132.824219 L 471.78125 183.144531 C 482.125 198.105469 490.546875 214.488281 496.6875 231.949219 L 578.128906 205.488281 C 569.15625 179.398438 556.605469 154.980469 541.042969 132.824219 Z M 477.507812 67.089844 L 427.183594 136.355469 C 441.742188 147.5 454.78125 160.53125 465.921875 175.09375 L 535.1875 124.769531 C 518.738281 102.964844 499.3125 83.535156 477.507812 67.089844 Z M 396.789062 24.144531 L 370.324219 105.585938 C 387.789062 111.734375 404.175781 120.148438 419.132812 130.496094 L 469.453125 61.234375 C 447.292969 45.675781 422.878906 33.113281 396.789062 24.144531 Z M 216.191406 21.074219 L 242.652344 102.511719 C 259.859375 97.386719 278.003906 94.429688 296.769531 93.984375 L 296.769531 8.394531 C 268.777344 8.863281 241.738281 13.257812 216.191406 21.074219 Z M 134.058594 61.234375 L 184.378906 130.496094 C 199.335938 120.152344 215.722656 111.730469 233.183594 105.585938 L 206.722656 24.144531 C 180.636719 33.121094 156.214844 45.675781 134.058594 61.234375 Z M 68.324219 124.769531 L 137.589844 175.09375 C 148.734375 160.535156 161.765625 147.496094 176.328125 136.355469 L 126.003906 67.089844 C 104.199219 83.535156 84.769531 102.960938 68.324219 124.769531 Z M 25.378906 205.488281 L 106.820312 231.949219 C 112.96875 214.488281 121.386719 198.101562 131.730469 183.144531 L 62.46875 132.824219 C 46.910156 154.984375 34.347656 179.398438 25.378906 205.488281 Z M 9.628906 295.554688 L 95.21875 295.554688 C 95.660156 276.78125 98.617188 258.628906 103.746094 241.417969 L 22.308594 214.957031 C 14.492188 240.507812 10.09375 267.554688 9.628906 295.554688 Z M 22.308594 386.085938 L 103.746094 359.625 C 98.617188 342.410156 95.660156 324.261719 95.21875 305.488281 L 9.628906 305.488281 C 10.09375 333.488281 14.484375 360.535156 22.308594 386.085938 Z M 62.46875 468.21875 L 131.730469 417.898438 C 121.386719 402.941406 112.964844 386.554688 106.824219 369.09375 L 25.378906 395.554688 C 34.355469 421.644531 46.910156 446.058594 62.46875 468.21875 Z M 62.46875 468.21875 " fill-opacity="1" fill-rule="evenodd"/></g><path fill="#230f3d" d="M 301.753906 109.832031 C 407.070312 109.832031 492.445312 195.207031 492.445312 300.519531 C 492.445312 405.835938 407.070312 491.207031 301.753906 491.207031 C 196.441406 491.207031 111.066406 405.835938 111.066406 300.519531 C 111.066406 195.207031 196.441406 109.832031 301.753906 109.832031 Z M 301.753906 109.832031 " fill-opacity="1" fill-rule="evenodd"/><path fill="#ffffff" d="M 228.648438 277.457031 C 215.007812 277.457031 209.800781 282.203125 209.800781 294.855469 L 209.800781 306.1875 C 209.800781 318.839844 215.007812 323.582031 228.648438 323.582031 L 247.757812 323.582031 C 256.984375 323.582031 260.542969 319.035156 260.542969 311.984375 L 260.542969 306.78125 C 260.542969 299.664062 257.308594 295.183594 248.414062 295.183594 L 223.113281 295.183594 C 223.113281 290.4375 224.035156 289.449219 228.648438 289.449219 L 256.71875 289.449219 C 258.035156 289.449219 258.695312 288.792969 258.695312 287.472656 L 258.695312 279.4375 C 258.695312 278.117188 258.035156 277.457031 256.71875 277.457031 Z M 245.582031 305.003906 C 246.703125 305.003906 247.226562 305.597656 247.226562 306.847656 L 247.226562 310.140625 C 247.226562 311.394531 246.636719 311.984375 245.515625 311.984375 L 228.648438 311.984375 C 223.96875 311.984375 223.113281 311 223.113281 306.054688 L 223.113281 305.003906 Z M 274.375 277.457031 C 269.171875 277.457031 267.261719 279.4375 267.261719 283.851562 L 267.261719 299.136719 C 267.261719 303.550781 269.171875 305.53125 274.375 305.53125 L 303.039062 305.53125 C 304.160156 305.53125 304.6875 306.121094 304.6875 307.375 L 304.6875 309.746094 C 304.6875 311 304.09375 311.589844 302.972656 311.589844 L 269.304688 311.589844 C 267.984375 311.589844 267.324219 312.25 267.324219 313.566406 L 267.324219 321.609375 C 267.324219 322.925781 267.984375 323.582031 269.304688 323.582031 L 305.214844 323.582031 C 313.714844 323.582031 318 319.035156 318 312.25 L 318 307.375 C 318 299.664062 313.515625 295.183594 305.410156 295.183594 L 281.492188 295.183594 C 280.835938 295.183594 280.570312 294.921875 280.570312 294.261719 L 280.570312 290.375 C 280.570312 289.714844 280.835938 289.449219 281.492188 289.449219 L 314.308594 289.449219 C 315.625 289.449219 316.285156 288.792969 316.285156 287.472656 L 316.285156 279.4375 C 316.285156 278.117188 315.625 277.457031 314.308594 277.457031 Z M 375.324219 277.457031 C 374.070312 277.457031 373.542969 277.722656 373.085938 278.25 L 337.105469 322.132812 C 336.578125 322.792969 336.777344 323.582031 337.699219 323.582031 L 343.167969 323.582031 C 344.421875 323.582031 344.949219 323.320312 345.410156 322.792969 L 381.386719 278.910156 C 381.914062 278.25 381.714844 277.457031 380.792969 277.457031 Z M 374.796875 298.214844 C 367.285156 298.214844 364.453125 300.851562 364.453125 307.769531 L 364.453125 314.03125 C 364.453125 320.949219 367.285156 323.582031 374.796875 323.582031 L 383.296875 323.582031 C 390.808594 323.582031 393.707031 320.949219 393.707031 314.03125 L 393.707031 307.769531 C 393.707031 300.851562 390.808594 298.214844 383.296875 298.214844 Z M 372.160156 308.496094 C 372.160156 305.726562 372.625 305.199219 375.191406 305.199219 L 382.902344 305.199219 C 385.472656 305.199219 385.933594 305.726562 385.933594 308.496094 L 385.933594 313.304688 C 385.933594 316.070312 385.472656 316.597656 382.902344 316.597656 L 375.191406 316.597656 C 372.625 316.597656 372.160156 316.070312 372.160156 313.304688 Z M 335.128906 277.457031 C 327.617188 277.457031 324.785156 280.09375 324.785156 287.011719 L 324.785156 293.273438 C 324.785156 300.191406 327.617188 302.828125 335.128906 302.828125 L 343.628906 302.828125 C 351.140625 302.828125 354.039062 300.191406 354.039062 293.273438 L 354.039062 287.011719 C 354.039062 280.09375 351.140625 277.457031 343.628906 277.457031 Z M 332.492188 287.738281 C 332.492188 284.972656 332.957031 284.441406 335.523438 284.441406 L 343.234375 284.441406 C 345.804688 284.441406 346.265625 284.972656 346.265625 287.738281 L 346.265625 292.550781 C 346.265625 295.316406 345.804688 295.84375 343.234375 295.84375 L 335.523438 295.84375 C 332.957031 295.84375 332.492188 295.316406 332.492188 292.550781 Z M 332.492188 287.738281 " fill-opacity="1" fill-rule="nonzero"/><g clip-path="url(#676f63b116)"><path fill="#230f3d" d="M 176.328125 464.6875 C 161.765625 453.542969 148.730469 440.507812 137.589844 425.949219 L 68.324219 476.273438 C 84.769531 498.078125 104.195312 517.507812 126.003906 533.953125 Z M 306.742188 8.394531 L 306.742188 93.984375 C 325.507812 94.429688 343.652344 97.382812 360.859375 102.511719 L 387.320312 21.074219 C 361.773438 13.261719 334.738281 8.859375 306.742188 8.394531 Z M 206.722656 576.894531 L 233.183594 495.453125 C 215.722656 489.308594 199.335938 480.890625 184.378906 470.546875 L 134.058594 539.808594 C 156.21875 555.367188 180.632812 567.925781 206.722656 576.894531 Z M 296.769531 592.648438 L 296.769531 507.058594 C 278.003906 506.613281 259.855469 503.660156 242.652344 498.527344 L 216.191406 579.96875 C 241.738281 587.78125 268.773438 592.179688 296.769531 592.648438 Z M 387.320312 579.96875 L 360.855469 498.527344 C 343.652344 503.65625 325.507812 506.613281 306.742188 507.058594 L 306.742188 592.648438 C 334.738281 592.179688 361.773438 587.785156 387.320312 579.96875 Z M 469.453125 539.808594 L 419.132812 470.546875 C 404.175781 480.890625 387.789062 489.3125 370.324219 495.453125 L 396.789062 576.894531 C 422.878906 567.921875 447.292969 555.371094 469.453125 539.808594 Z M 535.183594 476.273438 L 465.921875 425.949219 C 454.777344 440.507812 441.742188 453.546875 427.183594 464.6875 L 477.507812 533.953125 C 499.3125 517.507812 518.742188 498.082031 535.183594 476.273438 Z M 578.128906 395.554688 L 496.6875 369.09375 C 490.542969 386.554688 482.125 402.941406 471.78125 417.898438 L 541.042969 468.21875 C 556.601562 446.058594 569.160156 421.644531 578.128906 395.554688 Z M 593.882812 305.488281 L 508.296875 305.488281 C 507.847656 324.261719 504.898438 342.410156 499.761719 359.625 L 581.207031 386.085938 C 589.019531 360.53125 593.417969 333.488281 593.882812 305.488281 Z M 581.207031 214.957031 L 499.761719 241.417969 C 504.894531 258.632812 507.847656 276.78125 508.296875 295.554688 L 593.882812 295.554688 C 593.414062 267.554688 589.023438 240.507812 581.207031 214.957031 Z M 541.042969 132.824219 L 471.78125 183.144531 C 482.125 198.105469 490.546875 214.488281 496.6875 231.949219 L 578.128906 205.488281 C 569.15625 179.398438 556.605469 154.980469 541.042969 132.824219 Z M 477.507812 67.089844 L 427.183594 136.355469 C 441.742188 147.5 454.78125 160.53125 465.921875 175.09375 L 535.1875 124.769531 C 518.738281 102.964844 499.3125 83.535156 477.507812 67.089844 Z M 396.789062 24.144531 L 370.324219 105.585938 C 387.789062 111.734375 404.175781 120.148438 419.132812 130.496094 L 469.453125 61.234375 C 447.292969 45.675781 422.878906 33.113281 396.789062 24.144531 Z M 396.789062 24.144531 " fill-opacity="1" fill-rule="evenodd"/></g></svg>