<svg xmlns="http://www.w3.org/2000/svg" xmlns:xlink="http://www.w3.org/1999/xlink" width="800" zoomAndPan="magnify" viewBox="0 0 600 599.999999" height="800" preserveAspectRatio="xMidYMid meet" version="1.0"><defs><clipPath id="b8f0e817a4"><path d="M 479 215 L 590.699219 215 L 590.699219 385 L 479 385 Z M 479 215 " clip-rule="nonzero"/></clipPath><clipPath id="bbe6608fce"><path d="M 307 452 L 468 452 L 468 587.988281 L 307 587.988281 Z M 307 452 " clip-rule="nonzero"/></clipPath><clipPath id="aba3ac04bc"><path d="M 137 452 L 298 452 L 298 587.988281 L 137 587.988281 Z M 137 452 " clip-rule="nonzero"/></clipPath></defs><path fill="#000000" d="M 297.398438 100.816406 L 297.398438 26.933594 C 293.925781 27 290.457031 27.132812 286.992188 27.332031 C 283.523438 27.53125 280.0625 27.792969 276.605469 28.125 C 273.148438 28.453125 269.695312 28.851562 266.253906 29.3125 C 262.8125 29.773438 259.378906 30.300781 255.957031 30.894531 C 252.535156 31.484375 249.128906 32.140625 245.730469 32.863281 C 242.332031 33.585938 238.949219 34.371094 235.582031 35.222656 C 232.214844 36.074219 228.867188 36.988281 225.535156 37.964844 C 222.203125 38.945312 218.890625 39.984375 215.597656 41.089844 C 212.304688 42.195312 209.035156 43.359375 205.785156 44.589844 C 202.539062 45.820312 199.316406 47.109375 196.117188 48.460938 C 192.917969 49.8125 189.746094 51.222656 186.597656 52.695312 C 183.453125 54.167969 180.339844 55.699219 177.25 57.289062 C 174.164062 58.882812 171.109375 60.53125 168.085938 62.238281 C 165.058594 63.945312 162.070312 65.707031 159.113281 67.53125 C 156.15625 69.351562 153.234375 71.226562 150.347656 73.160156 C 147.464844 75.09375 144.617188 77.078125 141.808594 79.117188 C 138.996094 81.160156 136.226562 83.253906 133.496094 85.398438 C 130.765625 87.542969 128.078125 89.742188 125.433594 91.992188 C 122.785156 94.238281 120.183594 96.535156 117.625 98.882812 C 115.066406 101.230469 112.550781 103.625 110.085938 106.070312 C 107.617188 108.511719 105.195312 111.003906 102.824219 113.539062 C 100.453125 116.074219 98.128906 118.652344 95.851562 121.277344 C 93.578125 123.898438 91.355469 126.566406 89.183594 129.273438 C 87.007812 131.980469 84.886719 134.730469 82.820312 137.519531 C 80.75 140.308594 78.738281 143.136719 76.777344 146.003906 C 74.816406 148.867188 72.910156 151.769531 71.058594 154.707031 C 69.210938 157.648438 67.417969 160.617188 65.679688 163.625 C 63.941406 166.632812 62.261719 169.671875 60.640625 172.742188 C 59.019531 175.8125 57.460938 178.910156 55.957031 182.042969 C 54.453125 185.171875 53.011719 188.328125 51.628906 191.515625 C 50.246094 194.699219 48.921875 197.910156 47.660156 201.144531 C 46.402344 204.378906 45.203125 207.636719 44.066406 210.917969 L 114.355469 233.730469 C 116.027344 229.007812 117.875 224.351562 119.902344 219.765625 C 121.925781 215.183594 124.117188 210.679688 126.480469 206.257812 C 128.84375 201.839844 131.371094 197.515625 134.0625 193.285156 C 136.75 189.054688 139.59375 184.933594 142.59375 180.917969 C 145.59375 176.902344 148.742188 173.007812 152.035156 169.226562 C 155.328125 165.449219 158.757812 161.800781 162.324219 158.28125 C 165.894531 154.757812 169.589844 151.378906 173.414062 148.136719 C 177.234375 144.894531 181.175781 141.800781 185.230469 138.855469 C 189.289062 135.910156 193.449219 133.121094 197.714844 130.492188 C 201.980469 127.859375 206.339844 125.390625 210.792969 123.085938 C 215.242188 120.785156 219.777344 118.652344 224.390625 116.6875 C 229 114.726562 233.683594 112.9375 238.429688 111.328125 C 243.175781 109.71875 247.976562 108.289062 252.832031 107.042969 C 257.6875 105.792969 262.582031 104.730469 267.519531 103.847656 C 272.453125 102.96875 277.414062 102.277344 282.402344 101.769531 C 287.390625 101.261719 292.386719 100.945312 297.398438 100.816406 Z M 297.398438 100.816406 " fill-opacity="1" fill-rule="nonzero"/><path fill="#034183" d="M 307.300781 26.933594 L 307.300781 115.5625 C 316.15625 115.777344 324.949219 116.632812 333.679688 118.125 C 342.410156 119.621094 350.988281 121.738281 359.410156 124.476562 C 367.832031 127.214844 376.015625 130.550781 383.953125 134.480469 C 391.890625 138.40625 399.503906 142.890625 406.792969 147.925781 L 415.503906 135.949219 L 448.765625 90.175781 L 458.914062 76.222656 L 467.675781 64.34375 C 461.839844 60.234375 455.863281 56.347656 449.738281 52.6875 C 443.613281 49.023438 437.363281 45.59375 430.980469 42.398438 C 424.597656 39.207031 418.105469 36.253906 411.503906 33.546875 C 404.902344 30.839844 398.207031 28.378906 391.421875 26.171875 C 384.636719 23.964844 377.777344 22.015625 370.84375 20.324219 C 363.910156 18.628906 356.925781 17.199219 349.886719 16.027344 C 342.84375 14.855469 335.773438 13.949219 328.664062 13.308594 C 321.558594 12.667969 314.433594 12.296875 307.300781 12.1875 Z M 307.300781 26.933594 " fill-opacity="1" fill-rule="nonzero"/><path fill="#034183" d="M 506.136719 228.632812 L 560.582031 210.917969 L 574.738281 206.316406 C 572.402344 199.582031 569.824219 192.945312 567 186.402344 C 564.175781 179.859375 561.113281 173.429688 557.816406 167.109375 C 554.519531 160.792969 550.996094 154.601562 547.242188 148.542969 C 543.492188 142.484375 539.519531 136.570312 535.335938 130.804688 C 531.148438 125.035156 526.753906 119.429688 522.15625 113.984375 C 517.558594 108.539062 512.765625 103.269531 507.777344 98.179688 C 502.792969 93.085938 497.625 88.183594 492.28125 83.46875 C 486.933594 78.753906 481.421875 74.246094 475.742188 69.9375 L 466.980469 82.011719 L 456.835938 96.015625 L 423.523438 141.789062 L 414.859375 153.761719 C 421.863281 159.167969 428.449219 165.042969 434.617188 171.386719 C 440.78125 177.730469 446.464844 184.480469 451.667969 191.636719 C 456.871094 198.792969 461.539062 206.28125 465.671875 214.105469 C 469.800781 221.925781 473.359375 230.003906 476.335938 238.332031 L 490.445312 233.730469 Z M 506.136719 228.632812 " fill-opacity="1" fill-rule="nonzero"/><g clip-path="url(#b8f0e817a4)"><path fill="#034183" d="M 590.53125 300.039062 C 590.519531 285.785156 589.457031 271.605469 587.34375 257.507812 C 585.226562 243.410156 582.082031 229.546875 577.90625 215.914062 L 563.800781 220.519531 L 493.464844 243.332031 L 479.355469 247.933594 C 481.867188 256.417969 483.757812 265.042969 485.027344 273.800781 C 486.296875 282.558594 486.929688 291.363281 486.929688 300.210938 C 486.929688 309.0625 486.296875 317.867188 485.027344 326.625 C 483.757812 335.382812 481.867188 344.007812 479.355469 352.492188 L 493.464844 357.09375 L 537.070312 371.148438 L 563.800781 379.808594 L 577.90625 384.410156 C 582.097656 370.742188 585.25 356.835938 587.363281 342.695312 C 589.480469 328.554688 590.535156 314.335938 590.53125 300.039062 Z M 590.53125 300.039062 " fill-opacity="1" fill-rule="nonzero"/></g><path fill="#034183" d="M 137.816406 518.019531 L 181.277344 458.242188 L 190.085938 446.316406 C 183.070312 440.910156 176.472656 435.035156 170.292969 428.691406 C 164.113281 422.347656 158.414062 415.597656 153.195312 408.445312 C 147.976562 401.289062 143.292969 393.800781 139.140625 385.976562 C 134.988281 378.15625 131.414062 370.078125 128.410156 361.746094 L 114.355469 366.199219 L 44.066406 389.011719 L 29.859375 393.613281 C 32.195312 400.347656 34.777344 406.984375 37.601562 413.527344 C 40.425781 420.070312 43.484375 426.503906 46.78125 432.820312 C 50.078125 439.140625 53.605469 445.328125 57.355469 451.386719 C 61.109375 457.445312 65.078125 463.359375 69.265625 469.128906 C 73.449219 474.894531 77.84375 480.503906 82.441406 485.945312 C 87.042969 491.390625 91.832031 496.660156 96.820312 501.753906 C 101.804688 506.847656 106.972656 511.75 112.320312 516.460938 C 117.667969 521.175781 123.179688 525.6875 128.859375 529.996094 Z M 137.816406 518.019531 " fill-opacity="1" fill-rule="nonzero"/><path fill="#034183" d="M 414.808594 446.316406 L 423.472656 458.242188 L 456.785156 504.0625 L 466.933594 518.019531 L 475.695312 530.09375 C 481.375 525.789062 486.890625 521.277344 492.238281 516.566406 C 497.585938 511.855469 502.753906 506.953125 507.742188 501.863281 C 512.730469 496.769531 517.523438 491.503906 522.125 486.058594 C 526.722656 480.613281 531.117188 475.007812 535.304688 469.238281 C 539.492188 463.472656 543.460938 457.558594 547.210938 451.496094 C 550.960938 445.4375 554.484375 439.246094 557.78125 432.929688 C 561.078125 426.609375 564.136719 420.175781 566.957031 413.632812 C 569.78125 407.085938 572.359375 400.449219 574.691406 393.714844 L 560.535156 389.113281 L 503.066406 370.457031 L 490.246094 366.300781 L 476.1875 361.746094 C 473.214844 370.070312 469.664062 378.144531 465.535156 385.964844 C 461.410156 393.78125 456.75 401.269531 451.558594 408.425781 C 446.363281 415.582031 440.691406 422.332031 434.535156 428.679688 C 428.378906 435.027344 421.804688 440.90625 414.808594 446.316406 Z M 414.808594 446.316406 " fill-opacity="1" fill-rule="nonzero"/><g clip-path="url(#bbe6608fce)"><path fill="#034183" d="M 307.300781 499.265625 L 307.300781 588.039062 C 314.433594 587.9375 321.554688 587.566406 328.664062 586.929688 C 335.773438 586.292969 342.84375 585.390625 349.886719 584.226562 C 356.925781 583.058594 363.910156 581.628906 370.84375 579.9375 C 377.777344 578.25 384.636719 576.300781 391.425781 574.09375 C 398.210938 571.890625 404.90625 569.433594 411.507812 566.726562 C 418.109375 564.019531 424.601562 561.070312 430.984375 557.875 C 437.363281 554.683594 443.617188 551.253906 449.742188 547.59375 C 455.863281 543.929688 461.84375 540.042969 467.675781 535.933594 L 458.863281 523.808594 L 448.964844 509.902344 L 415.703125 464.082031 L 406.988281 452.105469 C 399.703125 457.140625 392.089844 461.621094 384.152344 465.550781 C 376.210938 469.480469 368.03125 472.8125 359.609375 475.554688 C 351.183594 478.292969 342.609375 480.410156 333.878906 481.902344 C 325.144531 483.398438 316.351562 484.253906 307.496094 484.46875 Z M 307.300781 499.265625 " fill-opacity="1" fill-rule="nonzero"/></g><g clip-path="url(#aba3ac04bc)"><path fill="#034183" d="M 297.398438 573.144531 L 297.398438 484.46875 C 288.546875 484.25 279.761719 483.394531 271.035156 481.898438 C 262.304688 480.402344 253.734375 478.285156 245.316406 475.546875 C 236.894531 472.804688 228.71875 469.472656 220.785156 465.546875 C 212.851562 461.617188 205.242188 457.136719 197.957031 452.105469 L 189.246094 464.082031 L 145.835938 523.808594 L 137.074219 535.933594 C 142.90625 540.042969 148.882812 543.929688 155.003906 547.589844 C 161.125 551.25 167.375 554.679688 173.753906 557.871094 C 180.132812 561.066406 186.625 564.015625 193.222656 566.722656 C 199.824219 569.429688 206.515625 571.886719 213.300781 574.089844 C 220.085938 576.296875 226.941406 578.242188 233.875 579.933594 C 240.804688 581.625 247.789062 583.054688 254.828125 584.222656 C 261.863281 585.390625 268.9375 586.292969 276.042969 586.929688 C 283.148438 587.566406 290.265625 587.9375 297.398438 588.039062 Z M 297.398438 573.144531 " fill-opacity="1" fill-rule="nonzero"/></g><path fill="#034183" d="M 26.742188 384.3125 L 40.847656 379.710938 L 67.082031 371.199219 L 111.1875 356.898438 L 125.292969 352.296875 C 122.78125 343.808594 120.890625 335.1875 119.625 326.429688 C 118.355469 317.667969 117.71875 308.863281 117.71875 300.015625 C 117.71875 291.164062 118.355469 282.359375 119.625 273.601562 C 120.890625 264.84375 122.78125 256.222656 125.292969 247.734375 L 111.1875 243.132812 L 40.949219 220.320312 L 26.742188 215.71875 C 24.652344 222.539062 22.820312 229.425781 21.242188 236.382812 C 19.667969 243.339844 18.351562 250.34375 17.292969 257.398438 C 16.238281 264.449219 15.445312 271.535156 14.914062 278.648438 C 14.386719 285.757812 14.121094 292.882812 14.121094 300.015625 C 14.121094 307.148438 14.386719 314.269531 14.914062 321.382812 C 15.445312 328.496094 16.238281 335.578125 17.292969 342.632812 C 18.351562 349.6875 19.667969 356.691406 21.242188 363.648438 C 22.820312 370.605469 24.652344 377.492188 26.742188 384.3125 Z M 26.742188 384.3125 " fill-opacity="1" fill-rule="nonzero"/><path fill="#000000" d="M 201.324219 351.355469 C 200.046875 349.9375 198.921875 348.410156 197.957031 346.769531 C 196.988281 345.125 196.191406 343.402344 195.570312 341.601562 C 194.949219 339.796875 194.515625 337.953125 194.269531 336.0625 C 194.019531 334.171875 193.960938 332.273438 194.097656 330.375 L 194.097656 320.476562 C 193.933594 315.5 194.855469 310.730469 196.867188 306.175781 C 197.804688 304.175781 199.039062 302.386719 200.574219 300.800781 C 202.109375 299.214844 203.859375 297.921875 205.828125 296.921875 C 204.011719 295.957031 202.386719 294.742188 200.949219 293.273438 C 199.511719 291.800781 198.335938 290.148438 197.414062 288.3125 C 195.449219 283.867188 194.554688 279.214844 194.738281 274.355469 L 194.738281 269.410156 C 194.613281 267.507812 194.667969 265.617188 194.914062 263.726562 C 195.160156 261.839844 195.582031 259.996094 196.191406 258.191406 C 196.796875 256.386719 197.574219 254.660156 198.523438 253.007812 C 199.46875 251.355469 200.566406 249.8125 201.816406 248.378906 C 202.53125 247.796875 203.265625 247.25 204.023438 246.734375 C 204.78125 246.21875 205.5625 245.734375 206.363281 245.285156 C 207.164062 244.835938 207.980469 244.417969 208.816406 244.039062 C 209.652344 243.660156 210.5 243.316406 211.367188 243.007812 C 212.230469 242.699219 213.109375 242.429688 213.996094 242.199219 C 214.882812 241.964844 215.78125 241.769531 216.683594 241.613281 C 217.589844 241.457031 218.5 241.339844 219.414062 241.261719 C 220.328125 241.183594 221.242188 241.144531 222.160156 241.144531 C 223.078125 241.144531 223.996094 241.183594 224.910156 241.261719 C 225.824219 241.339844 226.734375 241.457031 227.640625 241.613281 C 228.542969 241.769531 229.441406 241.964844 230.328125 242.199219 C 231.214844 242.429688 232.09375 242.699219 232.957031 243.007812 C 233.824219 243.316406 234.671875 243.660156 235.507812 244.039062 C 236.34375 244.417969 237.160156 244.835938 237.960938 245.285156 C 238.761719 245.734375 239.542969 246.21875 240.300781 246.734375 C 241.058594 247.25 241.792969 247.796875 242.507812 248.378906 C 243.757812 249.820312 244.855469 251.371094 245.800781 253.03125 C 246.746094 254.691406 247.515625 256.429688 248.117188 258.242188 C 248.714844 260.054688 249.128906 261.910156 249.359375 263.808594 C 249.589844 265.703125 249.632812 267.601562 249.484375 269.507812 L 249.484375 274.457031 C 249.484375 285.34375 245.773438 292.863281 238.347656 297.019531 L 238.347656 296.921875 C 240.308594 297.890625 242.058594 299.152344 243.601562 300.703125 C 245.144531 302.253906 246.398438 304.011719 247.355469 305.976562 C 249.34375 310.539062 250.265625 315.304688 250.128906 320.277344 L 250.128906 330.175781 C 250.058594 331.550781 249.894531 332.910156 249.632812 334.261719 C 249.375 335.613281 249.023438 336.941406 248.578125 338.242188 C 248.132812 339.542969 247.601562 340.808594 246.980469 342.035156 C 246.363281 343.265625 245.660156 344.441406 244.875 345.574219 C 244.089844 346.703125 243.234375 347.773438 242.300781 348.785156 C 241.367188 349.796875 240.371094 350.738281 239.304688 351.613281 C 238.242188 352.484375 237.121094 353.277344 235.949219 353.996094 C 234.773438 354.710938 233.554688 355.34375 232.292969 355.890625 C 231.03125 356.441406 229.738281 356.898438 228.414062 357.265625 C 227.085938 357.632812 225.742188 357.910156 224.378906 358.089844 C 223.015625 358.269531 221.644531 358.355469 220.269531 358.347656 C 218.890625 358.335938 217.523438 358.234375 216.164062 358.035156 C 214.800781 357.835938 213.460938 357.542969 212.140625 357.15625 C 210.820312 356.769531 209.53125 356.296875 208.277344 355.730469 C 207.023438 355.164062 205.8125 354.515625 204.648438 353.785156 C 203.484375 353.050781 202.375 352.242188 201.324219 351.355469 Z M 232.308594 329.382812 L 232.308594 318.449219 C 232.308594 309.835938 228.945312 305.53125 222.410156 305.53125 C 215.875 305.53125 212.511719 309.835938 212.511719 318.449219 L 212.511719 329.382812 C 212.511719 337.996094 215.808594 342.300781 222.410156 342.300781 C 228.945312 342.496094 232.308594 338.191406 232.308594 329.582031 Z M 231.664062 277.96875 L 231.664062 269.011719 C 231.664062 261.390625 228.496094 257.582031 222.164062 257.582031 C 215.875 257.582031 212.707031 261.390625 212.707031 269.011719 L 212.707031 277.96875 C 212.707031 285.589844 215.875 289.402344 222.164062 289.402344 C 228.449219 289.402344 231.664062 285.589844 231.664062 277.96875 Z M 231.664062 277.96875 " fill-opacity="1" fill-rule="nonzero"/><path fill="#000000" d="M 267.253906 351.355469 C 266.011719 349.894531 264.917969 348.332031 263.980469 346.660156 C 263.039062 344.992188 262.269531 343.246094 261.664062 341.425781 C 261.0625 339.609375 260.640625 337.746094 260.398438 335.847656 C 260.15625 333.945312 260.097656 332.039062 260.226562 330.125 L 260.226562 269.953125 C 260.105469 268.042969 260.167969 266.136719 260.414062 264.234375 C 260.65625 262.335938 261.082031 260.476562 261.683594 258.65625 C 262.285156 256.839844 263.054688 255.09375 263.992188 253.421875 C 264.929688 251.753906 266.015625 250.1875 267.253906 248.722656 C 267.953125 248.125 268.675781 247.5625 269.425781 247.027344 C 270.171875 246.496094 270.941406 245.996094 271.734375 245.53125 C 272.527344 245.066406 273.339844 244.636719 274.171875 244.242188 C 275 243.847656 275.847656 243.492188 276.707031 243.175781 C 277.570312 242.855469 278.445312 242.578125 279.332031 242.335938 C 280.21875 242.09375 281.113281 241.894531 282.019531 241.730469 C 282.921875 241.570312 283.832031 241.449219 284.75 241.367188 C 285.664062 241.285156 286.582031 241.246094 287.5 241.246094 C 288.417969 241.246094 289.335938 241.285156 290.25 241.367188 C 291.167969 241.449219 292.078125 241.570312 292.980469 241.730469 C 293.886719 241.894531 294.78125 242.09375 295.667969 242.335938 C 296.554688 242.578125 297.429688 242.855469 298.292969 243.175781 C 299.152344 243.492188 300 243.847656 300.832031 244.242188 C 301.660156 244.636719 302.472656 245.066406 303.265625 245.53125 C 304.058594 245.996094 304.828125 246.496094 305.574219 247.027344 C 306.324219 247.5625 307.046875 248.125 307.746094 248.722656 C 308.984375 250.1875 310.070312 251.753906 311.007812 253.421875 C 311.945312 255.09375 312.714844 256.839844 313.316406 258.65625 C 313.917969 260.476562 314.34375 262.335938 314.585938 264.234375 C 314.832031 266.136719 314.894531 268.042969 314.773438 269.953125 L 314.773438 330.078125 C 314.902344 331.988281 314.84375 333.894531 314.601562 335.796875 C 314.359375 337.699219 313.9375 339.558594 313.335938 341.378906 C 312.734375 343.199219 311.960938 344.941406 311.019531 346.613281 C 310.082031 348.28125 308.988281 349.847656 307.746094 351.304688 C 307.046875 351.90625 306.328125 352.476562 305.578125 353.011719 C 304.832031 353.546875 304.0625 354.050781 303.273438 354.519531 C 302.480469 354.988281 301.667969 355.417969 300.839844 355.816406 C 300.007812 356.210938 299.160156 356.570312 298.300781 356.890625 C 297.4375 357.210938 296.5625 357.492188 295.675781 357.734375 C 294.789062 357.976562 293.890625 358.179688 292.988281 358.34375 C 292.082031 358.503906 291.171875 358.628906 290.253906 358.707031 C 289.339844 358.789062 288.421875 358.832031 287.5 358.832031 C 286.582031 358.832031 285.664062 358.789062 284.746094 358.707031 C 283.828125 358.628906 282.917969 358.503906 282.011719 358.34375 C 281.109375 358.179688 280.210938 357.976562 279.324219 357.734375 C 278.4375 357.492188 277.5625 357.210938 276.699219 356.890625 C 275.839844 356.570312 274.992188 356.210938 274.160156 355.816406 C 273.332031 355.417969 272.519531 354.988281 271.730469 354.519531 C 270.9375 354.050781 270.167969 353.546875 269.421875 353.011719 C 268.671875 352.476562 267.953125 351.90625 267.253906 351.304688 Z M 296.953125 331.265625 L 296.953125 268.816406 C 296.953125 261.34375 293.886719 257.582031 287.648438 257.582031 C 281.410156 257.582031 278.34375 261.34375 278.34375 268.816406 L 278.34375 331.214844 C 278.34375 338.738281 281.460938 342.496094 287.648438 342.496094 C 293.835938 342.496094 296.804688 338.738281 296.804688 331.214844 Z M 296.953125 331.265625 " fill-opacity="1" fill-rule="nonzero"/><path fill="#000000" d="M 330.316406 301.871094 C 328.734375 299.980469 327.5625 297.863281 326.800781 295.515625 C 326.039062 293.171875 325.742188 290.769531 325.910156 288.3125 L 325.910156 259.511719 C 325.738281 257.050781 326.035156 254.648438 326.796875 252.304688 C 327.558594 249.960938 328.730469 247.84375 330.316406 245.953125 C 331.207031 245.1875 332.15625 244.511719 333.167969 243.914062 C 334.179688 243.320312 335.234375 242.820312 336.335938 242.410156 C 337.4375 242.003906 338.5625 241.695312 339.71875 241.492188 C 340.875 241.285156 342.039062 241.179688 343.210938 241.179688 C 344.382812 241.179688 345.546875 241.285156 346.703125 241.492188 C 347.859375 241.699219 348.984375 242.003906 350.085938 242.410156 C 351.1875 242.820312 352.242188 243.320312 353.253906 243.914062 C 354.265625 244.511719 355.214844 245.1875 356.105469 245.953125 C 357.679688 247.847656 358.847656 249.964844 359.609375 252.308594 C 360.371094 254.652344 360.671875 257.054688 360.511719 259.511719 L 360.511719 288.113281 C 360.667969 290.570312 360.363281 292.972656 359.601562 295.3125 C 358.839844 297.65625 357.675781 299.777344 356.105469 301.671875 C 355.214844 302.4375 354.265625 303.117188 353.253906 303.710938 C 352.242188 304.304688 351.1875 304.808594 350.085938 305.214844 C 348.984375 305.621094 347.859375 305.929688 346.703125 306.136719 C 345.546875 306.34375 344.382812 306.445312 343.210938 306.445312 C 342.039062 306.445312 340.875 306.34375 339.71875 306.136719 C 338.5625 305.929688 337.4375 305.621094 336.335938 305.214844 C 335.234375 304.808594 334.179688 304.304688 333.167969 303.710938 C 332.15625 303.117188 331.207031 302.4375 330.316406 301.671875 Z M 349.078125 289.105469 L 349.078125 258.917969 C 349.078125 253.96875 347.144531 251.742188 343.1875 251.742188 C 339.226562 251.742188 337.34375 254.117188 337.34375 258.917969 L 337.34375 289.105469 C 337.34375 294.050781 339.277344 296.277344 343.1875 296.277344 C 347.097656 296.277344 349.078125 293.707031 349.078125 288.90625 Z M 384.714844 243.082031 L 396.148438 243.082031 L 351.847656 357.390625 L 340.414062 357.390625 Z M 380.457031 354.273438 C 378.875 352.386719 377.703125 350.269531 376.9375 347.921875 C 376.175781 345.578125 375.882812 343.175781 376.054688 340.714844 L 376.054688 311.765625 C 375.882812 309.308594 376.175781 306.90625 376.9375 304.5625 C 377.699219 302.214844 378.875 300.097656 380.457031 298.207031 C 381.347656 297.445312 382.300781 296.765625 383.3125 296.171875 C 384.320312 295.574219 385.378906 295.074219 386.476562 294.667969 C 387.578125 294.261719 388.707031 293.953125 389.859375 293.746094 C 391.015625 293.539062 392.179688 293.4375 393.351562 293.4375 C 394.527344 293.4375 395.691406 293.539062 396.84375 293.746094 C 398 293.953125 399.128906 294.261719 400.226562 294.667969 C 401.328125 295.074219 402.382812 295.574219 403.394531 296.171875 C 404.40625 296.765625 405.355469 297.445312 406.246094 298.207031 C 407.832031 300.097656 409.003906 302.214844 409.765625 304.5625 C 410.527344 306.90625 410.824219 309.308594 410.652344 311.765625 L 410.652344 340.320312 C 410.824219 342.78125 410.527344 345.183594 409.765625 347.527344 C 409.003906 349.871094 407.832031 351.988281 406.246094 353.878906 C 405.355469 354.644531 404.40625 355.320312 403.394531 355.917969 C 402.382812 356.511719 401.328125 357.011719 400.226562 357.421875 C 399.128906 357.828125 398 358.132812 396.84375 358.339844 C 395.691406 358.546875 394.527344 358.652344 393.351562 358.652344 C 392.179688 358.652344 391.015625 358.546875 389.859375 358.339844 C 388.707031 358.132812 387.578125 357.828125 386.476562 357.421875 C 385.378906 357.011719 384.320312 356.511719 383.3125 355.917969 C 382.300781 355.320312 381.347656 354.644531 380.457031 353.878906 Z M 399.21875 341.558594 L 399.21875 311.320312 C 399.21875 306.375 397.289062 304.148438 393.378906 304.148438 C 389.46875 304.148438 387.488281 306.523438 387.488281 311.320312 L 387.488281 341.457031 C 387.488281 346.40625 389.417969 348.632812 393.378906 348.632812 C 397.335938 348.632812 399.21875 346.109375 399.21875 341.457031 Z M 399.21875 341.558594 " fill-opacity="1" fill-rule="nonzero"/></svg>