<svg xmlns="http://www.w3.org/2000/svg" xmlns:xlink="http://www.w3.org/1999/xlink" width="800" zoomAndPan="magnify" viewBox="0 0 600 599.999999" height="800" preserveAspectRatio="xMidYMid meet" version="1.0"><defs><clipPath id="395e35b6e8"><path d="M 4 4 L 596.40625 4 L 596.40625 596 L 4 596 Z M 4 4 " clip-rule="nonzero"/></clipPath><clipPath id="3bade0d83a"><path d="M 298 4 L 596.40625 4 L 596.40625 596 L 298 596 Z M 298 4 " clip-rule="nonzero"/></clipPath></defs><g clip-path="url(#395e35b6e8)"><path fill="#362701" d="M 596.070312 299.765625 C 596.070312 304.601562 595.949219 309.4375 595.710938 314.269531 C 595.472656 319.105469 595.117188 323.925781 594.644531 328.742188 C 594.167969 333.558594 593.574219 338.359375 592.863281 343.144531 C 592.152344 347.929688 591.328125 352.695312 590.382812 357.441406 C 589.4375 362.1875 588.375 366.90625 587.199219 371.597656 C 586.019531 376.292969 584.730469 380.953125 583.324219 385.585938 C 581.917969 390.214844 580.398438 394.808594 578.765625 399.363281 C 577.136719 403.917969 575.390625 408.429688 573.539062 412.902344 C 571.683594 417.371094 569.722656 421.792969 567.652344 426.167969 C 565.582031 430.542969 563.402344 434.863281 561.121094 439.128906 C 558.835938 443.394531 556.449219 447.605469 553.960938 451.753906 C 551.46875 455.902344 548.878906 459.992188 546.1875 464.011719 C 543.496094 468.035156 540.707031 471.992188 537.824219 475.878906 C 534.9375 479.761719 531.957031 483.578125 528.886719 487.316406 C 525.8125 491.058594 522.648438 494.71875 519.398438 498.304688 C 516.144531 501.890625 512.804688 505.394531 509.378906 508.8125 C 505.953125 512.234375 502.449219 515.570312 498.859375 518.820312 C 495.269531 522.070312 491.601562 525.226562 487.859375 528.296875 C 484.113281 531.367188 480.296875 534.34375 476.40625 537.226562 C 472.515625 540.105469 468.558594 542.890625 464.527344 545.582031 C 460.5 548.269531 456.410156 550.855469 452.257812 553.34375 C 448.101562 555.832031 443.886719 558.214844 439.617188 560.496094 C 435.34375 562.777344 431.019531 564.953125 426.640625 567.019531 C 422.261719 569.089844 417.835938 571.050781 413.359375 572.902344 C 408.882812 574.753906 404.367188 576.492188 399.804688 578.121094 C 395.246094 579.753906 390.648438 581.269531 386.011719 582.675781 C 381.375 584.078125 376.710938 585.371094 372.011719 586.542969 C 367.3125 587.71875 362.585938 588.78125 357.835938 589.722656 C 353.085938 590.667969 348.316406 591.496094 343.523438 592.203125 C 338.730469 592.914062 333.925781 593.507812 329.105469 593.980469 C 324.285156 594.457031 319.457031 594.8125 314.617188 595.046875 C 309.78125 595.285156 304.9375 595.40625 300.09375 595.40625 C 295.25 595.40625 290.410156 595.285156 285.574219 595.046875 C 280.734375 594.8125 275.90625 594.457031 271.085938 593.980469 C 266.265625 593.507812 261.457031 592.914062 256.667969 592.203125 C 251.875 591.496094 247.105469 590.667969 242.355469 589.722656 C 237.601562 588.78125 232.878906 587.71875 228.179688 586.542969 C 223.480469 585.371094 218.8125 584.078125 214.179688 582.675781 C 209.542969 581.269531 204.945312 579.753906 200.386719 578.121094 C 195.824219 576.492188 191.304688 574.753906 186.832031 572.902344 C 182.355469 571.050781 177.929688 569.089844 173.550781 567.019531 C 169.171875 564.953125 164.847656 562.777344 160.574219 560.496094 C 156.304688 558.214844 152.089844 555.832031 147.933594 553.34375 C 143.78125 550.855469 139.6875 548.269531 135.660156 545.582031 C 131.632812 542.890625 127.675781 540.105469 123.785156 537.226562 C 119.894531 534.34375 116.078125 531.367188 112.332031 528.296875 C 108.585938 525.226562 104.921875 522.070312 101.332031 518.820312 C 97.742188 515.570312 94.234375 512.234375 90.8125 508.8125 C 87.386719 505.394531 84.046875 501.890625 80.792969 498.304688 C 77.539062 494.71875 74.378906 491.058594 71.304688 487.316406 C 68.230469 483.578125 65.253906 479.761719 62.367188 475.878906 C 59.480469 471.992188 56.695312 468.035156 54.003906 464.011719 C 51.3125 459.992188 48.722656 455.902344 46.230469 451.753906 C 43.742188 447.605469 41.355469 443.394531 39.070312 439.128906 C 36.785156 434.863281 34.609375 430.542969 32.539062 426.167969 C 30.46875 421.792969 28.503906 417.371094 26.652344 412.902344 C 24.796875 408.429688 23.054688 403.917969 21.421875 399.363281 C 19.792969 394.808594 18.273438 390.214844 16.867188 385.585938 C 15.460938 380.953125 14.167969 376.292969 12.992188 371.597656 C 11.816406 366.90625 10.753906 362.1875 9.808594 357.441406 C 8.863281 352.695312 8.035156 347.929688 7.324219 343.144531 C 6.613281 338.359375 6.023438 333.558594 5.546875 328.742188 C 5.074219 323.925781 4.714844 319.105469 4.480469 314.269531 C 4.242188 309.4375 4.121094 304.601562 4.121094 299.765625 C 4.121094 294.925781 4.242188 290.089844 4.480469 285.257812 C 4.714844 280.425781 5.074219 275.601562 5.546875 270.785156 C 6.023438 265.972656 6.613281 261.171875 7.324219 256.386719 C 8.035156 251.597656 8.863281 246.832031 9.808594 242.089844 C 10.753906 237.34375 11.816406 232.625 12.992188 227.929688 C 14.167969 223.238281 15.460938 218.574219 16.867188 213.945312 C 18.273438 209.316406 19.792969 204.722656 21.421875 200.167969 C 23.054688 195.609375 24.796875 191.097656 26.652344 186.628906 C 28.503906 182.160156 30.46875 177.734375 32.539062 173.363281 C 34.609375 168.988281 36.785156 164.667969 39.070312 160.402344 C 41.355469 156.132812 43.742188 151.925781 46.230469 147.777344 C 48.722656 143.625 51.3125 139.539062 54.003906 135.515625 C 56.695312 131.492188 59.480469 127.539062 62.367188 123.652344 C 65.253906 119.765625 68.230469 115.953125 71.304688 112.210938 C 74.378906 108.472656 77.539062 104.808594 80.792969 101.226562 C 84.046875 97.640625 87.386719 94.136719 90.8125 90.714844 C 94.234375 87.292969 97.742188 83.960938 101.332031 80.710938 C 104.921875 77.460938 108.585938 74.300781 112.332031 71.230469 C 116.078125 68.164062 119.894531 65.1875 123.785156 62.304688 C 127.675781 59.421875 131.632812 56.636719 135.660156 53.949219 C 139.6875 51.261719 143.78125 48.671875 147.933594 46.1875 C 152.089844 43.699219 156.304688 41.3125 160.574219 39.035156 C 164.847656 36.753906 169.171875 34.578125 173.550781 32.507812 C 177.929688 30.441406 182.355469 28.480469 186.832031 26.628906 C 191.304688 24.777344 195.824219 23.035156 200.386719 21.40625 C 204.945312 19.777344 209.542969 18.257812 214.179688 16.855469 C 218.8125 15.449219 223.480469 14.160156 228.179688 12.984375 C 232.878906 11.808594 237.601562 10.75 242.355469 9.804688 C 247.105469 8.863281 251.875 8.035156 256.667969 7.324219 C 261.457031 6.613281 266.265625 6.023438 271.085938 5.546875 C 275.90625 5.074219 280.734375 4.71875 285.574219 4.480469 C 290.410156 4.242188 295.25 4.125 300.09375 4.125 C 304.9375 4.125 309.78125 4.242188 314.617188 4.480469 C 319.457031 4.71875 324.285156 5.074219 329.105469 5.546875 C 333.925781 6.023438 338.730469 6.613281 343.523438 7.324219 C 348.316406 8.035156 353.085938 8.863281 357.835938 9.804688 C 362.585938 10.75 367.3125 11.808594 372.011719 12.984375 C 376.710938 14.160156 381.375 15.449219 386.011719 16.855469 C 390.648438 18.257812 395.246094 19.777344 399.804688 21.40625 C 404.367188 23.035156 408.882812 24.777344 413.359375 26.628906 C 417.835938 28.480469 422.261719 30.441406 426.640625 32.507812 C 431.019531 34.578125 435.34375 36.753906 439.617188 39.035156 C 443.886719 41.3125 448.101562 43.699219 452.257812 46.1875 C 456.410156 48.671875 460.5 51.261719 464.527344 53.949219 C 468.558594 56.636719 472.515625 59.421875 476.40625 62.304688 C 480.296875 65.1875 484.113281 68.164062 487.859375 71.230469 C 491.601562 74.300781 495.269531 77.460938 498.859375 80.710938 C 502.449219 83.960938 505.953125 87.292969 509.378906 90.714844 C 512.804688 94.136719 516.144531 97.640625 519.398438 101.226562 C 522.648438 104.808594 525.8125 108.472656 528.886719 112.210938 C 531.957031 115.953125 534.9375 119.765625 537.824219 123.652344 C 540.707031 127.539062 543.496094 131.492188 546.1875 135.515625 C 548.878906 139.539062 551.46875 143.625 553.960938 147.777344 C 556.449219 151.925781 558.835938 156.132812 561.121094 160.402344 C 563.402344 164.667969 565.582031 168.988281 567.652344 173.363281 C 569.722656 177.734375 571.683594 182.160156 573.539062 186.628906 C 575.390625 191.097656 577.136719 195.609375 578.765625 200.167969 C 580.398438 204.722656 581.917969 209.316406 583.324219 213.945312 C 584.730469 218.574219 586.019531 223.238281 587.199219 227.929688 C 588.375 232.625 589.4375 237.34375 590.382812 242.089844 C 591.328125 246.832031 592.152344 251.597656 592.863281 256.386719 C 593.574219 261.171875 594.167969 265.972656 594.644531 270.785156 C 595.117188 275.601562 595.472656 280.425781 595.710938 285.257812 C 595.949219 290.089844 596.070312 294.925781 596.070312 299.765625 Z M 596.070312 299.765625 " fill-opacity="1" fill-rule="nonzero"/></g><path fill="#f0f698" d="M 547.882812 299.765625 C 547.882812 303.816406 547.785156 307.863281 547.585938 311.910156 C 547.386719 315.957031 547.089844 319.992188 546.691406 324.023438 C 546.292969 328.054688 545.796875 332.074219 545.203125 336.082031 C 544.605469 340.089844 543.914062 344.078125 543.121094 348.050781 C 542.332031 352.023438 541.445312 355.976562 540.457031 359.90625 C 539.472656 363.835938 538.390625 367.738281 537.214844 371.613281 C 536.039062 375.488281 534.765625 379.335938 533.398438 383.148438 C 532.03125 386.960938 530.574219 390.742188 529.023438 394.484375 C 527.46875 398.226562 525.828125 401.925781 524.09375 405.589844 C 522.359375 409.25 520.535156 412.867188 518.625 416.441406 C 516.714844 420.011719 514.714844 423.535156 512.628906 427.011719 C 510.546875 430.484375 508.378906 433.90625 506.125 437.273438 C 503.871094 440.640625 501.535156 443.953125 499.121094 447.207031 C 496.707031 450.460938 494.210938 453.652344 491.636719 456.785156 C 489.066406 459.914062 486.417969 462.980469 483.695312 465.980469 C 480.972656 468.984375 478.175781 471.917969 475.308594 474.78125 C 472.441406 477.644531 469.503906 480.4375 466.5 483.15625 C 463.496094 485.878906 460.425781 488.523438 457.289062 491.09375 C 454.15625 493.664062 450.960938 496.152344 447.703125 498.566406 C 444.445312 500.980469 441.132812 503.3125 437.757812 505.5625 C 434.386719 507.8125 430.960938 509.980469 427.484375 512.0625 C 424.003906 514.144531 420.476562 516.140625 416.902344 518.050781 C 413.324219 519.957031 409.703125 521.777344 406.039062 523.511719 C 402.371094 525.242188 398.667969 526.882812 394.917969 528.433594 C 391.171875 529.984375 387.390625 531.441406 383.574219 532.804688 C 379.753906 534.171875 375.90625 535.441406 372.023438 536.617188 C 368.144531 537.792969 364.238281 538.871094 360.304688 539.855469 C 356.371094 540.839844 352.414062 541.730469 348.4375 542.519531 C 344.460938 543.308594 340.464844 544 336.453125 544.597656 C 332.441406 545.191406 328.417969 545.6875 324.382812 546.082031 C 320.347656 546.480469 316.304688 546.777344 312.253906 546.976562 C 308.203125 547.175781 304.152344 547.273438 300.09375 547.273438 C 296.039062 547.273438 291.988281 547.175781 287.9375 546.976562 C 283.886719 546.777344 279.84375 546.480469 275.808594 546.082031 C 271.773438 545.6875 267.75 545.191406 263.738281 544.597656 C 259.726562 544 255.730469 543.308594 251.753906 542.519531 C 247.777344 541.730469 243.820312 540.839844 239.886719 539.855469 C 235.953125 538.871094 232.046875 537.792969 228.167969 536.617188 C 224.285156 535.441406 220.4375 534.171875 216.617188 532.804688 C 212.800781 531.441406 209.015625 529.984375 205.269531 528.433594 C 201.523438 526.882812 197.816406 525.242188 194.152344 523.511719 C 190.484375 521.777344 186.863281 519.957031 183.289062 518.050781 C 179.710938 516.140625 176.183594 514.144531 172.707031 512.0625 C 169.226562 509.980469 165.804688 507.8125 162.429688 505.5625 C 159.058594 503.3125 155.746094 500.980469 152.488281 498.566406 C 149.230469 496.152344 146.035156 493.664062 142.898438 491.09375 C 139.765625 488.523438 136.695312 485.878906 133.691406 483.15625 C 130.6875 480.4375 127.75 477.644531 124.882812 474.78125 C 122.015625 471.917969 119.21875 468.984375 116.496094 465.980469 C 113.773438 462.980469 111.125 459.914062 108.550781 456.785156 C 105.980469 453.652344 103.484375 450.460938 101.070312 447.207031 C 98.652344 443.953125 96.320312 440.640625 94.066406 437.273438 C 91.8125 433.90625 89.644531 430.484375 87.558594 427.011719 C 85.476562 423.535156 83.476562 420.011719 81.566406 416.441406 C 79.652344 412.867188 77.832031 409.25 76.097656 405.589844 C 74.363281 401.925781 72.71875 398.226562 71.167969 394.484375 C 69.617188 390.742188 68.15625 386.960938 66.792969 383.148438 C 65.425781 379.335938 64.152344 375.488281 62.976562 371.613281 C 61.800781 367.738281 60.71875 363.835938 59.734375 359.90625 C 58.746094 355.976562 57.859375 352.023438 57.066406 348.050781 C 56.277344 344.078125 55.582031 340.089844 54.988281 336.082031 C 54.394531 332.074219 53.898438 328.054688 53.5 324.023438 C 53.101562 319.992188 52.804688 315.957031 52.605469 311.910156 C 52.40625 307.863281 52.308594 303.816406 52.308594 299.765625 C 52.308594 295.714844 52.40625 291.664062 52.605469 287.621094 C 52.804688 283.574219 53.101562 279.535156 53.5 275.503906 C 53.898438 271.472656 54.394531 267.453125 54.988281 263.449219 C 55.582031 259.441406 56.277344 255.449219 57.066406 251.476562 C 57.859375 247.503906 58.746094 243.554688 59.734375 239.625 C 60.71875 235.695312 61.800781 231.792969 62.976562 227.917969 C 64.152344 224.039062 65.425781 220.195312 66.792969 216.382812 C 68.15625 212.566406 69.617188 208.789062 71.167969 205.046875 C 72.71875 201.304688 74.363281 197.601562 76.097656 193.941406 C 77.832031 190.277344 79.652344 186.660156 81.566406 183.089844 C 83.476562 179.515625 85.476562 175.992188 87.558594 172.519531 C 89.644531 169.046875 91.8125 165.625 94.066406 162.253906 C 96.320312 158.886719 98.652344 155.578125 101.070312 152.324219 C 103.484375 149.070312 105.980469 145.878906 108.550781 142.746094 C 111.125 139.613281 113.773438 136.546875 116.496094 133.546875 C 119.21875 130.546875 122.015625 127.613281 124.882812 124.75 C 127.75 121.882812 130.6875 119.09375 133.691406 116.371094 C 136.695312 113.652344 139.765625 111.007812 142.898438 108.4375 C 146.035156 105.867188 149.230469 103.375 152.488281 100.964844 C 155.746094 98.550781 159.058594 96.21875 162.429688 93.96875 C 165.804688 91.71875 169.226562 89.550781 172.707031 87.46875 C 176.183594 85.386719 179.710938 83.390625 183.289062 81.480469 C 186.863281 79.570312 190.484375 77.75 194.152344 76.019531 C 197.816406 74.285156 201.523438 72.644531 205.269531 71.09375 C 209.015625 69.546875 212.800781 68.089844 216.617188 66.722656 C 220.4375 65.359375 224.285156 64.089844 228.167969 62.914062 C 232.046875 61.738281 235.953125 60.65625 239.886719 59.671875 C 243.820312 58.6875 247.777344 57.800781 251.753906 57.011719 C 255.730469 56.21875 259.726562 55.527344 263.738281 54.933594 C 267.75 54.339844 271.773438 53.84375 275.808594 53.445312 C 279.84375 53.050781 283.886719 52.75 287.9375 52.554688 C 291.988281 52.355469 296.039062 52.253906 300.09375 52.253906 C 304.152344 52.253906 308.203125 52.355469 312.253906 52.554688 C 316.304688 52.75 320.347656 53.050781 324.382812 53.445312 C 328.417969 53.84375 332.441406 54.339844 336.453125 54.933594 C 340.464844 55.527344 344.460938 56.21875 348.4375 57.011719 C 352.414062 57.800781 356.371094 58.6875 360.304688 59.671875 C 364.238281 60.65625 368.144531 61.738281 372.023438 62.914062 C 375.90625 64.089844 379.753906 65.359375 383.574219 66.722656 C 387.390625 68.089844 391.171875 69.546875 394.917969 71.09375 C 398.667969 72.644531 402.371094 74.285156 406.039062 76.019531 C 409.703125 77.75 413.324219 79.570312 416.902344 81.480469 C 420.476562 83.390625 424.003906 85.386719 427.484375 87.46875 C 430.960938 89.550781 434.386719 91.71875 437.757812 93.96875 C 441.132812 96.21875 444.445312 98.550781 447.703125 100.964844 C 450.960938 103.375 454.15625 105.867188 457.289062 108.4375 C 460.425781 111.007812 463.496094 113.652344 466.5 116.371094 C 469.503906 119.09375 472.441406 121.882812 475.308594 124.75 C 478.175781 127.613281 480.972656 130.546875 483.695312 133.546875 C 486.417969 136.546875 489.066406 139.613281 491.636719 142.746094 C 494.210938 145.878906 496.707031 149.070312 499.121094 152.324219 C 501.535156 155.578125 503.871094 158.886719 506.125 162.253906 C 508.378906 165.625 510.546875 169.046875 512.628906 172.519531 C 514.714844 175.992188 516.714844 179.515625 518.625 183.089844 C 520.535156 186.660156 522.359375 190.277344 524.09375 193.941406 C 525.828125 197.601562 527.46875 201.304688 529.023438 205.046875 C 530.574219 208.789062 532.03125 212.566406 533.398438 216.382812 C 534.765625 220.195312 536.039062 224.039062 537.214844 227.917969 C 538.390625 231.792969 539.472656 235.695312 540.457031 239.625 C 541.445312 243.554688 542.332031 247.503906 543.121094 251.476562 C 543.914062 255.449219 544.605469 259.441406 545.203125 263.449219 C 545.796875 267.453125 546.292969 271.472656 546.691406 275.503906 C 547.089844 279.535156 547.386719 283.574219 547.585938 287.621094 C 547.785156 291.664062 547.882812 295.714844 547.882812 299.765625 Z M 547.882812 299.765625 " fill-opacity="1" fill-rule="nonzero"/><g clip-path="url(#3bade0d83a)"><path fill="#ff001e" d="M 473.773438 59.707031 C 431.746094 29.195312 381.546875 9.328125 326.96875 4.242188 C 311.933594 2.824219 299.03125 14.648438 299.03125 29.667969 C 299.03125 42.792969 309.09375 53.792969 322.117188 55.09375 C 367.339844 59.351562 408.894531 75.789062 443.703125 101.09375 C 505.144531 145.796875 545.042969 218.167969 545.042969 299.882812 C 545.042969 307.925781 544.6875 315.730469 543.859375 323.535156 C 532.613281 440.488281 439.558594 533.4375 322.472656 544.554688 C 309.210938 545.855469 298.910156 556.617188 298.910156 569.980469 C 298.910156 585 311.933594 596.824219 326.851562 595.40625 C 469.984375 582.042969 583.636719 467.214844 595.003906 323.535156 C 595.59375 315.730469 596.070312 307.804688 596.070312 299.882812 C 596.1875 201.140625 547.882812 113.75 473.773438 59.707031 Z M 473.773438 59.707031 " fill-opacity="1" fill-rule="nonzero"/></g><path fill="#362701" d="M 214.972656 304.023438 C 214.972656 297.28125 212.605469 292.195312 207.515625 292.195312 C 204.910156 292.195312 202.660156 294.207031 200.886719 296.570312 C 199.109375 299.171875 198.28125 302.25 198.28125 304.023438 L 178.273438 304.023438 L 178.273438 219.351562 L 235.453125 219.351562 L 235.453125 242.765625 L 198.636719 242.765625 L 198.636719 276.230469 C 201.242188 274.222656 204.082031 272.566406 207.398438 271.382812 C 208.9375 270.675781 210.710938 270.554688 212.25 270.675781 C 224.5625 270.675781 231.074219 277.652344 234.625 285.335938 C 238.179688 293.023438 238.53125 301.300781 238.53125 303.902344 L 238.53125 339.972656 C 238.53125 347.660156 238.058594 357.945312 233.914062 366.460938 C 229.773438 375.210938 221.839844 381.953125 207.632812 381.953125 C 192.953125 381.953125 185.496094 375.210938 181.351562 365.515625 C 177.207031 356.054688 176.734375 344.109375 176.734375 333.347656 L 200.410156 333.347656 L 200.410156 339.734375 C 200.410156 347.894531 200.886719 353.570312 201.949219 356.644531 C 203.015625 359.957031 204.792969 361.496094 207.632812 361.496094 C 210 361.496094 212.015625 359.957031 213.078125 356.882812 C 214.144531 353.808594 214.855469 348.132812 214.855469 339.972656 L 214.855469 304.023438 Z M 214.972656 304.023438 " fill-opacity="1" fill-rule="nonzero"/><path fill="#362701" d="M 314.777344 347.183594 C 314.539062 353.808594 313.238281 359.71875 310.867188 364.6875 C 308.855469 369.0625 305.777344 373.203125 301.398438 376.511719 C 297.015625 380.0625 291.097656 381.953125 283.164062 381.953125 C 275.234375 381.953125 269.078125 379.941406 264.695312 376.511719 C 260.316406 373.203125 257.476562 369.0625 255.460938 364.6875 C 253.09375 359.601562 251.792969 353.691406 251.554688 347.183594 L 251.554688 252.34375 C 251.792969 245.957031 253.09375 240.046875 255.460938 235.078125 C 257.476562 230.703125 260.316406 226.328125 264.695312 223.015625 C 269.078125 219.707031 275.234375 217.578125 283.164062 217.578125 C 291.097656 217.578125 297.015625 219.824219 301.398438 223.015625 C 305.777344 226.210938 308.855469 230.703125 310.867188 235.078125 C 313.238281 240.164062 314.539062 246.078125 314.777344 252.34375 Z M 291.097656 252.34375 C 291.097656 247.96875 290.269531 244.894531 288.019531 242.292969 C 286.953125 241.226562 285.179688 240.519531 283.164062 240.519531 C 279.023438 240.519531 277.007812 243.59375 276.179688 246.429688 C 275.46875 248.207031 275.351562 250.097656 275.351562 252.34375 L 275.351562 347.183594 C 275.351562 351.796875 276.417969 354.871094 278.667969 357.238281 C 279.730469 358.300781 281.269531 359.011719 283.285156 359.011719 C 287.425781 359.011719 289.441406 356.410156 290.269531 353.097656 C 290.980469 351.5625 291.097656 349.550781 291.097656 347.183594 Z M 291.097656 252.34375 " fill-opacity="1" fill-rule="nonzero"/><path fill="#362701" d="M 361.894531 282.855469 C 361.65625 290.066406 359.054688 295.152344 354.671875 298.820312 C 352.421875 300.828125 349.226562 301.65625 345.082031 301.65625 C 336.324219 301.65625 332.414062 297.28125 329.929688 292.195312 C 328.628906 289.59375 327.917969 286.519531 327.917969 282.734375 L 327.917969 236.144531 C 327.917969 229.164062 330.519531 224.316406 335.136719 220.414062 C 337.386719 218.40625 340.585938 217.578125 344.964844 217.578125 C 353.488281 217.578125 357.277344 222.425781 359.644531 227.039062 C 360.949219 229.640625 361.65625 232.714844 361.894531 236.261719 Z M 338.808594 380.296875 L 398.003906 219.351562 L 412.089844 219.351562 L 353.605469 380.296875 Z M 348.636719 236.144531 C 348.636719 234.132812 347.925781 232.476562 347.097656 231.058594 C 346.621094 230.347656 346.03125 230.230469 344.847656 230.230469 C 342.480469 230.230469 341.769531 231.769531 341.175781 233.304688 C 340.941406 234.132812 340.703125 235.078125 340.941406 236.144531 L 340.941406 282.734375 C 340.703125 285.101562 341.175781 288.648438 344.847656 288.648438 C 348.160156 288.648438 348.515625 285.101562 348.515625 282.734375 L 348.515625 236.144531 Z M 423.457031 363.386719 C 423.21875 370.601562 420.617188 375.449219 416.234375 379.113281 C 413.984375 381.125 410.789062 381.953125 406.644531 381.953125 C 397.886719 381.953125 393.976562 377.339844 391.492188 372.730469 C 390.191406 370.128906 389.480469 367.050781 389.480469 363.269531 L 389.480469 316.675781 C 389.480469 309.699219 392.082031 304.613281 396.699219 300.710938 C 398.949219 298.699219 402.148438 297.871094 406.527344 297.871094 C 415.050781 297.871094 418.839844 302.722656 421.207031 307.332031 C 422.511719 310.171875 423.21875 313.246094 423.457031 316.792969 Z M 410.316406 316.792969 C 410.316406 314.785156 409.605469 313.128906 408.777344 311.707031 C 408.304688 311 407.710938 310.882812 406.527344 310.882812 C 404.160156 310.882812 403.449219 312.417969 402.855469 313.957031 C 402.621094 314.785156 402.382812 315.730469 402.621094 316.792969 L 402.621094 363.386719 C 402.382812 365.75 403.09375 367.050781 404.160156 368.472656 C 404.632812 369.179688 405.460938 369.535156 406.527344 369.535156 C 408.539062 369.535156 409.132812 368 409.84375 366.460938 C 410.078125 365.632812 410.316406 364.449219 410.316406 363.386719 Z M 410.316406 316.792969 " fill-opacity="1" fill-rule="nonzero"/></svg>