<svg xmlns="http://www.w3.org/2000/svg" xmlns:xlink="http://www.w3.org/1999/xlink" width="800" zoomAndPan="magnify" viewBox="0 0 600 599.999999" height="800" preserveAspectRatio="xMidYMid meet" version="1.0"><defs><clipPath id="50ccb1cbba"><path d="M 11.789062 11.789062 L 588.539062 11.789062 L 588.539062 588.539062 L 11.789062 588.539062 Z M 11.789062 11.789062 " clip-rule="nonzero"/></clipPath><clipPath id="b55b6dea2d"><path d="M 536 302 L 588.539062 302 L 588.539062 316 L 536 316 Z M 536 302 " clip-rule="nonzero"/></clipPath><clipPath id="c8e0b68be9"><path d="M 536 284 L 588.539062 284 L 588.539062 298 L 536 298 Z M 536 284 " clip-rule="nonzero"/></clipPath><clipPath id="236f3d5674"><path d="M 302 11.789062 L 316 11.789062 L 316 64 L 302 64 Z M 302 11.789062 " clip-rule="nonzero"/></clipPath></defs><path fill="#000000" d="M 300.164062 71.382812 C 426.503906 71.382812 528.929688 173.808594 528.929688 300.164062 C 528.929688 426.503906 426.503906 528.929688 300.164062 528.929688 C 173.808594 528.929688 71.382812 426.503906 71.382812 300.164062 C 71.382812 173.808594 173.808594 71.382812 300.164062 71.382812 Z M 300.164062 71.382812 " fill-opacity="1" fill-rule="evenodd"/><g clip-path="url(#50ccb1cbba)"><path fill="#e6ed7d" d="M 302.472656 11.789062 C 306.988281 11.824219 311.492188 11.953125 315.972656 12.191406 L 312.734375 63.617188 C 309.335938 63.441406 305.910156 63.351562 302.472656 63.316406 Z M 320.5625 12.492188 C 325.078125 12.804688 329.570312 13.230469 334.023438 13.746094 L 327.5625 64.871094 C 324.175781 64.480469 320.765625 64.15625 317.328125 63.90625 Z M 338.578125 14.308594 C 343.070312 14.914062 347.523438 15.601562 351.941406 16.40625 L 342.28125 67.027344 C 338.929688 66.414062 335.53125 65.898438 332.132812 65.4375 Z M 356.457031 17.269531 C 360.898438 18.148438 365.304688 19.128906 369.65625 20.207031 L 356.847656 70.128906 C 353.523438 69.3125 350.183594 68.558594 346.808594 67.894531 Z M 374.109375 21.347656 C 378.488281 22.503906 382.816406 23.757812 387.097656 25.113281 L 371.175781 74.117188 C 367.914062 73.101562 364.613281 72.148438 361.300781 71.269531 Z M 391.488281 26.53125 C 395.765625 27.960938 400.007812 29.492188 404.195312 31.109375 L 385.226562 79.035156 C 382.027344 77.804688 378.816406 76.640625 375.554688 75.546875 Z M 408.488281 32.816406 C 412.664062 34.507812 416.804688 36.304688 420.882812 38.183594 L 398.941406 84.820312 C 395.839844 83.390625 392.691406 82.035156 389.503906 80.742188 Z M 425.046875 40.128906 C 429.113281 42.085938 433.128906 44.144531 437.09375 46.277344 L 412.261719 91.445312 C 409.253906 89.824219 406.191406 88.257812 403.105469 86.765625 Z M 441.121094 48.523438 C 445.046875 50.730469 448.921875 53.027344 452.738281 55.410156 L 425.136719 98.921875 C 422.226562 97.113281 419.277344 95.359375 416.292969 93.675781 Z M 456.640625 57.871094 C 460.417969 60.316406 464.140625 62.851562 467.804688 65.472656 L 437.519531 107.164062 C 434.734375 105.167969 431.898438 103.25 429.027344 101.394531 Z M 471.53125 68.183594 C 475.144531 70.867188 478.707031 73.640625 482.195312 76.476562 L 449.351562 116.183594 C 446.691406 114.027344 443.992188 111.917969 441.246094 109.875 Z M 485.746094 79.425781 C 489.195312 82.324219 492.570312 85.296875 495.871094 88.359375 L 460.605469 125.921875 C 458.082031 123.601562 455.523438 121.34375 452.902344 119.121094 Z M 499.246094 91.496094 C 502.507812 94.605469 505.695312 97.792969 508.792969 101.054688 L 471.230469 136.335938 C 468.859375 133.863281 466.4375 131.441406 463.964844 129.070312 Z M 511.945312 104.417969 C 514.992188 107.730469 517.976562 111.105469 520.875 114.554688 L 481.179688 147.402344 C 478.972656 144.777344 476.699219 142.207031 474.378906 139.695312 Z M 523.824219 118.105469 C 526.660156 121.59375 529.433594 125.144531 532.117188 128.769531 L 490.425781 159.054688 C 488.382812 156.308594 486.273438 153.609375 484.117188 150.949219 Z M 534.828125 132.496094 C 537.449219 136.144531 539.984375 139.871094 542.429688 143.660156 L 498.921875 171.277344 C 497.050781 168.402344 495.132812 165.566406 493.136719 162.78125 Z M 544.902344 147.550781 C 547.285156 151.363281 549.582031 155.242188 551.789062 159.179688 L 506.625 184.011719 C 504.941406 181.023438 503.199219 178.074219 501.390625 175.164062 Z M 554.023438 163.207031 C 556.15625 167.160156 558.214844 171.175781 560.171875 175.242188 L 513.535156 197.183594 C 512.042969 194.097656 510.476562 191.046875 508.855469 188.039062 Z M 562.117188 179.40625 C 564.011719 183.496094 565.792969 187.625 567.5 191.8125 L 519.570312 210.785156 C 518.277344 207.609375 516.925781 204.460938 515.492188 201.363281 Z M 569.191406 196.09375 C 570.824219 200.28125 572.351562 204.523438 573.785156 208.8125 L 524.765625 224.734375 C 523.675781 221.484375 522.507812 218.261719 521.277344 215.074219 Z M 575.203125 213.191406 C 576.554688 217.472656 577.8125 221.8125 578.964844 226.179688 L 529.042969 239 C 528.152344 235.675781 527.210938 232.375 526.183594 229.113281 Z M 580.105469 230.632812 C 581.1875 234.984375 582.164062 239.390625 583.042969 243.832031 L 532.417969 253.492188 C 531.753906 250.117188 531 246.765625 530.1875 243.453125 Z M 583.910156 248.347656 C 584.710938 252.761719 585.402344 257.21875 586.003906 261.710938 L 534.878906 268.171875 C 534.414062 264.757812 533.898438 261.371094 533.285156 258.007812 Z M 586.566406 266.261719 C 587.09375 270.71875 587.507812 275.207031 587.835938 279.726562 L 536.410156 282.960938 C 536.15625 279.539062 535.832031 276.125 535.441406 272.726562 L 586.570312 266.261719 Z M 588.125 284.316406 C 588.363281 288.796875 588.488281 293.300781 588.527344 297.828125 L 537 297.84375 C 536.972656 294.390625 536.871094 290.96875 536.695312 287.566406 Z M 588.527344 302.433594 C 588.5 306.949219 588.363281 311.46875 588.125 315.933594 L 536.695312 312.710938 C 536.871094 309.308594 536.972656 305.871094 537 302.433594 Z M 587.835938 320.539062 C 587.523438 325.054688 587.09375 329.535156 586.566406 333.988281 L 535.441406 327.539062 C 535.832031 324.152344 536.171875 320.738281 536.410156 317.300781 Z M 586.003906 338.554688 C 585.414062 343.046875 584.722656 347.5 583.921875 351.917969 L 533.296875 342.269531 C 533.898438 338.90625 534.425781 335.507812 534.878906 332.105469 Z M 583.054688 356.433594 C 582.175781 360.875 581.199219 365.265625 580.121094 369.632812 L 530.199219 356.820312 C 531.015625 353.496094 531.753906 350.160156 532.429688 346.785156 Z M 578.976562 374.085938 C 577.824219 378.453125 576.570312 382.792969 575.214844 387.070312 L 526.195312 371.148438 C 527.226562 367.886719 528.164062 364.601562 529.054688 361.277344 Z M 573.796875 391.449219 C 572.367188 395.742188 570.835938 399.980469 569.21875 404.171875 L 521.289062 385.203125 C 522.519531 382.003906 523.6875 378.789062 524.777344 375.527344 Z M 567.511719 408.449219 C 565.816406 412.640625 564.023438 416.78125 562.140625 420.859375 L 515.507812 398.925781 C 516.9375 395.816406 518.292969 392.667969 519.597656 389.492188 Z M 560.195312 425.023438 C 558.238281 429.089844 556.179688 433.101562 554.046875 437.066406 L 508.882812 412.238281 C 510.5 409.226562 512.070312 406.179688 513.5625 403.078125 Z M 551.816406 441.09375 C 549.605469 445.023438 547.3125 448.898438 544.925781 452.710938 L 501.417969 425.109375 C 503.222656 422.199219 504.96875 419.265625 506.648438 416.265625 Z M 542.457031 456.613281 C 540.007812 460.390625 537.476562 464.117188 534.867188 467.78125 L 493.175781 437.507812 C 495.15625 434.707031 497.074219 431.875 498.945312 429 Z M 532.144531 471.507812 C 529.46875 475.132812 526.699219 478.683594 523.863281 482.171875 L 484.152344 449.335938 C 486.3125 446.679688 488.40625 443.980469 490.453125 441.21875 Z M 520.914062 485.722656 C 518.015625 489.171875 515.03125 492.546875 511.980469 495.859375 L 474.417969 460.589844 C 476.738281 458.070312 478.996094 455.496094 481.207031 452.875 Z M 508.84375 499.222656 C 505.734375 502.484375 502.546875 505.671875 499.285156 508.78125 L 464.003906 471.21875 C 466.476562 468.847656 468.898438 466.425781 471.269531 463.953125 Z M 495.921875 511.917969 C 492.609375 514.980469 489.234375 517.953125 485.785156 520.863281 L 452.9375 481.167969 C 455.546875 478.945312 458.121094 476.6875 460.640625 474.367188 Z M 482.246094 523.800781 C 478.746094 526.648438 475.195312 529.40625 471.570312 532.09375 L 441.28125 490.414062 C 444.03125 488.367188 446.726562 486.261719 449.386719 484.101562 Z M 467.855469 534.816406 C 464.191406 537.425781 460.464844 539.960938 456.691406 542.417969 L 429.0625 498.90625 C 431.9375 497.039062 434.773438 495.117188 437.558594 493.125 Z M 452.789062 544.878906 C 448.972656 547.261719 445.097656 549.558594 441.171875 551.765625 L 416.328125 506.609375 C 419.316406 504.929688 422.261719 503.1875 425.171875 501.378906 Z M 437.144531 554.011719 C 433.179688 556.144531 429.175781 558.203125 425.109375 560.160156 L 403.15625 513.523438 C 406.242188 512.03125 409.289062 510.464844 412.300781 508.84375 Z M 420.933594 562.101562 C 416.855469 563.996094 412.714844 565.777344 408.539062 567.484375 L 389.554688 519.558594 C 392.730469 518.265625 395.878906 516.910156 398.976562 515.480469 Z M 404.246094 569.179688 C 400.054688 570.808594 395.816406 572.339844 391.539062 573.769531 L 375.605469 524.753906 C 378.851562 523.660156 382.078125 522.496094 385.265625 521.265625 Z M 387.160156 575.1875 C 382.867188 576.542969 378.539062 577.796875 374.171875 578.953125 L 361.339844 529.03125 C 364.664062 528.152344 367.964844 527.199219 371.226562 526.183594 Z M 369.71875 580.09375 C 365.351562 581.171875 360.960938 582.152344 356.519531 583.03125 L 346.859375 532.417969 C 350.222656 531.742188 353.574219 530.988281 356.882812 530.171875 Z M 351.992188 583.910156 C 347.574219 584.710938 343.121094 585.402344 338.640625 585.992188 L 332.167969 534.867188 C 335.582031 534.414062 338.96875 533.886719 342.332031 533.285156 Z M 334.074219 586.570312 C 329.621094 587.082031 325.128906 587.507812 320.625 587.824219 L 317.375 536.410156 C 320.800781 536.15625 324.214844 535.832031 327.613281 535.441406 Z M 316.023438 588.113281 C 311.554688 588.363281 307.039062 588.488281 302.507812 588.527344 L 302.507812 537 C 305.945312 536.960938 309.371094 536.871094 312.785156 536.695312 Z M 297.917969 588.527344 C 293.386719 588.5 288.882812 588.363281 284.40625 588.125 L 287.628906 536.695312 C 291.042969 536.871094 294.46875 536.972656 297.90625 537 Z M 279.8125 587.835938 C 275.296875 587.523438 270.804688 587.09375 266.351562 586.582031 L 272.800781 535.441406 C 276.1875 535.84375 279.601562 536.171875 283.039062 536.410156 Z M 261.785156 586.015625 C 257.304688 585.414062 252.851562 584.722656 248.433594 583.921875 L 258.082031 533.296875 C 261.445312 533.898438 264.832031 534.425781 268.234375 534.878906 Z M 243.90625 583.054688 C 239.476562 582.175781 235.074219 581.199219 230.707031 580.121094 L 243.515625 530.199219 C 246.839844 531.015625 250.179688 531.765625 253.554688 532.429688 Z M 226.265625 578.992188 C 221.886719 577.824219 217.558594 576.582031 213.269531 575.226562 L 229.1875 526.207031 C 232.453125 527.226562 235.75 528.179688 239.0625 529.054688 Z M 208.890625 573.808594 C 204.609375 572.378906 200.371094 570.847656 196.179688 569.230469 L 215.136719 521.304688 C 218.335938 522.519531 221.546875 523.699219 224.8125 524.789062 Z M 191.890625 567.523438 C 187.710938 565.828125 183.570312 564.035156 179.480469 562.152344 L 201.410156 515.519531 C 204.523438 516.949219 207.671875 518.304688 210.847656 519.597656 Z M 175.316406 560.207031 C 171.25 558.25 167.234375 556.195312 163.285156 554.0625 L 188.101562 508.882812 C 191.113281 510.511719 194.160156 512.070312 197.257812 513.5625 Z M 159.257812 551.828125 C 155.316406 549.621094 151.441406 547.324219 147.625 544.941406 L 175.226562 501.429688 C 178.136719 503.238281 181.074219 504.980469 184.074219 506.660156 Z M 143.722656 542.46875 C 139.949219 540.023438 136.222656 537.488281 132.558594 534.878906 L 162.832031 493.1875 C 165.617188 495.167969 168.464844 497.089844 171.339844 498.957031 Z M 128.832031 532.15625 C 125.21875 529.484375 121.65625 526.710938 118.167969 523.875 L 151 484.167969 C 153.660156 486.324219 156.359375 488.417969 159.117188 490.464844 Z M 114.617188 520.925781 C 111.167969 518.027344 107.792969 515.054688 104.480469 511.992188 L 139.746094 474.429688 C 142.269531 476.75 144.839844 479.007812 147.449219 481.21875 Z M 101.117188 508.855469 C 97.855469 505.746094 94.667969 502.558594 91.558594 499.296875 L 129.121094 464.015625 C 131.492188 466.488281 133.914062 468.910156 136.382812 471.28125 Z M 88.421875 495.933594 C 85.359375 492.636719 82.386719 489.246094 79.476562 485.808594 L 119.171875 452.949219 C 121.378906 455.574219 123.648438 458.144531 125.972656 460.65625 Z M 76.527344 482.257812 C 73.691406 478.769531 70.917969 475.222656 68.246094 471.59375 L 109.925781 441.296875 C 111.96875 444.042969 114.066406 446.753906 116.234375 449.402344 Z M 65.523438 467.867188 C 62.902344 464.21875 60.367188 460.492188 57.921875 456.703125 L 101.429688 429.074219 C 103.300781 431.949219 105.21875 434.785156 107.203125 437.570312 Z M 55.449219 452.8125 C 53.066406 449 50.769531 445.121094 48.5625 441.195312 L 93.714844 416.355469 C 95.394531 419.339844 97.152344 422.289062 98.960938 425.1875 Z M 46.328125 437.167969 C 44.183594 433.203125 42.125 429.203125 40.167969 425.125 L 86.800781 403.167969 C 88.296875 406.253906 89.863281 409.304688 91.480469 412.328125 Z M 38.222656 420.957031 C 36.339844 416.867188 34.546875 412.742188 32.839844 408.550781 L 80.753906 389.566406 C 82.058594 392.742188 83.414062 395.890625 84.84375 399.003906 Z M 31.148438 404.285156 C 29.515625 400.082031 27.984375 395.851562 26.554688 391.5625 L 75.574219 375.617188 C 76.664062 378.878906 77.832031 382.101562 79.0625 385.289062 Z M 25.136719 387.183594 C 23.78125 382.894531 22.527344 378.566406 21.375 374.199219 L 71.28125 361.363281 C 72.171875 364.6875 73.125 367.976562 74.144531 371.238281 Z M 20.230469 369.746094 C 19.152344 365.378906 18.175781 360.988281 17.285156 356.546875 L 67.90625 346.871094 C 68.585938 350.246094 69.324219 353.597656 70.152344 356.910156 Z M 16.417969 352.015625 C 15.613281 347.601562 14.925781 343.148438 14.324219 338.667969 L 65.449219 332.195312 C 65.914062 335.605469 66.425781 338.992188 67.042969 342.355469 Z M 13.757812 334.101562 C 13.230469 329.648438 12.816406 325.167969 12.492188 320.652344 L 63.917969 317.402344 C 64.167969 320.828125 64.496094 324.238281 64.882812 327.625 Z M 12.203125 316.046875 C 11.953125 311.582031 11.824219 307.0625 11.789062 302.546875 L 63.316406 302.523438 C 63.351562 305.972656 63.441406 309.398438 63.628906 312.796875 Z M 11.789062 297.941406 C 11.824219 293.414062 11.953125 288.910156 12.191406 284.429688 L 63.617188 287.65625 C 63.441406 291.054688 63.351562 294.492188 63.316406 297.929688 Z M 12.476562 279.839844 C 12.792969 275.320312 13.21875 270.832031 13.746094 266.375 L 64.871094 272.824219 C 64.480469 276.210938 64.15625 279.625 63.90625 283.0625 Z M 14.296875 261.820312 C 14.898438 257.332031 15.589844 252.875 16.394531 248.460938 L 67.015625 258.097656 C 66.414062 261.457031 65.886719 264.84375 65.4375 268.257812 Z M 17.257812 243.945312 C 18.136719 239.503906 19.113281 235.097656 20.195312 230.746094 L 70.117188 243.542969 C 69.300781 246.867188 68.546875 250.203125 67.882812 253.578125 Z M 21.324219 226.292969 C 22.476562 221.914062 23.730469 217.585938 25.085938 213.292969 L 74.105469 229.214844 C 73.078125 232.476562 72.136719 235.761719 71.257812 239.089844 Z M 26.503906 208.914062 C 27.933594 204.636719 29.464844 200.394531 31.085938 196.207031 L 79.011719 215.164062 C 77.78125 218.347656 76.613281 221.574219 75.523438 224.824219 Z M 32.777344 191.914062 C 34.484375 187.738281 36.265625 183.597656 38.148438 179.507812 L 84.792969 201.4375 C 83.363281 204.546875 82.007812 207.699219 80.703125 210.871094 Z M 40.09375 175.339844 C 42.050781 171.277344 44.105469 167.261719 46.238281 163.308594 L 91.417969 188.113281 C 89.800781 191.136719 88.230469 194.183594 86.738281 197.273438 Z M 48.472656 159.269531 C 50.679688 155.34375 52.976562 151.464844 55.359375 147.652344 L 98.882812 175.253906 C 97.078125 178.152344 95.332031 181.097656 93.640625 184.085938 Z M 57.832031 143.75 C 60.28125 139.972656 62.8125 136.246094 65.421875 132.582031 L 107.125 162.855469 C 105.132812 165.644531 103.210938 168.476562 101.355469 171.351562 Z M 68.144531 128.855469 C 70.816406 125.230469 73.578125 121.679688 76.425781 118.191406 L 116.148438 151.027344 C 113.988281 153.671875 111.882812 156.382812 109.835938 159.132812 Z M 79.363281 114.640625 C 82.273438 111.191406 85.246094 107.816406 88.308594 104.503906 L 125.871094 139.757812 C 123.550781 142.28125 121.292969 144.851562 119.082031 147.476562 Z M 91.445312 101.128906 C 94.542969 97.878906 97.742188 94.695312 100.992188 91.582031 L 136.285156 129.132812 C 133.8125 131.503906 131.390625 133.925781 129.019531 136.398438 Z M 104.355469 88.433594 C 107.667969 85.382812 111.042969 82.398438 114.492188 79.5 L 147.351562 119.183594 C 144.726562 121.390625 142.15625 123.664062 139.648438 125.984375 Z M 118.03125 76.550781 C 121.515625 73.703125 125.082031 70.945312 128.695312 68.257812 L 159.003906 109.9375 C 156.246094 111.96875 153.546875 114.089844 150.886719 116.25 Z M 132.421875 65.535156 C 136.082031 62.925781 139.808594 60.378906 143.585938 57.933594 L 171.214844 101.445312 C 168.339844 103.3125 165.503906 105.234375 162.71875 107.214844 Z M 147.476562 55.460938 C 151.300781 53.078125 155.167969 50.78125 159.105469 48.574219 L 183.949219 93.726562 C 180.960938 95.410156 178.011719 97.152344 175.113281 98.972656 Z M 163.132812 46.339844 C 167.085938 44.195312 171.101562 42.136719 175.164062 40.179688 L 197.121094 86.816406 C 194.035156 88.308594 190.984375 89.875 187.976562 91.496094 Z M 179.332031 38.234375 C 183.421875 36.339844 187.5625 34.558594 191.738281 32.851562 L 210.734375 80.765625 C 207.546875 82.058594 204.398438 83.425781 201.300781 84.859375 Z M 196.003906 31.160156 C 200.207031 29.527344 204.449219 27.996094 208.726562 26.566406 L 224.671875 75.574219 C 221.410156 76.664062 218.199219 77.84375 215 79.074219 Z M 213.105469 25.136719 C 217.394531 23.78125 221.722656 22.527344 226.089844 21.375 L 238.9375 71.296875 C 235.613281 72.171875 232.3125 73.125 229.050781 74.15625 Z M 230.542969 20.230469 C 234.910156 19.152344 239.300781 18.175781 243.742188 17.296875 L 253.414062 67.90625 C 250.039062 68.585938 246.703125 69.335938 243.378906 70.152344 Z M 248.273438 16.429688 C 252.6875 15.628906 257.140625 14.925781 261.621094 14.324219 L 268.09375 65.449219 C 264.695312 65.914062 261.308594 66.441406 257.945312 67.042969 Z M 266.1875 13.757812 C 270.640625 13.242188 275.121094 12.816406 279.636719 12.492188 L 282.898438 63.917969 C 279.460938 64.167969 276.050781 64.496094 272.660156 64.882812 Z M 284.242188 12.203125 C 288.746094 11.964844 293.289062 11.824219 297.855469 11.789062 L 297.855469 63.316406 C 294.378906 63.351562 290.929688 63.441406 287.492188 63.628906 Z M 284.242188 12.203125 " fill-opacity="1" fill-rule="evenodd"/></g><path fill="#000000" d="M 404.246094 569.179688 C 400.054688 570.808594 395.816406 572.339844 391.539062 573.769531 L 375.605469 524.753906 C 378.851562 523.660156 382.078125 522.496094 385.265625 521.265625 Z M 404.246094 569.179688 " fill-opacity="1" fill-rule="evenodd"/><path fill="#000000" d="M 420.933594 562.101562 C 416.855469 563.996094 412.714844 565.78125 408.539062 567.484375 L 389.554688 519.558594 C 392.730469 518.265625 395.878906 516.910156 398.976562 515.480469 Z M 420.933594 562.101562 " fill-opacity="1" fill-rule="evenodd"/><path fill="#000000" d="M 437.144531 554.011719 C 433.179688 556.144531 429.175781 558.203125 425.109375 560.160156 L 403.15625 513.523438 C 406.242188 512.03125 409.289062 510.464844 412.300781 508.84375 Z M 437.144531 554.011719 " fill-opacity="1" fill-rule="evenodd"/><path fill="#000000" d="M 452.789062 544.878906 C 448.972656 547.261719 445.097656 549.558594 441.171875 551.765625 L 416.328125 506.613281 C 419.316406 504.929688 422.261719 503.1875 425.171875 501.378906 Z M 452.789062 544.878906 " fill-opacity="1" fill-rule="evenodd"/><path fill="#000000" d="M 467.855469 534.816406 C 464.191406 537.425781 460.464844 539.960938 456.691406 542.417969 L 429.0625 498.90625 C 431.9375 497.039062 434.773438 495.117188 437.558594 493.125 Z M 467.855469 534.816406 " fill-opacity="1" fill-rule="evenodd"/><path fill="#000000" d="M 482.246094 523.800781 C 478.746094 526.648438 475.195312 529.40625 471.570312 532.09375 L 441.28125 490.414062 C 444.03125 488.371094 446.726562 486.261719 449.386719 484.101562 Z M 482.246094 523.800781 " fill-opacity="1" fill-rule="evenodd"/><path fill="#000000" d="M 495.921875 511.917969 C 492.609375 514.980469 489.234375 517.953125 485.785156 520.863281 L 452.9375 481.167969 C 455.546875 478.945312 458.121094 476.6875 460.640625 474.367188 Z M 495.921875 511.917969 " fill-opacity="1" fill-rule="evenodd"/><path fill="#000000" d="M 508.84375 499.222656 C 505.734375 502.484375 502.546875 505.671875 499.285156 508.78125 L 464.003906 471.21875 C 466.476562 468.847656 468.898438 466.425781 471.269531 463.953125 Z M 508.84375 499.222656 " fill-opacity="1" fill-rule="evenodd"/><path fill="#000000" d="M 520.914062 485.722656 C 518.015625 489.171875 515.03125 492.546875 511.980469 495.859375 L 474.417969 460.589844 C 476.738281 458.070312 478.996094 455.496094 481.207031 452.875 Z M 520.914062 485.722656 " fill-opacity="1" fill-rule="evenodd"/><path fill="#000000" d="M 532.144531 471.507812 C 529.46875 475.132812 526.699219 478.683594 523.863281 482.171875 L 484.152344 449.335938 C 486.3125 446.679688 488.40625 443.980469 490.453125 441.21875 Z M 532.144531 471.507812 " fill-opacity="1" fill-rule="evenodd"/><path fill="#000000" d="M 542.457031 456.613281 C 540.007812 460.390625 537.476562 464.117188 534.867188 467.78125 L 493.175781 437.507812 C 495.15625 434.707031 497.074219 431.875 498.945312 429 Z M 542.457031 456.613281 " fill-opacity="1" fill-rule="evenodd"/><path fill="#000000" d="M 551.816406 441.09375 C 549.605469 445.023438 547.3125 448.898438 544.925781 452.710938 L 501.417969 425.109375 C 503.222656 422.199219 504.96875 419.265625 506.648438 416.265625 Z M 551.816406 441.09375 " fill-opacity="1" fill-rule="evenodd"/><path fill="#000000" d="M 560.195312 425.023438 C 558.238281 429.089844 556.179688 433.101562 554.046875 437.066406 L 508.882812 412.238281 C 510.5 409.226562 512.070312 406.179688 513.5625 403.078125 Z M 560.195312 425.023438 " fill-opacity="1" fill-rule="evenodd"/><path fill="#000000" d="M 567.511719 408.449219 C 565.816406 412.640625 564.023438 416.78125 562.140625 420.859375 L 515.507812 398.925781 C 516.9375 395.816406 518.292969 392.667969 519.597656 389.492188 Z M 567.511719 408.449219 " fill-opacity="1" fill-rule="evenodd"/><path fill="#000000" d="M 573.796875 391.449219 C 572.367188 395.742188 570.835938 399.980469 569.21875 404.171875 L 521.289062 385.203125 C 522.519531 382.003906 523.6875 378.789062 524.777344 375.527344 Z M 573.796875 391.449219 " fill-opacity="1" fill-rule="evenodd"/><path fill="#000000" d="M 578.976562 374.085938 C 577.824219 378.453125 576.570312 382.792969 575.214844 387.070312 L 526.195312 371.148438 C 527.226562 367.886719 528.164062 364.601562 529.054688 361.277344 Z M 578.976562 374.085938 " fill-opacity="1" fill-rule="evenodd"/><path fill="#000000" d="M 583.054688 356.433594 C 582.175781 360.875 581.199219 365.265625 580.121094 369.632812 L 530.199219 356.820312 C 531.011719 353.496094 531.753906 350.160156 532.429688 346.785156 Z M 583.054688 356.433594 " fill-opacity="1" fill-rule="evenodd"/><path fill="#000000" d="M 586.003906 338.554688 C 585.414062 343.046875 584.722656 347.5 583.921875 351.917969 L 533.296875 342.269531 C 533.898438 338.90625 534.425781 335.507812 534.878906 332.105469 Z M 586.003906 338.554688 " fill-opacity="1" fill-rule="evenodd"/><path fill="#000000" d="M 587.835938 320.539062 C 587.523438 325.054688 587.09375 329.535156 586.566406 333.988281 L 535.441406 327.539062 C 535.832031 324.152344 536.171875 320.738281 536.410156 317.300781 Z M 587.835938 320.539062 " fill-opacity="1" fill-rule="evenodd"/><g clip-path="url(#b55b6dea2d)"><path fill="#000000" d="M 588.527344 302.433594 C 588.5 306.949219 588.363281 311.46875 588.125 315.933594 L 536.695312 312.710938 C 536.871094 309.308594 536.972656 305.871094 537 302.433594 Z M 588.527344 302.433594 " fill-opacity="1" fill-rule="evenodd"/></g><g clip-path="url(#c8e0b68be9)"><path fill="#000000" d="M 588.125 284.316406 C 588.363281 288.796875 588.488281 293.300781 588.527344 297.828125 L 537 297.84375 C 536.972656 294.390625 536.871094 290.96875 536.695312 287.566406 Z M 588.125 284.316406 " fill-opacity="1" fill-rule="evenodd"/></g><path fill="#000000" d="M 586.566406 266.261719 C 587.09375 270.71875 587.507812 275.207031 587.835938 279.726562 L 536.410156 282.960938 C 536.15625 279.539062 535.832031 276.125 535.441406 272.726562 L 586.570312 266.261719 Z M 586.566406 266.261719 " fill-opacity="1" fill-rule="evenodd"/><path fill="#000000" d="M 583.910156 248.347656 C 584.710938 252.761719 585.402344 257.21875 586.003906 261.710938 L 534.878906 268.171875 C 534.414062 264.757812 533.898438 261.371094 533.285156 258.007812 Z M 583.910156 248.347656 " fill-opacity="1" fill-rule="evenodd"/><path fill="#000000" d="M 580.105469 230.632812 C 581.1875 234.984375 582.164062 239.390625 583.042969 243.832031 L 532.417969 253.492188 C 531.753906 250.117188 531 246.765625 530.1875 243.453125 Z M 580.105469 230.632812 " fill-opacity="1" fill-rule="evenodd"/><path fill="#000000" d="M 575.203125 213.191406 C 576.554688 217.472656 577.8125 221.8125 578.964844 226.179688 L 529.042969 239 C 528.152344 235.675781 527.210938 232.375 526.183594 229.113281 Z M 575.203125 213.191406 " fill-opacity="1" fill-rule="evenodd"/><path fill="#000000" d="M 569.191406 196.09375 C 570.824219 200.28125 572.351562 204.523438 573.785156 208.8125 L 524.765625 224.734375 C 523.675781 221.484375 522.507812 218.261719 521.277344 215.074219 Z M 569.191406 196.09375 " fill-opacity="1" fill-rule="evenodd"/><path fill="#000000" d="M 562.117188 179.40625 C 564.011719 183.496094 565.792969 187.625 567.5 191.8125 L 519.570312 210.785156 C 518.277344 207.609375 516.925781 204.460938 515.492188 201.363281 Z M 562.117188 179.40625 " fill-opacity="1" fill-rule="evenodd"/><path fill="#000000" d="M 554.023438 163.207031 C 556.15625 167.160156 558.214844 171.175781 560.171875 175.242188 L 513.535156 197.183594 C 512.042969 194.097656 510.476562 191.046875 508.855469 188.039062 Z M 554.023438 163.207031 " fill-opacity="1" fill-rule="evenodd"/><path fill="#000000" d="M 544.902344 147.550781 C 547.285156 151.363281 549.582031 155.242188 551.789062 159.179688 L 506.625 184.011719 C 504.941406 181.023438 503.199219 178.074219 501.390625 175.164062 Z M 544.902344 147.550781 " fill-opacity="1" fill-rule="evenodd"/><path fill="#000000" d="M 534.828125 132.496094 C 537.449219 136.144531 539.984375 139.871094 542.429688 143.660156 L 498.921875 171.277344 C 497.050781 168.402344 495.132812 165.566406 493.136719 162.78125 Z M 534.828125 132.496094 " fill-opacity="1" fill-rule="evenodd"/><path fill="#000000" d="M 523.824219 118.105469 C 526.660156 121.59375 529.433594 125.144531 532.117188 128.769531 L 490.425781 159.054688 C 488.382812 156.308594 486.273438 153.609375 484.117188 150.949219 Z M 523.824219 118.105469 " fill-opacity="1" fill-rule="evenodd"/><path fill="#000000" d="M 511.945312 104.417969 C 514.992188 107.730469 517.976562 111.105469 520.875 114.554688 L 481.179688 147.402344 C 478.972656 144.777344 476.699219 142.207031 474.378906 139.695312 Z M 511.945312 104.417969 " fill-opacity="1" fill-rule="evenodd"/><path fill="#000000" d="M 499.246094 91.496094 C 502.507812 94.605469 505.695312 97.792969 508.792969 101.054688 L 471.230469 136.335938 C 468.859375 133.863281 466.4375 131.441406 463.964844 129.070312 Z M 499.246094 91.496094 " fill-opacity="1" fill-rule="evenodd"/><path fill="#000000" d="M 485.746094 79.425781 C 489.195312 82.324219 492.570312 85.296875 495.871094 88.359375 L 460.605469 125.921875 C 458.082031 123.601562 455.523438 121.34375 452.902344 119.121094 Z M 485.746094 79.425781 " fill-opacity="1" fill-rule="evenodd"/><path fill="#000000" d="M 471.53125 68.183594 C 475.144531 70.867188 478.707031 73.640625 482.195312 76.476562 L 449.351562 116.183594 C 446.691406 114.027344 443.992188 111.917969 441.246094 109.875 Z M 471.53125 68.183594 " fill-opacity="1" fill-rule="evenodd"/><path fill="#000000" d="M 456.640625 57.871094 C 460.417969 60.316406 464.140625 62.851562 467.804688 65.472656 L 437.519531 107.164062 C 434.734375 105.167969 431.898438 103.25 429.027344 101.394531 Z M 456.640625 57.871094 " fill-opacity="1" fill-rule="evenodd"/><path fill="#000000" d="M 441.121094 48.523438 C 445.046875 50.730469 448.921875 53.027344 452.738281 55.410156 L 425.136719 98.921875 C 422.226562 97.113281 419.277344 95.359375 416.292969 93.675781 Z M 441.121094 48.523438 " fill-opacity="1" fill-rule="evenodd"/><path fill="#000000" d="M 425.046875 40.128906 C 429.113281 42.085938 433.128906 44.144531 437.09375 46.277344 L 412.261719 91.445312 C 409.253906 89.824219 406.191406 88.257812 403.105469 86.765625 Z M 425.046875 40.128906 " fill-opacity="1" fill-rule="evenodd"/><path fill="#000000" d="M 408.488281 32.816406 C 412.664062 34.507812 416.804688 36.304688 420.882812 38.183594 L 398.941406 84.820312 C 395.839844 83.390625 392.691406 82.035156 389.503906 80.742188 Z M 408.488281 32.816406 " fill-opacity="1" fill-rule="evenodd"/><path fill="#000000" d="M 391.488281 26.53125 C 395.765625 27.960938 400.007812 29.492188 404.195312 31.109375 L 385.226562 79.035156 C 382.027344 77.804688 378.816406 76.640625 375.554688 75.546875 Z M 391.488281 26.53125 " fill-opacity="1" fill-rule="evenodd"/><path fill="#000000" d="M 374.109375 21.347656 C 378.488281 22.503906 382.816406 23.757812 387.097656 25.113281 L 371.175781 74.117188 C 367.914062 73.101562 364.613281 72.148438 361.300781 71.269531 Z M 374.109375 21.347656 " fill-opacity="1" fill-rule="evenodd"/><path fill="#000000" d="M 356.457031 17.269531 C 360.898438 18.148438 365.304688 19.128906 369.65625 20.207031 L 356.847656 70.128906 C 353.523438 69.3125 350.183594 68.558594 346.808594 67.894531 Z M 356.457031 17.269531 " fill-opacity="1" fill-rule="evenodd"/><path fill="#000000" d="M 338.578125 14.308594 C 343.070312 14.914062 347.523438 15.601562 351.941406 16.40625 L 342.28125 67.027344 C 338.929688 66.414062 335.53125 65.898438 332.132812 65.4375 Z M 338.578125 14.308594 " fill-opacity="1" fill-rule="evenodd"/><path fill="#000000" d="M 320.5625 12.492188 C 325.078125 12.804688 329.570312 13.230469 334.023438 13.746094 L 327.5625 64.871094 C 324.175781 64.480469 320.765625 64.15625 317.328125 63.90625 Z M 320.5625 12.492188 " fill-opacity="1" fill-rule="evenodd"/><g clip-path="url(#236f3d5674)"><path fill="#000000" d="M 302.472656 11.789062 C 306.988281 11.824219 311.492188 11.953125 315.972656 12.191406 L 312.734375 63.617188 C 309.335938 63.441406 305.910156 63.351562 302.472656 63.316406 Z M 302.472656 11.789062 " fill-opacity="1" fill-rule="evenodd"/></g><path fill="#ffffff" d="M 193.921875 325.84375 L 193.921875 311.855469 L 225.976562 266.011719 L 245.347656 266.011719 L 245.347656 310.839844 L 253.652344 310.839844 L 253.652344 325.84375 L 245.347656 325.84375 L 245.347656 339.03125 L 227.996094 339.03125 L 227.996094 325.84375 Z M 229.214844 285.082031 L 212.175781 310.839844 L 229.214844 310.839844 Z M 314.300781 280.113281 L 282.660156 280.113281 L 282.660156 294.101562 C 284.015625 292.621094 285.910156 291.40625 288.34375 290.453125 C 290.777344 289.511719 293.414062 289.035156 296.261719 289.035156 C 301.328125 289.035156 305.53125 290.1875 308.882812 292.484375 C 312.234375 294.78125 314.679688 297.753906 316.234375 301.40625 C 317.789062 305.054688 318.570312 309.019531 318.570312 313.273438 C 318.570312 321.191406 316.335938 327.453125 311.867188 332.09375 C 307.414062 336.722656 301.128906 339.03125 293.011719 339.03125 C 287.605469 339.03125 282.898438 338.101562 278.910156 336.246094 C 274.921875 334.390625 271.847656 331.804688 269.6875 328.492188 C 267.519531 325.179688 266.339844 321.355469 266.136719 317.023438 L 283.074219 317.023438 C 283.476562 319.121094 284.457031 320.863281 286.011719 322.257812 C 287.566406 323.636719 289.699219 324.328125 292.398438 324.328125 C 295.582031 324.328125 297.941406 323.3125 299.5 321.292969 C 301.054688 319.257812 301.832031 316.546875 301.832031 313.171875 C 301.832031 309.863281 301.015625 307.328125 299.398438 305.570312 C 297.78125 303.8125 295.40625 302.9375 292.296875 302.9375 C 290 302.9375 288.105469 303.488281 286.625 304.605469 C 285.132812 305.722656 284.152344 307.1875 283.675781 309.019531 L 266.941406 309.019531 L 266.941406 264.894531 L 314.300781 264.894531 Z M 326.6875 283.664062 C 326.6875 278.183594 328.253906 273.953125 331.390625 270.980469 C 334.539062 268.007812 338.617188 266.527344 343.625 266.527344 C 348.617188 266.527344 352.679688 268.007812 355.792969 270.980469 C 358.890625 273.953125 360.449219 278.183594 360.449219 283.664062 C 360.449219 289.136719 358.890625 293.363281 355.792969 296.335938 C 352.679688 299.308594 348.617188 300.804688 343.625 300.804688 C 338.617188 300.804688 334.539062 299.308594 331.390625 296.335938 C 328.253906 293.363281 326.6875 289.136719 326.6875 283.664062 Z M 395.539062 267.644531 L 356.496094 339.03125 L 339.757812 339.03125 L 378.816406 267.644531 Z M 343.511719 276.664062 C 340.273438 276.664062 338.640625 278.996094 338.640625 283.664062 C 338.640625 288.257812 340.273438 290.554688 343.511719 290.554688 C 345.066406 290.554688 346.28125 289.988281 347.160156 288.835938 C 348.050781 287.679688 348.492188 285.960938 348.492188 283.664062 C 348.492188 278.996094 346.835938 276.664062 343.511719 276.664062 Z M 374.949219 323.011719 C 374.949219 317.539062 376.507812 313.3125 379.617188 310.339844 C 382.730469 307.363281 386.78125 305.871094 391.789062 305.871094 C 396.792969 305.871094 400.847656 307.363281 403.957031 310.339844 C 407.070312 313.3125 408.625 317.539062 408.625 323.011719 C 408.625 328.492188 407.070312 332.707031 403.957031 335.695312 C 400.847656 338.667969 396.792969 340.148438 391.789062 340.148438 C 386.78125 340.148438 382.730469 338.667969 379.617188 335.695312 C 376.507812 332.707031 374.949219 328.492188 374.949219 323.011719 Z M 391.6875 316.007812 C 390.132812 316.007812 388.941406 316.585938 388.085938 317.742188 C 387.246094 318.882812 386.820312 320.652344 386.820312 323.011719 C 386.820312 327.613281 388.4375 329.910156 391.6875 329.910156 C 393.242188 329.910156 394.460938 329.332031 395.339844 328.179688 C 396.21875 327.039062 396.65625 325.304688 396.65625 323.011719 C 396.65625 320.714844 396.21875 318.96875 395.339844 317.789062 C 394.460938 316.609375 393.242188 316.007812 391.6875 316.007812 Z M 391.6875 316.007812 " fill-opacity="1" fill-rule="nonzero"/></svg>