<svg xmlns="http://www.w3.org/2000/svg" xmlns:xlink="http://www.w3.org/1999/xlink" width="800" zoomAndPan="magnify" viewBox="0 0 600 599.999999" height="800" preserveAspectRatio="xMidYMid meet" version="1.0"><path fill="#000000" d="M 295.371094 100.132812 L 295.371094 26.097656 C 288.613281 26.21875 281.871094 26.589844 275.140625 27.214844 C 268.410156 27.839844 261.710938 28.710938 255.046875 29.832031 C 248.378906 30.957031 241.765625 32.324219 235.203125 33.9375 C 228.636719 35.554688 222.144531 37.410156 215.71875 39.507812 C 209.292969 41.605469 202.957031 43.9375 196.703125 46.507812 C 190.453125 49.078125 184.304688 51.878906 178.261719 54.90625 C 172.21875 57.933594 166.296875 61.179688 160.496094 64.648438 C 154.695312 68.117188 149.03125 71.796875 143.503906 75.6875 L 187 135.539062 C 194.933594 130.039062 203.222656 125.140625 211.867188 120.847656 C 220.511719 116.554688 229.421875 112.910156 238.597656 109.910156 C 247.773438 106.914062 257.117188 104.59375 266.628906 102.957031 C 276.140625 101.320312 285.722656 100.378906 295.371094 100.132812 Z M 295.371094 100.132812 " fill-opacity="1" fill-rule="nonzero"/><path fill="#ff2c0a" d="M 305.292969 26.097656 L 305.292969 114.910156 C 314.164062 115.125 322.976562 115.984375 331.722656 117.480469 C 340.472656 118.976562 349.066406 121.097656 357.507812 123.84375 C 365.945312 126.589844 374.144531 129.929688 382.097656 133.867188 C 390.054688 137.804688 397.679688 142.292969 404.984375 147.339844 L 413.710938 135.339844 L 457.210938 75.488281 L 462.515625 68.148438 L 465.988281 63.191406 C 460.144531 59.070312 454.152344 55.175781 448.015625 51.507812 C 441.878906 47.835938 435.613281 44.398438 429.21875 41.199219 C 422.828125 38 416.320312 35.039062 409.707031 32.328125 C 403.089844 29.613281 396.382812 27.148438 389.582031 24.9375 C 382.78125 22.726562 375.910156 20.773438 368.964844 19.074219 C 362.015625 17.378906 355.015625 15.945312 347.960938 14.769531 C 340.910156 13.597656 333.820312 12.691406 326.699219 12.046875 C 319.578125 11.40625 312.441406 11.03125 305.292969 10.925781 Z M 305.292969 26.097656 " fill-opacity="1" fill-rule="nonzero"/><path fill="#ff2c0a" d="M 559.183594 210.464844 L 573.417969 205.855469 C 571.074219 199.109375 568.484375 192.457031 565.652344 185.902344 C 562.820312 179.347656 559.75 172.902344 556.445312 166.574219 C 553.140625 160.242188 549.609375 154.042969 545.847656 147.972656 C 542.089844 141.902344 538.113281 135.976562 533.917969 130.195312 C 529.722656 124.417969 525.320312 118.796875 520.714844 113.339844 C 516.105469 107.886719 511.304688 102.605469 506.3125 97.5 C 501.316406 92.394531 496.140625 87.480469 490.785156 82.757812 C 485.429688 78.03125 479.910156 73.507812 474.222656 69.191406 L 470.75 74.148438 L 465.441406 81.4375 L 421.894531 141.339844 L 413.214844 153.339844 C 420.238281 158.757812 426.839844 164.644531 433.019531 171 C 439.203125 177.359375 444.902344 184.125 450.117188 191.292969 C 455.335938 198.464844 460.015625 205.96875 464.160156 213.808594 C 468.308594 221.644531 471.875 229.738281 474.867188 238.085938 L 488.953125 233.472656 Z M 559.183594 210.464844 " fill-opacity="1" fill-rule="nonzero"/><path fill="#ff2c0a" d="M 562.308594 219.886719 L 491.828125 242.746094 L 477.691406 247.359375 C 480.210938 255.863281 482.105469 264.503906 483.375 273.28125 C 484.644531 282.058594 485.28125 290.878906 485.28125 299.75 C 485.28125 308.617188 484.644531 317.441406 483.375 326.214844 C 482.105469 334.992188 480.210938 343.632812 477.691406 352.136719 L 491.828125 356.75 L 536.019531 371.03125 L 562.308594 379.558594 L 576.441406 384.171875 C 578.535156 377.335938 580.371094 370.433594 581.953125 363.464844 C 583.53125 356.492188 584.851562 349.472656 585.910156 342.40625 C 586.96875 335.335938 587.761719 328.238281 588.292969 321.109375 C 588.824219 313.984375 589.089844 306.847656 589.089844 299.699219 C 589.089844 292.550781 588.824219 285.414062 588.292969 278.285156 C 587.761719 271.160156 586.96875 264.058594 585.910156 256.992188 C 584.851562 249.921875 583.53125 242.902344 581.953125 235.933594 C 580.371094 228.960938 578.535156 222.058594 576.441406 215.226562 Z M 562.308594 219.886719 " fill-opacity="1" fill-rule="nonzero"/><path fill="#ff2c0a" d="M 100.304688 369.941406 L 41.53125 389.03125 L 27.296875 393.691406 C 29.636719 400.4375 32.226562 407.085938 35.054688 413.640625 C 37.886719 420.195312 40.953125 426.636719 44.257812 432.964844 C 47.5625 439.292969 51.097656 445.492188 54.855469 451.5625 C 58.617188 457.632812 62.59375 463.558594 66.789062 469.335938 C 70.984375 475.113281 75.382812 480.726562 79.992188 486.183594 C 84.601562 491.636719 89.402344 496.914062 94.398438 502.015625 C 99.390625 507.117188 104.566406 512.027344 109.925781 516.75 C 115.28125 521.472656 120.804688 525.992188 126.492188 530.308594 L 135.269531 518.207031 L 178.816406 458.304688 L 187.84375 446.355469 C 180.8125 440.9375 174.203125 435.050781 168.011719 428.695312 C 161.816406 422.335938 156.105469 415.574219 150.878906 408.402344 C 145.648438 401.234375 140.957031 393.730469 136.796875 385.890625 C 132.636719 378.050781 129.050781 369.957031 126.046875 361.609375 L 111.960938 366.070312 Z M 100.304688 369.941406 " fill-opacity="1" fill-rule="nonzero"/><path fill="#ff2c0a" d="M 559.183594 389.03125 L 500.308594 369.941406 L 488.65625 366.171875 L 474.570312 361.609375 C 471.582031 369.953125 468.015625 378.046875 463.875 385.882812 C 459.730469 393.722656 455.054688 401.226562 449.84375 408.394531 C 444.628906 415.566406 438.9375 422.332031 432.757812 428.6875 C 426.582031 435.046875 419.984375 440.9375 412.96875 446.355469 L 421.648438 458.304688 L 465.195312 518.207031 L 470.5 525.496094 L 473.972656 530.457031 C 479.660156 526.140625 485.183594 521.621094 490.539062 516.898438 C 495.898438 512.179688 501.074219 507.265625 506.066406 502.164062 C 511.0625 497.0625 515.863281 491.785156 520.472656 486.332031 C 525.082031 480.875 529.480469 475.261719 533.675781 469.484375 C 537.871094 463.707031 541.847656 457.78125 545.609375 451.710938 C 549.367188 445.644531 552.902344 439.441406 556.207031 433.113281 C 559.511719 426.785156 562.578125 420.34375 565.410156 413.789062 C 568.238281 407.234375 570.828125 400.585938 573.167969 393.839844 Z M 559.183594 389.03125 " fill-opacity="1" fill-rule="nonzero"/><path fill="#ff2c0a" d="M 462.515625 531.347656 L 457.160156 524.007812 L 413.710938 464.15625 L 404.984375 452.207031 C 397.679688 457.242188 390.046875 461.726562 382.09375 465.65625 C 374.136719 469.585938 365.9375 472.921875 357.5 475.664062 C 349.058594 478.40625 340.464844 480.523438 331.71875 482.019531 C 322.972656 483.511719 314.164062 484.371094 305.292969 484.585938 L 305.292969 588.375 C 312.441406 588.269531 319.578125 587.902344 326.699219 587.261719 C 333.820312 586.625 340.910156 585.722656 347.960938 584.550781 C 355.015625 583.382812 362.015625 581.949219 368.964844 580.257812 C 375.910156 578.5625 382.785156 576.609375 389.585938 574.402344 C 396.382812 572.191406 403.09375 569.730469 409.707031 567.015625 C 416.324219 564.304688 422.828125 561.347656 429.222656 558.148438 C 435.617188 554.949219 441.882812 551.511719 448.019531 547.84375 C 454.152344 544.171875 460.144531 540.277344 465.988281 536.160156 Z M 462.515625 531.347656 " fill-opacity="1" fill-rule="nonzero"/><path fill="#ff2c0a" d="M 295.371094 573.449219 L 295.371094 484.585938 C 286.503906 484.367188 277.699219 483.507812 268.957031 482.011719 C 260.214844 480.515625 251.625 478.398438 243.191406 475.65625 C 234.753906 472.914062 226.5625 469.582031 218.609375 465.652344 C 210.660156 461.722656 203.03125 457.242188 195.730469 452.207031 L 187 464.15625 L 143.503906 524.007812 L 134.726562 536.160156 C 140.566406 540.277344 146.554688 544.171875 152.6875 547.839844 C 158.824219 551.507812 165.085938 554.945312 171.476562 558.144531 C 177.871094 561.34375 184.371094 564.300781 190.988281 567.011719 C 197.601562 569.726562 204.304688 572.1875 211.105469 574.394531 C 217.902344 576.605469 224.773438 578.558594 231.71875 580.253906 C 238.664062 581.945312 245.660156 583.378906 252.714844 584.546875 C 259.765625 585.71875 266.851562 586.621094 273.972656 587.261719 C 281.089844 587.898438 288.222656 588.269531 295.371094 588.375 Z M 295.371094 573.449219 " fill-opacity="1" fill-rule="nonzero"/><path fill="#ff2c0a" d="M 24.171875 384.222656 L 38.304688 379.609375 L 64.59375 371.082031 L 108.785156 356.75 L 122.921875 352.136719 C 120.402344 343.632812 118.511719 334.992188 117.238281 326.214844 C 115.96875 317.441406 115.332031 308.617188 115.332031 299.75 C 115.332031 290.878906 115.96875 282.058594 117.238281 273.28125 C 118.511719 264.503906 120.402344 255.863281 122.921875 247.359375 L 108.785156 242.796875 L 38.40625 219.886719 L 24.171875 215.277344 C 22.078125 222.109375 20.242188 229.011719 18.660156 235.984375 C 17.082031 242.953125 15.761719 249.972656 14.703125 257.042969 C 13.644531 264.109375 12.851562 271.207031 12.320312 278.335938 C 11.789062 285.464844 11.523438 292.601562 11.523438 299.75 C 11.523438 306.894531 11.789062 314.03125 12.320312 321.160156 C 12.851562 328.289062 13.644531 335.386719 14.703125 342.457031 C 15.761719 349.523438 17.082031 356.542969 18.660156 363.515625 C 20.242188 370.484375 22.078125 377.386719 24.171875 384.222656 Z M 24.171875 384.222656 " fill-opacity="1" fill-rule="nonzero"/><path fill="#ff2c0a" d="M 41.53125 210.464844 L 111.960938 233.324219 L 126.046875 237.9375 C 129.046875 229.585938 132.625 221.488281 136.78125 213.648438 C 140.9375 205.808594 145.632812 198.300781 150.863281 191.128906 C 156.089844 183.960938 161.804688 177.195312 168 170.839844 C 174.191406 164.484375 180.808594 158.601562 187.84375 153.191406 L 179.164062 141.191406 L 135.46875 81.339844 L 126.691406 69.191406 C 121.003906 73.507812 115.480469 78.03125 110.125 82.757812 C 104.769531 87.480469 99.59375 92.394531 94.601562 97.5 C 89.605469 102.605469 84.804688 107.886719 80.199219 113.339844 C 75.589844 118.796875 71.191406 124.417969 66.996094 130.195312 C 62.800781 135.976562 58.824219 141.898438 55.0625 147.972656 C 51.300781 154.042969 47.769531 160.242188 44.464844 166.574219 C 41.160156 172.902344 38.089844 179.347656 35.257812 185.902344 C 32.425781 192.457031 29.839844 199.109375 27.496094 205.855469 Z M 41.53125 210.464844 " fill-opacity="1" fill-rule="nonzero"/><path fill="#000000" d="M 199.203125 351.195312 C 197.980469 349.71875 196.90625 348.136719 195.984375 346.453125 C 195.0625 344.773438 194.304688 343.019531 193.714844 341.195312 C 193.125 339.367188 192.710938 337.503906 192.472656 335.601562 C 192.238281 333.695312 192.183594 331.789062 192.308594 329.871094 L 192.308594 327.742188 L 209.371094 327.742188 L 209.371094 331.011719 C 209.371094 338.550781 212.445312 342.320312 218.695312 342.320312 C 220.128906 342.429688 221.507812 342.207031 222.835938 341.65625 C 224.164062 341.105469 225.296875 340.285156 226.234375 339.195312 C 227.199219 337.539062 227.890625 335.777344 228.304688 333.90625 C 228.722656 332.035156 228.839844 330.144531 228.664062 328.238281 L 228.664062 306.566406 L 228.367188 306.566406 C 228.019531 307.347656 227.617188 308.09375 227.160156 308.8125 C 226.699219 309.53125 226.1875 310.210938 225.625 310.851562 C 225.0625 311.492188 224.453125 312.085938 223.796875 312.632812 C 223.144531 313.179688 222.453125 313.671875 221.722656 314.113281 C 220.992188 314.554688 220.230469 314.9375 219.445312 315.261719 C 218.65625 315.585938 217.847656 315.851562 217.015625 316.050781 C 216.1875 316.253906 215.347656 316.390625 214.5 316.460938 C 213.648438 316.535156 212.800781 316.542969 211.949219 316.484375 C 210.53125 316.570312 209.121094 316.484375 207.722656 316.230469 C 206.328125 315.972656 204.980469 315.554688 203.683594 314.96875 C 202.386719 314.386719 201.179688 313.65625 200.0625 312.78125 C 198.941406 311.90625 197.945312 310.90625 197.070312 309.789062 C 195.214844 306.894531 193.863281 303.777344 193.015625 300.445312 C 192.167969 297.113281 191.863281 293.730469 192.109375 290.300781 L 192.109375 269.625 C 191.988281 267.707031 192.050781 265.796875 192.296875 263.894531 C 192.542969 261.992188 192.964844 260.128906 193.570312 258.304688 C 194.171875 256.484375 194.945312 254.734375 195.882812 253.058594 C 196.820312 251.386719 197.910156 249.816406 199.152344 248.351562 C 199.851562 247.75 200.578125 247.183594 201.324219 246.652344 C 202.074219 246.117188 202.847656 245.617188 203.640625 245.148438 C 204.4375 244.683594 205.25 244.253906 206.082031 243.859375 C 206.914062 243.464844 207.761719 243.109375 208.625 242.789062 C 209.488281 242.46875 210.363281 242.191406 211.253906 241.949219 C 212.140625 241.707031 213.039062 241.503906 213.945312 241.34375 C 214.851562 241.179688 215.761719 241.058594 216.679688 240.976562 C 217.597656 240.898438 218.515625 240.855469 219.4375 240.855469 C 220.359375 240.855469 221.277344 240.898438 222.195312 240.976562 C 223.113281 241.058594 224.023438 241.179688 224.929688 241.34375 C 225.835938 241.503906 226.734375 241.707031 227.621094 241.949219 C 228.511719 242.191406 229.386719 242.46875 230.25 242.789062 C 231.113281 243.109375 231.960938 243.464844 232.792969 243.859375 C 233.625 244.253906 234.441406 244.683594 235.234375 245.148438 C 236.027344 245.617188 236.800781 246.117188 237.550781 246.652344 C 238.300781 247.183594 239.023438 247.75 239.722656 248.351562 C 240.964844 249.816406 242.054688 251.386719 242.992188 253.058594 C 243.929688 254.734375 244.703125 256.484375 245.304688 258.304688 C 245.910156 260.128906 246.332031 261.992188 246.578125 263.894531 C 246.824219 265.796875 246.886719 267.707031 246.765625 269.625 L 246.765625 329.128906 C 246.765625 348.964844 237.589844 358.882812 219.289062 358.882812 C 217.4375 359 215.59375 358.921875 213.757812 358.644531 C 211.921875 358.367188 210.140625 357.894531 208.40625 357.230469 C 206.671875 356.570312 205.03125 355.726562 203.476562 354.710938 C 201.925781 353.691406 200.5 352.519531 199.203125 351.195312 Z M 228.664062 288.617188 L 228.664062 268.335938 C 228.664062 260.894531 225.539062 257.226562 219.339844 257.226562 C 213.140625 257.226562 210.015625 260.894531 210.015625 268.335938 L 210.015625 288.617188 C 210.015625 296.152344 213.140625 299.921875 219.339844 299.921875 C 225.539062 299.921875 228.664062 296.152344 228.664062 288.617188 Z M 228.664062 288.617188 " fill-opacity="1" fill-rule="nonzero"/><path fill="#000000" d="M 265.019531 351.195312 C 263.773438 349.734375 262.679688 348.167969 261.734375 346.492188 C 260.792969 344.820312 260.019531 343.070312 259.417969 341.246094 C 258.8125 339.425781 258.390625 337.558594 258.148438 335.65625 C 257.90625 333.75 257.847656 331.839844 257.976562 329.921875 L 257.976562 269.625 C 257.855469 267.707031 257.917969 265.796875 258.160156 263.894531 C 258.40625 261.992188 258.832031 260.128906 259.433594 258.304688 C 260.039062 256.484375 260.808594 254.734375 261.75 253.058594 C 262.6875 251.386719 263.777344 249.816406 265.019531 248.351562 C 265.71875 247.75 266.441406 247.183594 267.191406 246.652344 C 267.941406 246.117188 268.714844 245.617188 269.507812 245.148438 C 270.300781 244.683594 271.113281 244.253906 271.945312 243.859375 C 272.777344 243.464844 273.625 243.109375 274.492188 242.789062 C 275.355469 242.472656 276.230469 242.191406 277.117188 241.949219 C 278.007812 241.707031 278.90625 241.503906 279.8125 241.34375 C 280.71875 241.179688 281.628906 241.058594 282.546875 240.976562 C 283.464844 240.898438 284.382812 240.855469 285.304688 240.855469 C 286.222656 240.855469 287.144531 240.898438 288.058594 240.976562 C 288.976562 241.058594 289.890625 241.179688 290.796875 241.34375 C 291.703125 241.503906 292.601562 241.707031 293.488281 241.949219 C 294.375 242.191406 295.253906 242.472656 296.117188 242.789062 C 296.980469 243.109375 297.828125 243.464844 298.660156 243.859375 C 299.492188 244.253906 300.304688 244.683594 301.097656 245.148438 C 301.894531 245.617188 302.664062 246.117188 303.414062 246.652344 C 304.164062 247.183594 304.890625 247.75 305.589844 248.351562 C 306.828125 249.816406 307.917969 251.386719 308.859375 253.058594 C 309.796875 254.734375 310.566406 256.484375 311.171875 258.304688 C 311.773438 260.128906 312.199219 261.992188 312.445312 263.894531 C 312.691406 265.796875 312.753906 267.707031 312.632812 269.625 L 312.632812 329.871094 C 312.757812 331.789062 312.703125 333.699219 312.460938 335.605469 C 312.21875 337.511719 311.792969 339.375 311.191406 341.199219 C 310.585938 343.019531 309.8125 344.769531 308.871094 346.441406 C 307.929688 348.117188 306.835938 349.683594 305.589844 351.144531 C 304.890625 351.75 304.167969 352.316406 303.417969 352.855469 C 302.671875 353.394531 301.898438 353.898438 301.105469 354.367188 C 300.3125 354.835938 299.5 355.269531 298.667969 355.664062 C 297.835938 356.0625 296.988281 356.421875 296.125 356.742188 C 295.261719 357.0625 294.382812 357.34375 293.496094 357.585938 C 292.605469 357.832031 291.707031 358.035156 290.800781 358.195312 C 289.894531 358.359375 288.980469 358.484375 288.0625 358.566406 C 287.144531 358.648438 286.226562 358.6875 285.304688 358.6875 C 284.382812 358.6875 283.460938 358.648438 282.542969 358.566406 C 281.625 358.484375 280.714844 358.359375 279.804688 358.195312 C 278.898438 358.035156 278 357.832031 277.113281 357.585938 C 276.222656 357.34375 275.347656 357.0625 274.480469 356.742188 C 273.617188 356.421875 272.769531 356.0625 271.9375 355.664062 C 271.105469 355.269531 270.292969 354.835938 269.5 354.367188 C 268.707031 353.898438 267.9375 353.394531 267.1875 352.855469 C 266.4375 352.316406 265.714844 351.75 265.019531 351.144531 Z M 294.777344 331.0625 L 294.777344 268.484375 C 294.777344 260.996094 291.652344 257.226562 285.453125 257.226562 C 279.253906 257.226562 276.128906 260.996094 276.128906 268.484375 L 276.128906 331.011719 C 276.128906 338.550781 279.203125 342.320312 285.453125 342.320312 C 291.703125 342.320312 294.628906 338.550781 294.628906 331.011719 Z M 294.777344 331.0625 " fill-opacity="1" fill-rule="nonzero"/><path fill="#000000" d="M 328.15625 301.609375 C 326.578125 299.710938 325.40625 297.585938 324.644531 295.238281 C 323.882812 292.890625 323.582031 290.484375 323.742188 288.019531 L 323.742188 259.160156 C 323.582031 256.695312 323.882812 254.292969 324.644531 251.945312 C 325.40625 249.59375 326.578125 247.472656 328.15625 245.574219 C 329.054688 244.820312 330.015625 244.148438 331.03125 243.558594 C 332.046875 242.972656 333.109375 242.476562 334.214844 242.078125 C 335.316406 241.675781 336.445312 241.371094 337.605469 241.167969 C 338.761719 240.964844 339.925781 240.863281 341.101562 240.863281 C 342.277344 240.863281 343.441406 240.964844 344.597656 241.167969 C 345.753906 241.371094 346.886719 241.675781 347.988281 242.078125 C 349.09375 242.476562 350.152344 242.972656 351.171875 243.558594 C 352.1875 244.148438 353.144531 244.820312 354.046875 245.574219 C 355.625 247.472656 356.792969 249.59375 357.558594 251.945312 C 358.320312 254.292969 358.621094 256.695312 358.460938 259.160156 L 358.460938 287.824219 C 358.621094 290.285156 358.320312 292.691406 357.558594 295.039062 C 356.792969 297.386719 355.625 299.511719 354.046875 301.410156 C 353.144531 302.164062 352.1875 302.835938 351.171875 303.421875 C 350.152344 304.011719 349.09375 304.503906 347.988281 304.90625 C 346.886719 305.308594 345.753906 305.609375 344.597656 305.816406 C 343.441406 306.019531 342.277344 306.121094 341.101562 306.121094 C 339.925781 306.121094 338.761719 306.019531 337.605469 305.816406 C 336.445312 305.609375 335.316406 305.308594 334.214844 304.90625 C 333.109375 304.503906 332.046875 304.011719 331.03125 303.421875 C 330.015625 302.835938 329.054688 302.164062 328.15625 301.410156 Z M 347.003906 288.8125 L 347.003906 258.566406 C 347.003906 253.605469 345.019531 251.375 341.101562 251.375 C 337.183594 251.375 335.199219 253.753906 335.199219 258.566406 L 335.199219 288.8125 C 335.199219 293.773438 337.183594 296.003906 341.101562 296.003906 C 345.019531 296.003906 347.003906 293.425781 347.003906 288.617188 Z M 382.664062 242.699219 L 394.121094 242.699219 L 349.78125 357.246094 L 338.324219 357.246094 Z M 378.449219 354.121094 C 376.851562 352.230469 375.667969 350.113281 374.894531 347.761719 C 374.125 345.410156 373.820312 343.003906 373.984375 340.535156 L 373.984375 311.527344 C 373.820312 309.058594 374.125 306.648438 374.894531 304.296875 C 375.667969 301.949219 376.851562 299.828125 378.449219 297.9375 C 379.339844 297.171875 380.292969 296.492188 381.304688 295.894531 C 382.320312 295.300781 383.378906 294.796875 384.480469 294.390625 C 385.582031 293.980469 386.710938 293.671875 387.871094 293.464844 C 389.027344 293.257812 390.191406 293.15625 391.367188 293.15625 C 392.542969 293.15625 393.710938 293.257812 394.867188 293.464844 C 396.023438 293.671875 397.15625 293.980469 398.257812 294.390625 C 399.359375 294.796875 400.417969 295.300781 401.429688 295.894531 C 402.445312 296.492188 403.398438 297.171875 404.289062 297.9375 C 405.867188 299.835938 407.039062 301.960938 407.800781 304.308594 C 408.5625 306.65625 408.863281 309.0625 408.703125 311.527344 L 408.703125 340.136719 C 408.863281 342.601562 408.5625 345.007812 407.800781 347.355469 C 407.039062 349.703125 405.867188 351.824219 404.289062 353.726562 C 403.398438 354.488281 402.445312 355.171875 401.429688 355.765625 C 400.417969 356.363281 399.359375 356.867188 398.257812 357.273438 C 397.15625 357.683594 396.023438 357.988281 394.867188 358.195312 C 393.710938 358.402344 392.542969 358.507812 391.367188 358.507812 C 390.191406 358.507812 389.027344 358.402344 387.871094 358.195312 C 386.710938 357.988281 385.582031 357.683594 384.480469 357.273438 C 383.378906 356.867188 382.320312 356.363281 381.304688 355.765625 C 380.292969 355.171875 379.339844 354.488281 378.449219 353.726562 Z M 397.246094 341.378906 L 397.246094 311.078125 C 397.246094 306.121094 395.261719 303.890625 391.34375 303.890625 C 387.425781 303.890625 385.441406 306.269531 385.441406 311.078125 L 385.441406 341.277344 C 385.441406 346.238281 387.425781 348.46875 391.34375 348.46875 C 395.261719 348.46875 397.246094 345.9375 397.246094 341.277344 Z M 397.246094 341.378906 " fill-opacity="1" fill-rule="nonzero"/></svg>