<svg xmlns="http://www.w3.org/2000/svg" xmlns:xlink="http://www.w3.org/1999/xlink" width="800" zoomAndPan="magnify" viewBox="0 0 600 599.999999" height="800" preserveAspectRatio="xMidYMid meet" version="1.0"><defs><clipPath id="55b7c9e775"><path d="M 306 11.15625 L 468 11.15625 L 468 148 L 306 148 Z M 306 11.15625 " clip-rule="nonzero"/></clipPath><clipPath id="b10205fad9"><path d="M 306 452 L 468 452 L 468 588.65625 L 306 588.65625 Z M 306 452 " clip-rule="nonzero"/></clipPath><clipPath id="7586975348"><path d="M 136 452 L 297 452 L 297 588.65625 L 136 588.65625 Z M 136 452 " clip-rule="nonzero"/></clipPath></defs><path fill="#000000" d="M 101.878906 299.953125 C 101.882812 296.738281 101.960938 293.519531 102.121094 290.304688 C 102.28125 287.09375 102.515625 283.882812 102.832031 280.679688 C 103.144531 277.476562 103.535156 274.285156 104.003906 271.101562 C 104.472656 267.917969 105.015625 264.746094 105.636719 261.589844 C 106.257812 258.429688 106.957031 255.289062 107.730469 252.164062 C 108.5 249.042969 109.347656 245.9375 110.273438 242.855469 C 111.195312 239.773438 112.191406 236.710938 113.261719 233.675781 C 114.332031 230.640625 115.476562 227.636719 116.691406 224.65625 C 117.90625 221.675781 119.191406 218.726562 120.550781 215.808594 C 121.90625 212.890625 123.335938 210.007812 124.832031 207.160156 C 126.328125 204.308594 127.894531 201.5 129.527344 198.722656 C 131.160156 195.949219 132.859375 193.21875 134.625 190.527344 C 136.386719 187.835938 138.21875 185.1875 140.109375 182.585938 C 142.003906 179.980469 143.957031 177.425781 145.972656 174.917969 C 147.988281 172.40625 150.0625 169.949219 152.199219 167.539062 C 154.332031 165.128906 156.523438 162.773438 158.773438 160.472656 C 161.019531 158.167969 163.324219 155.921875 165.679688 153.730469 C 168.039062 151.535156 170.445312 149.402344 172.90625 147.328125 C 175.367188 145.25 177.875 143.234375 180.429688 141.28125 C 182.988281 139.328125 185.589844 137.433594 188.238281 135.605469 C 190.886719 133.777344 193.578125 132.011719 196.3125 130.3125 C 199.046875 128.613281 201.820312 126.980469 204.632812 125.414062 C 207.445312 123.847656 210.292969 122.351562 213.179688 120.921875 C 216.0625 119.496094 218.980469 118.136719 221.929688 116.851562 C 224.882812 115.5625 227.863281 114.347656 230.871094 113.203125 C 233.878906 112.058594 236.914062 110.988281 239.976562 109.992188 C 243.035156 108.996094 246.117188 108.074219 249.222656 107.222656 C 252.328125 106.375 255.453125 105.601562 258.597656 104.90625 C 261.738281 104.207031 264.894531 103.585938 268.070312 103.039062 C 271.242188 102.496094 274.425781 102.027344 277.621094 101.632812 C 280.816406 101.242188 284.019531 100.925781 287.230469 100.691406 C 290.441406 100.453125 293.652344 100.292969 296.871094 100.210938 L 296.871094 26.136719 C 293.335938 26.199219 289.804688 26.328125 286.273438 26.527344 C 282.746094 26.726562 279.21875 26.992188 275.699219 27.328125 C 272.179688 27.660156 268.667969 28.0625 265.164062 28.535156 C 261.660156 29.003906 258.167969 29.542969 254.683594 30.148438 C 251.199219 30.753906 247.730469 31.429688 244.273438 32.167969 C 240.816406 32.910156 237.375 33.714844 233.949219 34.589844 C 230.523438 35.460938 227.117188 36.402344 223.726562 37.40625 C 220.335938 38.414062 216.96875 39.484375 213.621094 40.621094 C 210.273438 41.753906 206.949219 42.957031 203.644531 44.21875 C 200.34375 45.484375 197.070312 46.8125 193.820312 48.203125 C 190.570312 49.59375 187.347656 51.050781 184.152344 52.566406 C 180.960938 54.082031 177.796875 55.660156 174.664062 57.296875 C 171.53125 58.9375 168.429688 60.632812 165.363281 62.394531 C 162.296875 64.152344 159.265625 65.96875 156.269531 67.84375 C 153.273438 69.722656 150.316406 71.65625 147.394531 73.644531 C 144.472656 75.636719 141.589844 77.683594 138.746094 79.785156 C 135.90625 81.886719 133.105469 84.042969 130.347656 86.253906 C 127.589844 88.464844 124.875 90.726562 122.203125 93.042969 C 119.53125 95.359375 116.90625 97.726562 114.328125 100.140625 C 111.746094 102.558594 109.214844 105.027344 106.734375 107.542969 C 104.25 110.054688 101.816406 112.617188 99.429688 115.226562 C 97.046875 117.839844 94.710938 120.492188 92.429688 123.191406 C 90.148438 125.894531 87.921875 128.636719 85.746094 131.421875 C 83.570312 134.207031 81.449219 137.035156 79.382812 139.902344 C 77.320312 142.773438 75.308594 145.679688 73.355469 148.625 C 71.402344 151.570312 69.507812 154.554688 67.667969 157.574219 C 65.832031 160.59375 64.054688 163.648438 62.335938 166.734375 C 60.613281 169.824219 58.957031 172.945312 57.359375 176.097656 C 55.757812 179.25 54.222656 182.429688 52.746094 185.644531 C 51.273438 188.855469 49.859375 192.09375 48.511719 195.363281 C 47.160156 198.628906 45.875 201.921875 44.652344 205.238281 C 43.429688 208.554688 42.273438 211.890625 41.179688 215.253906 C 40.089844 218.613281 39.0625 221.996094 38.101562 225.398438 C 37.136719 228.796875 36.242188 232.214844 35.414062 235.652344 C 34.585938 239.089844 33.820312 242.539062 33.125 246.003906 C 32.429688 249.46875 31.800781 252.945312 31.242188 256.4375 C 30.679688 259.925781 30.1875 263.425781 29.761719 266.933594 C 29.335938 270.441406 28.980469 273.957031 28.691406 277.480469 C 28.402344 281.003906 28.179688 284.53125 28.027344 288.0625 C 27.875 291.59375 27.792969 295.125 27.777344 298.660156 C 27.761719 302.191406 27.8125 305.726562 27.933594 309.257812 C 28.058594 312.792969 28.246094 316.320312 28.503906 319.84375 C 28.761719 323.371094 29.089844 326.886719 29.484375 330.402344 C 29.878906 333.914062 30.339844 337.417969 30.871094 340.910156 C 31.398438 344.40625 31.996094 347.886719 32.664062 351.359375 C 33.328125 354.832031 34.058594 358.289062 34.859375 361.730469 C 35.65625 365.171875 36.523438 368.601562 37.453125 372.007812 C 38.386719 375.417969 39.382812 378.808594 40.445312 382.179688 C 41.507812 385.550781 42.636719 388.898438 43.832031 392.226562 C 45.023438 395.554688 46.28125 398.855469 47.601562 402.136719 C 48.921875 405.414062 50.304688 408.664062 51.753906 411.890625 C 53.199219 415.113281 54.707031 418.308594 56.277344 421.476562 C 57.847656 424.644531 59.480469 427.777344 61.171875 430.882812 C 62.863281 433.984375 64.617188 437.054688 66.425781 440.089844 C 68.238281 443.125 70.105469 446.125 72.035156 449.089844 C 73.960938 452.050781 75.945312 454.976562 77.984375 457.863281 C 80.023438 460.75 82.121094 463.59375 84.269531 466.398438 C 86.421875 469.203125 88.625 471.96875 90.882812 474.6875 C 93.140625 477.40625 95.453125 480.082031 97.8125 482.710938 C 100.175781 485.34375 102.585938 487.925781 105.046875 490.464844 C 107.507812 493 110.019531 495.488281 112.574219 497.929688 C 115.132812 500.371094 117.738281 502.757812 120.386719 505.097656 C 123.039062 507.4375 125.734375 509.722656 128.472656 511.957031 C 131.210938 514.195312 133.992188 516.375 136.816406 518.5 L 180.390625 458.570312 C 177.351562 456.25 174.382812 453.847656 171.484375 451.359375 C 168.585938 448.867188 165.757812 446.300781 163.003906 443.648438 C 160.253906 440.996094 157.578125 438.269531 154.984375 435.464844 C 152.386719 432.660156 149.875 429.785156 147.445312 426.835938 C 145.015625 423.886719 142.671875 420.871094 140.414062 417.785156 C 138.15625 414.703125 135.988281 411.558594 133.914062 408.347656 C 131.835938 405.140625 129.851562 401.875 127.964844 398.554688 C 126.074219 395.234375 124.285156 391.859375 122.589844 388.4375 C 120.894531 385.011719 119.296875 381.542969 117.800781 378.023438 C 116.304688 374.507812 114.914062 370.953125 113.621094 367.355469 C 112.328125 363.761719 111.140625 360.128906 110.058594 356.464844 C 108.976562 352.800781 108 349.109375 107.128906 345.390625 C 106.257812 341.667969 105.496094 337.925781 104.839844 334.164062 C 104.183594 330.398438 103.636719 326.617188 103.195312 322.824219 C 102.757812 319.027344 102.429688 315.222656 102.207031 311.40625 C 101.988281 307.59375 101.878906 303.773438 101.878906 299.953125 Z M 101.878906 299.953125 " fill-opacity="1" fill-rule="nonzero"/><g clip-path="url(#55b7c9e775)"><path fill="#e6ed7d" d="M 306.796875 26.136719 L 306.796875 114.996094 C 315.671875 115.214844 324.484375 116.074219 333.234375 117.574219 C 341.984375 119.070312 350.578125 121.195312 359.019531 123.941406 C 367.460938 126.6875 375.660156 130.03125 383.617188 133.96875 C 391.570312 137.90625 399.199219 142.398438 406.503906 147.441406 L 415.039062 135.4375 L 458.566406 75.554688 L 467.546875 63.644531 C 461.703125 59.515625 455.714844 55.613281 449.578125 51.933594 C 443.441406 48.253906 437.175781 44.808594 430.78125 41.597656 C 424.386719 38.386719 417.878906 35.417969 411.261719 32.695312 C 404.644531 29.972656 397.9375 27.5 391.132812 25.277344 C 384.332031 23.058594 377.457031 21.09375 370.507812 19.386719 C 363.558594 17.679688 356.554688 16.238281 349.496094 15.054688 C 342.4375 13.871094 335.347656 12.957031 328.21875 12.304688 C 321.09375 11.65625 313.953125 11.269531 306.796875 11.15625 Z M 306.796875 26.136719 " fill-opacity="1" fill-rule="nonzero"/></g><path fill="#e6ed7d" d="M 476.183594 238.085938 L 490.328125 233.472656 L 560.800781 210.601562 L 575.046875 205.988281 C 572.699219 199.238281 570.109375 192.585938 567.277344 186.023438 C 564.441406 179.464844 561.371094 173.019531 558.0625 166.6875 C 554.757812 160.351562 551.222656 154.148438 547.460938 148.074219 C 543.695312 142 539.71875 136.070312 535.519531 130.289062 C 531.320312 124.507812 526.917969 118.886719 522.308594 113.425781 C 517.699219 107.96875 512.894531 102.683594 507.894531 97.578125 C 502.898438 92.46875 497.71875 87.554688 492.359375 82.824219 C 487.003906 78.097656 481.476562 73.574219 475.785156 69.253906 L 467 81.359375 L 423.425781 141.289062 L 414.742188 153.296875 C 421.746094 158.722656 428.332031 164.617188 434.496094 170.980469 C 440.660156 177.347656 446.34375 184.117188 451.542969 191.289062 C 456.742188 198.464844 461.402344 205.972656 465.53125 213.808594 C 469.660156 221.648438 473.210938 229.742188 476.183594 238.085938 Z M 476.183594 238.085938 " fill-opacity="1" fill-rule="nonzero"/><path fill="#e6ed7d" d="M 578.074219 215.414062 L 563.929688 220.027344 L 536.335938 228.957031 L 493.40625 242.898438 L 479.261719 247.511719 C 481.777344 256.023438 483.671875 264.667969 484.945312 273.449219 C 486.21875 282.230469 486.855469 291.058594 486.855469 299.929688 C 486.855469 308.804688 486.21875 317.628906 484.945312 326.410156 C 483.671875 335.191406 481.777344 343.835938 479.261719 352.347656 L 493.40625 356.960938 L 536.335938 370.902344 L 563.929688 379.832031 L 578.074219 384.445312 C 580.167969 377.609375 582.003906 370.703125 583.585938 363.726562 C 585.167969 356.753906 586.488281 349.730469 587.546875 342.660156 C 588.605469 335.585938 589.398438 328.484375 589.929688 321.351562 C 590.460938 314.222656 590.726562 307.082031 590.726562 299.929688 C 590.726562 292.777344 590.460938 285.636719 589.929688 278.507812 C 589.398438 271.375 588.605469 264.273438 587.546875 257.199219 C 586.488281 250.128906 585.167969 243.105469 583.585938 236.132812 C 582.003906 229.15625 580.167969 222.25 578.074219 215.414062 Z M 578.074219 215.414062 " fill-opacity="1" fill-rule="nonzero"/><path fill="#e6ed7d" d="M 423.230469 458.570312 L 466.804688 518.5 L 475.585938 530.605469 C 481.28125 526.289062 486.804688 521.769531 492.164062 517.042969 C 497.523438 512.320312 502.703125 507.40625 507.703125 502.300781 C 512.703125 497.199219 517.507812 491.917969 522.117188 486.460938 C 526.726562 481.003906 531.132812 475.382812 535.328125 469.601562 C 539.527344 463.824219 543.507812 457.894531 547.269531 451.824219 C 551.03125 445.75 554.566406 439.546875 557.871094 433.214844 C 561.179688 426.882812 564.25 420.4375 567.082031 413.878906 C 569.914062 407.324219 572.503906 400.671875 574.847656 393.921875 L 560.601562 389.257812 L 490.328125 366.289062 L 476.183594 361.722656 C 473.191406 370.074219 469.625 378.167969 465.480469 386.011719 C 461.335938 393.851562 456.65625 401.359375 451.441406 408.535156 C 446.226562 415.707031 440.527344 422.476562 434.347656 428.835938 C 428.164062 435.199219 421.566406 441.089844 414.542969 446.511719 Z M 423.230469 458.570312 " fill-opacity="1" fill-rule="nonzero"/><g clip-path="url(#b10205fad9)"><path fill="#e6ed7d" d="M 306.796875 499.699219 L 306.796875 588.703125 C 313.949219 588.601562 321.089844 588.230469 328.210938 587.589844 C 335.335938 586.953125 342.425781 586.046875 349.484375 584.875 C 356.539062 583.707031 363.542969 582.273438 370.492188 580.578125 C 377.441406 578.882812 384.316406 576.929688 391.121094 574.71875 C 397.921875 572.507812 404.632812 570.046875 411.25 567.332031 C 417.867188 564.617188 424.375 561.660156 430.769531 558.457031 C 437.167969 555.257812 443.433594 551.820312 449.570312 548.148438 C 455.710938 544.476562 461.703125 540.582031 467.546875 536.460938 L 458.761719 524.304688 L 415.039062 464.421875 L 406.304688 452.417969 C 399.003906 457.460938 391.371094 461.953125 383.417969 465.890625 C 375.460938 469.828125 367.261719 473.171875 358.820312 475.917969 C 350.382812 478.664062 341.785156 480.789062 333.035156 482.285156 C 324.285156 483.785156 315.472656 484.644531 306.597656 484.863281 Z M 306.796875 499.699219 " fill-opacity="1" fill-rule="nonzero"/></g><g clip-path="url(#7586975348)"><path fill="#e6ed7d" d="M 296.871094 573.769531 L 296.871094 484.863281 C 287.992188 484.648438 279.175781 483.789062 270.421875 482.292969 C 261.667969 480.792969 253.070312 478.671875 244.625 475.925781 C 236.175781 473.179688 227.976562 469.835938 220.015625 465.894531 C 212.054688 461.957031 204.421875 457.464844 197.117188 452.417969 L 188.382812 464.421875 L 144.855469 524.304688 L 136.074219 536.460938 C 141.921875 540.582031 147.914062 544.480469 154.054688 548.152344 C 160.195312 551.824219 166.464844 555.261719 172.863281 558.460938 C 179.257812 561.664062 185.769531 564.621094 192.386719 567.335938 C 199.007812 570.050781 205.71875 572.511719 212.523438 574.722656 C 219.328125 576.933594 226.207031 578.886719 233.160156 580.582031 C 240.109375 582.277344 247.113281 583.710938 254.171875 584.878906 C 261.230469 586.050781 268.324219 586.953125 275.449219 587.59375 C 282.578125 588.230469 289.71875 588.601562 296.871094 588.703125 Z M 296.871094 573.769531 " fill-opacity="1" fill-rule="nonzero"/></g><path fill="#000000" d="M 200.9375 351.402344 C 199.691406 349.941406 198.597656 348.371094 197.652344 346.699219 C 196.710938 345.023438 195.9375 343.273438 195.332031 341.449219 C 194.730469 339.625 194.304688 337.761719 194.0625 335.855469 C 193.820312 333.949219 193.761719 332.035156 193.890625 330.121094 L 193.890625 270.582031 C 193.890625 250.738281 203.054688 240.816406 221.386719 240.816406 C 223.207031 240.703125 225.023438 240.78125 226.832031 241.050781 C 228.636719 241.320312 230.394531 241.777344 232.105469 242.417969 C 233.816406 243.058594 235.441406 243.871094 236.980469 244.855469 C 238.519531 245.839844 239.9375 246.972656 241.238281 248.257812 C 242.453125 249.738281 243.519531 251.324219 244.4375 253.007812 C 245.355469 254.691406 246.109375 256.445312 246.695312 258.273438 C 247.28125 260.097656 247.691406 261.960938 247.925781 263.867188 C 248.160156 265.769531 248.210938 267.675781 248.085938 269.589844 L 248.085938 272.023438 L 231.410156 272.023438 L 231.410156 268.746094 C 231.410156 261.257812 228.285156 257.484375 222.082031 257.484375 C 220.652344 257.378906 219.273438 257.59375 217.945312 258.136719 C 216.621094 258.675781 215.484375 259.484375 214.535156 260.5625 C 213.566406 262.21875 212.875 263.980469 212.460938 265.851562 C 212.046875 267.726562 211.925781 269.617188 212.105469 271.527344 L 212.105469 293.503906 L 212.402344 293.503906 C 212.746094 292.726562 213.144531 291.976562 213.601562 291.257812 C 214.0625 290.539062 214.570312 289.863281 215.132812 289.222656 C 215.695312 288.582031 216.300781 287.988281 216.953125 287.441406 C 217.605469 286.894531 218.296875 286.398438 219.023438 285.957031 C 219.753906 285.519531 220.511719 285.132812 221.296875 284.808594 C 222.085938 284.484375 222.890625 284.21875 223.71875 284.019531 C 224.546875 283.816406 225.382812 283.679688 226.234375 283.605469 C 227.082031 283.535156 227.929688 283.523438 228.78125 283.582031 C 230.203125 283.503906 231.609375 283.59375 233.011719 283.855469 C 234.410156 284.117188 235.757812 284.542969 237.050781 285.132812 C 238.347656 285.71875 239.554688 286.453125 240.675781 287.332031 C 241.792969 288.210938 242.792969 289.210938 243.667969 290.328125 C 245.519531 293.21875 246.871094 296.328125 247.71875 299.652344 C 248.570312 302.980469 248.875 306.355469 248.632812 309.777344 L 248.632812 330.269531 C 248.734375 332.179688 248.648438 334.085938 248.382812 335.984375 C 248.117188 337.882812 247.667969 339.734375 247.042969 341.546875 C 246.417969 343.359375 245.625 345.09375 244.667969 346.75 C 243.707031 348.410156 242.597656 349.960938 241.335938 351.402344 C 240.636719 352.007812 239.914062 352.578125 239.164062 353.113281 C 238.417969 353.652344 237.644531 354.15625 236.851562 354.625 C 236.058594 355.09375 235.246094 355.527344 234.410156 355.925781 C 233.578125 356.320312 232.730469 356.679688 231.867188 357 C 231 357.324219 230.125 357.605469 229.234375 357.847656 C 228.34375 358.09375 227.445312 358.296875 226.539062 358.457031 C 225.632812 358.621094 224.71875 358.746094 223.800781 358.824219 C 222.878906 358.90625 221.960938 358.949219 221.039062 358.949219 C 220.117188 358.949219 219.195312 358.90625 218.277344 358.824219 C 217.359375 358.746094 216.445312 358.621094 215.535156 358.457031 C 214.628906 358.296875 213.730469 358.09375 212.839844 357.847656 C 211.953125 357.605469 211.074219 357.324219 210.210938 357 C 209.34375 356.679688 208.496094 356.320312 207.664062 355.925781 C 206.832031 355.527344 206.019531 355.09375 205.226562 354.625 C 204.429688 354.15625 203.660156 353.652344 202.910156 353.113281 C 202.160156 352.578125 201.4375 352.007812 200.738281 351.402344 Z M 230.714844 331.558594 L 230.714844 311.265625 C 230.714844 303.726562 227.589844 299.953125 221.386719 299.953125 C 215.183594 299.953125 212.054688 303.726562 212.054688 311.265625 L 212.054688 331.558594 C 212.054688 339 215.183594 342.722656 221.386719 342.722656 C 227.589844 342.722656 230.566406 338.800781 230.566406 331.558594 Z M 230.714844 331.558594 " fill-opacity="1" fill-rule="nonzero"/><path fill="#000000" d="M 266.152344 351.402344 C 264.90625 349.941406 263.808594 348.371094 262.867188 346.699219 C 261.925781 345.023438 261.152344 343.273438 260.546875 341.449219 C 259.941406 339.625 259.519531 337.761719 259.277344 335.855469 C 259.035156 333.949219 258.976562 332.035156 259.105469 330.121094 L 259.105469 269.789062 C 258.984375 267.871094 259.046875 265.960938 259.289062 264.058594 C 259.535156 262.152344 259.960938 260.289062 260.566406 258.464844 C 261.167969 256.640625 261.941406 254.890625 262.878906 253.21875 C 263.820312 251.542969 264.910156 249.972656 266.152344 248.503906 C 266.851562 247.90625 267.578125 247.339844 268.328125 246.804688 C 269.078125 246.269531 269.847656 245.769531 270.644531 245.304688 C 271.4375 244.835938 272.25 244.40625 273.085938 244.011719 C 273.917969 243.617188 274.765625 243.261719 275.628906 242.941406 C 276.492188 242.621094 277.371094 242.34375 278.261719 242.101562 C 279.148438 241.859375 280.046875 241.65625 280.953125 241.496094 C 281.859375 241.332031 282.773438 241.210938 283.691406 241.128906 C 284.609375 241.046875 285.527344 241.007812 286.449219 241.007812 C 287.371094 241.007812 288.289062 241.046875 289.207031 241.128906 C 290.125 241.210938 291.039062 241.332031 291.945312 241.496094 C 292.851562 241.65625 293.75 241.859375 294.640625 242.101562 C 295.527344 242.34375 296.40625 242.621094 297.269531 242.941406 C 298.132812 243.261719 298.980469 243.617188 299.816406 244.011719 C 300.648438 244.40625 301.460938 244.835938 302.253906 245.304688 C 303.050781 245.769531 303.824219 246.269531 304.574219 246.804688 C 305.324219 247.339844 306.046875 247.90625 306.75 248.503906 C 307.988281 249.972656 309.078125 251.542969 310.019531 253.21875 C 310.960938 254.890625 311.730469 256.640625 312.335938 258.464844 C 312.9375 260.289062 313.363281 262.152344 313.609375 264.058594 C 313.855469 265.960938 313.917969 267.871094 313.796875 269.789062 L 313.796875 330.070312 C 313.914062 331.996094 313.84375 333.917969 313.585938 335.832031 C 313.328125 337.746094 312.890625 339.621094 312.269531 341.449219 C 311.648438 343.277344 310.855469 345.03125 309.894531 346.703125 C 308.933594 348.378906 307.816406 349.945312 306.550781 351.402344 C 305.851562 352 305.132812 352.5625 304.386719 353.09375 C 303.636719 353.628906 302.871094 354.125 302.078125 354.589844 C 301.289062 355.054688 300.480469 355.480469 299.648438 355.875 C 298.820312 356.265625 297.976562 356.621094 297.117188 356.9375 C 296.257812 357.257812 295.386719 357.535156 294.5 357.777344 C 293.617188 358.015625 292.722656 358.21875 291.820312 358.378906 C 290.917969 358.539062 290.007812 358.660156 289.09375 358.742188 C 288.183594 358.824219 287.265625 358.863281 286.351562 358.863281 C 285.433594 358.863281 284.519531 358.824219 283.605469 358.742188 C 282.691406 358.660156 281.785156 358.539062 280.882812 358.378906 C 279.980469 358.21875 279.085938 358.015625 278.199219 357.777344 C 277.316406 357.535156 276.445312 357.257812 275.582031 356.9375 C 274.722656 356.621094 273.878906 356.265625 273.050781 355.875 C 272.222656 355.480469 271.414062 355.054688 270.621094 354.589844 C 269.832031 354.125 269.0625 353.628906 268.316406 353.09375 C 267.570312 352.5625 266.847656 352 266.152344 351.402344 Z M 295.929688 331.261719 L 295.929688 268.648438 C 295.929688 261.15625 292.800781 257.386719 286.597656 257.386719 C 280.394531 257.386719 277.269531 261.15625 277.269531 268.648438 L 277.269531 331.210938 C 277.269531 338.753906 280.394531 342.523438 286.597656 342.523438 C 292.800781 342.523438 295.582031 338.753906 295.582031 331.210938 Z M 295.929688 331.261719 " fill-opacity="1" fill-rule="nonzero"/><path fill="#000000" d="M 329.179688 301.789062 C 327.582031 299.898438 326.398438 297.777344 325.625 295.425781 C 324.851562 293.074219 324.550781 290.664062 324.714844 288.195312 L 324.714844 259.320312 C 324.550781 256.851562 324.851562 254.441406 325.625 252.089844 C 326.398438 249.738281 327.582031 247.617188 329.179688 245.726562 C 330.074219 244.960938 331.027344 244.28125 332.039062 243.683594 C 333.054688 243.085938 334.113281 242.585938 335.214844 242.175781 C 336.320312 241.769531 337.449219 241.460938 338.609375 241.253906 C 339.765625 241.046875 340.933594 240.941406 342.109375 240.941406 C 343.285156 240.941406 344.453125 241.046875 345.609375 241.253906 C 346.769531 241.460938 347.898438 241.769531 349.003906 242.175781 C 350.105469 242.585938 351.164062 243.085938 352.179688 243.683594 C 353.191406 244.28125 354.144531 244.960938 355.039062 245.726562 C 356.617188 247.625 357.789062 249.75 358.550781 252.101562 C 359.316406 254.449219 359.617188 256.855469 359.453125 259.320312 L 359.453125 287.996094 C 359.617188 290.460938 359.316406 292.871094 358.550781 295.21875 C 357.789062 297.566406 356.617188 299.691406 355.039062 301.589844 C 354.144531 302.359375 353.191406 303.039062 352.179688 303.636719 C 351.164062 304.230469 350.105469 304.734375 349.003906 305.140625 C 347.898438 305.550781 346.769531 305.859375 345.609375 306.066406 C 344.453125 306.273438 343.285156 306.378906 342.109375 306.378906 C 340.933594 306.378906 339.765625 306.273438 338.609375 306.066406 C 337.449219 305.859375 336.320312 305.550781 335.214844 305.140625 C 334.113281 304.734375 333.054688 304.230469 332.039062 303.636719 C 331.027344 303.039062 330.074219 302.359375 329.179688 301.589844 Z M 347.992188 288.988281 L 347.992188 258.726562 C 347.992188 253.765625 346.003906 251.53125 342.085938 251.53125 C 338.164062 251.53125 336.179688 253.914062 336.179688 258.726562 L 336.179688 288.988281 C 336.179688 293.953125 338.164062 296.234375 342.085938 296.234375 C 346.003906 296.234375 347.992188 293.605469 347.992188 288.792969 Z M 383.675781 242.847656 L 395.1875 242.847656 L 350.820312 357.457031 L 339.355469 357.457031 Z M 379.457031 354.332031 C 377.867188 352.4375 376.691406 350.3125 375.925781 347.960938 C 375.164062 345.613281 374.867188 343.203125 375.039062 340.738281 L 375.039062 311.714844 C 374.867188 309.246094 375.164062 306.839844 375.925781 304.488281 C 376.691406 302.136719 377.867188 300.011719 379.457031 298.117188 C 380.347656 297.351562 381.300781 296.671875 382.316406 296.074219 C 383.328125 295.480469 384.386719 294.976562 385.492188 294.566406 C 386.59375 294.160156 387.722656 293.851562 388.882812 293.644531 C 390.039062 293.4375 391.207031 293.332031 392.382812 293.332031 C 393.558594 293.332031 394.726562 293.4375 395.886719 293.644531 C 397.042969 293.851562 398.175781 294.160156 399.277344 294.566406 C 400.378906 294.976562 401.4375 295.480469 402.453125 296.074219 C 403.464844 296.671875 404.417969 297.351562 405.3125 298.117188 C 406.890625 300.019531 408.0625 302.144531 408.828125 304.492188 C 409.589844 306.839844 409.890625 309.25 409.730469 311.714844 L 409.730469 340.339844 C 409.890625 342.804688 409.589844 345.210938 408.828125 347.5625 C 408.0625 349.910156 406.890625 352.035156 405.3125 353.933594 C 404.417969 354.699219 403.464844 355.382812 402.453125 355.976562 C 401.4375 356.574219 400.378906 357.078125 399.277344 357.484375 C 398.175781 357.894531 397.042969 358.199219 395.886719 358.410156 C 394.726562 358.617188 393.558594 358.71875 392.382812 358.71875 C 391.207031 358.71875 390.039062 358.617188 388.882812 358.40625 C 387.726562 358.199219 386.59375 357.894531 385.492188 357.484375 C 384.386719 357.078125 383.328125 356.574219 382.316406 355.976562 C 381.300781 355.382812 380.347656 354.699219 379.457031 353.933594 Z M 398.265625 341.582031 L 398.265625 311.265625 C 398.265625 306.304688 396.328125 304.074219 392.359375 304.074219 C 388.390625 304.074219 386.503906 306.453125 386.503906 311.265625 L 386.503906 341.480469 C 386.503906 346.441406 388.4375 348.675781 392.359375 348.675781 C 396.28125 348.675781 398.265625 346.144531 398.265625 341.480469 Z M 398.265625 341.582031 " fill-opacity="1" fill-rule="nonzero"/></svg>