<svg xmlns="http://www.w3.org/2000/svg" xmlns:xlink="http://www.w3.org/1999/xlink" width="800" zoomAndPan="magnify" viewBox="0 0 600 599.999999" height="800" preserveAspectRatio="xMidYMid meet" version="1.0"><defs><clipPath id="f0dd41b465"><path d="M 304 12.238281 L 463 12.238281 L 463 98 L 304 98 Z M 304 12.238281 " clip-rule="nonzero"/></clipPath><clipPath id="c7b9f7508d"><path d="M 137 12.238281 L 296 12.238281 L 296 98 L 137 98 Z M 137 12.238281 " clip-rule="nonzero"/></clipPath></defs><g clip-path="url(#f0dd41b465)"><path fill="#65a15a" d="M 442.902344 94.703125 L 461.082031 69.707031 C 461.332031 69.363281 461.542969 69 461.714844 68.613281 C 461.886719 68.226562 462.019531 67.828125 462.113281 67.414062 C 462.207031 67.003906 462.257812 66.585938 462.265625 66.160156 C 462.273438 65.738281 462.242188 65.320312 462.164062 64.902344 C 462.089844 64.488281 461.972656 64.082031 461.8125 63.691406 C 461.65625 63.296875 461.460938 62.925781 461.226562 62.574219 C 460.996094 62.21875 460.730469 61.894531 460.429688 61.59375 C 460.132812 61.296875 459.804688 61.027344 459.453125 60.796875 C 448.496094 53.464844 437.085938 46.925781 425.226562 41.171875 C 413.367188 35.421875 401.167969 30.515625 388.625 26.449219 C 376.085938 22.386719 363.328125 19.203125 350.347656 16.90625 C 337.367188 14.605469 324.292969 13.210938 311.121094 12.722656 C 310.699219 12.703125 310.28125 12.726562 309.863281 12.796875 C 309.445312 12.863281 309.042969 12.972656 308.648438 13.121094 C 308.253906 13.269531 307.875 13.457031 307.519531 13.679688 C 307.164062 13.90625 306.832031 14.164062 306.527344 14.457031 C 306.222656 14.75 305.949219 15.066406 305.710938 15.414062 C 305.46875 15.761719 305.265625 16.128906 305.101562 16.515625 C 304.933594 16.90625 304.808594 17.304688 304.726562 17.71875 C 304.640625 18.132812 304.597656 18.546875 304.597656 18.96875 L 304.597656 49.875 C 304.59375 50.273438 304.628906 50.664062 304.703125 51.054688 C 304.777344 51.445312 304.886719 51.824219 305.035156 52.195312 C 305.179688 52.5625 305.363281 52.914062 305.574219 53.25 C 305.789062 53.582031 306.03125 53.894531 306.304688 54.179688 C 306.578125 54.46875 306.878906 54.726562 307.199219 54.957031 C 307.523438 55.1875 307.867188 55.386719 308.226562 55.550781 C 308.585938 55.71875 308.960938 55.847656 309.347656 55.941406 C 309.730469 56.035156 310.121094 56.089844 310.519531 56.109375 C 321.519531 56.574219 332.4375 57.78125 343.269531 59.730469 C 354.105469 61.683594 364.757812 64.359375 375.230469 67.761719 C 385.699219 71.160156 395.894531 75.253906 405.804688 80.042969 C 415.71875 84.828125 425.265625 90.265625 434.4375 96.351562 C 434.773438 96.570312 435.125 96.753906 435.496094 96.902344 C 435.863281 97.050781 436.246094 97.160156 436.636719 97.238281 C 437.027344 97.3125 437.421875 97.351562 437.820312 97.351562 C 438.21875 97.351562 438.613281 97.3125 439.003906 97.234375 C 439.394531 97.160156 439.773438 97.046875 440.144531 96.898438 C 440.511719 96.75 440.863281 96.566406 441.199219 96.347656 C 441.53125 96.132812 441.84375 95.886719 442.128906 95.609375 C 442.417969 95.332031 442.675781 95.03125 442.902344 94.703125 Z M 442.902344 94.703125 " fill-opacity="1" fill-rule="nonzero"/></g><path fill="#333333" d="M 148.949219 100.214844 L 130.855469 75.320312 C 130.605469 74.976562 130.324219 74.664062 130.011719 74.378906 C 129.699219 74.09375 129.359375 73.84375 128.996094 73.628906 C 128.632812 73.410156 128.25 73.234375 127.851562 73.09375 C 127.449219 72.953125 127.042969 72.855469 126.621094 72.800781 C 126.203125 72.746094 125.78125 72.730469 125.359375 72.761719 C 124.9375 72.789062 124.523438 72.859375 124.113281 72.972656 C 123.707031 73.085938 123.3125 73.238281 122.9375 73.433594 C 122.558594 73.625 122.207031 73.855469 121.875 74.117188 C 111.527344 82.277344 101.789062 91.105469 92.652344 100.601562 C 83.519531 110.097656 75.078125 120.175781 67.324219 130.832031 C 59.574219 141.484375 52.585938 152.621094 46.363281 164.238281 C 40.140625 175.851562 34.742188 187.835938 30.164062 200.195312 C 30.015625 200.589844 29.910156 200.996094 29.84375 201.414062 C 29.78125 201.832031 29.757812 202.25 29.777344 202.671875 C 29.796875 203.09375 29.855469 203.507812 29.960938 203.917969 C 30.0625 204.328125 30.207031 204.722656 30.386719 205.101562 C 30.570312 205.484375 30.789062 205.84375 31.042969 206.179688 C 31.300781 206.515625 31.585938 206.824219 31.902344 207.101562 C 32.21875 207.378906 32.5625 207.625 32.925781 207.835938 C 33.292969 208.046875 33.675781 208.214844 34.078125 208.347656 L 63.488281 217.894531 C 63.863281 218.019531 64.25 218.105469 64.644531 218.15625 C 65.035156 218.203125 65.429688 218.214844 65.828125 218.191406 C 66.222656 218.164062 66.613281 218.101562 66.996094 218 C 67.378906 217.902344 67.75 217.765625 68.109375 217.59375 C 68.46875 217.421875 68.804688 217.21875 69.125 216.984375 C 69.445312 216.75 69.738281 216.484375 70.007812 216.191406 C 70.273438 215.902344 70.511719 215.585938 70.722656 215.25 C 70.929688 214.910156 71.105469 214.558594 71.246094 214.1875 C 75.113281 203.886719 79.652344 193.894531 84.863281 184.207031 C 90.078125 174.523438 95.917969 165.230469 102.382812 156.332031 C 108.851562 147.433594 115.886719 139.007812 123.492188 131.058594 C 131.09375 123.109375 139.195312 115.707031 147.800781 108.851562 C 148.109375 108.597656 148.394531 108.316406 148.652344 108.011719 C 148.910156 107.703125 149.136719 107.375 149.332031 107.023438 C 149.527344 106.675781 149.6875 106.308594 149.8125 105.929688 C 149.9375 105.546875 150.027344 105.160156 150.082031 104.761719 C 150.132812 104.363281 150.148438 103.964844 150.128906 103.566406 C 150.105469 103.164062 150.046875 102.769531 149.949219 102.382812 C 149.851562 101.992188 149.71875 101.617188 149.550781 101.25 C 149.382812 100.886719 149.183594 100.542969 148.949219 100.214844 Z M 148.949219 100.214844 " fill-opacity="1" fill-rule="nonzero"/><path fill="#65a15a" d="M 156.742188 504.847656 L 138.5625 529.847656 C 138.316406 530.191406 138.109375 530.558594 137.9375 530.949219 C 137.769531 531.335938 137.636719 531.738281 137.546875 532.152344 C 137.457031 532.566406 137.410156 532.984375 137.40625 533.410156 C 137.402344 533.832031 137.441406 534.253906 137.519531 534.667969 C 137.601562 535.085938 137.722656 535.488281 137.882812 535.878906 C 138.046875 536.273438 138.246094 536.644531 138.480469 536.996094 C 138.71875 537.347656 138.988281 537.671875 139.292969 537.96875 C 139.59375 538.265625 139.921875 538.527344 140.28125 538.757812 C 151.234375 546.09375 162.640625 552.644531 174.5 558.402344 C 186.359375 564.160156 198.558594 569.078125 211.097656 573.148438 C 223.640625 577.21875 236.398438 580.40625 249.378906 582.714844 C 262.359375 585.019531 275.4375 586.421875 288.613281 586.917969 C 289.035156 586.933594 289.453125 586.910156 289.871094 586.84375 C 290.285156 586.777344 290.691406 586.667969 291.085938 586.519531 C 291.480469 586.371094 291.855469 586.183594 292.210938 585.957031 C 292.570312 585.730469 292.898438 585.472656 293.203125 585.183594 C 293.507812 584.890625 293.78125 584.570312 294.023438 584.222656 C 294.261719 583.878906 294.464844 583.511719 294.632812 583.121094 C 294.796875 582.734375 294.921875 582.335938 295.007812 581.921875 C 295.09375 581.507812 295.136719 581.089844 295.136719 580.667969 L 295.136719 549.761719 C 295.136719 549.367188 295.101562 548.972656 295.027344 548.582031 C 294.953125 548.191406 294.84375 547.8125 294.699219 547.445312 C 294.550781 547.078125 294.371094 546.726562 294.15625 546.390625 C 293.945312 546.054688 293.699219 545.746094 293.425781 545.457031 C 293.152344 545.171875 292.855469 544.910156 292.53125 544.679688 C 292.207031 544.449219 291.867188 544.253906 291.507812 544.085938 C 291.144531 543.921875 290.773438 543.792969 290.386719 543.699219 C 290 543.605469 289.609375 543.550781 289.214844 543.53125 C 278.210938 543.066406 267.292969 541.855469 256.457031 539.90625 C 245.621094 537.953125 234.96875 535.277344 224.496094 531.878906 C 214.023438 528.476562 203.828125 524.382812 193.914062 519.59375 C 184 514.808594 174.453125 509.371094 165.277344 503.285156 C 164.945312 503.0625 164.59375 502.871094 164.222656 502.714844 C 163.851562 502.558594 163.472656 502.4375 163.078125 502.355469 C 162.683594 502.273438 162.289062 502.230469 161.886719 502.222656 C 161.484375 502.21875 161.085938 502.253906 160.691406 502.324219 C 160.296875 502.398438 159.910156 502.507812 159.539062 502.65625 C 159.164062 502.800781 158.808594 502.984375 158.46875 503.199219 C 158.132812 503.414062 157.816406 503.664062 157.527344 503.941406 C 157.238281 504.21875 156.976562 504.519531 156.742188 504.847656 Z M 156.742188 504.847656 " fill-opacity="1" fill-rule="nonzero"/><path fill="#65a15a" d="M 63.488281 381.589844 L 34.078125 391.152344 C 33.671875 391.28125 33.285156 391.453125 32.914062 391.664062 C 32.542969 391.871094 32.199219 392.117188 31.878906 392.398438 C 31.558594 392.675781 31.269531 392.988281 31.011719 393.324219 C 30.753906 393.664062 30.535156 394.027344 30.351562 394.410156 C 30.167969 394.796875 30.023438 395.195312 29.921875 395.609375 C 29.820312 396.019531 29.761719 396.441406 29.746094 396.867188 C 29.730469 397.292969 29.757812 397.714844 29.828125 398.132812 C 29.898438 398.554688 30.007812 398.960938 30.164062 399.359375 C 34.738281 411.722656 40.136719 423.714844 46.359375 435.335938 C 52.578125 446.957031 59.566406 458.097656 67.316406 468.757812 C 75.070312 479.421875 83.511719 489.503906 92.648438 499.003906 C 101.785156 508.507812 111.527344 517.339844 121.875 525.503906 C 122.207031 525.765625 122.558594 525.996094 122.9375 526.1875 C 123.3125 526.382812 123.707031 526.535156 124.113281 526.648438 C 124.523438 526.761719 124.9375 526.832031 125.359375 526.863281 C 125.78125 526.890625 126.203125 526.878906 126.621094 526.820312 C 127.042969 526.765625 127.449219 526.667969 127.851562 526.527344 C 128.25 526.390625 128.632812 526.210938 128.996094 525.996094 C 129.359375 525.777344 129.699219 525.527344 130.011719 525.242188 C 130.324219 524.957031 130.605469 524.644531 130.855469 524.300781 L 148.949219 499.40625 C 149.1875 499.078125 149.394531 498.730469 149.566406 498.363281 C 149.738281 498 149.871094 497.617188 149.972656 497.226562 C 150.074219 496.832031 150.132812 496.4375 150.15625 496.03125 C 150.179688 495.628906 150.167969 495.222656 150.113281 494.824219 C 150.0625 494.421875 149.96875 494.027344 149.84375 493.644531 C 149.714844 493.261719 149.550781 492.890625 149.351562 492.539062 C 149.15625 492.1875 148.925781 491.855469 148.664062 491.546875 C 148.402344 491.238281 148.113281 490.953125 147.800781 490.699219 C 139.195312 483.84375 131.09375 476.441406 123.492188 468.492188 C 115.886719 460.542969 108.851562 452.121094 102.382812 443.222656 C 95.917969 434.324219 90.078125 425.03125 84.863281 415.34375 C 79.652344 405.65625 75.113281 395.664062 71.246094 385.367188 C 71.109375 384.992188 70.9375 384.632812 70.734375 384.292969 C 70.527344 383.949219 70.289062 383.632812 70.023438 383.335938 C 69.757812 383.039062 69.464844 382.773438 69.144531 382.53125 C 68.828125 382.292969 68.488281 382.085938 68.128906 381.910156 C 67.769531 381.734375 67.398438 381.597656 67.011719 381.496094 C 66.628906 381.390625 66.238281 381.328125 65.839844 381.296875 C 65.441406 381.269531 65.042969 381.28125 64.648438 381.332031 C 64.253906 381.378906 63.867188 381.464844 63.488281 381.589844 Z M 63.488281 381.589844 " fill-opacity="1" fill-rule="nonzero"/><path fill="#333333" d="M 55.828125 299.777344 C 55.800781 277.628906 58.730469 255.882812 64.621094 234.53125 C 64.726562 234.152344 64.792969 233.761719 64.824219 233.367188 C 64.855469 232.972656 64.847656 232.578125 64.804688 232.183594 C 64.757812 231.789062 64.675781 231.402344 64.558594 231.023438 C 64.441406 230.644531 64.285156 230.28125 64.097656 229.933594 C 63.910156 229.585938 63.6875 229.257812 63.4375 228.949219 C 63.183594 228.644531 62.90625 228.363281 62.601562 228.109375 C 62.296875 227.855469 61.96875 227.636719 61.621094 227.445312 C 61.273438 227.253906 60.910156 227.097656 60.535156 226.976562 L 31.140625 217.484375 C 30.738281 217.355469 30.328125 217.269531 29.90625 217.222656 C 29.484375 217.175781 29.0625 217.171875 28.640625 217.214844 C 28.21875 217.253906 27.808594 217.332031 27.402344 217.457031 C 26.996094 217.578125 26.605469 217.742188 26.234375 217.941406 C 25.863281 218.144531 25.511719 218.378906 25.1875 218.652344 C 24.863281 218.921875 24.570312 219.222656 24.304688 219.554688 C 24.039062 219.886719 23.8125 220.238281 23.617188 220.617188 C 23.425781 220.992188 23.273438 221.386719 23.160156 221.792969 C 19.605469 234.484375 16.929688 247.359375 15.136719 260.417969 C 13.34375 273.476562 12.445312 286.597656 12.445312 299.777344 C 12.445312 312.957031 13.34375 326.078125 15.136719 339.132812 C 16.929688 352.191406 19.605469 365.066406 23.160156 377.761719 C 23.273438 378.167969 23.425781 378.558594 23.617188 378.9375 C 23.8125 379.3125 24.039062 379.667969 24.304688 380 C 24.570312 380.328125 24.863281 380.632812 25.1875 380.902344 C 25.511719 381.175781 25.863281 381.410156 26.234375 381.609375 C 26.605469 381.8125 26.996094 381.972656 27.402344 382.097656 C 27.808594 382.21875 28.21875 382.300781 28.640625 382.339844 C 29.0625 382.378906 29.484375 382.375 29.90625 382.332031 C 30.328125 382.285156 30.738281 382.199219 31.140625 382.070312 L 60.550781 372.507812 C 60.925781 372.382812 61.28125 372.230469 61.625 372.039062 C 61.96875 371.847656 62.292969 371.628906 62.59375 371.378906 C 62.894531 371.125 63.171875 370.847656 63.421875 370.546875 C 63.667969 370.242188 63.886719 369.917969 64.074219 369.574219 C 64.261719 369.226562 64.417969 368.867188 64.535156 368.496094 C 64.65625 368.121094 64.738281 367.738281 64.785156 367.347656 C 64.832031 366.960938 64.839844 366.570312 64.8125 366.175781 C 64.785156 365.785156 64.71875 365.398438 64.621094 365.019531 C 58.730469 343.671875 55.800781 321.921875 55.828125 299.777344 Z M 55.828125 299.777344 " fill-opacity="1" fill-rule="nonzero"/><path fill="#65a15a" d="M 536.160156 217.964844 L 565.570312 208.417969 C 565.96875 208.285156 566.351562 208.113281 566.71875 207.902344 C 567.085938 207.695312 567.425781 207.449219 567.742188 207.171875 C 568.0625 206.890625 568.347656 206.585938 568.601562 206.246094 C 568.855469 205.910156 569.074219 205.550781 569.257812 205.171875 C 569.441406 204.792969 569.585938 204.394531 569.6875 203.988281 C 569.789062 203.578125 569.851562 203.160156 569.871094 202.738281 C 569.890625 202.316406 569.867188 201.898438 569.800781 201.480469 C 569.738281 201.066406 569.628906 200.660156 569.484375 200.261719 C 564.910156 187.898438 559.511719 175.90625 553.289062 164.285156 C 547.066406 152.664062 540.082031 141.523438 532.328125 130.863281 C 524.578125 120.199219 516.132812 110.121094 507 100.617188 C 497.863281 91.117188 488.121094 82.28125 477.769531 74.117188 C 477.441406 73.855469 477.085938 73.625 476.710938 73.433594 C 476.332031 73.238281 475.941406 73.085938 475.53125 72.972656 C 475.125 72.859375 474.710938 72.789062 474.289062 72.761719 C 473.867188 72.730469 473.445312 72.746094 473.023438 72.800781 C 472.605469 72.855469 472.195312 72.953125 471.796875 73.09375 C 471.394531 73.234375 471.015625 73.410156 470.652344 73.628906 C 470.285156 73.84375 469.949219 74.09375 469.636719 74.378906 C 469.324219 74.664062 469.042969 74.976562 468.792969 75.320312 L 450.695312 100.214844 C 450.457031 100.542969 450.253906 100.890625 450.082031 101.257812 C 449.910156 101.625 449.773438 102.003906 449.675781 102.394531 C 449.574219 102.789062 449.511719 103.1875 449.488281 103.589844 C 449.464844 103.996094 449.480469 104.398438 449.53125 104.796875 C 449.585938 105.199219 449.675781 105.59375 449.804688 105.976562 C 449.933594 106.359375 450.09375 106.730469 450.292969 107.082031 C 450.492188 107.4375 450.722656 107.765625 450.984375 108.074219 C 451.242188 108.386719 451.53125 108.667969 451.847656 108.921875 C 460.449219 115.777344 468.550781 123.179688 476.15625 131.128906 C 483.757812 139.078125 490.796875 147.5 497.261719 156.398438 C 503.730469 165.296875 509.570312 174.589844 514.78125 184.277344 C 519.996094 193.964844 524.535156 203.957031 528.398438 214.253906 C 528.539062 214.625 528.714844 214.980469 528.925781 215.316406 C 529.132812 215.65625 529.371094 215.96875 529.640625 216.261719 C 529.910156 216.554688 530.203125 216.816406 530.523438 217.054688 C 530.839844 217.289062 531.179688 217.492188 531.539062 217.664062 C 531.894531 217.835938 532.265625 217.96875 532.652344 218.070312 C 533.035156 218.171875 533.425781 218.234375 533.820312 218.257812 C 534.214844 218.285156 534.609375 218.273438 535.003906 218.222656 C 535.398438 218.171875 535.78125 218.085938 536.160156 217.964844 Z M 536.160156 217.964844 " fill-opacity="1" fill-rule="nonzero"/><path fill="#65a15a" d="M 543.816406 299.777344 C 543.84375 321.921875 540.914062 343.671875 535.027344 365.019531 C 534.921875 365.402344 534.851562 365.792969 534.820312 366.1875 C 534.789062 366.582031 534.796875 366.976562 534.84375 367.371094 C 534.886719 367.765625 534.96875 368.152344 535.089844 368.53125 C 535.207031 368.90625 535.359375 369.269531 535.550781 369.621094 C 535.738281 369.96875 535.957031 370.296875 536.210938 370.601562 C 536.460938 370.910156 536.738281 371.191406 537.042969 371.441406 C 537.351562 371.695312 537.675781 371.917969 538.023438 372.109375 C 538.371094 372.296875 538.734375 372.453125 539.113281 372.574219 L 568.523438 382.136719 C 568.925781 382.265625 569.335938 382.355469 569.757812 382.398438 C 570.179688 382.445312 570.601562 382.449219 571.023438 382.410156 C 571.445312 382.371094 571.855469 382.289062 572.261719 382.164062 C 572.667969 382.042969 573.058594 381.882812 573.429688 381.679688 C 573.800781 381.480469 574.152344 381.242188 574.476562 380.972656 C 574.800781 380.699219 575.09375 380.398438 575.359375 380.066406 C 575.625 379.738281 575.851562 379.382812 576.046875 379.007812 C 576.238281 378.628906 576.390625 378.238281 576.503906 377.828125 C 580.058594 365.136719 582.734375 352.261719 584.527344 339.203125 C 586.320312 326.144531 587.21875 313.027344 587.21875 299.84375 C 587.21875 286.664062 586.320312 273.546875 584.527344 260.488281 C 582.734375 247.429688 580.058594 234.554688 576.503906 221.863281 C 576.390625 221.453125 576.238281 221.0625 576.046875 220.683594 C 575.851562 220.308594 575.625 219.953125 575.359375 219.621094 C 575.09375 219.292969 574.800781 218.992188 574.476562 218.71875 C 574.152344 218.449219 573.800781 218.210938 573.429688 218.011719 C 573.054688 217.808594 572.667969 217.648438 572.261719 217.523438 C 571.855469 217.402344 571.445312 217.320312 571.023438 217.28125 C 570.601562 217.242188 570.179688 217.246094 569.757812 217.289062 C 569.335938 217.335938 568.925781 217.421875 568.523438 217.550781 L 539.113281 227.117188 C 538.742188 227.234375 538.386719 227.390625 538.046875 227.578125 C 537.703125 227.765625 537.382812 227.984375 537.082031 228.234375 C 536.78125 228.480469 536.507812 228.753906 536.261719 229.054688 C 536.011719 229.355469 535.792969 229.675781 535.605469 230.015625 C 535.417969 230.359375 535.261719 230.714844 535.140625 231.085938 C 535.023438 231.457031 534.9375 231.832031 534.886719 232.21875 C 534.835938 232.605469 534.824219 232.992188 534.847656 233.382812 C 534.871094 233.773438 534.929688 234.15625 535.027344 234.53125 C 540.914062 255.882812 543.84375 277.628906 543.816406 299.777344 Z M 543.816406 299.777344 " fill-opacity="1" fill-rule="nonzero"/><path fill="#65a15a" d="M 304.597656 549.78125 L 304.597656 580.6875 C 304.597656 581.105469 304.640625 581.523438 304.726562 581.9375 C 304.808594 582.351562 304.933594 582.75 305.101562 583.140625 C 305.265625 583.527344 305.46875 583.894531 305.710938 584.242188 C 305.949219 584.589844 306.222656 584.90625 306.527344 585.199219 C 306.832031 585.492188 307.164062 585.75 307.519531 585.972656 C 307.875 586.199219 308.253906 586.386719 308.648438 586.535156 C 309.042969 586.683594 309.445312 586.792969 309.863281 586.859375 C 310.28125 586.925781 310.699219 586.953125 311.121094 586.933594 C 324.296875 586.441406 337.378906 585.039062 350.363281 582.734375 C 363.34375 580.429688 376.109375 577.242188 388.652344 573.167969 C 401.195312 569.097656 413.394531 564.183594 425.257812 558.421875 C 437.121094 552.664062 448.53125 546.113281 459.488281 538.773438 C 459.839844 538.542969 460.164062 538.273438 460.464844 537.976562 C 460.761719 537.675781 461.027344 537.351562 461.261719 536.996094 C 461.496094 536.644531 461.691406 536.273438 461.847656 535.878906 C 462.007812 535.488281 462.121094 535.082031 462.199219 534.667969 C 462.273438 534.25 462.308594 533.832031 462.300781 533.410156 C 462.292969 532.984375 462.242188 532.566406 462.148438 532.15625 C 462.054688 531.742188 461.921875 531.34375 461.75 530.957031 C 461.574219 530.570312 461.363281 530.207031 461.117188 529.863281 L 442.9375 504.847656 C 442.703125 504.527344 442.441406 504.230469 442.152344 503.957031 C 441.863281 503.6875 441.550781 503.445312 441.214844 503.230469 C 440.878906 503.019531 440.527344 502.839844 440.15625 502.699219 C 439.785156 502.554688 439.40625 502.445312 439.015625 502.375 C 438.625 502.300781 438.230469 502.269531 437.832031 502.273438 C 437.4375 502.277344 437.042969 502.320312 436.65625 502.398438 C 436.265625 502.480469 435.886719 502.59375 435.519531 502.746094 C 435.152344 502.898438 434.804688 503.085938 434.472656 503.304688 C 425.296875 509.394531 415.75 514.835938 405.835938 519.625 C 395.917969 524.417969 385.722656 528.515625 375.25 531.917969 C 364.777344 535.324219 354.121094 538 343.28125 539.953125 C 332.441406 541.90625 321.523438 543.117188 310.519531 543.582031 C 310.125 543.601562 309.734375 543.65625 309.351562 543.75 C 308.964844 543.84375 308.59375 543.972656 308.234375 544.136719 C 307.875 544.300781 307.535156 544.496094 307.210938 544.722656 C 306.890625 544.953125 306.589844 545.210938 306.316406 545.496094 C 306.042969 545.78125 305.800781 546.089844 305.585938 546.425781 C 305.371094 546.757812 305.191406 547.105469 305.042969 547.472656 C 304.898438 547.839844 304.785156 548.21875 304.710938 548.605469 C 304.636719 548.992188 304.597656 549.386719 304.597656 549.78125 Z M 304.597656 549.78125 " fill-opacity="1" fill-rule="nonzero"/><path fill="#65a15a" d="M 450.695312 499.335938 L 468.792969 524.234375 C 469.042969 524.574219 469.324219 524.886719 469.636719 525.171875 C 469.949219 525.457031 470.285156 525.710938 470.652344 525.925781 C 471.015625 526.140625 471.394531 526.320312 471.796875 526.460938 C 472.195312 526.597656 472.605469 526.695312 473.023438 526.753906 C 473.445312 526.808594 473.867188 526.824219 474.289062 526.792969 C 474.710938 526.765625 475.125 526.691406 475.53125 526.578125 C 475.941406 526.464844 476.332031 526.3125 476.710938 526.121094 C 477.085938 525.925781 477.441406 525.699219 477.769531 525.433594 C 488.117188 517.273438 497.859375 508.449219 506.992188 498.949219 C 516.128906 489.453125 524.570312 479.378906 532.320312 468.722656 C 540.074219 458.066406 547.058594 446.929688 553.28125 435.316406 C 559.503906 423.703125 564.90625 411.714844 569.484375 399.359375 C 569.632812 398.964844 569.738281 398.558594 569.804688 398.140625 C 569.871094 397.726562 569.894531 397.304688 569.875 396.882812 C 569.855469 396.460938 569.796875 396.046875 569.691406 395.636719 C 569.589844 395.230469 569.445312 394.835938 569.265625 394.453125 C 569.082031 394.074219 568.863281 393.714844 568.605469 393.378906 C 568.351562 393.042969 568.066406 392.738281 567.746094 392.460938 C 567.429688 392.179688 567.085938 391.9375 566.722656 391.730469 C 566.355469 391.519531 565.96875 391.351562 565.570312 391.222656 L 536.160156 381.65625 C 535.78125 381.535156 535.398438 381.445312 535.003906 381.394531 C 534.609375 381.34375 534.214844 381.332031 533.820312 381.359375 C 533.421875 381.382812 533.03125 381.445312 532.648438 381.546875 C 532.265625 381.644531 531.894531 381.78125 531.535156 381.953125 C 531.175781 382.125 530.839844 382.328125 530.519531 382.5625 C 530.199219 382.800781 529.90625 383.0625 529.636719 383.355469 C 529.367188 383.648438 529.128906 383.964844 528.921875 384.300781 C 528.714844 384.640625 528.539062 384.996094 528.398438 385.367188 C 524.535156 395.664062 519.996094 405.65625 514.78125 415.34375 C 509.570312 425.03125 503.730469 434.324219 497.261719 443.222656 C 490.796875 452.121094 483.757812 460.542969 476.15625 468.492188 C 468.550781 476.441406 460.449219 483.84375 451.847656 490.699219 C 451.535156 490.953125 451.253906 491.234375 450.996094 491.542969 C 450.738281 491.851562 450.511719 492.179688 450.316406 492.527344 C 450.121094 492.878906 449.960938 493.242188 449.832031 493.625 C 449.707031 494.003906 449.617188 494.394531 449.566406 494.792969 C 449.511719 495.1875 449.496094 495.585938 449.519531 495.988281 C 449.542969 496.386719 449.601562 496.78125 449.699219 497.171875 C 449.792969 497.5625 449.925781 497.9375 450.09375 498.300781 C 450.261719 498.664062 450.464844 499.011719 450.695312 499.335938 Z M 450.695312 499.335938 " fill-opacity="1" fill-rule="nonzero"/><g clip-path="url(#c7b9f7508d)"><path fill="#333333" d="M 295.050781 49.773438 L 295.050781 18.867188 C 295.050781 18.445312 295.007812 18.027344 294.921875 17.613281 C 294.835938 17.203125 294.710938 16.800781 294.546875 16.414062 C 294.378906 16.027344 294.175781 15.660156 293.9375 15.3125 C 293.695312 14.964844 293.421875 14.644531 293.117188 14.355469 C 292.8125 14.0625 292.484375 13.804688 292.125 13.578125 C 291.769531 13.355469 291.394531 13.167969 291 13.015625 C 290.605469 12.867188 290.199219 12.761719 289.785156 12.691406 C 289.367188 12.625 288.949219 12.601562 288.527344 12.617188 C 275.347656 13.113281 262.269531 14.511719 249.285156 16.820312 C 236.300781 19.125 223.539062 22.3125 210.996094 26.382812 C 198.453125 30.453125 186.25 35.371094 174.386719 41.128906 C 162.527344 46.890625 151.117188 53.441406 140.160156 60.777344 C 139.804688 61.007812 139.472656 61.273438 139.171875 61.566406 C 138.867188 61.863281 138.597656 62.1875 138.363281 62.539062 C 138.125 62.890625 137.925781 63.261719 137.761719 63.65625 C 137.601562 64.046875 137.480469 64.449219 137.398438 64.867188 C 137.320312 65.285156 137.28125 65.703125 137.285156 66.128906 C 137.292969 66.550781 137.339844 66.96875 137.429688 67.382812 C 137.519531 67.800781 137.648438 68.199219 137.820312 68.589844 C 137.988281 68.976562 138.199219 69.34375 138.441406 69.6875 L 156.625 94.703125 C 156.855469 95.027344 157.117188 95.324219 157.40625 95.59375 C 157.695312 95.867188 158.003906 96.109375 158.339844 96.320312 C 158.675781 96.53125 159.027344 96.710938 159.398438 96.855469 C 159.765625 97 160.144531 97.105469 160.535156 97.175781 C 160.925781 97.25 161.320312 97.28125 161.714844 97.277344 C 162.113281 97.273438 162.503906 97.230469 162.894531 97.152344 C 163.28125 97.074219 163.660156 96.957031 164.023438 96.804688 C 164.390625 96.652344 164.738281 96.46875 165.070312 96.25 C 174.253906 90.15625 183.808594 84.710938 193.734375 79.917969 C 203.65625 75.125 213.863281 71.027344 224.34375 67.625 C 234.828125 64.222656 245.492188 61.542969 256.339844 59.59375 C 267.1875 57.640625 278.117188 56.433594 289.128906 55.96875 C 289.523438 55.953125 289.910156 55.894531 290.296875 55.804688 C 290.679688 55.710938 291.050781 55.582031 291.414062 55.417969 C 291.773438 55.253906 292.113281 55.058594 292.4375 54.828125 C 292.757812 54.597656 293.054688 54.34375 293.328125 54.054688 C 293.601562 53.769531 293.84375 53.460938 294.058594 53.128906 C 294.273438 52.796875 294.453125 52.445312 294.601562 52.082031 C 294.75 51.714844 294.859375 51.335938 294.9375 50.949219 C 295.011719 50.558594 295.050781 50.167969 295.050781 49.773438 Z M 295.050781 49.773438 " fill-opacity="1" fill-rule="nonzero"/></g><path fill="#333333" d="M 174.667969 362.511719 C 173.804688 362.496094 172.980469 362.316406 172.191406 361.964844 C 171.402344 361.617188 170.710938 361.128906 170.117188 360.503906 C 169.367188 359.6875 168.808594 358.757812 168.445312 357.710938 C 168.078125 356.660156 167.941406 355.585938 168.023438 354.476562 C 168.261719 350.511719 169.085938 346.671875 170.496094 342.957031 C 172.144531 338.082031 174.460938 332.359375 177.449219 325.789062 C 180.4375 319.21875 183.871094 311.957031 187.75 304 C 185.792969 304 183.527344 304 180.882812 304.222656 C 178.238281 304.445312 175.730469 304.566406 173.089844 304.773438 C 170.445312 304.980469 167.9375 305.238281 165.738281 305.546875 C 165.707031 304.132812 165.980469 302.785156 166.566406 301.5 C 167.152344 300.210938 167.984375 299.117188 169.070312 298.214844 C 171.632812 296.292969 174.492188 295.078125 177.65625 294.574219 C 181.503906 293.820312 185.390625 293.410156 189.3125 293.339844 L 193.484375 293.339844 C 196.160156 289.113281 199.539062 283.527344 203.613281 276.582031 C 207.6875 269.632812 212.449219 261.773438 217.898438 253.007812 C 215.425781 253.007812 212.847656 253.007812 210.171875 253.230469 L 202.222656 253.695312 C 199.597656 253.867188 197.070312 253.933594 194.566406 253.933594 C 187.5625 253.933594 182.746094 253.140625 180.128906 251.546875 C 179.558594 251.277344 179.039062 250.933594 178.5625 250.519531 C 178.085938 250.109375 177.675781 249.640625 177.328125 249.113281 C 176.980469 248.589844 176.710938 248.027344 176.515625 247.429688 C 176.320312 246.832031 176.207031 246.21875 176.179688 245.589844 C 176.363281 242.824219 177.238281 240.300781 178.804688 238.019531 L 188.472656 239.5625 C 191.722656 240.078125 195.039062 240.46875 198.429688 240.730469 C 201.816406 240.996094 205.25 241.121094 208.730469 241.109375 C 213.902344 241.101562 219.050781 240.761719 224.179688 240.09375 C 229.082031 239.523438 233.894531 238.519531 238.617188 237.089844 L 233.761719 243.496094 C 232.164062 245.625 230.636719 247.703125 229.195312 249.761719 C 224.457031 256.457031 220.105469 263.285156 216.144531 270.246094 C 212.1875 277.203125 208.089844 285.109375 203.851562 293.957031 C 205.914062 294.160156 207.921875 294.316406 209.878906 294.417969 C 211.835938 294.523438 213.84375 294.574219 215.90625 294.574219 C 217.621094 294.574219 219.234375 294.574219 220.9375 294.351562 C 222.628906 294.1875 224.296875 293.898438 225.949219 293.492188 C 223.855469 296.402344 221.410156 298.976562 218.617188 301.21875 C 217.511719 302.109375 216.285156 302.792969 214.945312 303.269531 C 213.609375 303.746094 212.226562 303.988281 210.804688 304 L 199.390625 304 C 197.535156 308.222656 195.578125 312.859375 193.519531 317.90625 C 191.457031 322.957031 189.695312 327.882812 188.230469 332.691406 C 186.902344 336.8125 186.183594 341.035156 186.066406 345.363281 C 186.054688 346.617188 186.210938 347.855469 186.53125 349.070312 C 186.855469 350.246094 187.523438 351.175781 188.539062 351.851562 C 187.800781 353.589844 186.8125 355.175781 185.570312 356.601562 C 184.328125 358.023438 182.898438 359.222656 181.277344 360.195312 C 179.25 361.46875 177.046875 362.242188 174.667969 362.511719 Z M 174.667969 362.511719 " fill-opacity="1" fill-rule="nonzero"/><path fill="#333333" d="M 265.367188 362.511719 C 262.109375 362.640625 258.921875 362.21875 255.808594 361.246094 C 252.695312 360.277344 249.832031 358.816406 247.21875 356.863281 C 244.757812 354.894531 242.617188 352.625 240.789062 350.054688 C 238.964844 347.484375 237.523438 344.710938 236.472656 341.738281 C 233.984375 334.871094 232.78125 327.785156 232.867188 320.484375 C 232.929688 313.25 233.78125 306.113281 235.425781 299.074219 C 237.148438 291.433594 239.621094 284.046875 242.84375 276.90625 C 245.984375 269.84375 249.949219 263.28125 254.738281 257.214844 C 259.175781 251.488281 264.503906 246.773438 270.722656 243.066406 C 273.722656 241.3125 276.898438 239.988281 280.253906 239.097656 C 283.613281 238.203125 287.027344 237.777344 290.5 237.8125 C 293.617188 237.746094 296.675781 238.132812 299.675781 238.976562 C 302.675781 239.820312 305.488281 241.078125 308.117188 242.757812 C 310.75 244.539062 313.070312 246.671875 315.070312 249.144531 C 317.070312 251.621094 318.667969 254.332031 319.859375 257.28125 C 322.871094 264.824219 324.261719 272.652344 324.03125 280.769531 C 324.011719 288.507812 323.058594 296.132812 321.179688 303.640625 C 319.289062 311.304688 316.582031 318.671875 313.058594 325.738281 C 309.691406 332.5625 305.519531 338.859375 300.542969 344.625 C 295.96875 349.988281 290.589844 354.367188 284.40625 357.757812 C 281.484375 359.335938 278.410156 360.527344 275.1875 361.332031 C 271.960938 362.136719 268.6875 362.53125 265.367188 362.511719 Z M 267.53125 355.097656 C 269.988281 355.039062 272.367188 354.566406 274.664062 353.683594 C 276.960938 352.800781 279.039062 351.554688 280.902344 349.945312 C 285.597656 346.050781 289.480469 341.472656 292.5625 336.210938 C 296.25 330.117188 299.316406 323.722656 301.761719 317.03125 C 304.378906 310.015625 306.410156 302.832031 307.859375 295.484375 C 309.257812 288.601562 309.980469 281.648438 310.019531 274.625 C 310.089844 269.3125 309.449219 264.085938 308.097656 258.949219 C 307.582031 256.882812 306.800781 254.925781 305.75 253.074219 C 304.699219 251.226562 303.421875 249.546875 301.917969 248.046875 C 300.359375 246.65625 298.597656 245.613281 296.628906 244.917969 C 294.664062 244.222656 292.636719 243.925781 290.550781 244.027344 C 288.28125 244.011719 286.0625 244.335938 283.890625 244.992188 C 281.71875 245.652344 279.691406 246.617188 277.8125 247.890625 C 273.679688 250.726562 270.179688 254.203125 267.308594 258.3125 C 264.019531 262.960938 261.261719 267.90625 259.03125 273.148438 C 256.644531 278.722656 254.6875 284.445312 253.160156 290.316406 C 251.660156 296.015625 250.476562 301.777344 249.605469 307.605469 C 248.820312 312.726562 248.40625 317.878906 248.371094 323.058594 C 248.371094 332.742188 250.085938 340.492188 253.519531 346.304688 C 256.953125 352.121094 261.625 355.050781 267.53125 355.097656 Z M 267.53125 355.097656 " fill-opacity="1" fill-rule="nonzero"/><path fill="#333333" d="M 338.761719 362.511719 C 342.320312 358.851562 345.539062 354.910156 348.410156 350.683594 C 352.277344 345.28125 356.5 338.984375 361.078125 331.796875 C 365.65625 324.609375 370.292969 316.964844 374.984375 308.859375 C 379.679688 300.765625 384.160156 292.753906 388.429688 284.820312 C 392.695312 276.890625 396.539062 269.496094 399.949219 262.640625 C 403.382812 255.769531 405.957031 250.046875 407.671875 245.46875 C 408.308594 244.03125 409.289062 242.886719 410.609375 242.035156 C 412.289062 240.828125 414.089844 239.851562 416.015625 239.101562 C 417.894531 238.308594 419.851562 237.898438 421.890625 237.863281 C 420.898438 240.992188 419.6875 244.03125 418.25 246.980469 C 416.246094 251.410156 413.75 256.636719 410.765625 262.65625 C 407.777344 268.675781 404.480469 275.09375 400.875 281.902344 C 397.269531 288.703125 393.664062 295.449219 390.058594 302.144531 C 386.453125 308.84375 383.019531 314.972656 379.757812 320.535156 C 376.519531 326.097656 373.765625 330.628906 371.5 334.132812 C 366.871094 341.546875 361.535156 348.414062 355.5 354.734375 C 350.316406 359.921875 344.734375 362.511719 338.761719 362.511719 Z M 356.476562 296.6875 C 355.417969 296.75 354.363281 296.679688 353.320312 296.46875 C 352.277344 296.261719 351.277344 295.925781 350.320312 295.457031 C 349.367188 294.988281 348.488281 294.40625 347.683594 293.710938 C 346.878906 293.011719 346.175781 292.226562 345.578125 291.347656 C 344.355469 289.535156 343.4375 287.582031 342.820312 285.488281 C 342.203125 283.394531 341.914062 281.253906 341.953125 279.070312 C 341.984375 275.3125 342.523438 271.625 343.566406 268.011719 C 344.644531 264.167969 346.214844 260.539062 348.289062 257.128906 C 350.230469 253.847656 352.722656 251.066406 355.773438 248.785156 C 357.1875 247.71875 358.738281 246.910156 360.417969 246.355469 C 362.097656 245.800781 363.824219 245.527344 365.59375 245.539062 C 366.605469 245.503906 367.609375 245.582031 368.605469 245.765625 C 369.601562 245.949219 370.566406 246.238281 371.5 246.628906 C 372.433594 247.023438 373.316406 247.511719 374.140625 248.09375 C 374.96875 248.675781 375.726562 249.339844 376.410156 250.089844 C 377.867188 251.796875 378.953125 253.710938 379.675781 255.835938 C 380.394531 257.960938 380.699219 260.140625 380.582031 262.382812 C 380.515625 266.089844 379.945312 269.71875 378.867188 273.265625 C 377.734375 277.238281 376.109375 281 373.988281 284.546875 C 372.03125 287.949219 369.507812 290.863281 366.417969 293.285156 C 365.003906 294.402344 363.441406 295.25 361.738281 295.832031 C 360.03125 296.417969 358.28125 296.699219 356.476562 296.6875 Z M 357.40625 288.652344 C 358.382812 288.601562 359.304688 288.34375 360.167969 287.886719 C 361.03125 287.425781 361.761719 286.804688 362.351562 286.023438 C 364.0625 284 365.425781 281.761719 366.4375 279.3125 C 367.660156 276.460938 368.585938 273.519531 369.21875 270.484375 C 369.867188 267.5625 370.203125 264.601562 370.230469 261.609375 C 370.300781 259.53125 369.964844 257.523438 369.21875 255.582031 C 369.097656 255.238281 368.929688 254.921875 368.710938 254.632812 C 368.492188 254.339844 368.234375 254.09375 367.9375 253.882812 C 367.640625 253.675781 367.316406 253.519531 366.96875 253.414062 C 366.621094 253.308594 366.265625 253.257812 365.902344 253.265625 C 364.808594 253.273438 363.769531 253.511719 362.78125 253.984375 C 361.792969 254.457031 360.949219 255.113281 360.253906 255.960938 C 358.511719 258.011719 357.171875 260.300781 356.238281 262.828125 C 355.152344 265.613281 354.328125 268.476562 353.765625 271.414062 C 353.234375 274.042969 352.953125 276.695312 352.925781 279.378906 C 352.847656 281.675781 353.230469 283.890625 354.074219 286.023438 C 354.183594 286.394531 354.34375 286.734375 354.5625 287.054688 C 354.777344 287.371094 355.039062 287.648438 355.339844 287.882812 C 355.644531 288.121094 355.976562 288.304688 356.339844 288.433594 C 356.699219 288.566406 357.074219 288.636719 357.457031 288.652344 Z M 409.785156 349.222656 C 408.722656 349.296875 407.667969 349.234375 406.621094 349.035156 C 405.574219 348.835938 404.566406 348.503906 403.605469 348.046875 C 402.644531 347.585938 401.757812 347.007812 400.945312 346.320312 C 400.132812 345.628906 399.425781 344.84375 398.816406 343.96875 C 397.613281 342.164062 396.710938 340.222656 396.105469 338.136719 C 395.5 336.054688 395.21875 333.929688 395.261719 331.761719 C 395.292969 328.003906 395.832031 324.316406 396.875 320.707031 C 397.941406 316.875 399.488281 313.246094 401.511719 309.820312 C 403.410156 306.53125 405.882812 303.75 408.925781 301.476562 C 410.367188 300.402344 411.941406 299.589844 413.648438 299.035156 C 415.355469 298.480469 417.105469 298.210938 418.902344 298.230469 C 419.90625 298.195312 420.90625 298.265625 421.898438 298.449219 C 422.886719 298.628906 423.847656 298.917969 424.773438 299.3125 C 425.699219 299.703125 426.574219 300.195312 427.394531 300.777344 C 428.210938 301.363281 428.957031 302.03125 429.632812 302.78125 C 431.066406 304.5 432.136719 306.417969 432.84375 308.539062 C 433.554688 310.664062 433.851562 312.839844 433.734375 315.074219 C 433.671875 318.761719 433.101562 322.367188 432.019531 325.890625 C 430.882812 329.820312 429.285156 333.550781 427.226562 337.085938 C 425.308594 340.496094 422.808594 343.410156 419.726562 345.824219 C 418.316406 346.933594 416.765625 347.78125 415.070312 348.363281 C 413.375 348.945312 411.628906 349.234375 409.835938 349.222656 Z M 410.558594 341.1875 C 411.539062 341.140625 412.464844 340.894531 413.339844 340.449219 C 414.210938 340 414.957031 339.394531 415.570312 338.632812 C 417.363281 336.640625 418.753906 334.402344 419.742188 331.917969 C 420.949219 329.070312 421.875 326.132812 422.523438 323.109375 C 423.175781 320.210938 423.511719 317.273438 423.535156 314.300781 C 423.609375 312.1875 423.246094 310.152344 422.457031 308.191406 C 422.328125 307.835938 422.152344 307.511719 421.925781 307.210938 C 421.699219 306.914062 421.429688 306.660156 421.121094 306.445312 C 420.8125 306.230469 420.480469 306.070312 420.121094 305.960938 C 419.761719 305.847656 419.398438 305.796875 419.023438 305.804688 C 417.917969 305.8125 416.871094 306.0625 415.878906 306.550781 C 414.890625 307.039062 414.054688 307.714844 413.375 308.585938 C 411.625 310.699219 410.285156 313.042969 409.355469 315.625 C 408.273438 318.457031 407.449219 321.363281 406.882812 324.347656 C 406.355469 327 406.074219 329.675781 406.042969 332.382812 C 405.945312 334.621094 406.355469 336.761719 407.277344 338.800781 C 407.40625 339.144531 407.582031 339.460938 407.804688 339.75 C 408.023438 340.039062 408.285156 340.289062 408.582031 340.503906 C 408.878906 340.714844 409.199219 340.878906 409.542969 340.996094 C 409.890625 341.113281 410.246094 341.179688 410.609375 341.1875 Z M 410.558594 341.1875 " fill-opacity="1" fill-rule="nonzero"/></svg>