<svg xmlns="http://www.w3.org/2000/svg" xmlns:xlink="http://www.w3.org/1999/xlink" width="800" zoomAndPan="magnify" viewBox="0 0 600 599.999999" height="800" preserveAspectRatio="xMidYMid meet" version="1.0"><defs><clipPath id="90829cebb9"><path d="M 11.171875 11.171875 L 588.671875 11.171875 L 588.671875 588.671875 L 11.171875 588.671875 Z M 11.171875 11.171875 " clip-rule="nonzero"/></clipPath><clipPath id="71a9995805"><path d="M 266 535 L 283 535 L 283 588.671875 L 266 588.671875 Z M 266 535 " clip-rule="nonzero"/></clipPath><clipPath id="a0ec9e5604"><path d="M 284 536 L 298 536 L 298 588.671875 L 284 588.671875 Z M 284 536 " clip-rule="nonzero"/></clipPath><clipPath id="96a344731d"><path d="M 302 536 L 316 536 L 316 588.671875 L 302 588.671875 Z M 302 536 " clip-rule="nonzero"/></clipPath><clipPath id="e3b68519b6"><path d="M 317 535 L 334 535 L 334 588.671875 L 317 588.671875 Z M 317 535 " clip-rule="nonzero"/></clipPath><clipPath id="450e51e1d7"><path d="M 535 317 L 588.671875 317 L 588.671875 334 L 535 334 Z M 535 317 " clip-rule="nonzero"/></clipPath><clipPath id="ef9f5e4e3f"><path d="M 536 302 L 588.671875 302 L 588.671875 316 L 536 316 Z M 536 302 " clip-rule="nonzero"/></clipPath><clipPath id="803aea3140"><path d="M 536 284 L 588.671875 284 L 588.671875 298 L 536 298 Z M 536 284 " clip-rule="nonzero"/></clipPath><clipPath id="b1e643dd5a"><path d="M 535 266 L 588.671875 266 L 588.671875 283 L 535 283 Z M 535 266 " clip-rule="nonzero"/></clipPath><clipPath id="2671ab30c1"><path d="M 317 11.171875 L 334 11.171875 L 334 65 L 317 65 Z M 317 11.171875 " clip-rule="nonzero"/></clipPath><clipPath id="f3e1899f26"><path d="M 302 11.171875 L 316 11.171875 L 316 64 L 302 64 Z M 302 11.171875 " clip-rule="nonzero"/></clipPath></defs><path fill="#5f6da9" d="M 299.960938 70.863281 C 426.488281 70.863281 529.054688 173.433594 529.054688 299.960938 C 529.054688 426.488281 426.488281 529.058594 299.960938 529.058594 C 173.433594 529.058594 70.863281 426.488281 70.863281 299.960938 C 70.863281 173.433594 173.433594 70.863281 299.960938 70.863281 Z M 299.960938 70.863281 " fill-opacity="1" fill-rule="evenodd"/><g clip-path="url(#90829cebb9)"><path fill="#f2f3f9" d="M 302.277344 11.171875 C 306.808594 11.210938 311.300781 11.328125 315.796875 11.582031 L 312.558594 63.074219 C 309.144531 62.898438 305.710938 62.796875 302.277344 62.777344 Z M 320.386719 11.878906 C 324.921875 12.191406 329.414062 12.601562 333.867188 13.132812 L 327.394531 64.328125 C 324 63.9375 320.582031 63.621094 317.148438 63.367188 Z M 338.441406 13.703125 C 342.933594 14.292969 347.386719 14.996094 351.804688 15.800781 L 342.148438 66.488281 C 338.773438 65.878906 335.378906 65.371094 331.964844 64.898438 Z M 356.335938 16.664062 C 360.789062 17.546875 365.1875 18.53125 369.5625 19.609375 L 356.730469 69.589844 C 353.394531 68.785156 350.058594 68.019531 346.664062 67.351562 Z M 374.015625 20.746094 C 378.390625 21.90625 382.730469 23.160156 387.027344 24.515625 L 371.074219 73.589844 C 367.816406 72.570312 364.5 71.628906 361.183594 70.746094 Z M 391.402344 25.925781 C 395.699219 27.359375 399.9375 28.890625 404.136719 30.519531 L 385.144531 78.515625 C 381.945312 77.28125 378.726562 76.121094 375.46875 75.023438 Z M 408.433594 32.226562 C 412.613281 33.933594 416.773438 35.71875 420.855469 37.601562 L 398.878906 84.304688 C 395.777344 82.871094 392.617188 81.519531 389.441406 80.222656 Z M 425.035156 39.546875 C 429.097656 41.507812 433.121094 43.566406 437.085938 45.707031 L 412.222656 90.9375 C 409.199219 89.328125 406.140625 87.757812 403.058594 86.269531 Z M 441.125 47.945312 C 445.050781 50.160156 448.9375 52.457031 452.761719 54.851562 L 425.113281 98.433594 C 422.191406 96.609375 419.246094 94.863281 416.265625 93.175781 Z M 456.667969 57.324219 C 460.457031 59.777344 464.183594 62.308594 467.851562 64.9375 L 437.515625 106.675781 C 434.730469 104.695312 431.882812 102.769531 429 100.90625 Z M 471.582031 67.644531 C 475.191406 70.332031 478.761719 73.101562 482.257812 75.945312 L 449.367188 115.722656 C 446.699219 113.5625 443.992188 111.445312 441.246094 109.402344 Z M 485.808594 78.910156 C 489.261719 81.8125 492.636719 84.796875 495.953125 87.855469 L 460.632812 125.472656 C 458.121094 123.140625 455.53125 120.882812 452.921875 118.664062 Z M 499.328125 90.996094 C 502.585938 94.117188 505.785156 97.296875 508.902344 100.574219 L 471.285156 135.894531 C 468.914062 133.421875 466.480469 130.988281 464.007812 128.613281 Z M 512.042969 103.929688 C 515.105469 107.246094 518.085938 110.640625 520.992188 114.074219 L 481.234375 146.980469 C 479.019531 144.351562 476.761719 141.78125 474.425781 139.269531 Z M 523.933594 117.625 C 526.78125 121.136719 529.546875 124.6875 532.234375 128.320312 L 490.496094 158.65625 C 488.457031 155.890625 486.335938 153.179688 484.179688 150.53125 Z M 534.964844 132.046875 C 537.59375 135.71875 540.125 139.445312 542.578125 143.234375 L 498.996094 170.882812 C 497.128906 168.015625 495.207031 165.171875 493.226562 162.382812 Z M 545.050781 147.136719 C 547.421875 150.945312 549.738281 154.828125 551.9375 158.773438 L 506.726562 183.636719 C 505.039062 180.652344 503.292969 177.691406 501.46875 174.785156 Z M 554.175781 162.796875 C 556.332031 166.761719 558.375 170.78125 560.335938 174.863281 L 513.632812 196.84375 C 512.140625 193.742188 510.570312 190.679688 508.964844 187.679688 Z M 562.296875 179.023438 C 564.179688 183.125 565.96875 187.265625 567.675781 191.445312 L 519.675781 210.460938 C 518.382812 207.28125 517.027344 204.121094 515.59375 201.003906 Z M 569.382812 195.742188 C 571.011719 199.941406 572.539062 204.179688 573.972656 208.480469 L 524.878906 224.433594 C 523.796875 221.175781 522.621094 217.9375 521.382812 214.757812 Z M 575.386719 212.855469 C 576.761719 217.152344 577.996094 221.488281 579.152344 225.863281 L 529.175781 238.71875 C 528.292969 235.382812 527.328125 232.085938 526.308594 228.808594 Z M 580.292969 230.320312 C 581.390625 234.695312 582.371094 239.089844 583.253906 243.542969 L 532.550781 253.21875 C 531.882812 249.84375 531.136719 246.488281 530.3125 243.171875 Z M 584.117188 248.078125 C 584.921875 252.492188 585.609375 256.945312 586.21875 261.441406 L 535.003906 267.917969 C 534.550781 264.5 534.019531 261.105469 533.414062 257.75 Z M 586.765625 266.011719 C 587.296875 270.488281 587.730469 274.980469 588.042969 279.492188 L 536.550781 282.730469 C 536.296875 279.296875 535.964844 275.882812 535.570312 272.488281 Z M 588.335938 284.105469 C 588.574219 288.578125 588.710938 293.09375 588.75 297.625 L 537.140625 297.625 C 537.101562 294.191406 537.023438 290.757812 536.828125 287.34375 Z M 588.75 302.238281 C 588.710938 306.769531 588.574219 311.28125 588.335938 315.757812 L 536.847656 312.519531 C 537.023438 309.105469 537.101562 305.691406 537.140625 302.238281 Z M 588.042969 320.367188 C 587.730469 324.882812 587.296875 329.375 586.785156 333.847656 L 535.589844 327.375 C 535.964844 323.980469 536.296875 320.5625 536.550781 317.128906 Z M 586.21875 338.402344 C 585.609375 342.894531 584.921875 347.367188 584.117188 351.785156 L 533.433594 342.128906 C 534.039062 338.753906 534.550781 335.359375 535.023438 331.945312 Z M 583.253906 356.316406 C 582.371094 360.75 581.390625 365.167969 580.3125 369.523438 L 530.3125 356.710938 C 531.136719 353.375 531.882812 350.019531 532.570312 346.644531 Z M 579.171875 373.996094 C 578.015625 378.375 576.761719 382.710938 575.40625 386.988281 L 526.328125 371.054688 C 527.347656 367.777344 528.292969 364.480469 529.175781 361.164062 Z M 573.992188 391.382812 C 572.558594 395.679688 571.03125 399.917969 569.402344 404.117188 L 521.402344 385.125 C 522.640625 381.925781 523.796875 378.707031 524.898438 375.429688 Z M 567.695312 408.414062 C 565.988281 412.59375 564.203125 416.734375 562.316406 420.835938 L 515.613281 398.859375 C 517.046875 395.738281 518.402344 392.601562 519.695312 389.421875 Z M 560.375 424.996094 C 558.414062 429.078125 556.351562 433.101562 554.214844 437.066406 L 508.984375 412.203125 C 510.589844 409.179688 512.160156 406.121094 513.652344 403.019531 Z M 551.976562 441.085938 C 549.757812 445.03125 547.464844 448.917969 545.070312 452.722656 L 501.507812 425.09375 C 503.3125 422.171875 505.058594 419.226562 506.746094 416.226562 Z M 542.597656 456.628906 C 540.144531 460.417969 537.613281 464.164062 535.003906 467.8125 L 493.246094 437.496094 C 495.226562 434.710938 497.148438 431.863281 499.035156 428.980469 Z M 532.273438 471.542969 C 529.585938 475.171875 526.820312 478.742188 523.972656 482.238281 L 484.21875 449.347656 C 486.378906 446.679688 488.476562 443.972656 490.515625 441.226562 Z M 521.03125 485.789062 C 518.125 489.242188 515.144531 492.617188 512.082031 495.933594 L 474.464844 460.613281 C 476.78125 458.101562 479.058594 455.511719 481.253906 452.902344 Z M 508.941406 499.308594 C 505.824219 502.566406 502.625 505.765625 499.367188 508.882812 L 464.027344 471.269531 C 466.519531 468.894531 468.933594 466.460938 471.308594 463.988281 Z M 495.992188 512.023438 C 492.675781 515.085938 489.300781 518.066406 485.847656 520.972656 L 452.960938 481.214844 C 455.570312 479 458.140625 476.742188 460.671875 474.40625 Z M 482.296875 523.914062 C 478.800781 526.761719 475.25 529.546875 471.621094 532.214844 L 441.285156 490.476562 C 444.03125 488.4375 446.738281 486.320312 449.40625 484.160156 Z M 467.890625 534.945312 C 464.222656 537.574219 460.496094 540.105469 456.707031 542.558594 L 429.039062 498.996094 C 431.921875 497.109375 434.769531 495.1875 437.554688 493.207031 Z M 452.800781 545.03125 C 448.976562 547.425781 445.109375 549.71875 441.164062 551.9375 L 416.304688 506.707031 C 419.285156 505.019531 422.230469 503.273438 425.152344 501.46875 Z M 437.144531 554.175781 C 433.179688 556.3125 429.15625 558.375 425.074219 560.335938 L 403.097656 513.632812 C 406.199219 512.121094 409.238281 510.570312 412.261719 508.945312 Z M 420.894531 562.277344 C 416.8125 564.164062 412.671875 565.96875 408.492188 567.65625 L 389.480469 519.675781 C 392.660156 518.382812 395.816406 517.007812 398.917969 515.59375 Z M 404.195312 569.363281 C 399.996094 570.992188 395.757812 572.519531 391.460938 573.953125 L 375.507812 524.878906 C 378.765625 523.777344 381.984375 522.621094 385.183594 521.382812 Z M 387.085938 575.386719 C 382.789062 576.742188 378.453125 577.996094 374.074219 579.152344 L 361.222656 529.15625 C 364.558594 528.273438 367.855469 527.332031 371.113281 526.308594 Z M 369.621094 580.292969 C 365.246094 581.371094 360.851562 582.351562 356.394531 583.234375 L 346.722656 532.550781 C 350.097656 531.863281 353.453125 531.117188 356.769531 530.292969 Z M 351.863281 584.097656 C 347.449219 584.902344 342.992188 585.609375 338.5 586.199219 L 332.023438 535.003906 C 335.417969 534.550781 338.8125 534.023438 342.1875 533.414062 Z M 333.925781 586.769531 C 329.453125 587.296875 324.960938 587.710938 320.445312 588.042969 L 317.1875 536.53125 C 320.640625 536.296875 324.058594 535.964844 327.453125 535.570312 Z M 315.835938 588.335938 C 311.359375 588.574219 306.847656 588.710938 302.316406 588.730469 L 302.296875 537.140625 C 305.75 537.101562 309.183594 537.003906 312.597656 536.828125 Z M 297.703125 588.75 C 293.171875 588.710938 288.65625 588.574219 284.183594 588.335938 L 287.402344 536.847656 C 290.816406 537.023438 294.25 537.101562 297.703125 537.140625 Z M 279.570312 588.042969 C 275.058594 587.730469 270.566406 587.296875 266.089844 586.789062 L 272.566406 535.589844 C 275.960938 535.984375 279.375 536.296875 282.808594 536.554688 Z M 261.539062 586.21875 C 257.042969 585.628906 252.570312 584.921875 248.15625 584.136719 L 257.808594 533.433594 C 261.183594 534.042969 264.582031 534.550781 267.996094 535.023438 Z M 243.621094 583.253906 C 239.1875 582.390625 234.773438 581.390625 230.417969 580.3125 L 243.230469 530.332031 C 246.566406 531.136719 249.902344 531.902344 253.296875 532.570312 Z M 225.941406 579.171875 C 221.566406 578.035156 217.230469 576.78125 212.953125 575.425781 L 228.886719 526.328125 C 232.144531 527.351562 235.460938 528.292969 238.777344 529.195312 Z M 208.558594 573.992188 C 204.257812 572.5625 200.019531 571.03125 195.820312 569.402344 L 214.816406 521.402344 C 218.015625 522.640625 221.234375 523.816406 224.492188 524.898438 Z M 191.523438 567.714844 C 187.34375 566.007812 183.203125 564.222656 179.101562 562.316406 L 201.082031 515.613281 C 204.179688 517.046875 207.339844 518.421875 210.519531 519.714844 Z M 174.941406 560.375 C 170.863281 558.414062 166.839844 556.371094 162.875 554.214844 L 187.738281 508.984375 C 190.757812 510.613281 193.800781 512.179688 196.902344 513.671875 Z M 158.851562 551.976562 C 154.90625 549.777344 151.023438 547.484375 147.195312 545.089844 L 174.84375 501.507812 C 177.75 503.3125 180.710938 505.078125 183.695312 506.746094 Z M 143.3125 542.617188 C 139.503906 540.164062 135.777344 537.632812 132.105469 535.003906 L 162.441406 493.265625 C 165.230469 495.246094 168.074219 497.167969 170.941406 499.035156 Z M 128.378906 532.292969 C 124.765625 529.605469 121.195312 526.839844 117.703125 523.996094 L 150.589844 484.21875 C 153.238281 486.378906 155.949219 488.496094 158.714844 490.539062 Z M 114.152344 521.050781 C 110.699219 518.148438 107.304688 515.164062 104.007812 512.101562 L 139.308594 474.464844 C 141.839844 476.800781 144.410156 479.058594 147.039062 481.273438 Z M 100.632812 508.964844 C 97.355469 505.84375 94.175781 502.644531 91.054688 499.386719 L 128.671875 464.046875 C 131.046875 466.519531 133.460938 468.953125 135.953125 471.328125 Z M 87.914062 496.011719 C 84.855469 492.714844 81.871094 489.320312 78.949219 485.867188 L 118.703125 452.960938 C 120.921875 455.589844 123.199219 458.160156 125.511719 460.691406 Z M 76.003906 482.316406 C 73.160156 478.824219 70.390625 475.269531 67.703125 471.640625 L 109.441406 441.304688 C 111.484375 444.050781 113.601562 446.757812 115.761719 449.40625 Z M 64.976562 467.910156 C 62.367188 464.242188 59.816406 460.515625 57.363281 456.726562 L 100.945312 429.058594 C 102.808594 431.945312 104.734375 434.789062 106.714844 437.574219 Z M 54.890625 452.820312 C 52.515625 449.015625 50.199219 445.128906 48.003906 441.1875 L 93.214844 416.324219 C 94.902344 419.304688 96.648438 422.25 98.472656 425.171875 Z M 45.765625 437.164062 C 43.605469 433.199219 41.546875 429.175781 39.585938 425.113281 L 86.285156 403.117188 C 87.796875 406.21875 89.347656 409.257812 90.976562 412.28125 Z M 37.640625 420.933594 C 35.757812 416.832031 33.953125 412.695312 32.265625 408.515625 L 80.242188 389.5 C 81.539062 392.679688 82.910156 395.816406 84.34375 398.9375 Z M 30.558594 404.234375 C 28.929688 400.035156 27.398438 395.777344 25.964844 391.480469 L 75.042969 375.527344 C 76.140625 378.785156 77.320312 382.023438 78.535156 385.222656 Z M 24.535156 387.105469 C 23.179688 382.808594 21.925781 378.472656 20.765625 374.09375 L 70.765625 361.242188 C 71.648438 364.578125 72.589844 367.875 73.609375 371.132812 Z M 19.628906 369.640625 C 18.550781 365.265625 17.566406 360.871094 16.683594 356.414062 L 67.371094 346.742188 C 68.039062 350.117188 68.804688 353.472656 69.609375 356.789062 Z M 15.800781 351.902344 C 14.996094 347.46875 14.308594 343.011719 13.722656 338.519531 L 64.917969 332.042969 C 65.367188 335.457031 65.898438 338.851562 66.507812 342.207031 Z M 13.152344 333.945312 C 12.621094 329.492188 12.191406 325 11.878906 320.464844 L 63.367188 317.226562 C 63.621094 320.664062 63.957031 324.078125 64.347656 327.472656 Z M 11.582031 315.875 C 11.328125 311.378906 11.210938 306.867188 11.171875 302.335938 L 62.777344 302.335938 C 62.816406 305.769531 62.898438 309.203125 63.074219 312.617188 Z M 11.171875 297.742188 C 11.210938 293.210938 11.328125 288.695312 11.582031 284.203125 L 63.074219 287.441406 C 62.898438 290.835938 62.796875 294.269531 62.777344 297.722656 Z M 11.859375 279.613281 C 12.171875 275.078125 12.601562 270.585938 13.132812 266.128906 L 64.328125 272.585938 C 63.9375 275.980469 63.601562 279.394531 63.367188 282.828125 Z M 13.683594 261.558594 C 14.289062 257.066406 14.976562 252.609375 15.78125 248.175781 L 66.46875 257.828125 C 65.878906 261.207031 65.347656 264.601562 64.898438 268.015625 Z M 16.644531 243.664062 C 17.527344 239.207031 18.511719 234.8125 19.589844 230.4375 L 69.589844 243.25 C 68.765625 246.585938 68.019531 249.921875 67.332031 253.316406 Z M 20.726562 225.980469 C 21.886719 221.605469 23.121094 217.269531 24.476562 212.972656 L 73.570312 228.90625 C 72.550781 232.164062 71.609375 235.480469 70.726562 238.796875 Z M 25.90625 208.578125 C 27.339844 204.300781 28.871094 200.039062 30.5 195.839844 L 78.496094 214.835938 C 77.261719 218.035156 76.082031 221.253906 75.003906 224.511719 Z M 32.1875 191.5625 C 33.894531 187.363281 35.679688 183.222656 37.5625 179.140625 L 84.285156 201.101562 C 82.851562 204.199219 81.5 207.359375 80.183594 210.539062 Z M 39.527344 174.960938 C 41.488281 170.882812 43.527344 166.878906 45.667969 162.894531 L 90.917969 187.757812 C 89.289062 190.777344 87.71875 193.820312 86.226562 196.921875 Z M 47.90625 158.871094 C 50.121094 154.929688 52.417969 151.042969 54.8125 147.234375 L 98.394531 174.863281 C 96.589844 177.769531 94.824219 180.730469 93.15625 183.714844 Z M 57.285156 143.332031 C 59.738281 139.542969 62.269531 135.796875 64.878906 132.144531 L 106.636719 162.464844 C 104.652344 165.25 102.730469 168.09375 100.867188 170.960938 Z M 67.605469 128.417969 C 70.292969 124.789062 73.0625 121.214844 75.90625 117.722656 L 115.683594 150.609375 C 113.523438 153.261719 111.402344 155.96875 109.363281 158.734375 Z M 78.851562 114.171875 C 81.753906 110.71875 84.738281 107.324219 87.796875 104.027344 L 125.414062 139.328125 C 123.097656 141.859375 120.824219 144.429688 118.625 147.039062 Z M 90.9375 100.652344 C 94.058594 97.375 97.238281 94.195312 100.511719 91.074219 L 135.855469 128.671875 C 133.363281 131.046875 130.949219 133.480469 128.574219 135.953125 Z M 103.867188 87.9375 C 107.183594 84.875 110.558594 81.871094 114.015625 78.96875 L 146.921875 118.722656 C 144.3125 120.941406 141.722656 123.199219 139.210938 125.53125 Z M 117.566406 76.023438 C 121.058594 73.179688 124.628906 70.414062 128.242188 67.722656 L 158.597656 109.460938 C 155.851562 111.503906 153.140625 113.621094 150.472656 115.78125 Z M 131.96875 64.996094 C 135.636719 62.386719 139.367188 59.835938 143.152344 57.382812 L 170.820312 100.945312 C 167.957031 102.828125 165.113281 104.753906 162.324219 106.734375 Z M 147.058594 54.910156 C 150.886719 52.515625 154.75 50.21875 158.695312 48.003906 L 183.578125 93.234375 C 180.59375 94.921875 177.632812 96.667969 174.726562 98.472656 Z M 162.738281 45.765625 C 166.703125 43.628906 170.703125 41.566406 174.785156 39.605469 L 196.785156 86.308594 C 193.683594 87.796875 190.621094 89.367188 187.621094 90.996094 Z M 178.964844 37.660156 C 183.046875 35.757812 187.1875 33.972656 191.386719 32.265625 L 210.402344 80.242188 C 207.222656 81.558594 204.0625 82.914062 200.941406 84.34375 Z M 195.664062 30.558594 C 199.863281 28.929688 204.101562 27.398438 208.398438 25.964844 L 224.351562 75.042969 C 221.097656 76.140625 217.878906 77.320312 214.679688 78.554688 Z M 212.777344 24.554688 C 217.074219 23.179688 221.410156 21.925781 225.785156 20.765625 L 238.640625 70.765625 C 235.324219 71.648438 232.007812 72.589844 228.75 73.628906 Z M 230.238281 19.628906 C 234.617188 18.550781 239.011719 17.566406 243.464844 16.683594 L 253.140625 67.371094 C 249.765625 68.039062 246.429688 68.804688 243.09375 69.628906 Z M 248 15.820312 C 252.414062 15.015625 256.867188 14.3125 261.363281 13.722656 L 267.855469 64.917969 C 264.441406 65.371094 261.046875 65.898438 257.671875 66.507812 Z M 265.933594 13.152344 C 270.386719 12.625 274.882812 12.191406 279.414062 11.878906 L 282.671875 63.367188 C 279.238281 63.621094 275.824219 63.957031 272.429688 64.347656 Z M 284.007812 11.582031 C 288.519531 11.347656 293.074219 11.210938 297.644531 11.171875 L 297.644531 62.777344 C 294.171875 62.796875 290.71875 62.898438 287.265625 63.074219 Z M 284.007812 11.582031 " fill-opacity="1" fill-rule="evenodd"/></g><path fill="#8897d1" d="M 76.003906 482.316406 C 73.160156 478.824219 70.390625 475.269531 67.703125 471.640625 L 109.441406 441.304688 C 111.484375 444.050781 113.601562 446.757812 115.761719 449.40625 Z M 76.003906 482.316406 " fill-opacity="1" fill-rule="evenodd"/><path fill="#8897d1" d="M 87.914062 496.011719 C 84.855469 492.714844 81.871094 489.320312 78.949219 485.867188 L 118.703125 452.960938 C 120.921875 455.589844 123.199219 458.160156 125.511719 460.691406 Z M 87.914062 496.011719 " fill-opacity="1" fill-rule="evenodd"/><path fill="#8897d1" d="M 100.632812 508.964844 C 97.355469 505.84375 94.175781 502.644531 91.054688 499.386719 L 128.671875 464.046875 C 131.046875 466.519531 133.460938 468.953125 135.953125 471.328125 Z M 100.632812 508.964844 " fill-opacity="1" fill-rule="evenodd"/><path fill="#8897d1" d="M 114.152344 521.050781 C 110.699219 518.148438 107.304688 515.164062 104.007812 512.101562 L 139.308594 474.464844 C 141.839844 476.800781 144.410156 479.058594 147.039062 481.273438 Z M 114.152344 521.050781 " fill-opacity="1" fill-rule="evenodd"/><path fill="#8897d1" d="M 128.378906 532.292969 C 124.765625 529.605469 121.195312 526.839844 117.703125 523.996094 L 150.589844 484.21875 C 153.238281 486.378906 155.949219 488.496094 158.714844 490.539062 Z M 128.378906 532.292969 " fill-opacity="1" fill-rule="evenodd"/><path fill="#8897d1" d="M 143.3125 542.617188 C 139.503906 540.164062 135.777344 537.632812 132.105469 535.003906 L 162.441406 493.265625 C 165.230469 495.246094 168.074219 497.167969 170.941406 499.035156 Z M 143.3125 542.617188 " fill-opacity="1" fill-rule="evenodd"/><path fill="#8897d1" d="M 158.851562 551.976562 C 154.90625 549.777344 151.023438 547.484375 147.195312 545.089844 L 174.84375 501.507812 C 177.75 503.3125 180.710938 505.078125 183.695312 506.746094 Z M 158.851562 551.976562 " fill-opacity="1" fill-rule="evenodd"/><path fill="#8897d1" d="M 174.941406 560.375 C 170.863281 558.414062 166.839844 556.371094 162.875 554.214844 L 187.738281 508.984375 C 190.757812 510.613281 193.800781 512.179688 196.902344 513.671875 Z M 174.941406 560.375 " fill-opacity="1" fill-rule="evenodd"/><path fill="#8897d1" d="M 191.523438 567.714844 C 187.34375 566.007812 183.203125 564.222656 179.101562 562.316406 L 201.082031 515.613281 C 204.179688 517.046875 207.339844 518.421875 210.519531 519.714844 Z M 191.523438 567.714844 " fill-opacity="1" fill-rule="evenodd"/><path fill="#8897d1" d="M 208.558594 573.992188 C 204.257812 572.5625 200.019531 571.03125 195.820312 569.402344 L 214.816406 521.402344 C 218.015625 522.640625 221.234375 523.816406 224.492188 524.898438 Z M 208.558594 573.992188 " fill-opacity="1" fill-rule="evenodd"/><path fill="#8897d1" d="M 225.941406 579.171875 C 221.566406 578.035156 217.230469 576.78125 212.953125 575.425781 L 228.886719 526.328125 C 232.144531 527.351562 235.460938 528.292969 238.777344 529.195312 Z M 225.941406 579.171875 " fill-opacity="1" fill-rule="evenodd"/><path fill="#8897d1" d="M 243.621094 583.253906 C 239.1875 582.390625 234.773438 581.390625 230.417969 580.3125 L 243.230469 530.332031 C 246.566406 531.136719 249.902344 531.902344 253.296875 532.570312 Z M 243.621094 583.253906 " fill-opacity="1" fill-rule="evenodd"/><path fill="#8897d1" d="M 261.539062 586.21875 C 257.046875 585.628906 252.570312 584.921875 248.15625 584.136719 L 257.808594 533.433594 C 261.183594 534.042969 264.582031 534.550781 267.996094 535.023438 Z M 261.539062 586.21875 " fill-opacity="1" fill-rule="evenodd"/><g clip-path="url(#71a9995805)"><path fill="#8897d1" d="M 279.570312 588.042969 C 275.058594 587.730469 270.566406 587.296875 266.089844 586.789062 L 272.566406 535.589844 C 275.960938 535.984375 279.375 536.296875 282.808594 536.554688 Z M 279.570312 588.042969 " fill-opacity="1" fill-rule="evenodd"/></g><g clip-path="url(#a0ec9e5604)"><path fill="#8897d1" d="M 297.703125 588.75 C 293.171875 588.710938 288.65625 588.574219 284.183594 588.335938 L 287.402344 536.847656 C 290.816406 537.023438 294.25 537.101562 297.703125 537.140625 Z M 297.703125 588.75 " fill-opacity="1" fill-rule="evenodd"/></g><g clip-path="url(#96a344731d)"><path fill="#8897d1" d="M 315.835938 588.335938 C 311.359375 588.574219 306.847656 588.710938 302.316406 588.730469 L 302.296875 537.140625 C 305.75 537.101562 309.183594 537.003906 312.597656 536.828125 Z M 315.835938 588.335938 " fill-opacity="1" fill-rule="evenodd"/></g><g clip-path="url(#e3b68519b6)"><path fill="#8897d1" d="M 333.925781 586.769531 C 329.453125 587.296875 324.960938 587.710938 320.445312 588.042969 L 317.1875 536.53125 C 320.640625 536.296875 324.058594 535.964844 327.453125 535.570312 Z M 333.925781 586.769531 " fill-opacity="1" fill-rule="evenodd"/></g><path fill="#8897d1" d="M 351.863281 584.097656 C 347.449219 584.902344 342.992188 585.609375 338.5 586.199219 L 332.023438 535.003906 C 335.417969 534.550781 338.8125 534.019531 342.1875 533.414062 Z M 351.863281 584.097656 " fill-opacity="1" fill-rule="evenodd"/><path fill="#8897d1" d="M 369.621094 580.292969 C 365.246094 581.371094 360.851562 582.351562 356.394531 583.234375 L 346.722656 532.550781 C 350.097656 531.863281 353.453125 531.117188 356.769531 530.292969 Z M 369.621094 580.292969 " fill-opacity="1" fill-rule="evenodd"/><path fill="#8897d1" d="M 387.085938 575.386719 C 382.789062 576.742188 378.453125 577.996094 374.074219 579.152344 L 361.222656 529.15625 C 364.558594 528.273438 367.855469 527.328125 371.113281 526.308594 Z M 387.085938 575.386719 " fill-opacity="1" fill-rule="evenodd"/><path fill="#8897d1" d="M 404.195312 569.363281 C 399.996094 570.992188 395.757812 572.519531 391.460938 573.953125 L 375.507812 524.878906 C 378.765625 523.777344 381.984375 522.621094 385.183594 521.382812 Z M 404.195312 569.363281 " fill-opacity="1" fill-rule="evenodd"/><path fill="#8897d1" d="M 420.894531 562.277344 C 416.8125 564.160156 412.671875 565.96875 408.492188 567.65625 L 389.480469 519.675781 C 392.660156 518.382812 395.816406 517.007812 398.917969 515.59375 Z M 420.894531 562.277344 " fill-opacity="1" fill-rule="evenodd"/><path fill="#8897d1" d="M 437.144531 554.175781 C 433.179688 556.3125 429.15625 558.375 425.074219 560.335938 L 403.097656 513.632812 C 406.199219 512.121094 409.238281 510.570312 412.261719 508.945312 Z M 437.144531 554.175781 " fill-opacity="1" fill-rule="evenodd"/><path fill="#8897d1" d="M 452.800781 545.03125 C 448.976562 547.421875 445.109375 549.71875 441.164062 551.9375 L 416.304688 506.707031 C 419.285156 505.019531 422.230469 503.273438 425.152344 501.46875 Z M 452.800781 545.03125 " fill-opacity="1" fill-rule="evenodd"/><path fill="#8897d1" d="M 467.890625 534.945312 C 464.222656 537.574219 460.496094 540.105469 456.707031 542.558594 L 429.039062 498.996094 C 431.921875 497.109375 434.769531 495.1875 437.554688 493.207031 Z M 467.890625 534.945312 " fill-opacity="1" fill-rule="evenodd"/><path fill="#8897d1" d="M 482.296875 523.914062 C 478.800781 526.761719 475.25 529.546875 471.621094 532.214844 L 441.285156 490.476562 C 444.03125 488.4375 446.738281 486.316406 449.40625 484.160156 Z M 482.296875 523.914062 " fill-opacity="1" fill-rule="evenodd"/><path fill="#8897d1" d="M 495.992188 512.023438 C 492.675781 515.085938 489.300781 518.066406 485.847656 520.972656 L 452.960938 481.214844 C 455.570312 479 458.140625 476.742188 460.671875 474.40625 Z M 495.992188 512.023438 " fill-opacity="1" fill-rule="evenodd"/><path fill="#8897d1" d="M 508.941406 499.308594 C 505.824219 502.566406 502.625 505.765625 499.367188 508.882812 L 464.027344 471.269531 C 466.519531 468.894531 468.933594 466.460938 471.308594 463.988281 Z M 508.941406 499.308594 " fill-opacity="1" fill-rule="evenodd"/><path fill="#8897d1" d="M 521.03125 485.789062 C 518.125 489.242188 515.144531 492.617188 512.082031 495.933594 L 474.464844 460.613281 C 476.78125 458.101562 479.058594 455.511719 481.253906 452.902344 Z M 521.03125 485.789062 " fill-opacity="1" fill-rule="evenodd"/><path fill="#8897d1" d="M 532.273438 471.542969 C 529.585938 475.171875 526.820312 478.742188 523.972656 482.238281 L 484.21875 449.347656 C 486.378906 446.679688 488.476562 443.972656 490.515625 441.226562 Z M 532.273438 471.542969 " fill-opacity="1" fill-rule="evenodd"/><path fill="#8897d1" d="M 542.597656 456.628906 C 540.144531 460.417969 537.613281 464.164062 535.003906 467.8125 L 493.246094 437.496094 C 495.226562 434.710938 497.148438 431.863281 499.035156 428.980469 Z M 542.597656 456.628906 " fill-opacity="1" fill-rule="evenodd"/><path fill="#8897d1" d="M 551.976562 441.085938 C 549.757812 445.03125 547.464844 448.917969 545.070312 452.722656 L 501.507812 425.09375 C 503.3125 422.171875 505.058594 419.226562 506.746094 416.226562 Z M 551.976562 441.085938 " fill-opacity="1" fill-rule="evenodd"/><path fill="#8897d1" d="M 560.375 424.996094 C 558.414062 429.078125 556.351562 433.101562 554.214844 437.066406 L 508.984375 412.203125 C 510.589844 409.179688 512.160156 406.121094 513.652344 403.019531 Z M 560.375 424.996094 " fill-opacity="1" fill-rule="evenodd"/><path fill="#8897d1" d="M 567.695312 408.414062 C 565.988281 412.59375 564.199219 416.734375 562.316406 420.835938 L 515.613281 398.859375 C 517.046875 395.738281 518.402344 392.601562 519.695312 389.421875 Z M 567.695312 408.414062 " fill-opacity="1" fill-rule="evenodd"/><path fill="#8897d1" d="M 573.992188 391.382812 C 572.558594 395.679688 571.03125 399.917969 569.402344 404.117188 L 521.402344 385.125 C 522.640625 381.925781 523.796875 378.707031 524.898438 375.429688 Z M 573.992188 391.382812 " fill-opacity="1" fill-rule="evenodd"/><path fill="#8897d1" d="M 579.171875 373.996094 C 578.015625 378.375 576.757812 382.710938 575.40625 386.988281 L 526.328125 371.054688 C 527.347656 367.777344 528.292969 364.480469 529.175781 361.164062 Z M 579.171875 373.996094 " fill-opacity="1" fill-rule="evenodd"/><path fill="#8897d1" d="M 583.253906 356.316406 C 582.371094 360.75 581.390625 365.167969 580.3125 369.523438 L 530.3125 356.710938 C 531.136719 353.375 531.882812 350.019531 532.570312 346.644531 Z M 583.253906 356.316406 " fill-opacity="1" fill-rule="evenodd"/><path fill="#8897d1" d="M 586.21875 338.402344 C 585.609375 342.894531 584.921875 347.367188 584.117188 351.785156 L 533.433594 342.128906 C 534.039062 338.753906 534.550781 335.359375 535.023438 331.945312 Z M 586.21875 338.402344 " fill-opacity="1" fill-rule="evenodd"/><g clip-path="url(#450e51e1d7)"><path fill="#8897d1" d="M 588.042969 320.367188 C 587.730469 324.882812 587.296875 329.375 586.785156 333.847656 L 535.589844 327.375 C 535.964844 323.980469 536.296875 320.5625 536.550781 317.128906 Z M 588.042969 320.367188 " fill-opacity="1" fill-rule="evenodd"/></g><g clip-path="url(#ef9f5e4e3f)"><path fill="#8897d1" d="M 588.75 302.238281 C 588.710938 306.769531 588.574219 311.28125 588.335938 315.757812 L 536.847656 312.519531 C 537.023438 309.105469 537.101562 305.691406 537.140625 302.238281 Z M 588.75 302.238281 " fill-opacity="1" fill-rule="evenodd"/></g><g clip-path="url(#803aea3140)"><path fill="#8897d1" d="M 588.335938 284.105469 C 588.574219 288.578125 588.710938 293.09375 588.75 297.625 L 537.140625 297.625 C 537.101562 294.191406 537.023438 290.757812 536.828125 287.34375 Z M 588.335938 284.105469 " fill-opacity="1" fill-rule="evenodd"/></g><g clip-path="url(#b1e643dd5a)"><path fill="#8897d1" d="M 586.765625 266.011719 C 587.296875 270.488281 587.730469 274.980469 588.042969 279.492188 L 536.550781 282.730469 C 536.296875 279.296875 535.964844 275.882812 535.570312 272.488281 Z M 586.765625 266.011719 " fill-opacity="1" fill-rule="evenodd"/></g><path fill="#8897d1" d="M 584.117188 248.078125 C 584.921875 252.492188 585.609375 256.945312 586.21875 261.441406 L 535.003906 267.917969 C 534.550781 264.5 534.019531 261.105469 533.414062 257.75 Z M 584.117188 248.078125 " fill-opacity="1" fill-rule="evenodd"/><path fill="#8897d1" d="M 580.292969 230.320312 C 581.390625 234.695312 582.371094 239.089844 583.253906 243.542969 L 532.550781 253.21875 C 531.882812 249.84375 531.136719 246.488281 530.3125 243.171875 Z M 580.292969 230.320312 " fill-opacity="1" fill-rule="evenodd"/><path fill="#8897d1" d="M 575.386719 212.855469 C 576.761719 217.152344 577.996094 221.488281 579.152344 225.863281 L 529.175781 238.71875 C 528.292969 235.382812 527.328125 232.085938 526.308594 228.808594 Z M 575.386719 212.855469 " fill-opacity="1" fill-rule="evenodd"/><path fill="#8897d1" d="M 569.382812 195.742188 C 571.011719 199.941406 572.539062 204.179688 573.972656 208.480469 L 524.878906 224.433594 C 523.796875 221.175781 522.621094 217.9375 521.382812 214.757812 Z M 569.382812 195.742188 " fill-opacity="1" fill-rule="evenodd"/><path fill="#8897d1" d="M 562.296875 179.023438 C 564.179688 183.125 565.96875 187.265625 567.675781 191.445312 L 519.675781 210.460938 C 518.382812 207.28125 517.027344 204.121094 515.59375 201.003906 Z M 562.296875 179.023438 " fill-opacity="1" fill-rule="evenodd"/><path fill="#8897d1" d="M 554.175781 162.796875 C 556.332031 166.761719 558.375 170.78125 560.335938 174.863281 L 513.632812 196.84375 C 512.140625 193.742188 510.570312 190.679688 508.964844 187.679688 Z M 554.175781 162.796875 " fill-opacity="1" fill-rule="evenodd"/><path fill="#8897d1" d="M 545.050781 147.136719 C 547.421875 150.945312 549.738281 154.828125 551.9375 158.773438 L 506.726562 183.636719 C 505.039062 180.652344 503.292969 177.691406 501.46875 174.785156 Z M 545.050781 147.136719 " fill-opacity="1" fill-rule="evenodd"/><path fill="#8897d1" d="M 534.964844 132.046875 C 537.59375 135.71875 540.125 139.445312 542.578125 143.234375 L 498.996094 170.882812 C 497.128906 168.015625 495.207031 165.171875 493.226562 162.382812 Z M 534.964844 132.046875 " fill-opacity="1" fill-rule="evenodd"/><path fill="#8897d1" d="M 523.933594 117.625 C 526.78125 121.136719 529.546875 124.6875 532.234375 128.320312 L 490.496094 158.65625 C 488.457031 155.890625 486.335938 153.179688 484.179688 150.53125 Z M 523.933594 117.625 " fill-opacity="1" fill-rule="evenodd"/><path fill="#8897d1" d="M 512.042969 103.929688 C 515.105469 107.246094 518.085938 110.640625 520.992188 114.074219 L 481.234375 146.980469 C 479.019531 144.351562 476.761719 141.78125 474.425781 139.269531 Z M 512.042969 103.929688 " fill-opacity="1" fill-rule="evenodd"/><path fill="#8897d1" d="M 499.328125 90.996094 C 502.585938 94.117188 505.785156 97.296875 508.902344 100.574219 L 471.285156 135.894531 C 468.914062 133.421875 466.480469 130.988281 464.007812 128.613281 Z M 499.328125 90.996094 " fill-opacity="1" fill-rule="evenodd"/><path fill="#8897d1" d="M 485.808594 78.910156 C 489.261719 81.8125 492.636719 84.796875 495.953125 87.855469 L 460.632812 125.472656 C 458.121094 123.140625 455.53125 120.882812 452.921875 118.664062 Z M 485.808594 78.910156 " fill-opacity="1" fill-rule="evenodd"/><path fill="#8897d1" d="M 471.582031 67.644531 C 475.191406 70.332031 478.761719 73.101562 482.257812 75.945312 L 449.367188 115.722656 C 446.699219 113.5625 443.992188 111.445312 441.246094 109.402344 Z M 471.582031 67.644531 " fill-opacity="1" fill-rule="evenodd"/><path fill="#8897d1" d="M 456.667969 57.324219 C 460.457031 59.777344 464.183594 62.308594 467.851562 64.9375 L 437.515625 106.675781 C 434.730469 104.695312 431.882812 102.769531 429 100.90625 Z M 456.667969 57.324219 " fill-opacity="1" fill-rule="evenodd"/><path fill="#8897d1" d="M 441.125 47.945312 C 445.050781 50.160156 448.9375 52.457031 452.761719 54.851562 L 425.113281 98.433594 C 422.191406 96.609375 419.246094 94.863281 416.265625 93.175781 Z M 441.125 47.945312 " fill-opacity="1" fill-rule="evenodd"/><path fill="#8897d1" d="M 425.035156 39.546875 C 429.097656 41.507812 433.121094 43.566406 437.085938 45.707031 L 412.222656 90.9375 C 409.199219 89.328125 406.140625 87.757812 403.058594 86.269531 Z M 425.035156 39.546875 " fill-opacity="1" fill-rule="evenodd"/><path fill="#8897d1" d="M 408.433594 32.226562 C 412.613281 33.933594 416.773438 35.71875 420.855469 37.601562 L 398.878906 84.304688 C 395.777344 82.871094 392.617188 81.519531 389.441406 80.222656 Z M 408.433594 32.226562 " fill-opacity="1" fill-rule="evenodd"/><path fill="#8897d1" d="M 391.402344 25.925781 C 395.699219 27.359375 399.9375 28.890625 404.136719 30.519531 L 385.144531 78.515625 C 381.945312 77.28125 378.726562 76.121094 375.46875 75.023438 Z M 391.402344 25.925781 " fill-opacity="1" fill-rule="evenodd"/><path fill="#8897d1" d="M 374.015625 20.746094 C 378.390625 21.90625 382.730469 23.160156 387.027344 24.515625 L 371.074219 73.589844 C 367.816406 72.570312 364.5 71.628906 361.183594 70.746094 Z M 374.015625 20.746094 " fill-opacity="1" fill-rule="evenodd"/><path fill="#8897d1" d="M 356.335938 16.664062 C 360.789062 17.546875 365.1875 18.53125 369.5625 19.609375 L 356.730469 69.589844 C 353.394531 68.785156 350.058594 68.019531 346.664062 67.351562 Z M 356.335938 16.664062 " fill-opacity="1" fill-rule="evenodd"/><path fill="#8897d1" d="M 338.441406 13.703125 C 342.933594 14.292969 347.386719 14.996094 351.804688 15.800781 L 342.148438 66.488281 C 338.773438 65.878906 335.378906 65.371094 331.964844 64.898438 Z M 338.441406 13.703125 " fill-opacity="1" fill-rule="evenodd"/><g clip-path="url(#2671ab30c1)"><path fill="#8897d1" d="M 320.386719 11.878906 C 324.921875 12.191406 329.414062 12.601562 333.867188 13.132812 L 327.394531 64.328125 C 324 63.9375 320.582031 63.621094 317.148438 63.367188 Z M 320.386719 11.878906 " fill-opacity="1" fill-rule="evenodd"/></g><g clip-path="url(#f3e1899f26)"><path fill="#8897d1" d="M 302.277344 11.171875 C 306.808594 11.210938 311.300781 11.328125 315.796875 11.582031 L 312.558594 63.074219 C 309.144531 62.898438 305.710938 62.796875 302.277344 62.777344 Z M 302.277344 11.171875 " fill-opacity="1" fill-rule="evenodd"/></g><path fill="#373456" d="M 234.539062 283.105469 C 233.988281 280.59375 233.046875 278.707031 231.691406 277.453125 C 230.339844 276.195312 228.414062 275.589844 225.902344 275.589844 C 222.039062 275.589844 219.269531 277.257812 217.582031 280.613281 C 215.875 283.96875 214.992188 289.265625 214.933594 296.507812 C 216.425781 294.132812 218.566406 292.269531 221.390625 290.914062 C 224.195312 289.558594 227.296875 288.894531 230.671875 288.894531 C 237.304688 288.894531 242.640625 290.992188 246.664062 295.171875 C 250.707031 299.371094 252.707031 305.238281 252.707031 312.753906 C 252.707031 317.699219 251.726562 322.035156 249.726562 325.746094 C 247.722656 329.472656 244.820312 332.398438 240.992188 334.496094 C 237.167969 336.578125 232.632812 337.636719 227.433594 337.636719 C 216.996094 337.636719 209.753906 334.359375 205.691406 327.84375 C 201.628906 321.308594 199.589844 311.910156 199.589844 299.644531 C 199.589844 286.792969 201.746094 277.21875 206.046875 270.957031 C 210.34375 264.699219 217.230469 261.558594 226.707031 261.558594 C 231.789062 261.558594 236.066406 262.558594 239.5625 264.5625 C 243.054688 266.5625 245.683594 269.171875 247.488281 272.429688 C 249.273438 275.6875 250.355469 279.238281 250.6875 283.105469 Z M 226.511719 302.589844 C 223.609375 302.589844 221.175781 303.453125 219.25 305.179688 C 217.328125 306.90625 216.347656 309.359375 216.347656 312.558594 C 216.347656 315.796875 217.25 318.347656 219.054688 320.171875 C 220.839844 321.996094 223.390625 322.898438 226.707031 322.898438 C 229.691406 322.898438 232.046875 322.015625 233.773438 320.210938 C 235.5 318.425781 236.363281 315.972656 236.363281 312.851562 C 236.363281 309.671875 235.519531 307.160156 233.832031 305.335938 C 232.125 303.511719 229.691406 302.589844 226.511719 302.589844 Z M 314.773438 278.21875 L 283.085938 278.21875 L 283.085938 292.230469 C 284.4375 290.738281 286.34375 289.519531 288.773438 288.578125 C 291.207031 287.636719 293.855469 287.167969 296.703125 287.167969 C 301.765625 287.167969 305.984375 288.304688 309.339844 290.621094 C 312.695312 292.914062 315.148438 295.898438 316.699219 299.546875 C 318.269531 303.199219 319.035156 307.160156 319.035156 311.441406 C 319.035156 319.347656 316.796875 325.625 312.34375 330.277344 C 307.867188 334.910156 301.570312 337.222656 293.445312 337.222656 C 288.03125 337.222656 283.320312 336.300781 279.316406 334.4375 C 275.332031 332.574219 272.253906 329.984375 270.074219 326.667969 C 267.914062 323.351562 266.738281 319.523438 266.523438 315.1875 L 283.496094 315.1875 C 283.890625 317.289062 284.871094 319.035156 286.441406 320.425781 C 287.988281 321.800781 290.128906 322.507812 292.835938 322.507812 C 296.015625 322.507812 298.390625 321.488281 299.941406 319.464844 C 301.511719 317.425781 302.277344 314.714844 302.277344 311.320312 C 302.277344 308.003906 301.472656 305.472656 299.84375 303.707031 C 298.214844 301.960938 295.839844 301.078125 292.738281 301.078125 C 290.421875 301.078125 288.539062 301.628906 287.046875 302.746094 C 285.558594 303.863281 284.574219 305.335938 284.105469 307.160156 L 267.347656 307.160156 L 267.347656 262.992188 L 314.773438 262.992188 Z M 327.15625 281.769531 C 327.15625 276.296875 328.746094 272.054688 331.886719 269.074219 C 335.027344 266.089844 339.109375 264.621094 344.132812 264.621094 C 349.136719 264.621094 353.195312 266.089844 356.316406 269.074219 C 359.417969 272.054688 360.988281 276.296875 360.988281 281.769531 C 360.988281 287.265625 359.417969 291.484375 356.316406 294.464844 C 353.195312 297.449219 349.136719 298.941406 344.132812 298.941406 C 339.109375 298.941406 335.027344 297.449219 331.886719 294.464844 C 328.746094 291.484375 327.15625 287.265625 327.15625 281.769531 Z M 396.132812 265.71875 L 357.023438 337.222656 L 340.265625 337.222656 L 379.375 265.71875 Z M 344.011719 274.765625 C 340.777344 274.765625 339.148438 277.101562 339.148438 281.769531 C 339.148438 286.382812 340.777344 288.675781 344.011719 288.675781 C 345.582031 288.675781 346.800781 288.109375 347.683594 286.949219 C 348.566406 285.8125 348.996094 284.085938 348.996094 281.769531 C 348.996094 277.101562 347.347656 274.765625 344.011719 274.765625 Z M 375.507812 321.171875 C 375.507812 315.699219 377.058594 311.460938 380.179688 308.496094 C 383.296875 305.511719 387.359375 304.023438 392.363281 304.023438 C 397.386719 304.023438 401.449219 305.511719 404.550781 308.496094 C 407.667969 311.460938 409.21875 315.699219 409.21875 321.171875 C 409.21875 326.667969 407.667969 330.90625 404.550781 333.867188 C 401.449219 336.851562 397.386719 338.34375 392.363281 338.34375 C 387.359375 338.34375 383.296875 336.851562 380.179688 333.867188 C 377.058594 330.90625 375.507812 326.667969 375.507812 321.171875 Z M 392.265625 314.167969 C 390.714844 314.167969 389.5 314.757812 388.65625 315.894531 C 387.8125 317.050781 387.398438 318.816406 387.398438 321.171875 C 387.398438 325.785156 389.007812 328.078125 392.265625 328.078125 C 393.816406 328.078125 395.03125 327.511719 395.914062 326.351562 C 396.796875 325.214844 397.25 323.488281 397.25 321.171875 C 397.25 318.875 396.796875 317.128906 395.914062 315.953125 C 395.03125 314.777344 393.816406 314.167969 392.265625 314.167969 Z M 392.265625 314.167969 " fill-opacity="1" fill-rule="nonzero"/></svg>