<svg xmlns="http://www.w3.org/2000/svg" xmlns:xlink="http://www.w3.org/1999/xlink" width="800" zoomAndPan="magnify" viewBox="0 0 600 599.999999" height="800" preserveAspectRatio="xMidYMid meet" version="1.0"><defs><clipPath id="6d21069240"><path d="M 10.371094 10.371094 L 589.371094 10.371094 L 589.371094 589.371094 L 10.371094 589.371094 Z M 10.371094 10.371094 " clip-rule="nonzero"/></clipPath><clipPath id="1c66a509c8"><path d="M 537 302 L 589.371094 302 L 589.371094 316 L 537 316 Z M 537 302 " clip-rule="nonzero"/></clipPath><clipPath id="f8b53a1f1b"><path d="M 537 283 L 589.371094 283 L 589.371094 298 L 537 298 Z M 537 283 " clip-rule="nonzero"/></clipPath><clipPath id="59787fa6c6"><path d="M 302 10.371094 L 316 10.371094 L 316 63 L 302 63 Z M 302 10.371094 " clip-rule="nonzero"/></clipPath></defs><path fill="#7156dd" d="M 299.871094 70.195312 C 426.703125 70.195312 529.53125 173.023438 529.53125 299.871094 C 529.53125 426.703125 426.703125 529.53125 299.871094 529.53125 C 173.023438 529.53125 70.195312 426.703125 70.195312 299.871094 C 70.195312 173.023438 173.023438 70.195312 299.871094 70.195312 Z M 299.871094 70.195312 " fill-opacity="1" fill-rule="evenodd"/><g clip-path="url(#6d21069240)"><path fill="#4028bc" d="M 302.1875 10.371094 C 306.722656 10.40625 311.242188 10.53125 315.738281 10.773438 L 312.488281 62.398438 C 309.078125 62.222656 305.636719 62.136719 302.1875 62.097656 Z M 320.347656 11.074219 C 324.882812 11.390625 329.390625 11.816406 333.863281 12.335938 L 327.378906 63.660156 C 323.976562 63.269531 320.550781 62.941406 317.097656 62.691406 Z M 338.4375 12.902344 C 342.945312 13.503906 347.417969 14.199219 351.851562 15.003906 L 342.152344 65.824219 C 338.789062 65.207031 335.375 64.691406 331.960938 64.226562 Z M 356.382812 15.875 C 360.84375 16.753906 365.261719 17.738281 369.632812 18.820312 L 356.773438 68.9375 C 353.4375 68.117188 350.085938 67.363281 346.699219 66.695312 Z M 374.105469 19.96875 C 378.5 21.125 382.847656 22.386719 387.140625 23.746094 L 371.15625 72.941406 C 367.882812 71.921875 364.570312 70.964844 361.246094 70.082031 Z M 391.550781 25.167969 C 395.84375 26.605469 400.101562 28.140625 404.308594 29.765625 L 385.265625 77.878906 C 382.054688 76.644531 378.828125 75.472656 375.554688 74.378906 Z M 408.617188 31.480469 C 412.808594 33.179688 416.964844 34.980469 421.058594 36.871094 L 399.03125 83.6875 C 395.921875 82.25 392.757812 80.890625 389.558594 79.59375 Z M 425.242188 38.820312 C 429.324219 40.785156 433.351562 42.851562 437.332031 44.992188 L 412.40625 90.335938 C 409.382812 88.710938 406.3125 87.136719 403.210938 85.636719 Z M 441.375 47.25 C 445.320312 49.464844 449.210938 51.769531 453.039062 54.164062 L 425.328125 97.84375 C 422.40625 96.027344 419.449219 94.265625 416.449219 92.578125 Z M 456.957031 56.632812 C 460.746094 59.085938 464.488281 61.632812 468.167969 64.265625 L 437.761719 106.117188 C 434.964844 104.117188 432.117188 102.1875 429.234375 100.324219 Z M 471.90625 66.984375 C 475.535156 69.679688 479.109375 72.464844 482.613281 75.308594 L 449.636719 115.175781 C 446.96875 113.007812 444.261719 110.890625 441.503906 108.839844 Z M 486.175781 78.269531 C 489.640625 81.179688 493.027344 84.164062 496.339844 87.238281 L 460.9375 124.949219 C 458.40625 122.617188 455.835938 120.351562 453.203125 118.121094 Z M 499.730469 90.386719 C 503.003906 93.511719 506.203125 96.710938 509.316406 99.984375 L 471.605469 135.402344 C 469.222656 132.921875 466.792969 130.488281 464.3125 128.109375 Z M 512.476562 103.359375 C 515.535156 106.683594 518.535156 110.074219 521.445312 113.535156 L 481.59375 146.511719 C 479.375 143.878906 477.097656 141.296875 474.765625 138.777344 Z M 524.402344 117.101562 C 527.25 120.601562 530.035156 124.167969 532.730469 127.808594 L 490.875 158.210938 C 488.820312 155.453125 486.707031 152.746094 484.539062 150.074219 Z M 535.449219 131.546875 C 538.082031 135.210938 540.625 138.953125 543.082031 142.757812 L 499.402344 170.480469 C 497.527344 167.59375 495.597656 164.75 493.597656 161.953125 Z M 545.5625 146.660156 C 547.957031 150.492188 550.261719 154.382812 552.476562 158.335938 L 507.136719 183.261719 C 505.449219 180.265625 503.695312 177.304688 501.882812 174.382812 Z M 554.71875 162.378906 C 556.859375 166.347656 558.925781 170.378906 560.890625 174.460938 L 514.074219 196.488281 C 512.578125 193.390625 511.003906 190.328125 509.378906 187.304688 Z M 562.84375 178.640625 C 564.746094 182.746094 566.535156 186.890625 568.246094 191.097656 L 520.132812 210.140625 C 518.835938 206.953125 517.476562 203.792969 516.039062 200.683594 Z M 569.949219 195.390625 C 571.585938 199.597656 573.121094 203.855469 574.558594 208.164062 L 525.347656 224.148438 C 524.253906 220.886719 523.082031 217.648438 521.847656 214.449219 Z M 575.980469 212.558594 C 577.339844 216.855469 578.601562 221.210938 579.757812 225.597656 L 529.644531 238.46875 C 528.75 235.128906 527.804688 231.816406 526.769531 228.542969 Z M 580.90625 230.066406 C 581.988281 234.4375 582.972656 238.859375 583.851562 243.316406 L 533.03125 253.015625 C 532.363281 249.628906 531.609375 246.265625 530.789062 242.9375 Z M 584.722656 247.851562 C 585.527344 252.285156 586.21875 256.757812 586.824219 261.265625 L 535.5 267.75 C 535.035156 264.324219 534.515625 260.925781 533.898438 257.550781 Z M 587.390625 265.835938 C 587.921875 270.308594 588.335938 274.816406 588.664062 279.351562 L 537.035156 282.601562 C 536.785156 279.164062 536.457031 275.738281 536.066406 272.324219 Z M 588.953125 283.960938 C 589.191406 288.457031 589.320312 292.980469 589.355469 297.527344 L 537.628906 297.539062 C 537.601562 294.074219 537.503906 290.636719 537.324219 287.222656 Z M 589.355469 302.148438 C 589.332031 306.683594 589.191406 311.21875 588.953125 315.703125 L 537.324219 312.464844 C 537.503906 309.050781 537.601562 305.601562 537.628906 302.148438 Z M 588.664062 320.324219 C 588.347656 324.859375 587.921875 329.355469 587.390625 333.824219 L 536.066406 327.351562 C 536.457031 323.953125 536.796875 320.527344 537.035156 317.074219 Z M 586.824219 338.410156 C 586.234375 342.917969 585.539062 347.390625 584.734375 351.824219 L 533.914062 342.140625 C 534.515625 338.761719 535.046875 335.351562 535.5 331.9375 Z M 583.867188 356.359375 C 582.984375 360.816406 582 365.226562 580.917969 369.609375 L 530.800781 356.75 C 531.621094 353.410156 532.363281 350.0625 533.042969 346.671875 Z M 579.773438 374.082031 C 578.613281 378.464844 577.355469 382.820312 575.992188 387.117188 L 526.785156 371.132812 C 527.816406 367.859375 528.761719 364.558594 529.65625 361.21875 Z M 574.570312 391.511719 C 573.132812 395.820312 571.597656 400.078125 569.972656 404.285156 L 521.859375 385.238281 C 523.09375 382.027344 524.265625 378.804688 525.359375 375.527344 Z M 568.261719 408.578125 C 566.558594 412.785156 564.757812 416.941406 562.871094 421.035156 L 516.054688 399.019531 C 517.488281 395.894531 518.847656 392.734375 520.160156 389.546875 Z M 560.917969 425.214844 C 558.953125 429.296875 556.886719 433.328125 554.746094 437.308594 L 509.402344 412.382812 C 511.027344 409.359375 512.601562 406.296875 514.101562 403.1875 Z M 552.503906 441.351562 C 550.285156 445.292969 547.980469 449.183594 545.589844 453.015625 L 501.910156 425.304688 C 503.722656 422.382812 505.472656 419.433594 507.160156 416.425781 Z M 543.105469 456.929688 C 540.652344 460.722656 538.105469 464.464844 535.488281 468.140625 L 493.632812 437.75 C 495.625 434.941406 497.550781 432.09375 499.425781 429.210938 Z M 532.753906 471.882812 C 530.070312 475.523438 527.289062 479.085938 524.441406 482.585938 L 484.578125 449.625 C 486.742188 446.957031 488.847656 444.246094 490.898438 441.476562 Z M 521.480469 486.152344 C 518.570312 489.617188 515.574219 493.003906 512.515625 496.328125 L 474.804688 460.921875 C 477.132812 458.390625 479.402344 455.808594 481.617188 453.179688 Z M 509.363281 499.703125 C 506.242188 502.980469 503.042969 506.179688 499.765625 509.300781 L 464.351562 471.59375 C 466.832031 469.210938 469.261719 466.78125 471.640625 464.300781 Z M 496.390625 512.449219 C 493.066406 515.523438 489.679688 518.507812 486.214844 521.429688 L 453.242188 481.578125 C 455.859375 479.351562 458.441406 477.082031 460.972656 474.753906 Z M 482.664062 524.378906 C 479.148438 527.238281 475.585938 530.007812 471.945312 532.703125 L 441.539062 490.863281 C 444.296875 488.808594 447.007812 486.695312 449.675781 484.527344 Z M 468.214844 535.4375 C 464.539062 538.054688 460.796875 540.601562 457.007812 543.070312 L 429.273438 499.390625 C 432.15625 497.511719 435.003906 495.585938 437.800781 493.582031 Z M 453.089844 545.539062 C 449.261719 547.929688 445.367188 550.234375 441.425781 552.453125 L 416.488281 507.121094 C 419.484375 505.433594 422.445312 503.683594 425.367188 501.871094 Z M 437.382812 554.707031 C 433.402344 556.847656 429.386719 558.914062 425.304688 560.878906 L 403.261719 514.0625 C 406.363281 512.5625 409.421875 510.988281 412.445312 509.363281 Z M 421.109375 562.832031 C 417.015625 564.734375 412.859375 566.523438 408.667969 568.234375 L 389.609375 520.121094 C 392.796875 518.824219 395.957031 517.464844 399.070312 516.027344 Z M 404.359375 569.933594 C 400.152344 571.574219 395.894531 573.109375 391.601562 574.542969 L 375.605469 525.335938 C 378.867188 524.238281 382.101562 523.070312 385.300781 521.835938 Z M 387.203125 575.96875 C 382.898438 577.328125 378.550781 578.585938 374.167969 579.746094 L 361.285156 529.628906 C 364.621094 528.75 367.933594 527.792969 371.207031 526.769531 Z M 369.695312 580.894531 C 365.3125 581.976562 360.90625 582.957031 356.445312 583.839844 L 346.75 533.03125 C 350.125 532.351562 353.488281 531.59375 356.8125 530.777344 Z M 351.898438 584.722656 C 347.464844 585.527344 342.996094 586.21875 338.5 586.8125 L 332 535.488281 C 335.425781 535.035156 338.828125 534.503906 342.203125 533.898438 Z M 333.914062 587.390625 C 329.441406 587.910156 324.933594 588.335938 320.414062 588.652344 L 317.148438 537.035156 C 320.589844 536.785156 324.015625 536.457031 327.425781 536.066406 Z M 315.789062 588.941406 C 311.304688 589.191406 306.773438 589.320312 302.226562 589.355469 L 302.226562 537.628906 C 305.675781 537.589844 309.113281 537.503906 312.539062 537.324219 Z M 297.613281 589.355469 C 293.066406 589.332031 288.546875 589.191406 284.050781 588.953125 L 287.285156 537.324219 C 290.710938 537.503906 294.152344 537.601562 297.601562 537.628906 Z M 279.441406 588.664062 C 274.90625 588.347656 270.398438 587.921875 265.925781 587.40625 L 272.398438 536.066406 C 275.800781 536.46875 279.226562 536.796875 282.675781 537.035156 Z M 261.339844 586.835938 C 256.84375 586.234375 252.375 585.539062 247.941406 584.734375 L 257.625 533.914062 C 261 534.515625 264.402344 535.046875 267.816406 535.5 Z M 243.394531 583.867188 C 238.945312 582.984375 234.527344 582 230.144531 580.917969 L 243.003906 530.800781 C 246.339844 531.621094 249.691406 532.375 253.078125 533.042969 Z M 225.683594 579.785156 C 221.289062 578.613281 216.941406 577.367188 212.636719 576.007812 L 228.617188 526.796875 C 231.894531 527.816406 235.207031 528.773438 238.53125 529.65625 Z M 208.238281 574.582031 C 203.945312 573.148438 199.6875 571.609375 195.480469 569.984375 L 214.511719 521.871094 C 217.722656 523.09375 220.949219 524.277344 224.222656 525.375 Z M 191.171875 568.273438 C 186.980469 566.570312 182.824219 564.769531 178.714844 562.882812 L 200.734375 516.066406 C 203.855469 517.5 207.019531 518.863281 210.203125 520.160156 Z M 174.535156 560.929688 C 170.453125 558.964844 166.421875 556.898438 162.457031 554.757812 L 187.371094 509.402344 C 190.390625 511.039062 193.453125 512.601562 196.5625 514.101562 Z M 158.414062 552.515625 C 154.457031 550.300781 150.566406 547.996094 146.738281 545.601562 L 174.445312 501.921875 C 177.367188 503.734375 180.316406 505.484375 183.328125 507.171875 Z M 142.820312 543.121094 C 139.027344 540.664062 135.289062 538.121094 131.609375 535.5 L 162.003906 493.644531 C 164.800781 495.636719 167.65625 497.5625 170.542969 499.441406 Z M 127.871094 532.765625 C 124.242188 530.082031 120.664062 527.300781 117.164062 524.453125 L 150.125 484.589844 C 152.796875 486.757812 155.503906 488.859375 158.273438 490.914062 Z M 113.597656 521.492188 C 110.136719 518.585938 106.746094 515.597656 103.421875 512.527344 L 138.828125 474.816406 C 141.359375 477.144531 143.941406 479.414062 146.5625 481.628906 Z M 100.046875 509.378906 C 96.773438 506.253906 93.574219 503.054688 90.449219 499.78125 L 128.160156 464.363281 C 130.539062 466.84375 132.972656 469.273438 135.453125 471.65625 Z M 87.300781 496.40625 C 84.226562 493.09375 81.242188 489.691406 78.320312 486.238281 L 118.171875 453.253906 C 120.386719 455.886719 122.667969 458.46875 125 460.988281 Z M 75.359375 482.675781 C 72.515625 479.175781 69.730469 475.609375 67.046875 471.96875 L 108.890625 441.550781 C 110.941406 444.3125 113.046875 447.03125 115.222656 449.6875 Z M 64.316406 468.230469 C 61.683594 464.5625 59.136719 460.824219 56.683594 457.019531 L 100.363281 429.285156 C 102.238281 432.167969 104.164062 435.015625 106.15625 437.8125 Z M 54.199219 453.113281 C 51.808594 449.285156 49.503906 445.394531 47.285156 441.453125 L 92.617188 416.511719 C 94.304688 419.511719 96.066406 422.472656 97.878906 425.378906 Z M 45.042969 437.410156 C 42.890625 433.429688 40.824219 429.410156 38.859375 425.316406 L 85.675781 403.277344 C 87.175781 406.375 88.75 409.433594 90.375 412.46875 Z M 36.90625 421.136719 C 35.019531 417.03125 33.21875 412.886719 31.503906 408.679688 L 79.605469 389.621094 C 80.914062 392.808594 82.273438 395.96875 83.710938 399.09375 Z M 29.804688 404.398438 C 28.167969 400.175781 26.628906 395.933594 25.195312 391.625 L 74.402344 375.617188 C 75.5 378.890625 76.671875 382.128906 77.90625 385.328125 Z M 23.769531 387.230469 C 22.410156 382.921875 21.152344 378.578125 19.992188 374.195312 L 70.097656 361.308594 C 70.988281 364.644531 71.945312 367.945312 72.96875 371.222656 Z M 18.847656 369.722656 C 17.761719 365.339844 16.78125 360.929688 15.886719 356.472656 L 66.707031 346.761719 C 67.386719 350.148438 68.132812 353.511719 68.960938 356.835938 Z M 15.015625 351.925781 C 14.210938 347.492188 13.519531 343.019531 12.914062 338.523438 L 64.238281 332.023438 C 64.703125 335.449219 65.222656 338.851562 65.839844 342.226562 Z M 12.347656 333.9375 C 11.816406 329.46875 11.402344 324.972656 11.074219 320.4375 L 62.703125 317.175781 C 62.953125 320.613281 63.28125 324.039062 63.671875 327.441406 Z M 10.785156 315.816406 C 10.53125 311.332031 10.40625 306.796875 10.371094 302.261719 L 62.097656 302.238281 C 62.136719 305.699219 62.222656 309.140625 62.414062 312.554688 Z M 10.371094 297.640625 C 10.40625 293.09375 10.53125 288.570312 10.773438 284.074219 L 62.398438 287.3125 C 62.222656 290.726562 62.136719 294.175781 62.097656 297.628906 Z M 11.0625 279.464844 C 11.378906 274.929688 11.804688 270.421875 12.335938 265.949219 L 63.660156 272.425781 C 63.269531 275.824219 62.941406 279.25 62.691406 282.703125 Z M 12.886719 261.378906 C 13.492188 256.871094 14.1875 252.398438 14.992188 247.964844 L 65.8125 257.636719 C 65.207031 261.011719 64.679688 264.414062 64.226562 267.839844 Z M 15.859375 243.429688 C 16.742188 238.972656 17.726562 234.550781 18.808594 230.179688 L 68.925781 243.027344 C 68.105469 246.363281 67.351562 249.714844 66.683594 253.105469 Z M 19.941406 225.710938 C 21.101562 221.3125 22.359375 216.96875 23.71875 212.660156 L 72.929688 228.644531 C 71.898438 231.917969 70.953125 235.21875 70.070312 238.554688 Z M 25.144531 208.265625 C 26.578125 203.96875 28.117188 199.710938 29.742188 195.503906 L 77.855469 214.539062 C 76.621094 217.734375 75.449219 220.972656 74.351562 224.234375 Z M 31.441406 191.199219 C 33.152344 187.003906 34.941406 182.847656 36.832031 178.742188 L 83.660156 200.757812 C 82.226562 203.882812 80.863281 207.042969 79.554688 210.230469 Z M 38.785156 174.558594 C 40.75 170.480469 42.816406 166.449219 44.957031 162.480469 L 90.3125 187.382812 C 88.6875 190.417969 87.113281 193.476562 85.613281 196.578125 Z M 47.199219 158.425781 C 49.414062 154.484375 51.71875 150.589844 54.113281 146.761719 L 97.804688 174.472656 C 95.992188 177.382812 94.242188 180.339844 92.539062 183.339844 Z M 56.59375 142.84375 C 59.050781 139.054688 61.59375 135.3125 64.214844 131.636719 L 106.082031 162.027344 C 104.078125 164.824219 102.152344 167.671875 100.285156 170.554688 Z M 66.945312 127.894531 C 69.628906 124.253906 72.402344 120.691406 75.261719 117.1875 L 115.136719 150.152344 C 112.96875 152.808594 110.855469 155.527344 108.800781 158.285156 Z M 78.207031 113.625 C 81.128906 110.160156 84.113281 106.773438 87.1875 103.449219 L 124.898438 138.839844 C 122.566406 141.371094 120.300781 143.953125 118.082031 146.585938 Z M 90.335938 100.058594 C 93.445312 96.796875 96.660156 93.597656 99.921875 90.476562 L 135.351562 128.171875 C 132.871094 130.550781 130.4375 132.984375 128.058594 135.464844 Z M 103.296875 87.3125 C 106.621094 84.253906 110.011719 81.253906 113.472656 78.34375 L 146.460938 118.183594 C 143.828125 120.402344 141.246094 122.679688 138.726562 125.011719 Z M 117.023438 75.386719 C 120.527344 72.527344 124.105469 69.753906 127.730469 67.058594 L 158.160156 108.902344 C 155.390625 110.941406 152.683594 113.070312 150.011719 115.238281 Z M 131.472656 64.328125 C 135.148438 61.707031 138.890625 59.152344 142.683594 56.695312 L 170.417969 100.375 C 167.53125 102.25 164.683594 104.179688 161.890625 106.167969 Z M 146.585938 54.214844 C 150.429688 51.820312 154.308594 49.515625 158.261719 47.296875 L 183.199219 92.628906 C 180.203125 94.316406 177.242188 96.066406 174.332031 97.894531 Z M 162.304688 45.054688 C 166.273438 42.902344 170.304688 40.835938 174.382812 38.871094 L 196.425781 85.6875 C 193.328125 87.1875 190.265625 88.761719 187.242188 90.386719 Z M 178.566406 36.921875 C 182.671875 35.019531 186.828125 33.230469 191.023438 31.515625 L 210.089844 79.617188 C 206.890625 80.914062 203.730469 82.289062 200.621094 83.722656 Z M 195.304688 29.816406 C 199.523438 28.179688 203.78125 26.640625 208.074219 25.207031 L 224.085938 74.402344 C 220.808594 75.5 217.585938 76.683594 214.375 77.917969 Z M 212.472656 23.769531 C 216.777344 22.410156 221.125 21.152344 225.507812 19.992188 L 238.40625 70.109375 C 235.066406 70.988281 231.753906 71.945312 228.480469 72.980469 Z M 229.980469 18.847656 C 234.363281 17.761719 238.769531 16.78125 243.230469 15.898438 L 252.941406 66.707031 C 249.550781 67.386719 246.203125 68.144531 242.863281 68.960938 Z M 247.777344 15.03125 C 252.210938 14.222656 256.679688 13.519531 261.175781 12.914062 L 267.675781 64.238281 C 264.261719 64.703125 260.863281 65.234375 257.488281 65.839844 Z M 265.761719 12.347656 C 270.234375 11.832031 274.730469 11.402344 279.265625 11.074219 L 282.539062 62.703125 C 279.085938 62.953125 275.660156 63.28125 272.261719 63.671875 Z M 283.886719 10.785156 C 288.40625 10.546875 292.96875 10.40625 297.550781 10.371094 L 297.550781 62.097656 C 294.0625 62.136719 290.597656 62.222656 287.148438 62.414062 Z M 283.886719 10.785156 " fill-opacity="1" fill-rule="evenodd"/></g><path fill="#d88183" d="M 404.359375 569.933594 C 400.152344 571.574219 395.894531 573.109375 391.601562 574.542969 L 375.605469 525.335938 C 378.867188 524.238281 382.101562 523.070312 385.300781 521.835938 Z M 404.359375 569.933594 " fill-opacity="1" fill-rule="evenodd"/><path fill="#d88183" d="M 421.109375 562.832031 C 417.015625 564.734375 412.859375 566.523438 408.667969 568.234375 L 389.609375 520.121094 C 392.796875 518.824219 395.957031 517.464844 399.070312 516.027344 Z M 421.109375 562.832031 " fill-opacity="1" fill-rule="evenodd"/><path fill="#d88183" d="M 437.382812 554.707031 C 433.402344 556.847656 429.386719 558.914062 425.304688 560.878906 L 403.261719 514.0625 C 406.363281 512.5625 409.421875 510.988281 412.445312 509.363281 Z M 437.382812 554.707031 " fill-opacity="1" fill-rule="evenodd"/><path fill="#d88183" d="M 453.089844 545.539062 C 449.261719 547.929688 445.367188 550.234375 441.425781 552.453125 L 416.488281 507.121094 C 419.484375 505.433594 422.445312 503.683594 425.367188 501.871094 Z M 453.089844 545.539062 " fill-opacity="1" fill-rule="evenodd"/><path fill="#d88183" d="M 468.214844 535.4375 C 464.539062 538.058594 460.796875 540.601562 457.007812 543.070312 L 429.273438 499.390625 C 432.15625 497.511719 435.003906 495.585938 437.800781 493.582031 Z M 468.214844 535.4375 " fill-opacity="1" fill-rule="evenodd"/><path fill="#d88183" d="M 482.664062 524.378906 C 479.148438 527.238281 475.585938 530.007812 471.945312 532.703125 L 441.539062 490.863281 C 444.296875 488.808594 447.007812 486.695312 449.675781 484.527344 Z M 482.664062 524.378906 " fill-opacity="1" fill-rule="evenodd"/><path fill="#d88183" d="M 496.390625 512.449219 C 493.066406 515.523438 489.679688 518.507812 486.214844 521.429688 L 453.242188 481.578125 C 455.859375 479.351562 458.441406 477.082031 460.972656 474.753906 Z M 496.390625 512.449219 " fill-opacity="1" fill-rule="evenodd"/><path fill="#d88183" d="M 509.363281 499.703125 C 506.242188 502.980469 503.042969 506.179688 499.765625 509.300781 L 464.351562 471.59375 C 466.832031 469.210938 469.261719 466.78125 471.640625 464.300781 Z M 509.363281 499.703125 " fill-opacity="1" fill-rule="evenodd"/><path fill="#d88183" d="M 521.480469 486.152344 C 518.570312 489.617188 515.574219 493.003906 512.511719 496.328125 L 474.804688 460.925781 C 477.132812 458.390625 479.402344 455.808594 481.617188 453.179688 Z M 521.480469 486.152344 " fill-opacity="1" fill-rule="evenodd"/><path fill="#d88183" d="M 532.753906 471.882812 C 530.070312 475.523438 527.289062 479.085938 524.441406 482.585938 L 484.578125 449.625 C 486.742188 446.957031 488.847656 444.246094 490.898438 441.476562 Z M 532.753906 471.882812 " fill-opacity="1" fill-rule="evenodd"/><path fill="#d88183" d="M 543.105469 456.929688 C 540.652344 460.722656 538.105469 464.464844 535.488281 468.140625 L 493.632812 437.75 C 495.625 434.941406 497.550781 432.09375 499.425781 429.210938 Z M 543.105469 456.929688 " fill-opacity="1" fill-rule="evenodd"/><path fill="#d88183" d="M 552.503906 441.351562 C 550.285156 445.292969 547.980469 449.183594 545.589844 453.015625 L 501.910156 425.304688 C 503.722656 422.382812 505.472656 419.433594 507.160156 416.425781 Z M 552.503906 441.351562 " fill-opacity="1" fill-rule="evenodd"/><path fill="#d88183" d="M 560.917969 425.214844 C 558.953125 429.296875 556.886719 433.328125 554.746094 437.308594 L 509.402344 412.382812 C 511.027344 409.359375 512.601562 406.296875 514.101562 403.1875 Z M 560.917969 425.214844 " fill-opacity="1" fill-rule="evenodd"/><path fill="#d88183" d="M 568.261719 408.578125 C 566.558594 412.785156 564.757812 416.941406 562.871094 421.035156 L 516.054688 399.019531 C 517.488281 395.894531 518.847656 392.734375 520.160156 389.546875 Z M 568.261719 408.578125 " fill-opacity="1" fill-rule="evenodd"/><path fill="#d88183" d="M 574.570312 391.511719 C 573.132812 395.820312 571.597656 400.078125 569.972656 404.285156 L 521.859375 385.238281 C 523.09375 382.027344 524.265625 378.804688 525.359375 375.527344 Z M 574.570312 391.511719 " fill-opacity="1" fill-rule="evenodd"/><path fill="#d88183" d="M 579.773438 374.082031 C 578.613281 378.464844 577.355469 382.820312 575.992188 387.117188 L 526.785156 371.132812 C 527.816406 367.859375 528.761719 364.558594 529.65625 361.21875 Z M 579.773438 374.082031 " fill-opacity="1" fill-rule="evenodd"/><path fill="#d88183" d="M 583.867188 356.359375 C 582.984375 360.816406 582 365.226562 580.917969 369.609375 L 530.800781 356.75 C 531.621094 353.410156 532.363281 350.0625 533.042969 346.671875 Z M 583.867188 356.359375 " fill-opacity="1" fill-rule="evenodd"/><path fill="#d88183" d="M 586.824219 338.410156 C 586.234375 342.917969 585.539062 347.390625 584.734375 351.824219 L 533.914062 342.140625 C 534.515625 338.761719 535.046875 335.351562 535.5 331.9375 Z M 586.824219 338.410156 " fill-opacity="1" fill-rule="evenodd"/><path fill="#d88183" d="M 588.664062 320.324219 C 588.347656 324.859375 587.921875 329.355469 587.390625 333.824219 L 536.066406 327.351562 C 536.457031 323.953125 536.796875 320.527344 537.035156 317.074219 Z M 588.664062 320.324219 " fill-opacity="1" fill-rule="evenodd"/><g clip-path="url(#1c66a509c8)"><path fill="#d88183" d="M 589.355469 302.148438 C 589.332031 306.683594 589.191406 311.21875 588.953125 315.703125 L 537.324219 312.464844 C 537.503906 309.050781 537.601562 305.601562 537.628906 302.148438 Z M 589.355469 302.148438 " fill-opacity="1" fill-rule="evenodd"/></g><g clip-path="url(#f8b53a1f1b)"><path fill="#d88183" d="M 588.953125 283.960938 C 589.191406 288.457031 589.320312 292.980469 589.355469 297.527344 L 537.628906 297.539062 C 537.601562 294.074219 537.503906 290.636719 537.324219 287.222656 Z M 588.953125 283.960938 " fill-opacity="1" fill-rule="evenodd"/></g><path fill="#d88183" d="M 587.390625 265.835938 C 587.921875 270.308594 588.335938 274.816406 588.664062 279.351562 L 537.035156 282.601562 C 536.785156 279.164062 536.457031 275.738281 536.066406 272.324219 Z M 587.390625 265.835938 " fill-opacity="1" fill-rule="evenodd"/><path fill="#d88183" d="M 584.722656 247.851562 C 585.527344 252.285156 586.21875 256.757812 586.824219 261.265625 L 535.5 267.75 C 535.035156 264.324219 534.515625 260.925781 533.898438 257.550781 Z M 584.722656 247.851562 " fill-opacity="1" fill-rule="evenodd"/><path fill="#d88183" d="M 580.90625 230.066406 C 581.988281 234.4375 582.972656 238.859375 583.851562 243.316406 L 533.03125 253.015625 C 532.363281 249.628906 531.609375 246.265625 530.789062 242.9375 Z M 580.90625 230.066406 " fill-opacity="1" fill-rule="evenodd"/><path fill="#d88183" d="M 575.980469 212.558594 C 577.339844 216.855469 578.601562 221.210938 579.757812 225.597656 L 529.644531 238.46875 C 528.75 235.128906 527.804688 231.816406 526.769531 228.542969 Z M 575.980469 212.558594 " fill-opacity="1" fill-rule="evenodd"/><path fill="#d88183" d="M 569.949219 195.390625 C 571.585938 199.597656 573.121094 203.855469 574.558594 208.164062 L 525.347656 224.148438 C 524.253906 220.886719 523.082031 217.648438 521.847656 214.449219 Z M 569.949219 195.390625 " fill-opacity="1" fill-rule="evenodd"/><path fill="#d88183" d="M 562.84375 178.640625 C 564.746094 182.746094 566.535156 186.890625 568.246094 191.097656 L 520.132812 210.140625 C 518.835938 206.953125 517.476562 203.792969 516.039062 200.683594 Z M 562.84375 178.640625 " fill-opacity="1" fill-rule="evenodd"/><path fill="#d88183" d="M 554.71875 162.378906 C 556.859375 166.347656 558.925781 170.378906 560.890625 174.460938 L 514.074219 196.488281 C 512.578125 193.390625 511.003906 190.328125 509.378906 187.304688 Z M 554.71875 162.378906 " fill-opacity="1" fill-rule="evenodd"/><path fill="#d88183" d="M 545.5625 146.660156 C 547.957031 150.492188 550.261719 154.382812 552.476562 158.335938 L 507.136719 183.261719 C 505.449219 180.265625 503.695312 177.304688 501.882812 174.382812 Z M 545.5625 146.660156 " fill-opacity="1" fill-rule="evenodd"/><path fill="#d88183" d="M 535.449219 131.546875 C 538.082031 135.210938 540.625 138.953125 543.082031 142.757812 L 499.402344 170.480469 C 497.527344 167.59375 495.597656 164.75 493.597656 161.953125 Z M 535.449219 131.546875 " fill-opacity="1" fill-rule="evenodd"/><path fill="#d88183" d="M 524.402344 117.101562 C 527.25 120.601562 530.035156 124.167969 532.730469 127.808594 L 490.875 158.210938 C 488.820312 155.453125 486.707031 152.746094 484.539062 150.074219 Z M 524.402344 117.101562 " fill-opacity="1" fill-rule="evenodd"/><path fill="#d88183" d="M 512.476562 103.359375 C 515.535156 106.683594 518.535156 110.074219 521.445312 113.535156 L 481.59375 146.511719 C 479.375 143.878906 477.097656 141.296875 474.765625 138.777344 Z M 512.476562 103.359375 " fill-opacity="1" fill-rule="evenodd"/><path fill="#d88183" d="M 499.730469 90.386719 C 503.003906 93.511719 506.203125 96.710938 509.316406 99.984375 L 471.605469 135.402344 C 469.222656 132.921875 466.792969 130.488281 464.3125 128.109375 Z M 499.730469 90.386719 " fill-opacity="1" fill-rule="evenodd"/><path fill="#d88183" d="M 486.175781 78.269531 C 489.640625 81.179688 493.027344 84.164062 496.339844 87.238281 L 460.9375 124.949219 C 458.40625 122.617188 455.835938 120.351562 453.203125 118.121094 Z M 486.175781 78.269531 " fill-opacity="1" fill-rule="evenodd"/><path fill="#d88183" d="M 471.90625 66.984375 C 475.535156 69.679688 479.109375 72.464844 482.613281 75.308594 L 449.636719 115.175781 C 446.96875 113.007812 444.261719 110.890625 441.503906 108.839844 Z M 471.90625 66.984375 " fill-opacity="1" fill-rule="evenodd"/><path fill="#d88183" d="M 456.957031 56.632812 C 460.746094 59.085938 464.488281 61.632812 468.167969 64.265625 L 437.761719 106.117188 C 434.964844 104.117188 432.117188 102.1875 429.234375 100.324219 Z M 456.957031 56.632812 " fill-opacity="1" fill-rule="evenodd"/><path fill="#d88183" d="M 441.375 47.25 C 445.320312 49.464844 449.210938 51.769531 453.039062 54.164062 L 425.328125 97.84375 C 422.40625 96.027344 419.449219 94.265625 416.449219 92.578125 Z M 441.375 47.25 " fill-opacity="1" fill-rule="evenodd"/><path fill="#d88183" d="M 425.242188 38.820312 C 429.324219 40.785156 433.351562 42.851562 437.332031 44.992188 L 412.40625 90.335938 C 409.382812 88.710938 406.3125 87.136719 403.210938 85.636719 Z M 425.242188 38.820312 " fill-opacity="1" fill-rule="evenodd"/><path fill="#d88183" d="M 408.617188 31.480469 C 412.808594 33.179688 416.964844 34.980469 421.058594 36.871094 L 399.03125 83.6875 C 395.921875 82.25 392.757812 80.890625 389.558594 79.59375 Z M 408.617188 31.480469 " fill-opacity="1" fill-rule="evenodd"/><path fill="#d88183" d="M 391.550781 25.167969 C 395.84375 26.605469 400.101562 28.140625 404.308594 29.765625 L 385.265625 77.878906 C 382.054688 76.644531 378.828125 75.472656 375.554688 74.378906 Z M 391.550781 25.167969 " fill-opacity="1" fill-rule="evenodd"/><path fill="#d88183" d="M 374.105469 19.96875 C 378.5 21.125 382.847656 22.386719 387.140625 23.746094 L 371.15625 72.941406 C 367.882812 71.921875 364.570312 70.964844 361.246094 70.082031 Z M 374.105469 19.96875 " fill-opacity="1" fill-rule="evenodd"/><path fill="#d88183" d="M 356.382812 15.875 C 360.84375 16.753906 365.261719 17.738281 369.632812 18.820312 L 356.773438 68.9375 C 353.4375 68.117188 350.085938 67.363281 346.699219 66.695312 Z M 356.382812 15.875 " fill-opacity="1" fill-rule="evenodd"/><path fill="#d88183" d="M 338.4375 12.902344 C 342.945312 13.503906 347.417969 14.199219 351.851562 15.003906 L 342.152344 65.824219 C 338.789062 65.207031 335.375 64.691406 331.960938 64.226562 Z M 338.4375 12.902344 " fill-opacity="1" fill-rule="evenodd"/><path fill="#d88183" d="M 320.347656 11.074219 C 324.882812 11.390625 329.390625 11.816406 333.863281 12.335938 L 327.378906 63.660156 C 323.976562 63.269531 320.550781 62.941406 317.097656 62.691406 Z M 320.347656 11.074219 " fill-opacity="1" fill-rule="evenodd"/><g clip-path="url(#59787fa6c6)"><path fill="#d88183" d="M 302.1875 10.371094 C 306.722656 10.40625 311.242188 10.53125 315.738281 10.773438 L 312.488281 62.398438 C 309.078125 62.222656 305.636719 62.136719 302.1875 62.097656 Z M 302.1875 10.371094 " fill-opacity="1" fill-rule="evenodd"/></g><path fill="#e99b27" d="M 193.214844 325.652344 L 193.214844 311.609375 L 225.394531 265.585938 L 244.839844 265.585938 L 244.839844 310.589844 L 253.179688 310.589844 L 253.179688 325.652344 L 244.839844 325.652344 L 244.839844 338.890625 L 227.421875 338.890625 L 227.421875 325.652344 Z M 228.644531 284.730469 L 211.539062 310.589844 L 228.644531 310.589844 Z M 314.0625 279.742188 L 282.300781 279.742188 L 282.300781 293.785156 C 283.660156 292.300781 285.5625 291.078125 288.003906 290.121094 C 290.449219 289.175781 293.09375 288.699219 295.953125 288.699219 C 301.039062 288.699219 305.261719 289.855469 308.621094 292.160156 C 311.984375 294.464844 314.441406 297.449219 316.003906 301.117188 C 317.566406 304.78125 318.347656 308.761719 318.347656 313.03125 C 318.347656 320.980469 316.105469 327.265625 311.621094 331.925781 C 307.148438 336.570312 300.839844 338.890625 292.691406 338.890625 C 287.261719 338.890625 282.539062 337.957031 278.53125 336.09375 C 274.527344 334.230469 271.441406 331.632812 269.277344 328.308594 C 267.097656 324.984375 265.914062 321.144531 265.710938 316.796875 L 282.714844 316.796875 C 283.117188 318.902344 284.101562 320.652344 285.660156 322.050781 C 287.222656 323.433594 289.363281 324.128906 292.074219 324.128906 C 295.273438 324.128906 297.640625 323.109375 299.203125 321.078125 C 300.761719 319.039062 301.542969 316.320312 301.542969 312.929688 C 301.542969 309.605469 300.726562 307.0625 299.101562 305.296875 C 297.476562 303.535156 295.097656 302.652344 291.972656 302.652344 C 289.667969 302.652344 287.765625 303.207031 286.277344 304.328125 C 284.78125 305.449219 283.796875 306.921875 283.320312 308.761719 L 266.515625 308.761719 L 266.515625 264.464844 L 314.0625 264.464844 Z M 326.496094 283.308594 C 326.496094 277.800781 328.070312 273.558594 331.21875 270.574219 C 334.378906 267.589844 338.472656 266.101562 343.5 266.101562 C 348.511719 266.101562 352.59375 267.589844 355.714844 270.574219 C 358.828125 273.558594 360.390625 277.800781 360.390625 283.308594 C 360.390625 288.796875 358.828125 293.042969 355.714844 296.027344 C 352.59375 299.011719 348.511719 300.511719 343.5 300.511719 C 338.472656 300.511719 334.378906 299.011719 331.21875 296.027344 C 328.070312 293.042969 326.496094 288.796875 326.496094 283.308594 Z M 395.617188 267.222656 L 356.421875 338.890625 L 339.621094 338.890625 L 378.828125 267.222656 Z M 343.386719 276.277344 C 340.136719 276.277344 338.5 278.621094 338.5 283.308594 C 338.5 287.917969 340.136719 290.222656 343.386719 290.222656 C 344.949219 290.222656 346.167969 289.65625 347.050781 288.496094 C 347.945312 287.335938 348.386719 285.613281 348.386719 283.308594 C 348.386719 278.621094 346.722656 276.277344 343.386719 276.277344 Z M 374.949219 322.804688 C 374.949219 317.3125 376.511719 313.070312 379.632812 310.085938 C 382.757812 307.097656 386.828125 305.601562 391.851562 305.601562 C 396.878906 305.601562 400.945312 307.097656 404.070312 310.085938 C 407.191406 313.070312 408.753906 317.3125 408.753906 322.804688 C 408.753906 328.308594 407.191406 332.542969 404.070312 335.539062 C 400.945312 338.523438 396.878906 340.011719 391.851562 340.011719 C 386.828125 340.011719 382.757812 338.523438 379.632812 335.539062 C 376.511719 332.542969 374.949219 328.308594 374.949219 322.804688 Z M 391.75 315.777344 C 390.1875 315.777344 388.992188 316.355469 388.136719 317.515625 C 387.292969 318.660156 386.863281 320.4375 386.863281 322.804688 C 386.863281 327.425781 388.488281 329.734375 391.75 329.734375 C 393.3125 329.734375 394.535156 329.152344 395.417969 327.996094 C 396.296875 326.847656 396.738281 325.109375 396.738281 322.804688 C 396.738281 320.5 396.296875 318.75 395.417969 317.566406 C 394.535156 316.382812 393.3125 315.777344 391.75 315.777344 Z M 391.75 315.777344 " fill-opacity="1" fill-rule="nonzero"/></svg>