<svg xmlns="http://www.w3.org/2000/svg" xmlns:xlink="http://www.w3.org/1999/xlink" width="800" zoomAndPan="magnify" viewBox="0 0 600 599.999999" height="800" preserveAspectRatio="xMidYMid meet" version="1.0"><defs><clipPath id="ea3ba194f8"><path d="M 10.011719 16 L 578 16 L 578 585 L 10.011719 585 Z M 10.011719 16 " clip-rule="nonzero"/></clipPath><clipPath id="9aafa0d0ef"><path d="M 293 5 L 589.761719 5 L 589.761719 595.96875 L 293 595.96875 Z M 293 5 " clip-rule="nonzero"/></clipPath></defs><g clip-path="url(#ea3ba194f8)"><path fill="#000000" d="M 554.859375 190.089844 C 551.296875 181.6875 547.34375 173.476562 542.996094 165.457031 C 538.644531 157.433594 533.921875 149.640625 528.824219 142.074219 C 523.726562 134.507812 518.277344 127.203125 512.476562 120.160156 C 506.679688 113.117188 500.554688 106.371094 494.105469 99.917969 C 487.65625 93.464844 480.914062 87.335938 473.878906 81.53125 C 466.839844 75.726562 459.539062 70.273438 451.980469 65.171875 C 444.417969 60.070312 436.628906 55.34375 428.613281 50.992188 C 420.597656 46.640625 412.394531 42.683594 403.996094 39.121094 C 369.039062 24.324219 331.914062 16.824219 293.644531 16.824219 C 255.375 16.824219 218.238281 24.324219 183.285156 39.117188 C 174.890625 42.679688 166.683594 46.636719 158.667969 50.988281 C 150.652344 55.339844 142.867188 60.066406 135.304688 65.167969 C 127.742188 70.269531 120.445312 75.722656 113.40625 81.527344 C 106.367188 87.332031 99.625 93.460938 93.175781 99.914062 C 86.730469 106.367188 80.605469 113.113281 74.804688 120.15625 C 69.003906 127.199219 63.554688 134.503906 58.457031 142.070312 C 53.359375 149.636719 48.636719 157.429688 44.289062 165.453125 C 39.9375 173.472656 35.984375 181.683594 32.425781 190.085938 C 17.640625 225.070312 10.144531 262.222656 10.144531 300.519531 C 10.144531 338.816406 17.644531 375.972656 32.425781 410.953125 C 35.984375 419.355469 39.9375 427.566406 44.289062 435.589844 C 48.636719 443.609375 53.359375 451.402344 58.457031 458.96875 C 63.554688 466.539062 69.003906 473.84375 74.804688 480.882812 C 80.605469 487.925781 86.730469 494.675781 93.175781 501.128906 C 99.625 507.582031 106.367188 513.710938 113.40625 519.511719 C 120.445312 525.316406 127.742188 530.769531 135.304688 535.871094 C 142.867188 540.972656 150.652344 545.699219 158.667969 550.050781 C 166.683594 554.402344 174.890625 558.363281 183.285156 561.921875 C 218.242188 576.71875 255.371094 584.21875 293.640625 584.21875 C 331.910156 584.21875 369.035156 576.714844 403.992188 561.921875 C 412.390625 558.363281 420.59375 554.40625 428.609375 550.050781 C 436.625 545.699219 444.414062 540.972656 451.976562 535.871094 C 459.539062 530.769531 466.839844 525.316406 473.875 519.515625 C 480.914062 513.710938 487.65625 507.582031 494.105469 501.128906 C 500.554688 494.675781 506.675781 487.925781 512.476562 480.886719 C 518.277344 473.84375 523.726562 466.539062 528.824219 458.972656 C 533.921875 451.402344 538.644531 443.609375 542.996094 435.589844 C 547.34375 427.566406 551.296875 419.355469 554.859375 410.953125 C 569.644531 375.972656 577.140625 338.816406 577.140625 300.519531 C 577.140625 262.222656 569.640625 225.074219 554.859375 190.089844 Z M 293.644531 561.964844 C 149.601562 561.964844 32.402344 444.691406 32.402344 300.535156 C 32.402344 156.382812 149.59375 39.109375 293.644531 39.109375 C 437.695312 39.109375 554.878906 156.375 554.878906 300.519531 C 554.878906 444.664062 437.691406 561.953125 293.640625 561.953125 Z M 293.644531 561.964844 " fill-opacity="1" fill-rule="nonzero"/></g><g clip-path="url(#9aafa0d0ef)"><path fill="#6bc9ff" d="M 441.59375 44.089844 C 432.535156 38.828125 423.226562 34.066406 413.660156 29.804688 C 404.097656 25.542969 394.332031 21.800781 384.371094 18.582031 C 374.40625 15.363281 364.296875 12.6875 354.046875 10.550781 C 343.796875 8.414062 333.464844 6.828125 323.042969 5.796875 C 307.285156 4.21875 293.636719 16.671875 293.636719 32.519531 L 293.636719 32.753906 C 293.636719 33.582031 293.679688 34.40625 293.753906 35.226562 C 293.832031 36.050781 293.949219 36.867188 294.101562 37.679688 C 294.253906 38.492188 294.441406 39.292969 294.667969 40.089844 C 294.894531 40.882812 295.160156 41.664062 295.457031 42.4375 C 295.753906 43.207031 296.089844 43.960938 296.457031 44.699219 C 296.824219 45.4375 297.226562 46.160156 297.660156 46.863281 C 298.09375 47.566406 298.5625 48.246094 299.058594 48.90625 C 299.554688 49.566406 300.082031 50.199219 300.636719 50.8125 C 301.195312 51.421875 301.777344 52.007812 302.386719 52.5625 C 302.996094 53.121094 303.628906 53.648438 304.285156 54.148438 C 304.945312 54.644531 305.625 55.113281 306.324219 55.550781 C 307.027344 55.984375 307.746094 56.390625 308.484375 56.757812 C 309.222656 57.128906 309.976562 57.464844 310.746094 57.761719 C 311.515625 58.0625 312.296875 58.328125 313.089844 58.554688 C 313.882812 58.785156 314.683594 58.976562 315.496094 59.128906 C 316.304688 59.285156 317.121094 59.402344 317.945312 59.480469 C 329.980469 60.671875 341.859375 62.761719 353.578125 65.753906 C 365.296875 68.746094 376.726562 72.601562 387.863281 77.324219 C 390.582031 78.476562 393.277344 79.675781 395.953125 80.925781 C 398.628906 82.179688 401.28125 83.476562 403.910156 84.824219 C 406.539062 86.171875 409.140625 87.566406 411.71875 89.011719 C 414.296875 90.453125 416.84375 91.945312 419.367188 93.480469 C 421.890625 95.015625 424.382812 96.597656 426.847656 98.226562 C 429.3125 99.851562 431.746094 101.527344 434.152344 103.242188 C 436.554688 104.960938 438.925781 106.71875 441.265625 108.523438 C 443.605469 110.324219 445.910156 112.171875 448.183594 114.058594 C 450.453125 115.949219 452.691406 117.875 454.890625 119.847656 C 457.09375 121.816406 459.257812 123.824219 461.386719 125.875 C 463.515625 127.921875 465.605469 130.011719 467.65625 132.136719 C 469.707031 134.261719 471.71875 136.425781 473.691406 138.625 C 475.664062 140.824219 477.597656 143.058594 479.488281 145.328125 C 481.378906 147.597656 483.226562 149.902344 485.035156 152.238281 C 486.839844 154.574219 488.601562 156.945312 490.324219 159.347656 C 492.042969 161.75 493.71875 164.183594 495.351562 166.644531 C 496.980469 169.109375 498.566406 171.601562 500.105469 174.125 C 501.648438 176.644531 503.140625 179.195312 504.585938 181.769531 C 506.035156 184.347656 507.433594 186.949219 508.785156 189.574219 C 510.136719 192.203125 511.441406 194.855469 512.695312 197.527344 C 513.949219 200.203125 515.15625 202.902344 516.3125 205.621094 C 517.46875 208.339844 518.574219 211.078125 519.628906 213.839844 C 520.6875 216.597656 521.691406 219.375 522.648438 222.171875 C 523.601562 224.96875 524.503906 227.78125 525.355469 230.613281 C 526.207031 233.441406 527.007812 236.285156 527.753906 239.144531 C 528.503906 242.003906 529.199219 244.875 529.839844 247.757812 C 530.484375 250.644531 531.074219 253.539062 531.613281 256.445312 C 532.148438 259.351562 532.632812 262.265625 533.0625 265.1875 C 533.492188 268.113281 533.871094 271.042969 534.195312 273.980469 C 534.515625 276.917969 534.785156 279.859375 535.003906 282.808594 C 535.21875 285.753906 535.378906 288.703125 535.488281 291.65625 C 535.597656 294.609375 535.648438 297.566406 535.648438 300.519531 C 535.648438 303.476562 535.597656 306.429688 535.488281 309.382812 C 535.378906 312.335938 535.21875 315.285156 535.003906 318.234375 C 534.785156 321.179688 534.515625 324.125 534.195312 327.0625 C 533.871094 330 533.492188 332.929688 533.0625 335.851562 C 532.632812 338.777344 532.148438 341.691406 531.613281 344.597656 C 531.074219 347.503906 530.484375 350.398438 529.839844 353.28125 C 529.199219 356.167969 528.503906 359.039062 527.753906 361.894531 C 527.007812 364.753906 526.207031 367.597656 525.355469 370.429688 C 524.503906 373.257812 523.601562 376.070312 522.648438 378.867188 C 521.691406 381.664062 520.6875 384.441406 519.628906 387.203125 C 518.574219 389.960938 517.46875 392.703125 516.3125 395.421875 C 515.15625 398.140625 513.949219 400.835938 512.695312 403.511719 C 511.441406 406.1875 510.136719 408.839844 508.785156 411.464844 C 507.433594 414.09375 506.035156 416.695312 504.585938 419.269531 C 503.140625 421.847656 501.648438 424.394531 500.105469 426.917969 C 498.566406 429.4375 496.980469 431.933594 495.351562 434.394531 C 493.71875 436.859375 492.042969 439.292969 490.324219 441.695312 C 488.601562 444.09375 486.839844 446.464844 485.035156 448.804688 C 483.226562 451.140625 481.378906 453.445312 479.488281 455.714844 C 477.597656 457.984375 475.664062 460.21875 473.691406 462.417969 C 471.71875 464.617188 469.707031 466.777344 467.65625 468.90625 C 465.605469 471.03125 463.515625 473.117188 461.386719 475.167969 C 459.257812 477.214844 457.09375 479.226562 454.890625 481.195312 C 452.691406 483.164062 450.453125 485.09375 448.183594 486.980469 C 445.910156 488.871094 443.605469 490.714844 441.265625 492.519531 C 438.925781 494.320312 436.554688 496.082031 434.152344 497.800781 C 431.746094 499.515625 429.3125 501.1875 426.847656 502.816406 C 424.382812 504.441406 421.890625 506.023438 419.367188 507.5625 C 416.84375 509.097656 414.296875 510.585938 411.71875 512.03125 C 409.140625 513.472656 406.539062 514.867188 403.910156 516.214844 C 401.28125 517.5625 398.628906 518.863281 395.953125 520.113281 C 393.277344 521.363281 390.582031 522.566406 387.863281 523.71875 C 376.726562 528.4375 365.296875 532.296875 353.578125 535.285156 C 341.859375 538.277344 329.980469 540.367188 317.945312 541.5625 C 317.121094 541.640625 316.304688 541.757812 315.496094 541.910156 C 314.683594 542.066406 313.882812 542.257812 313.089844 542.484375 C 312.296875 542.710938 311.515625 542.976562 310.746094 543.277344 C 309.976562 543.578125 309.222656 543.914062 308.484375 544.28125 C 307.746094 544.652344 307.027344 545.054688 306.324219 545.492188 C 305.625 545.925781 304.945312 546.394531 304.285156 546.894531 C 303.628906 547.390625 302.996094 547.921875 302.386719 548.476562 C 301.777344 549.035156 301.195312 549.617188 300.636719 550.230469 C 300.082031 550.839844 299.554688 551.476562 299.058594 552.136719 C 298.5625 552.792969 298.09375 553.476562 297.660156 554.179688 C 297.226562 554.878906 296.824219 555.601562 296.457031 556.339844 C 296.089844 557.082031 295.753906 557.835938 295.457031 558.605469 C 295.160156 559.375 294.894531 560.15625 294.667969 560.953125 C 294.441406 561.746094 294.253906 562.550781 294.101562 563.363281 C 293.949219 564.171875 293.832031 564.992188 293.753906 565.8125 C 293.679688 566.636719 293.636719 567.460938 293.636719 568.285156 L 293.636719 568.523438 C 293.636719 569.457031 293.683594 570.386719 293.78125 571.316406 C 293.878906 572.246094 294.023438 573.167969 294.214844 574.082031 C 294.410156 574.992188 294.648438 575.894531 294.9375 576.785156 C 295.222656 577.671875 295.554688 578.542969 295.933594 579.398438 C 296.308594 580.25 296.730469 581.082031 297.195312 581.894531 C 297.660156 582.703125 298.167969 583.488281 298.710938 584.246094 C 299.257812 585 299.84375 585.726562 300.464844 586.425781 C 301.085938 587.121094 301.746094 587.78125 302.4375 588.410156 C 303.125 589.035156 303.847656 589.625 304.601562 590.179688 C 305.355469 590.730469 306.132812 591.242188 306.941406 591.710938 C 307.746094 592.183594 308.574219 592.609375 309.425781 592.996094 C 310.277344 593.378906 311.144531 593.71875 312.03125 594.011719 C 312.914062 594.304688 313.816406 594.550781 314.726562 594.75 C 315.636719 594.949219 316.558594 595.101562 317.484375 595.203125 C 318.414062 595.308594 319.34375 595.363281 320.277344 595.367188 C 321.210938 595.375 322.140625 595.332031 323.070312 595.242188 C 472.5 580.417969 589.597656 453.894531 589.597656 300.519531 C 589.601562 191.105469 530.003906 95.359375 441.59375 44.089844 Z M 441.59375 44.089844 " fill-opacity="1" fill-rule="nonzero"/></g><path fill="#6bc9ff" d="M 478.347656 222.4375 C 476.753906 218.644531 475.042969 214.90625 473.21875 211.21875 C 471.394531 207.535156 469.460938 203.90625 467.414062 200.339844 C 465.367188 196.769531 463.214844 193.269531 460.953125 189.835938 C 458.691406 186.398438 456.328125 183.035156 453.859375 179.746094 C 451.394531 176.453125 448.828125 173.242188 446.164062 170.109375 C 443.5 166.976562 440.742188 163.929688 437.894531 160.964844 C 435.042969 158 432.101562 155.128906 429.078125 152.34375 C 426.050781 149.5625 422.941406 146.871094 419.75 144.28125 C 416.558594 141.6875 413.289062 139.195312 409.945312 136.800781 C 406.601562 134.410156 403.1875 132.125 399.703125 129.941406 C 396.21875 127.757812 392.671875 125.683594 389.058594 123.71875 C 385.449219 121.753906 381.78125 119.902344 378.054688 118.160156 C 374.328125 116.421875 370.554688 114.796875 366.730469 113.289062 C 362.90625 111.78125 359.039062 110.390625 355.128906 109.121094 C 351.21875 107.851562 347.277344 106.699219 343.296875 105.671875 C 339.316406 104.640625 335.308594 103.738281 331.273438 102.953125 C 327.238281 102.171875 323.179688 101.511719 319.105469 100.976562 C 315.027344 100.445312 310.941406 100.035156 306.839844 99.753906 C 302.738281 99.46875 298.632812 99.3125 294.523438 99.28125 C 290.410156 99.25 286.304688 99.34375 282.199219 99.566406 C 278.09375 99.785156 274 100.132812 269.917969 100.605469 C 265.832031 101.074219 261.769531 101.671875 257.722656 102.394531 C 253.675781 103.117188 249.652344 103.960938 245.65625 104.929688 C 241.664062 105.898438 237.699219 106.988281 233.773438 108.199219 C 229.84375 109.410156 225.957031 110.738281 222.109375 112.191406 C 218.261719 113.640625 214.464844 115.207031 210.710938 116.890625 C 206.960938 118.570312 203.265625 120.367188 199.625 122.277344 C 195.984375 124.1875 192.40625 126.207031 188.886719 128.335938 C 185.371094 130.464844 181.921875 132.703125 178.542969 135.042969 C 175.164062 137.382812 171.855469 139.828125 168.625 142.371094 C 165.394531 144.914062 162.246094 147.554688 159.179688 150.292969 C 156.109375 153.027344 153.128906 155.855469 150.230469 158.777344 C 147.335938 161.699219 144.53125 164.703125 141.820312 167.796875 C 139.109375 170.886719 136.496094 174.058594 133.980469 177.3125 C 131.464844 180.566406 129.046875 183.890625 126.734375 187.292969 C 124.421875 190.691406 122.214844 194.160156 120.117188 197.699219 C 118.015625 201.234375 116.023438 204.832031 114.144531 208.488281 C 112.265625 212.148438 110.5 215.859375 108.847656 219.625 C 107.195312 223.394531 105.65625 227.207031 104.238281 231.066406 C 102.820312 234.929688 101.519531 238.828125 100.339844 242.769531 C 99.160156 246.710938 98.101562 250.683594 97.167969 254.6875 C 96.230469 258.695312 95.417969 262.726562 94.726562 266.78125 C 94.039062 270.835938 93.472656 274.90625 93.035156 279 C 92.59375 283.089844 92.28125 287.1875 92.089844 291.296875 C 91.902344 295.40625 91.839844 299.519531 91.902344 303.628906 C 91.964844 307.742188 92.15625 311.851562 92.46875 315.953125 C 92.785156 320.054688 93.226562 324.140625 93.789062 328.21875 C 94.355469 332.292969 95.046875 336.34375 95.859375 340.378906 C 96.671875 344.410156 97.609375 348.414062 98.667969 352.386719 C 99.726562 356.363281 100.90625 360.300781 102.207031 364.203125 C 103.507812 368.105469 104.925781 371.964844 106.464844 375.78125 C 108 379.59375 109.652344 383.359375 111.421875 387.074219 C 113.1875 390.789062 115.066406 394.445312 117.058594 398.042969 C 119.050781 401.640625 121.152344 405.175781 123.359375 408.644531 C 125.566406 412.113281 127.878906 415.515625 130.296875 418.84375 C 132.710938 422.167969 135.226562 425.421875 137.84375 428.59375 C 140.460938 431.765625 143.167969 434.859375 145.972656 437.863281 C 148.777344 440.871094 151.671875 443.789062 154.65625 446.621094 C 157.640625 449.449219 160.707031 452.183594 163.859375 454.828125 C 167.011719 457.46875 170.242188 460.011719 173.546875 462.453125 C 176.855469 464.894531 180.234375 467.234375 183.683594 469.472656 C 187.132812 471.707031 190.648438 473.835938 194.230469 475.855469 C 197.8125 477.875 201.453125 479.785156 205.148438 481.582031 C 208.847656 483.378906 212.597656 485.058594 216.398438 486.625 C 220.199219 488.191406 224.042969 489.640625 227.933594 490.972656 C 231.824219 492.304688 235.75 493.511719 239.714844 494.601562 C 243.675781 495.691406 247.671875 496.660156 251.695312 497.503906 C 255.71875 498.351562 259.761719 499.070312 263.828125 499.667969 C 267.894531 500.265625 271.976562 500.734375 276.074219 501.082031 C 280.171875 501.425781 284.273438 501.648438 288.382812 501.742188 C 292.492188 501.835938 296.601562 501.804688 300.707031 501.644531 C 304.816406 501.488281 308.914062 501.207031 313.003906 500.796875 C 317.097656 500.386719 321.167969 499.851562 325.226562 499.191406 C 329.285156 498.535156 333.320312 497.75 337.328125 496.84375 C 341.335938 495.9375 345.316406 494.90625 349.261719 493.757812 C 353.207031 492.605469 357.117188 491.335938 360.984375 489.945312 C 364.855469 488.554688 368.675781 487.046875 372.453125 485.421875 C 376.230469 483.796875 379.953125 482.054688 383.621094 480.203125 C 387.289062 478.347656 390.898438 476.382812 394.449219 474.308594 C 398 472.234375 401.480469 470.050781 404.898438 467.761719 C 408.3125 465.472656 411.65625 463.082031 414.925781 460.589844 C 418.191406 458.09375 421.382812 455.503906 424.492188 452.8125 C 427.601562 450.125 430.628906 447.339844 433.566406 444.464844 C 436.507812 441.589844 439.355469 438.628906 442.113281 435.578125 C 444.875 432.527344 447.535156 429.394531 450.101562 426.179688 C 452.667969 422.96875 455.132812 419.679688 457.5 416.3125 C 459.863281 412.949219 462.121094 409.515625 464.277344 406.011719 C 466.429688 402.507812 468.476562 398.941406 470.414062 395.3125 C 472.347656 391.683594 474.171875 388 475.882812 384.257812 C 477.589844 380.519531 479.183594 376.726562 480.664062 372.890625 C 482.140625 369.050781 483.5 365.171875 484.738281 361.25 C 485.980469 357.328125 487.097656 353.371094 488.097656 349.378906 C 489.09375 345.390625 489.96875 341.371094 490.71875 337.328125 C 491.472656 333.28125 492.097656 329.21875 492.601562 325.136719 C 493.101562 321.054688 493.480469 316.957031 493.730469 312.851562 C 493.984375 308.746094 494.109375 304.636719 494.109375 300.523438 C 494.125 287.113281 492.808594 273.832031 490.15625 260.6875 C 487.503906 247.539062 483.566406 234.789062 478.347656 222.4375 Z M 478.347656 222.4375 " fill-opacity="1" fill-rule="nonzero"/><path fill="#e6ed7d" d="M 181.5625 260.613281 L 229.085938 260.613281 L 229.085938 275.515625 L 196.125 275.515625 L 195.242188 288.875 C 196.785156 288.507812 198.332031 288.191406 199.875 287.929688 C 201.703125 287.652344 203.542969 287.523438 205.390625 287.542969 C 209.011719 287.515625 212.566406 287.992188 216.054688 288.980469 C 219.21875 289.867188 222.082031 291.339844 224.644531 293.394531 C 227.183594 295.492188 229.109375 298.050781 230.417969 301.070312 C 231.824219 304.199219 232.527344 307.96875 232.527344 312.386719 C 232.527344 316.511719 231.824219 320.226562 230.417969 323.535156 C 229.0625 326.792969 227.082031 329.609375 224.476562 331.984375 C 221.746094 334.417969 218.644531 336.203125 215.171875 337.34375 C 211.246094 338.648438 207.214844 339.28125 203.078125 339.238281 C 196.824219 339.238281 191.382812 338.214844 186.75 336.167969 C 182.0625 334.09375 177.871094 331.28125 174.175781 327.726562 L 184.433594 315.503906 C 187.097656 317.960938 190.039062 320.023438 193.257812 321.683594 C 196.28125 323.1875 199.480469 323.921875 202.855469 323.894531 C 206.828125 323.894531 209.972656 322.96875 212.289062 321.121094 C 214.609375 319.273438 215.761719 316.570312 215.757812 313.019531 C 215.757812 309.617188 214.523438 306.988281 212.058594 305.136719 C 209.59375 303.28125 206.269531 302.359375 202.078125 302.363281 C 199.746094 302.351562 197.449219 302.628906 195.183594 303.191406 C 193.125 303.707031 191.117188 304.386719 189.171875 305.234375 L 179.351562 298.722656 Z M 181.5625 260.613281 " fill-opacity="1" fill-rule="nonzero"/><path fill="#e6ed7d" d="M 311.015625 314.929688 C 309.472656 319.597656 307.136719 323.832031 304.007812 327.625 C 301 331.246094 297.378906 334.085938 293.144531 336.140625 C 288.914062 338.199219 284.226562 339.230469 279.082031 339.230469 C 273.9375 339.234375 269.246094 338.222656 265.019531 336.195312 C 260.785156 334.1875 257.183594 331.371094 254.207031 327.75 C 251.121094 323.96875 248.824219 319.753906 247.3125 315.113281 C 246.503906 312.566406 245.898438 309.976562 245.488281 307.339844 C 245.082031 304.699219 244.882812 302.046875 244.886719 299.375 C 244.890625 296.707031 245.101562 294.054688 245.515625 291.417969 C 245.933594 288.777344 246.550781 286.191406 247.367188 283.648438 C 248.902344 278.957031 251.238281 274.707031 254.375 270.898438 C 257.382812 267.28125 261.007812 264.445312 265.242188 262.394531 C 269.46875 260.335938 274.160156 259.304688 279.308594 259.304688 C 284.457031 259.304688 289.148438 260.316406 293.375 262.34375 C 297.605469 264.355469 301.210938 267.171875 304.1875 270.789062 C 307.28125 274.589844 309.578125 278.820312 311.082031 283.484375 C 312.742188 288.578125 313.550781 293.804688 313.507812 299.160156 C 313.550781 304.554688 312.722656 309.8125 311.015625 314.929688 Z M 294.851562 289.539062 C 294.144531 286.738281 293.003906 284.125 291.433594 281.699219 C 290.042969 279.5625 288.257812 277.832031 286.074219 276.511719 C 285.015625 275.902344 283.894531 275.4375 282.710938 275.121094 C 281.53125 274.800781 280.328125 274.640625 279.105469 274.636719 C 277.882812 274.632812 276.679688 274.78125 275.496094 275.09375 C 274.3125 275.402344 273.1875 275.855469 272.121094 276.457031 C 269.972656 277.75 268.207031 279.441406 266.828125 281.535156 C 265.253906 283.933594 264.128906 286.527344 263.460938 289.316406 C 262.660156 292.542969 262.273438 295.816406 262.300781 299.140625 C 262.273438 302.472656 262.675781 305.746094 263.515625 308.96875 C 264.222656 311.769531 265.363281 314.382812 266.933594 316.804688 C 268.324219 318.945312 270.109375 320.671875 272.292969 321.992188 C 273.351562 322.605469 274.472656 323.066406 275.65625 323.386719 C 276.835938 323.703125 278.039062 323.863281 279.261719 323.871094 C 280.484375 323.875 281.6875 323.722656 282.871094 323.414062 C 284.054688 323.105469 285.179688 322.648438 286.246094 322.046875 C 288.40625 320.746094 290.171875 319.03125 291.539062 316.914062 C 293.101562 314.507812 294.222656 311.914062 294.90625 309.132812 C 295.710938 305.921875 296.097656 302.664062 296.066406 299.351562 C 296.09375 296.027344 295.6875 292.757812 294.851562 289.539062 Z M 294.851562 289.539062 " fill-opacity="1" fill-rule="nonzero"/><path fill="#e6ed7d" d="M 360.546875 287.164062 C 359.664062 289.511719 358.378906 291.617188 356.6875 293.472656 C 355 295.304688 353.011719 296.722656 350.730469 297.722656 C 348.28125 298.785156 345.722656 299.296875 343.050781 299.257812 C 342.113281 299.273438 341.179688 299.214844 340.25 299.085938 C 339.320312 298.957031 338.40625 298.753906 337.507812 298.484375 C 336.613281 298.210938 335.738281 297.871094 334.894531 297.460938 C 334.050781 297.054688 333.242188 296.582031 332.46875 296.046875 C 331.699219 295.515625 330.972656 294.921875 330.292969 294.277344 C 329.613281 293.628906 328.988281 292.933594 328.414062 292.1875 C 327.84375 291.445312 327.332031 290.660156 326.882812 289.835938 C 326.433594 289.011719 326.050781 288.15625 325.734375 287.273438 C 324.832031 284.792969 324.390625 282.238281 324.410156 279.597656 C 324.394531 276.9375 324.855469 274.363281 325.789062 271.871094 C 326.664062 269.503906 327.953125 267.390625 329.648438 265.523438 C 331.339844 263.691406 333.324219 262.277344 335.605469 261.277344 C 338.054688 260.214844 340.609375 259.699219 343.277344 259.730469 C 344.214844 259.714844 345.148438 259.773438 346.078125 259.902344 C 347.007812 260.035156 347.921875 260.234375 348.816406 260.507812 C 349.714844 260.78125 350.585938 261.121094 351.433594 261.527344 C 352.277344 261.9375 353.085938 262.40625 353.859375 262.941406 C 354.628906 263.476562 355.355469 264.066406 356.035156 264.714844 C 356.714844 265.359375 357.339844 266.058594 357.914062 266.800781 C 358.484375 267.546875 358.996094 268.332031 359.445312 269.15625 C 359.894531 269.980469 360.277344 270.832031 360.59375 271.71875 C 361.496094 274.195312 361.9375 276.753906 361.917969 279.390625 C 361.945312 282.066406 361.488281 284.65625 360.546875 287.164062 Z M 345.257812 337.890625 L 332.128906 337.890625 L 388.503906 260.613281 L 401.628906 260.613281 Z M 348.347656 272.703125 C 347.023438 270.753906 345.257812 269.777344 343.050781 269.777344 C 340.695312 269.777344 338.929688 270.734375 337.757812 272.648438 C 336.582031 274.5625 335.992188 276.804688 335.992188 279.382812 C 335.992188 282.03125 336.652344 284.332031 337.976562 286.28125 C 339.300781 288.234375 341.066406 289.210938 343.273438 289.210938 C 345.625 289.210938 347.390625 288.253906 348.566406 286.339844 C 349.746094 284.425781 350.332031 282.179688 350.332031 279.605469 C 350.339844 276.953125 349.679688 274.652344 348.355469 272.699219 Z M 407.980469 326.699219 C 407.09375 329.042969 405.808594 331.140625 404.121094 332.992188 C 402.433594 334.828125 400.445312 336.246094 398.164062 337.246094 C 395.714844 338.308594 393.160156 338.824219 390.492188 338.789062 C 389.554688 338.804688 388.621094 338.746094 387.691406 338.617188 C 386.761719 338.488281 385.847656 338.285156 384.953125 338.015625 C 384.054688 337.742188 383.183594 337.402344 382.335938 336.992188 C 381.492188 336.585938 380.683594 336.113281 379.910156 335.578125 C 379.140625 335.046875 378.414062 334.453125 377.734375 333.808594 C 377.054688 333.160156 376.429688 332.464844 375.855469 331.71875 C 375.285156 330.976562 374.773438 330.191406 374.324219 329.367188 C 373.875 328.542969 373.492188 327.6875 373.175781 326.804688 C 372.273438 324.324219 371.832031 321.765625 371.851562 319.128906 C 371.835938 316.46875 372.296875 313.894531 373.230469 311.402344 C 374.109375 309.035156 375.394531 306.921875 377.09375 305.054688 C 378.78125 303.222656 380.765625 301.808594 383.050781 300.808594 C 385.496094 299.746094 388.050781 299.230469 390.71875 299.261719 C 391.65625 299.246094 392.589844 299.304688 393.519531 299.433594 C 394.449219 299.5625 395.363281 299.765625 396.261719 300.039062 C 397.160156 300.308594 398.03125 300.652344 398.875 301.058594 C 399.71875 301.46875 400.527344 301.9375 401.300781 302.472656 C 402.074219 303.007812 402.796875 303.597656 403.476562 304.246094 C 404.15625 304.890625 404.785156 305.585938 405.355469 306.332031 C 405.925781 307.078125 406.4375 307.859375 406.886719 308.683594 C 407.335938 309.507812 407.71875 310.363281 408.039062 311.246094 C 408.9375 313.726562 409.378906 316.28125 409.359375 318.917969 C 409.386719 321.597656 408.925781 324.191406 407.980469 326.699219 Z M 395.792969 312.238281 C 394.46875 310.289062 392.703125 309.3125 390.496094 309.3125 C 388.140625 309.3125 386.375 310.269531 385.203125 312.183594 C 384.027344 314.097656 383.4375 316.34375 383.4375 318.917969 C 383.4375 321.566406 384.097656 323.867188 385.421875 325.820312 C 386.746094 327.769531 388.511719 328.746094 390.71875 328.746094 C 393.070312 328.746094 394.835938 327.789062 396.011719 325.875 C 397.191406 323.964844 397.777344 321.71875 397.777344 319.144531 C 397.777344 316.480469 397.117188 314.171875 395.792969 312.222656 Z M 395.792969 312.238281 " fill-opacity="1" fill-rule="nonzero"/></svg>